<svg width="669" height="260" viewBox="0 0 669 260" fill="none" xmlns="http://www.w3.org/2000/svg">
<g clip-path="url(#clip0_1_401)">
<path d="M232.68 252.307C287.105 252.307 331.225 208.143 331.225 153.664C331.225 99.1841 287.105 55.0198 232.68 55.0198C178.256 55.0198 134.136 99.1841 134.136 153.664C134.136 208.143 178.256 252.307 232.68 252.307Z" fill="#FFD77F"/>
<path d="M603.214 173.146C614.441 173.146 623.543 164.035 623.543 152.796C623.543 141.557 614.441 132.447 603.214 132.447C591.986 132.447 582.885 141.557 582.885 152.796C582.885 164.035 591.986 173.146 603.214 173.146Z" fill="#FFAF01"/>
<path fill-rule="evenodd" clip-rule="evenodd" d="M535.007 217.467C535.007 220.866 537.759 223.63 541.164 223.63C544.568 223.63 547.32 220.875 547.32 217.467C547.32 214.059 544.568 211.304 541.164 211.304C537.759 211.304 535.007 214.059 535.007 217.467Z" fill="#DBDFFF"/>
<path fill-rule="evenodd" clip-rule="evenodd" d="M339.481 42.3002C339.481 42.3002 340 29.9474 335.424 22.0491H320.671C320.671 22.0491 328.696 32.2462 329.652 42.658L339.49 42.3002H339.481Z" fill="url(#paint0_linear_1_401)"/>
<path fill-rule="evenodd" clip-rule="evenodd" d="M360.23 60.8161L355.691 36.9333H254.385L261.266 68.2135L360.23 60.8161Z" fill="white"/>
<path fill-rule="evenodd" clip-rule="evenodd" d="M254.385 36.9333L247.934 39.3127V42.9622L232.68 48.8121L240.749 77.1315L261.784 70.7628L254.385 36.9333Z" fill="#A8D7E9"/>
<path fill-rule="evenodd" clip-rule="evenodd" d="M256.244 181.795L328.651 185.901L339.651 255.751L249.435 257.209L227.202 207.807L256.244 181.795Z" fill="url(#paint1_radial_1_401)"/>
<path fill-rule="evenodd" clip-rule="evenodd" d="M249.435 257.209L140.391 255.751L137.808 239.615H147.682L147.039 236.752L143.822 235.822L137.808 203.46H142.106L141.463 199.077L144.465 198.316L142.106 181.795H256.244V198.316L252.482 199.077V203.46H251.133L252.518 238.926L256.244 239.615V242.262H246.834L249.435 257.209Z" fill="white"/>
<g style="mix-blend-mode:multiply" opacity="0.2">
<path fill-rule="evenodd" clip-rule="evenodd" d="M147.039 236.752L256.244 239.615V242.262L147.682 239.615L147.039 236.752Z" fill="#9A597C"/>
</g>
<path fill-rule="evenodd" clip-rule="evenodd" d="M142.106 203.46H251.132L141.91 202.118L137.129 203.46H142.106Z" fill="url(#paint2_linear_1_401)"/>
<path fill-rule="evenodd" clip-rule="evenodd" d="M141.463 199.076L256.244 200.463L263.205 198.683L256.244 198.316H144.465L141.463 199.076Z" fill="url(#paint3_linear_1_401)"/>
<path fill-rule="evenodd" clip-rule="evenodd" d="M140.623 218.576L125.915 224.185L113.547 233.505L225.835 233.049L142.222 227.217L140.623 218.576Z" fill="url(#paint4_linear_1_401)"/>
<g style="mix-blend-mode:multiply" opacity="0.5">
<path fill-rule="evenodd" clip-rule="evenodd" d="M225.835 233.049L176.465 237.709L186.285 237.781V240.554H176.465L163.624 252.468L137.808 239.615H147.682L147.039 236.752L143.822 235.822L143.304 233.049H225.835Z" fill="#9A6D92"/>
</g>
<path fill-rule="evenodd" clip-rule="evenodd" d="M256.244 191.831H247.201L118.784 192.77L142.919 187.502L256.244 191.831Z" fill="url(#paint5_linear_1_401)"/>
<g style="mix-blend-mode:multiply" opacity="0.5">
<path fill-rule="evenodd" clip-rule="evenodd" d="M256.244 191.831L189.073 198.316L181.817 199.39L179.565 202.118L159.969 202.341L157.378 203.46L139.086 210.338L137.808 203.46L141.91 202.118L141.463 199.077L144.465 198.316L143.67 192.77L256.244 191.831Z" fill="#9A6D92"/>
</g>
<path fill-rule="evenodd" clip-rule="evenodd" d="M269.389 64.1257L371.883 60.3867L409.002 218.648L301.147 239.481L269.389 64.1257Z" fill="#2A56F4"/>
<path fill-rule="evenodd" clip-rule="evenodd" d="M267.11 245.143L236.281 76.4428C236.281 76.4428 243.278 67.9989 264.501 64.4746L301.147 239.49L267.101 245.152L267.11 245.143Z" fill="url(#paint6_radial_1_401)"/>
<path fill-rule="evenodd" clip-rule="evenodd" d="M282.551 173.226C282.551 173.226 266.127 175.91 257.558 178.691L237.792 78.0797C237.792 78.0797 244.118 70.8523 261.257 68.2046L282.551 173.217V173.226Z" fill="white"/>
<g style="mix-blend-mode:multiply" opacity="0.5">
<path fill-rule="evenodd" clip-rule="evenodd" d="M265.028 211.367C266.574 220.705 272.507 227.494 278.28 226.528C284.052 225.571 287.475 217.226 285.92 207.887C284.374 198.549 278.441 191.76 272.668 192.726C266.895 193.683 263.473 202.028 265.028 211.367Z" fill="#9A2463"/>
</g>
<path fill-rule="evenodd" clip-rule="evenodd" d="M264.653 209.095C266.199 218.433 272.132 225.223 277.905 224.256C283.677 223.299 287.1 214.954 285.545 205.615C283.999 196.277 278.065 189.488 272.293 190.454C266.52 191.411 263.098 199.757 264.653 209.095Z" fill="#D5E9F2"/>
<path fill-rule="evenodd" clip-rule="evenodd" d="M266.583 208.773C267.753 215.839 272.248 220.974 276.609 220.249C277.145 220.16 277.663 219.981 278.137 219.739C281.559 217.959 283.418 212.342 282.39 206.152C281.363 199.953 277.788 195.248 273.973 194.667C273.445 194.586 272.9 194.586 272.355 194.676C267.995 195.4 265.394 201.715 266.574 208.782L266.583 208.773Z" fill="#5A448E"/>
<path fill-rule="evenodd" clip-rule="evenodd" d="M269.737 208.254C270.765 214.444 274.339 219.149 278.146 219.739C281.568 217.959 283.427 212.342 282.399 206.152C281.371 199.953 277.797 195.248 273.982 194.667C270.568 196.456 268.709 202.064 269.737 208.254Z" fill="url(#paint7_radial_1_401)"/>
<g style="mix-blend-mode:soft-light">
<path fill-rule="evenodd" clip-rule="evenodd" d="M280.809 194.551L278.87 196.51C278.87 196.51 275.867 193.048 271.212 193.987L270.309 191.125C270.309 191.125 274.813 188.164 280.809 194.56V194.551Z" fill="white"/>
</g>
<g style="mix-blend-mode:soft-light">
<path fill-rule="evenodd" clip-rule="evenodd" d="M277.297 224.364L275.921 221.009C275.921 221.009 271.256 220.634 268.549 215.884L268.209 218.576C268.209 218.576 271.971 224.713 277.297 224.373V224.364Z" fill="white"/>
</g>
<path fill-rule="evenodd" clip-rule="evenodd" d="M264.929 86.6847C264.929 86.6847 253.143 85.9422 240.749 93.116L243.617 107.741C243.617 107.741 250.221 103.608 268.021 101.891L264.92 86.6847H264.929Z" fill="url(#paint8_radial_1_401)"/>
<g style="mix-blend-mode:multiply" opacity="0.2">
<path fill-rule="evenodd" clip-rule="evenodd" d="M269.675 110.013C269.675 110.013 255.547 111.122 245.199 115.8L246.772 123.824C246.772 123.824 256.012 120.138 271.22 117.607L269.675 110.013Z" fill="#6A1760"/>
</g>
<path fill-rule="evenodd" clip-rule="evenodd" d="M264.51 64.4746L269.389 64.1257L305.856 238.577L301.147 239.481L264.51 64.4746Z" fill="url(#paint9_radial_1_401)"/>
<g style="mix-blend-mode:screen" opacity="0.4">
<path d="M269.736 64.0728L269.08 64.21L305.49 238.67L306.146 238.533L269.736 64.0728Z" fill="url(#paint10_radial_1_401)"/>
</g>
<path fill-rule="evenodd" clip-rule="evenodd" d="M337.023 74.4033L441.278 83.3571L449.454 252.567L339.651 255.474L337.023 74.4033Z" fill="#E34C1A"/>
<path fill-rule="evenodd" clip-rule="evenodd" d="M305.141 255.474L302.353 81.2194C302.353 81.2194 310.636 73.9204 332.154 73.9204L339.651 255.465H305.141V255.474Z" fill="#E34C1A"/>
<path fill-rule="evenodd" clip-rule="evenodd" d="M332.154 185.955C332.154 185.955 315.515 185.91 306.597 187.27L303.568 83.1246C303.568 83.1246 310.994 76.9348 328.338 77.1405L332.145 185.964L332.154 185.955Z" fill="white"/>
<g style="mix-blend-mode:multiply" opacity="0.5">
<path d="M319.206 238.685C325.054 238.685 329.795 230.887 329.795 221.269C329.795 211.651 325.054 203.853 319.206 203.853C313.358 203.853 308.617 211.651 308.617 221.269C308.617 230.887 313.358 238.685 319.206 238.685Z" fill="#9A2463"/>
</g>
<path d="M319.206 236.35C325.054 236.35 329.795 228.553 329.795 218.934C329.795 209.316 325.054 201.519 319.206 201.519C313.358 201.519 308.617 209.316 308.617 218.934C308.617 228.553 313.358 236.35 319.206 236.35Z" fill="#D5E9F2"/>
<path fill-rule="evenodd" clip-rule="evenodd" d="M310.574 218.934C310.574 226.215 314.166 232.11 318.589 232.11C319.134 232.11 319.67 232.021 320.18 231.851C323.843 230.634 326.605 225.321 326.605 218.934C326.605 212.548 323.843 207.234 320.18 206.018C319.67 205.848 319.134 205.759 318.589 205.759C314.166 205.759 310.574 211.653 310.574 218.934Z" fill="#5A448E"/>
<path fill-rule="evenodd" clip-rule="evenodd" d="M313.764 218.934C313.764 225.312 316.525 230.625 320.18 231.851C323.843 230.634 326.604 225.321 326.604 218.934C326.604 212.548 323.843 207.235 320.18 206.018C316.525 207.244 313.764 212.557 313.764 218.934Z" fill="url(#paint11_radial_1_401)"/>
<g style="mix-blend-mode:soft-light">
<path fill-rule="evenodd" clip-rule="evenodd" d="M326.944 207.047L324.719 208.684C324.719 208.684 322.324 204.712 317.571 204.882L317.142 201.859C317.142 201.859 322.065 199.64 326.944 207.047Z" fill="white"/>
</g>
<g style="mix-blend-mode:soft-light">
<path fill-rule="evenodd" clip-rule="evenodd" d="M318.589 236.341L317.776 232.745C317.776 232.745 313.237 231.591 311.342 226.376L310.574 229.015C310.574 229.015 313.281 235.795 318.589 236.341Z" fill="white"/>
</g>
<path fill-rule="evenodd" clip-rule="evenodd" d="M328.919 93.5991C328.919 93.5991 317.427 93.5634 304.023 98.6888L304.461 113.823C304.461 113.823 310.484 111.865 329.464 109.378L328.91 93.5991H328.919Z" fill="url(#paint12_radial_1_401)"/>
<g style="mix-blend-mode:multiply" opacity="0.2">
<path fill-rule="evenodd" clip-rule="evenodd" d="M329.786 118.448C329.786 118.448 315.676 119.208 304.703 122.169L304.944 130.479C304.944 130.479 314.666 128.323 330.08 128.323L329.786 118.448Z" fill="#6A1760"/>
</g>
<path fill-rule="evenodd" clip-rule="evenodd" d="M332.154 73.9294L337.024 74.4035L344.441 255.349L339.651 255.474L332.154 73.9294Z" fill="#E34C1A"/>
<g style="mix-blend-mode:screen" opacity="0.4">
<path d="M337.352 74.37L336.674 74.3979L344.125 255.342L344.803 255.314L337.352 74.37Z" fill="url(#paint13_radial_1_401)"/>
</g>
<g style="mix-blend-mode:multiply" opacity="0.8">
<path fill-rule="evenodd" clip-rule="evenodd" d="M356.013 101.953L348.694 103.707L354.181 254.776H375.904L365.038 103.707L356.013 101.953Z" fill="#9A2463"/>
</g>
<path fill-rule="evenodd" clip-rule="evenodd" d="M375.904 254.776L367.63 147.626L358.944 138.001L355.691 98.0623L482.062 101.345L490.533 254.776H375.904Z" fill="url(#paint14_linear_1_401)"/>
<path fill-rule="evenodd" clip-rule="evenodd" d="M490.533 254.776L482.062 101.345L369.077 93.5989L377.45 254.776H490.533Z" fill="url(#paint15_radial_1_401)"/>
<path fill-rule="evenodd" clip-rule="evenodd" d="M369.077 93.5989L367.629 95.3073L375.904 254.776H377.45L369.077 93.5989Z" fill="url(#paint16_radial_1_401)"/>
<path fill-rule="evenodd" clip-rule="evenodd" d="M355.691 98.0623L354.181 100.039L357.094 138.529L366.307 148.404L374.894 254.776H375.904L367.63 147.626L358.944 138.001L355.691 98.0623Z" fill="url(#paint17_radial_1_401)"/>
<g style="mix-blend-mode:multiply" opacity="0.5">
<path fill-rule="evenodd" clip-rule="evenodd" d="M362.384 98.2324L375.904 254.776L367.63 98.3755L362.384 98.2324Z" fill="#9A2463"/>
</g>
<g style="mix-blend-mode:multiply" opacity="0.8">
<path fill-rule="evenodd" clip-rule="evenodd" d="M302.63 98.6885L280.809 101.953L293.292 180.283L289.503 183.843L285.178 242.137L304.864 238.577L302.63 98.6885Z" fill="#9A4F8B"/>
</g>
<g style="mix-blend-mode:multiply" opacity="0.5">
<path fill-rule="evenodd" clip-rule="evenodd" d="M385.787 125.165L379.907 128.117L382.874 254.776L402.488 255L385.787 125.165Z" fill="#9A2463"/>
</g>
<path fill-rule="evenodd" clip-rule="evenodd" d="M397.386 105.567L393.722 106.802L394.142 112.303L389.593 113.367L389.209 112.687L385 113.367L395.205 253.488H397.386V255H405.848L408.922 254.776L418.733 249.284L397.386 105.567Z" fill="url(#paint18_radial_1_401)"/>
<path fill-rule="evenodd" clip-rule="evenodd" d="M484.18 252.138L502.793 118.018L407.09 98.3577L395.831 242.262L484.18 252.138Z" fill="url(#paint19_linear_1_401)"/>
<path fill-rule="evenodd" clip-rule="evenodd" d="M390.827 136.364L387.637 107.419L393.82 108.099L394.142 112.303L389.594 113.367L390.827 136.364Z" fill="url(#paint20_linear_1_401)"/>
<path fill-rule="evenodd" clip-rule="evenodd" d="M397.386 105.567H412.201L418.984 254.776H408.922L397.386 105.567Z" fill="url(#paint21_linear_1_401)"/>
<path fill-rule="evenodd" clip-rule="evenodd" d="M387.636 107.419L386.877 108.34L390.076 136.364H390.827L387.636 107.419Z" fill="url(#paint22_radial_1_401)"/>
<path fill-rule="evenodd" clip-rule="evenodd" d="M407.09 98.3577L406.286 99.3774L395.831 242.262L407.09 98.3577Z" fill="url(#paint23_radial_1_401)"/>
<path fill-rule="evenodd" clip-rule="evenodd" d="M497.074 118.528L400.245 110.281L413.971 255H505.483L497.074 118.528Z" fill="white"/>
<path fill-rule="evenodd" clip-rule="evenodd" d="M413.97 255H412.353L399.932 110.281H400.245L413.97 255Z" fill="url(#paint24_radial_1_401)"/>
<g style="mix-blend-mode:multiply" opacity="0.5">
<path fill-rule="evenodd" clip-rule="evenodd" d="M410.253 111.131V122.231L411.665 111.256L410.253 111.131Z" fill="#884863"/>
</g>
<g style="mix-blend-mode:multiply" opacity="0.2">
<path fill-rule="evenodd" clip-rule="evenodd" d="M411.2 143.771L485.832 146.186L485.663 143.61L410.959 141.132L411.2 143.771Z" fill="#6A1760"/>
<path fill-rule="evenodd" clip-rule="evenodd" d="M412.961 163.181L487.102 165.122L486.923 162.555L412.729 160.542L412.961 163.181Z" fill="#6A1760"/>
<path fill-rule="evenodd" clip-rule="evenodd" d="M411.647 148.619L491.721 151.096L491.56 148.52L411.406 145.98L411.647 148.619Z" fill="#6A1760"/>
<path fill-rule="evenodd" clip-rule="evenodd" d="M413.863 173.056L493.267 174.89L493.097 172.322L413.622 170.417L413.863 173.056Z" fill="#6A1760"/>
<path fill-rule="evenodd" clip-rule="evenodd" d="M445.612 178.673L493.58 179.702L493.41 177.135L445.407 176.062L445.612 178.673Z" fill="#6A1760"/>
<path fill-rule="evenodd" clip-rule="evenodd" d="M413.417 168.118L492.954 170.086L492.785 167.51L413.175 165.48L413.417 168.118Z" fill="#6A1760"/>
<path fill-rule="evenodd" clip-rule="evenodd" d="M415.034 185.972L488.585 187.377L488.406 184.801L414.792 183.343L415.034 185.972Z" fill="#6A1760"/>
<path fill-rule="evenodd" clip-rule="evenodd" d="M415.936 195.857L494.706 197.1L494.536 194.533L415.695 193.218L415.936 195.857Z" fill="#6A1760"/>
<path fill-rule="evenodd" clip-rule="evenodd" d="M447.435 201.232L495.018 201.912L494.849 199.345L447.229 198.62L447.435 201.232Z" fill="#6A1760"/>
<path fill-rule="evenodd" clip-rule="evenodd" d="M415.48 190.919L494.393 192.288L494.232 189.72L415.248 188.28L415.48 190.919Z" fill="#6A1760"/>
<path fill-rule="evenodd" clip-rule="evenodd" d="M417.071 208.361L490.042 209.22L489.863 206.644L416.83 205.723L417.071 208.361Z" fill="#6A1760"/>
<path fill-rule="evenodd" clip-rule="evenodd" d="M468.533 218.666L496.118 218.907L495.957 216.331L468.345 216.072L468.533 218.666Z" fill="#6A1760"/>
<path fill-rule="evenodd" clip-rule="evenodd" d="M470.418 244.015H497.753L497.663 242.727L470.32 242.719L470.418 244.015Z" fill="#6A1760"/>
<path fill-rule="evenodd" clip-rule="evenodd" d="M417.518 213.299L495.805 214.095L495.644 211.519L417.277 210.66L417.518 213.299Z" fill="#6A1760"/>
<path fill-rule="evenodd" clip-rule="evenodd" d="M434.299 154.129L492.025 155.819L491.864 153.252L434.085 151.508L434.299 154.129Z" fill="#6A1760"/>
</g>
<g style="mix-blend-mode:multiply" opacity="0.5">
<path fill-rule="evenodd" clip-rule="evenodd" d="M410.101 254.776L409.574 244.015L402.828 152.769L402.363 153.028L399.235 112.92H400.245L412.326 254.776H410.101Z" fill="#9A597C"/>
</g>
<g style="mix-blend-mode:multiply" opacity="0.2">
<path d="M420.333 232.951C420.333 224.757 426.293 218.093 433.621 218.093C440.948 218.093 446.908 224.757 446.908 232.951C446.908 241.144 440.948 247.808 433.621 247.808C426.293 247.808 420.333 241.144 420.333 232.951ZM421.682 232.951C421.682 240.402 427.044 246.457 433.621 246.457C440.197 246.457 445.559 240.393 445.559 232.951C445.559 225.509 440.197 219.444 433.621 219.444C427.044 219.444 421.682 225.509 421.682 232.951Z" fill="#6A1760"/>
<path d="M437.141 239.498C439.179 238.103 440.403 235.67 440.412 232.986H440.76C440.752 235.786 439.474 238.326 437.338 239.793L437.141 239.507V239.498ZM426.481 232.959V232.897H426.829V232.959C426.829 235.643 428.045 238.085 430.073 239.489L429.877 239.775C427.75 238.309 426.481 235.759 426.481 232.959ZM433.621 225.303C432.388 225.303 431.181 225.678 430.127 226.394L429.93 226.108C431.038 225.356 432.316 224.954 433.621 224.954C434.925 224.954 436.266 225.374 437.392 226.161L437.195 226.448C436.123 225.696 434.89 225.303 433.63 225.303H433.621Z" fill="#6A1760"/>
<path d="M421.968 232.951C421.968 225.848 427.196 220.07 433.621 220.07C440.045 220.07 445.273 225.848 445.273 232.951C445.273 240.053 440.045 245.822 433.621 245.822C427.196 245.822 421.968 240.044 421.968 232.951ZM425.578 232.951C425.578 238.058 429.188 242.218 433.621 242.218C438.053 242.218 441.663 238.058 441.663 232.951C441.663 227.843 438.053 223.684 433.621 223.684C429.188 223.684 425.578 227.843 425.578 232.951Z" fill="#6A1760"/>
</g>
<g style="mix-blend-mode:multiply">
<path fill-rule="evenodd" clip-rule="evenodd" d="M487.289 141.677L488.29 147.509L493.464 148.216L493.777 152.796L409.199 150.479V145.667L455.013 146.525L409.199 144.2L408.296 139.164L487.289 141.677Z" fill="#FFFF00"/>
</g>
<g style="mix-blend-mode:multiply">
<path fill-rule="evenodd" clip-rule="evenodd" d="M492.025 210.66L491.722 205.722L415.695 204.22V209.22L492.025 210.66Z" fill="#FFFF00"/>
</g>
<path d="M494.688 240.768C493.741 241.547 492.427 241.6 491.275 241.43C490.676 241.341 490.104 241.216 489.693 240.786C489.264 240.393 488.96 239.874 488.683 239.355C488.156 238.291 487.834 237.119 487.647 235.938C487.486 234.766 487.352 233.523 487.691 232.423C487.79 232.163 487.924 231.913 488.129 231.815C488.335 231.716 488.558 231.806 488.746 232.011C489.112 232.432 489.353 233.004 489.541 233.559C489.925 234.695 490.158 235.893 490.309 237.092C490.461 238.291 490.515 239.507 490.381 240.706C490.336 241.001 490.292 241.296 490.202 241.573C490.104 241.833 489.979 242.146 489.72 242.146C489.184 242.209 488.755 241.645 488.415 241.189C487.727 240.205 487.244 239.087 486.574 238.058C486.396 237.799 486.226 237.539 485.967 237.316C485.85 237.199 485.681 237.101 485.484 237.056C485.377 237.056 485.27 237.021 485.162 237.083C485.037 237.128 484.957 237.199 484.903 237.298C484.698 237.665 484.742 237.996 484.76 238.309C484.796 238.622 484.85 238.935 484.939 239.23C485.109 239.829 485.305 240.42 485.672 240.965C485.761 241.099 485.859 241.234 486.02 241.359C486.11 241.421 486.19 241.475 486.297 241.493C486.324 241.493 486.36 241.511 486.413 241.511C486.44 241.538 486.682 241.448 486.673 241.26C486.646 241.064 486.601 241.082 486.574 241.019C486.342 240.733 486.101 240.563 485.842 240.375C485.582 240.196 485.314 240.026 485.019 239.892C484.725 239.767 484.412 239.632 484.01 239.686C483.25 239.856 482.884 240.5 482.544 240.956C482.464 241.073 482.365 241.189 482.294 241.251C482.249 241.287 482.231 241.287 482.223 241.296C482.133 241.296 482.044 241.305 481.972 241.314C481.668 241.35 481.374 241.395 481.079 241.404C480.507 241.43 479.899 241.386 479.506 241.055C479.309 240.894 479.229 240.661 479.032 240.348C478.836 240.089 478.621 239.856 478.389 239.65C477.933 239.23 477.442 238.863 476.932 238.523C474.904 237.164 472.679 236.09 470.311 235.518V235.563C472.608 236.278 474.788 237.396 476.745 238.783C477.227 239.132 477.71 239.507 478.13 239.919C478.344 240.124 478.541 240.339 478.702 240.572C478.827 240.759 478.952 241.135 479.229 241.368C479.783 241.842 480.489 241.869 481.106 241.851C481.418 241.833 481.731 241.797 482.026 241.761C482.097 241.752 482.169 241.743 482.231 241.743C482.374 241.743 482.5 241.672 482.571 241.609C482.732 241.484 482.821 241.35 482.92 241.225C483.268 240.733 483.617 240.232 484.099 240.142C484.546 240.098 485.127 240.437 485.591 240.751C485.824 240.912 486.074 241.108 486.226 241.296C486.235 241.296 486.253 241.377 486.226 241.26C486.217 241.108 486.413 241.046 486.405 241.064C486.422 241.064 486.422 241.064 486.405 241.064C486.36 241.064 486.306 241.019 486.279 240.992C486.199 240.938 486.11 240.831 486.029 240.715C485.716 240.25 485.502 239.677 485.341 239.114C485.189 238.577 485.055 237.897 485.234 237.495C485.288 237.343 485.529 237.396 485.734 237.575C485.94 237.745 486.119 237.987 486.288 238.228C486.967 239.212 487.486 240.321 488.218 241.314C488.397 241.565 488.603 241.797 488.844 242.012C489.085 242.2 489.398 242.423 489.755 242.334C490.158 242.28 490.283 241.878 490.381 241.609C490.479 241.305 490.515 241.001 490.551 240.697C490.658 239.471 490.569 238.255 490.461 237.047C490.318 235.84 490.122 234.632 489.782 233.46C489.595 232.879 489.398 232.289 488.978 231.779C488.79 231.528 488.361 231.305 487.995 231.475C487.638 231.636 487.468 231.976 487.352 232.271C486.967 233.505 487.084 234.757 487.271 235.974C487.486 237.182 487.825 238.38 488.388 239.48C488.674 240.026 489.014 240.563 489.505 240.974C489.738 241.189 490.023 241.359 490.327 241.457C490.64 241.547 490.935 241.591 491.239 241.636C492.436 241.779 493.794 241.627 494.715 240.777L494.679 240.751L494.688 240.768Z" fill="#6A1760"/>
<path d="M485.645 235.965C485.6 235.232 485.154 234.57 484.582 234.114C484.278 233.908 483.947 233.72 483.59 233.631C483.241 233.532 482.875 233.505 482.518 233.55C483.188 233.809 483.804 234.042 484.314 234.462C484.85 234.838 485.261 235.366 485.645 235.965Z" fill="#6A1760"/>
<g style="mix-blend-mode:multiply" opacity="0.5">
<path fill-rule="evenodd" clip-rule="evenodd" d="M404.999 110.684L402.828 125.988C402.828 125.988 403.248 129.414 406.286 130.085C409.324 130.756 410.968 127.786 410.968 127.786C410.968 127.786 408.234 129.19 406.286 128.52C404.338 127.849 404.043 125.004 404.043 125.004L406.116 110.791L404.999 110.693V110.684Z" fill="#884863"/>
</g>
<path fill-rule="evenodd" clip-rule="evenodd" d="M493.142 121.891C493.142 121.891 489.514 102.58 496.261 94.556L486.414 90.2178C486.414 90.2178 481.848 104.699 484.984 121.104L493.151 121.883L493.142 121.891Z" fill="url(#paint25_linear_1_401)"/>
<path fill-rule="evenodd" clip-rule="evenodd" d="M190.646 159.174L131.205 111.918L126.397 118.403L187.402 163.574L190.646 159.174Z" fill="url(#paint26_linear_1_401)"/>
<path fill-rule="evenodd" clip-rule="evenodd" d="M190.646 159.174L197.938 167.949L197.08 168.19L187.402 163.575L186.562 162.412L188.028 162.465L187.483 160.56L189.833 160.274L189.1 158.735L190.646 159.174Z" fill="#FFAA68"/>
<path fill-rule="evenodd" clip-rule="evenodd" d="M196.124 165.757L195.391 167.385L197.08 168.19L197.938 167.949L196.124 165.757Z" fill="url(#paint27_linear_1_401)"/>
<path fill-rule="evenodd" clip-rule="evenodd" d="M132.903 113.269L131.982 115.398L129.623 118.6L128.167 119.709L126.397 118.403L131.205 111.918L132.903 113.269Z" fill="url(#paint28_radial_1_401)"/>
<path fill-rule="evenodd" clip-rule="evenodd" d="M131.205 111.918L130.544 113.85L128.078 117.204L126.407 118.403L123.699 115.594C123.699 115.594 123.949 113.188 127.711 110.147L131.214 111.918H131.205Z" fill="#FF3E79"/>
<g style="mix-blend-mode:multiply" opacity="0.5">
<path fill-rule="evenodd" clip-rule="evenodd" d="M128.068 117.204L188.028 162.465L186.563 162.412L187.402 163.574L126.397 118.403L128.068 117.204Z" fill="#9C4C7A"/>
</g>
<path style="mix-blend-mode:screen" fill-rule="evenodd" clip-rule="evenodd" d="M190.646 159.174L197.938 167.949L197.455 168.083L189.467 159.997L130.535 113.85L131.205 111.918L190.646 159.174Z" fill="url(#paint29_linear_1_401)"/>
<path style="mix-blend-mode:screen" fill-rule="evenodd" clip-rule="evenodd" d="M127.702 110.147C127.702 110.147 126.791 114.226 123.69 115.594C123.69 115.594 124.047 112.321 127.702 110.147Z" fill="url(#paint30_linear_1_401)"/>
<path fill-rule="evenodd" clip-rule="evenodd" d="M497.369 233.854L496.547 234.65L495.921 234.14L496.592 232.074L498.218 233.022L497.369 233.854Z" fill="url(#paint31_radial_1_401)"/>
<path fill-rule="evenodd" clip-rule="evenodd" d="M549.938 155.587L553.924 148.735C553.924 148.735 552.637 145.828 550.26 145.917L545.274 152.528L549.938 155.587Z" fill="url(#paint32_radial_1_401)"/>
<path fill-rule="evenodd" clip-rule="evenodd" d="M504.214 227.718L498.906 224.319L496.351 231.931L498.585 233.228L504.214 227.718Z" fill="url(#paint33_radial_1_401)"/>
<path fill-rule="evenodd" clip-rule="evenodd" d="M504.214 227.718C504.214 227.718 511.854 221.197 518.636 205.839L512.489 201.698C512.489 201.698 500.827 214.775 498.915 224.328L504.223 227.727L504.214 227.718Z" fill="url(#paint34_radial_1_401)"/>
<path fill-rule="evenodd" clip-rule="evenodd" d="M518.636 205.839L550.707 156.714C550.707 156.714 548.893 153.037 543.782 151.937L512.488 201.697L518.636 205.839Z" fill="url(#paint35_radial_1_401)"/>
<path fill-rule="evenodd" clip-rule="evenodd" d="M542.093 154.621L539.957 153.377C539.957 153.377 535.159 156.615 530.932 164.37C526.697 172.126 525.356 177.179 522.22 182.341L522.381 183.79C522.381 183.79 522.997 182.797 525.991 178.485C525.991 178.485 535.909 159.755 540.565 155.694L541.2 156.168L542.102 154.621H542.093Z" fill="url(#paint36_radial_1_401)"/>
<path fill-rule="evenodd" clip-rule="evenodd" d="M545.56 164.603C545.56 164.603 542.906 161.276 538.429 160.444L536.061 164.21C536.061 164.21 540.172 165.909 543.129 168.324L545.56 164.603Z" fill="url(#paint37_radial_1_401)"/>
<path style="mix-blend-mode:screen" opacity="0.4" fill-rule="evenodd" clip-rule="evenodd" d="M515.062 201.107L545.953 153.27C545.953 153.27 544.783 152.366 543.8 152.554L513.99 200.704L515.053 201.107H515.062Z" fill="url(#paint38_radial_1_401)"/>
<path fill-rule="evenodd" clip-rule="evenodd" d="M431.599 43.0551L425.152 39.751C425.152 39.751 421.076 43.3599 415.399 40.5665C409.713 37.7694 409.6 31.7782 409.6 31.7782L403.153 28.4741C403.153 28.4741 395.31 42.7994 397.077 50.5595C398.979 58.2135 406.816 61.4528 406.816 61.4528C406.816 61.4528 414.918 64.9966 421.447 61.3282C427.831 57.8103 431.591 43.0714 431.591 43.0714L431.599 43.0551Z" fill="url(#paint39_linear_1_401)"/>
<path fill-rule="evenodd" clip-rule="evenodd" d="M403.157 28.4667L404.171 28.4302L404.647 28.8977L406.692 29.2044L407.203 28.3054L408.721 28.2389L418.947 44.9671L425.148 39.74L434.043 41.0996L428.943 64.2393C428.943 64.2393 419.804 70.868 402.583 58.7572C402.583 58.7572 397.885 53.5392 398.631 44.8244C399.393 36.2049 403.144 28.4512 403.144 28.4512L403.157 28.4667Z" fill="url(#paint40_linear_1_401)"/>
<path fill-rule="evenodd" clip-rule="evenodd" d="M428.951 64.2435C422.055 68.6004 414.277 65.0544 414.277 65.0544C414.277 65.0544 405.31 61.6726 403.238 53.3255C401.306 44.8642 408.726 28.2518 408.726 28.2518C412.344 29.046 414.737 30.8905 417.224 32.5708C417.224 32.5708 417.356 39.1096 423.506 42.1145C429.652 45.1075 434.047 41.1123 434.047 41.1123C436.615 41.8484 437.525 42.373 439.884 44.1629C439.884 44.1629 434.629 60.5764 428.948 64.2516L428.951 64.2435Z" fill="#E34C1A"/>
<path style="mix-blend-mode:multiply" fill-rule="evenodd" clip-rule="evenodd" d="M434.05 41.1055C434.05 41.1055 423.895 62.0715 417.11 58.2141C410.324 54.3566 417.228 32.5645 417.228 32.5645C417.228 32.5645 417.359 39.1029 423.51 42.1076C429.655 45.1004 434.05 41.1055 434.05 41.1055Z" fill="url(#paint41_linear_1_401)"/>
<path style="mix-blend-mode:multiply" fill-rule="evenodd" clip-rule="evenodd" d="M397.085 50.5388L403.109 52.585C403.109 52.585 404.578 60.772 414.056 64.9608C414.056 64.9608 405.726 61.2461 402.155 58.4239C398.581 55.6099 397.082 50.547 397.082 50.547L397.085 50.5388Z" fill="url(#paint42_linear_1_401)"/>
<path fill-rule="evenodd" clip-rule="evenodd" d="M417.714 62.6964L412.816 60.3495L415.107 57.6195C414.876 56.8692 414.902 55.9595 415.245 55.0839C415.651 54.0696 416.378 53.3653 417.171 53.1024C417.645 52.9416 418.141 52.9479 418.594 53.1602C419.802 53.7197 420.251 55.489 419.607 57.1222C419.292 57.9125 418.781 58.5272 418.196 58.8731L417.722 62.6801L417.714 62.6964Z" fill="url(#paint43_linear_1_401)"/>
<path fill-rule="evenodd" clip-rule="evenodd" d="M412.816 60.3489L415.106 57.6191C414.875 56.8688 414.901 55.9592 415.245 55.0837C415.651 54.0694 416.378 53.3652 417.171 53.1023C417.536 53.9028 417.56 54.9623 417.162 55.9802C416.847 56.7704 416.332 57.3733 415.755 57.7228L415.268 61.5141L412.819 60.3407L412.816 60.3489Z" fill="#8E003E"/>
<path style="mix-blend-mode:multiply" fill-rule="evenodd" clip-rule="evenodd" d="M406.692 29.2042C406.692 29.2042 399.743 44.6142 401.407 52.0141C403.405 60.9163 414.043 64.9571 414.043 64.9571C414.043 64.9571 398.361 59.9845 398.273 49.2896C398.219 40.4823 404.638 28.8939 404.638 28.8939L406.684 29.2005L406.692 29.2042Z" fill="url(#paint44_linear_1_401)"/>
<path fill-rule="evenodd" clip-rule="evenodd" d="M427.254 9.89191C427.254 9.89191 429.47 8.9223 432.511 10.0859C435.552 11.2494 438.43 14.7416 437.499 19.7654C436.576 24.8128 429.524 40.4309 429.524 40.4309L433.336 40.7923C433.336 40.7923 439.902 23.0261 440.507 20.0618C441.329 16.0475 439.021 11.7419 433.314 9.56243C430.358 8.42715 427.238 9.88462 427.238 9.88462L427.254 9.89191Z" fill="white" style="mix-blend-mode:multiply"/>
<path fill-rule="evenodd" clip-rule="evenodd" d="M417.555 8.49878L419.91 9.42434C419.91 9.42434 425.438 2.72971 433.318 4.89027L434.414 3.25314C434.414 3.25314 426.405 -0.386785 417.555 8.49878Z" fill="white"/>
<g style="mix-blend-mode:soft-light">
<path fill-rule="evenodd" clip-rule="evenodd" d="M417.29 9.13189C417.29 9.13189 416.264 10.3296 415.357 12.3746L417.48 13.2261C417.48 13.2261 418.594 11.048 419.527 10.0145L417.29 9.13189Z" fill="white"/>
</g>
<path fill-rule="evenodd" clip-rule="evenodd" d="M83.7555 258.694L81.6734 251.663L36.458 250.67L37.6822 260L83.7555 258.694Z" fill="#C5515C"/>
<path fill-rule="evenodd" clip-rule="evenodd" d="M81.6733 251.663L120.017 252.683L120.964 257.978L83.7554 258.694L81.6733 251.663Z" fill="url(#paint45_radial_1_401)"/>
<path fill-rule="evenodd" clip-rule="evenodd" d="M36.4673 250.671L75.8207 251.663C84.2026 251.127 91.101 248.855 96.6413 245.939C109.527 239.159 115.085 228.872 115.085 228.872L74.7842 226.385C71.5226 231.985 67.5819 236.305 63.4893 239.624C50.7289 249.973 36.4673 250.671 36.4673 250.671Z" fill="url(#paint46_linear_1_401)"/>
<path style="mix-blend-mode:multiply" opacity="0.5" fill-rule="evenodd" clip-rule="evenodd" d="M36.4668 250.67L75.8203 251.663C84.2021 251.127 91.1006 248.855 96.6408 245.939L63.4888 239.624C50.7284 249.973 36.4668 250.67 36.4668 250.67Z" fill="url(#paint47_linear_1_401)"/>
<path fill-rule="evenodd" clip-rule="evenodd" d="M598.192 257.12L574.226 255.322L617.86 228.389C617.86 228.389 639.163 219.032 648.572 226.045C657.982 233.067 650.225 251.833 642.085 254.561C633.944 257.281 597.71 255.706 597.71 255.706L598.192 257.129V257.12Z" fill="url(#paint48_radial_1_401)"/>
<path fill-rule="evenodd" clip-rule="evenodd" d="M632.059 253.765L632.229 239.865L557.445 246.278L557.364 253.515L632.059 253.765Z" fill="url(#paint49_linear_1_401)"/>
<path fill-rule="evenodd" clip-rule="evenodd" d="M557.445 246.278L500.604 246.019L499.585 253.488L557.364 253.515L557.445 246.278Z" fill="url(#paint50_radial_1_401)"/>
<path fill-rule="evenodd" clip-rule="evenodd" d="M632.229 239.865L582.447 240.706L500.604 246.019L557.445 246.278L632.229 239.865Z" fill="url(#paint51_linear_1_401)"/>
<path fill-rule="evenodd" clip-rule="evenodd" d="M499.585 253.488L495.421 253.434L495.403 255.223L557.329 255.465L634.079 254.785L634.275 239.141L628.878 238.13C628.878 238.13 635.544 222.065 646.214 224.99C658.313 228.308 651.244 251.842 642.425 253.667C632.747 255.662 597.719 255.689 597.719 255.689L598.201 257.111C598.201 257.111 633.739 257.254 642.604 254.749C651.736 252.173 659.108 228.308 646.973 224.015C634.838 219.721 626.537 239.785 626.537 239.785L632.238 239.856L632.068 253.756L557.364 253.497L499.594 253.479L499.585 253.488Z" fill="url(#paint52_radial_1_401)"/>
<path fill-rule="evenodd" clip-rule="evenodd" d="M646.964 224.024C646.964 224.024 645.284 222.888 638.279 223.353L599.443 226.457C599.443 226.457 590.543 231.931 588.649 240.598L626.519 239.793C626.519 239.793 634.919 220.482 646.955 224.024H646.964Z" fill="#2A56F4"/>
<g style="mix-blend-mode:multiply" opacity="0.5">
<path fill-rule="evenodd" clip-rule="evenodd" d="M556.909 255.465L556.927 254.204L495.43 253.443L495.403 255.223L556.909 255.465Z" fill="#9A2463"/>
</g>
<g style="mix-blend-mode:multiply" opacity="0.8">
<path fill-rule="evenodd" clip-rule="evenodd" d="M632.229 239.865L630.772 239.99L630.603 253.765H632.059L632.229 239.865Z" fill="#9A4F8B"/>
</g>
<g style="mix-blend-mode:multiply" opacity="0.5">
<path fill-rule="evenodd" clip-rule="evenodd" d="M549.948 250.402L548.822 253.434L543.407 254.034V255.411L537.938 255.465L541.879 250.867L549.948 250.402Z" fill="#9A2463"/>
</g>
<path fill-rule="evenodd" clip-rule="evenodd" d="M549.948 250.402H540.163C540.163 250.402 530.745 252.781 528.52 256.467H539.234C539.234 256.467 542.442 252.594 549.948 250.402Z" fill="url(#paint53_linear_1_401)"/>
<g style="mix-blend-mode:multiply" opacity="0.5">
<path fill-rule="evenodd" clip-rule="evenodd" d="M513.418 246.815L508.101 251.359H499.88L500.184 249.087L513.418 246.815Z" fill="#9A2463"/>
</g>
<path fill-rule="evenodd" clip-rule="evenodd" d="M513.418 246.815H505.51C505.51 246.815 498.477 246.708 493.777 249.767L505.51 249.087C505.51 249.087 507.788 247.584 513.418 246.824V246.815Z" fill="url(#paint54_radial_1_401)"/>
<path fill-rule="evenodd" clip-rule="evenodd" d="M632.229 239.865L621.774 240.33L557.364 243.21V244.74L630.745 241.895L632.229 239.865Z" fill="url(#paint55_linear_1_401)"/>
<path fill-rule="evenodd" clip-rule="evenodd" d="M557.365 243.21L502.802 241.896V243.21L557.365 244.74V243.21Z" fill="url(#paint56_radial_1_401)"/>
<path fill-rule="evenodd" clip-rule="evenodd" d="M632.229 239.865L588.658 240.598L502.802 241.895L557.365 243.21L632.229 239.865Z" fill="url(#paint57_linear_1_401)"/>
<path fill-rule="evenodd" clip-rule="evenodd" d="M511.899 245.286L532.737 246.278H557.445L630.746 241.896L557.365 244.74L530.343 243.989L511.899 245.286Z" fill="#6D4B8B"/>
<path fill-rule="evenodd" clip-rule="evenodd" d="M185.043 24.5547L180.334 10.2966L181.79 8.59709C181.79 8.59709 175.339 7.48793 169.083 12.9532L171.711 13.5704L175.776 27.9359L170.835 31.7464L171.201 33.0344L191.816 26.782L191.2 24.5905L185.052 24.5637L185.043 24.5547Z" fill="url(#paint58_radial_1_401)"/>
<path fill-rule="evenodd" clip-rule="evenodd" d="M191.816 26.7729C191.816 26.7729 183.327 32.4976 171.201 33.0254C171.201 33.0254 179.092 26.5135 191.816 26.7729Z" fill="#3D155A"/>
<mask id="mask0_1_401" style="mask-type:luminance" maskUnits="userSpaceOnUse" x="180" y="29" width="8" height="19">
<path d="M182.549 30.1542L187.116 44.5107L186.678 47.3104L184.676 45.4678L180.315 30.9324C180.315 30.9324 180.816 29.4654 182.549 30.1542Z" fill="white"/>
</mask>
<g mask="url(#mask0_1_401)">
<path d="M187.116 29.4653H180.315V47.3103H187.116V29.4653Z" fill="#8C74B1"/>
<path fill-rule="evenodd" clip-rule="evenodd" d="M178.948 34.0362C180.995 40.9237 183.908 46.1296 185.454 45.6734C187.009 45.2083 186.606 39.251 184.56 32.3635C183.541 28.9197 182.299 25.8964 181.12 23.7854V28.5083H179.359V34.0273H178.939L178.948 34.0362Z" fill="#8C74B1"/>
<path fill-rule="evenodd" clip-rule="evenodd" d="M179.002 34.0185C181.004 40.7718 183.863 45.8793 185.382 45.4321C186.901 44.9759 186.508 39.1349 184.506 32.3815C183.506 29.0004 182.29 26.0396 181.138 23.9734V28.5174H179.368V34.0274H179.002V34.0185Z" fill="#8D75B1"/>
<path fill-rule="evenodd" clip-rule="evenodd" d="M179.056 34.0004C181.022 40.6196 183.819 45.6287 185.311 45.1904C186.803 44.7431 186.419 39.0184 184.453 32.3993C183.47 29.0897 182.282 26.1826 181.147 24.1521V28.5082H179.36V34.0004H179.047H179.056Z" fill="#8D76B2"/>
<path fill-rule="evenodd" clip-rule="evenodd" d="M179.109 33.9825C181.039 40.4765 183.782 45.3783 185.239 44.9489C186.704 44.5106 186.32 38.9022 184.399 32.4083C183.434 29.1613 182.272 26.3168 181.155 24.3311V28.5083H179.359V33.9825H179.1H179.109Z" fill="#8E77B2"/>
<path fill-rule="evenodd" clip-rule="evenodd" d="M179.163 33.9738C181.048 40.3335 183.738 45.1369 185.167 44.7165C186.597 44.2872 186.231 38.795 184.345 32.4352C183.398 29.2598 182.254 26.469 181.173 24.519V28.5174H179.368V33.9738H179.172H179.163Z" fill="#8F78B2"/>
<path fill-rule="evenodd" clip-rule="evenodd" d="M179.216 33.9557C181.066 40.1813 183.693 44.8863 185.096 44.4748C186.499 44.0544 186.133 38.6696 184.292 32.444C183.371 29.3312 182.246 26.5941 181.182 24.6978V28.5172H179.359V33.9557H179.216Z" fill="#8F79B3"/>
<path fill-rule="evenodd" clip-rule="evenodd" d="M179.27 33.9378C181.075 40.0293 183.658 44.6359 185.025 44.2334C186.392 43.8308 186.043 38.5534 184.238 32.4619C183.336 29.4118 182.237 26.7372 181.2 24.8767V28.5083H179.368V33.9378H179.279H179.27Z" fill="#907AB3"/>
<path fill-rule="evenodd" clip-rule="evenodd" d="M179.324 33.92C181.093 39.8773 183.613 44.3855 184.953 43.9919C186.294 43.5894 185.945 38.4371 184.176 32.4799C182.407 26.5226 179.887 22.0144 178.546 22.408L179.36 28.5173V33.9289H179.324V33.92Z" fill="#917BB3"/>
<path fill-rule="evenodd" clip-rule="evenodd" d="M179.377 33.9022C181.111 39.7342 183.568 44.1351 184.882 43.7504C186.195 43.3569 185.856 38.3209 184.122 32.4889C182.389 26.6568 179.931 22.256 178.618 22.6406C177.304 23.0342 177.644 28.0701 179.377 33.9022Z" fill="#917CB4"/>
<path fill-rule="evenodd" clip-rule="evenodd" d="M179.431 33.8932C181.12 39.591 183.533 43.8935 184.811 43.5178C186.088 43.1332 185.758 38.2135 184.069 32.5157C182.38 26.8178 179.967 22.5153 178.689 22.891C177.412 23.2756 177.742 28.1953 179.431 33.8932Z" fill="#927DB4"/>
<path fill-rule="evenodd" clip-rule="evenodd" d="M179.485 33.8753C181.138 39.439 183.488 43.6431 184.739 43.2763C185.99 42.9007 185.668 38.0883 184.015 32.5246C182.362 26.9609 180.012 22.7569 178.761 23.1236C177.51 23.4993 177.831 28.3116 179.485 33.8753Z" fill="#937EB4"/>
<path fill-rule="evenodd" clip-rule="evenodd" d="M179.538 33.8573C181.147 39.2868 183.443 43.3925 184.667 43.0347C185.891 42.668 185.579 37.9719 183.961 32.5424C182.353 27.1129 180.056 23.0072 178.832 23.365C177.608 23.7317 177.921 28.4278 179.538 33.8573Z" fill="#937FB5"/>
<path fill-rule="evenodd" clip-rule="evenodd" d="M179.592 33.8395C181.165 39.1349 183.408 43.1422 184.596 42.7933C185.784 42.4355 185.481 37.8558 183.908 32.5604C182.335 27.265 180.092 23.2578 178.904 23.6066C177.715 23.9555 178.019 28.5442 179.592 33.8395Z" fill="#9480B5"/>
<path fill-rule="evenodd" clip-rule="evenodd" d="M179.645 33.8216C181.182 38.9918 183.363 42.8917 184.524 42.5518C185.686 42.203 185.391 37.7395 183.854 32.5694C182.317 27.4082 180.137 23.4993 178.975 23.8392C177.814 24.188 178.108 28.6515 179.645 33.8216Z" fill="#9581B5"/>
<path fill-rule="evenodd" clip-rule="evenodd" d="M179.708 33.8127C181.2 38.8486 183.327 42.6502 184.462 42.3193C185.597 41.9883 185.302 37.6321 183.809 32.5962C182.317 27.5602 180.19 23.7587 179.056 24.0896C177.921 24.4296 178.216 28.7767 179.708 33.8127Z" fill="#9582B6"/>
<path fill-rule="evenodd" clip-rule="evenodd" d="M179.761 33.7947C181.218 38.6965 183.291 42.3996 184.39 42.0776C185.489 41.7556 185.212 37.5068 183.756 32.614C182.299 27.7122 180.226 24.009 179.127 24.331C178.028 24.662 178.305 28.9018 179.761 33.7947Z" fill="#9683B6"/>
<path fill-rule="evenodd" clip-rule="evenodd" d="M179.815 33.7768C181.227 38.5444 183.247 42.1492 184.319 41.8361C185.391 41.5141 185.114 37.3905 183.702 32.6229C182.29 27.8553 180.271 24.2506 179.199 24.5636C178.126 24.8856 178.403 29.0092 179.815 33.7768Z" fill="#9784B6"/>
<path fill-rule="evenodd" clip-rule="evenodd" d="M179.869 33.759C181.245 38.3925 183.202 41.8989 184.247 41.5947C185.293 41.2817 185.025 37.2744 183.649 32.6409C182.272 28.0075 180.316 24.5011 179.27 24.8052C178.225 25.1183 178.493 29.1256 179.869 33.759Z" fill="#9785B7"/>
<path fill-rule="evenodd" clip-rule="evenodd" d="M179.923 33.75C181.263 38.2492 183.166 41.6572 184.176 41.362C185.186 41.0579 184.927 37.1669 183.595 32.6587C182.255 28.1594 180.351 24.7514 179.342 25.0466C178.332 25.3507 178.591 29.2418 179.923 33.75Z" fill="#9886B7"/>
<path fill-rule="evenodd" clip-rule="evenodd" d="M179.976 33.7322C181.272 38.1063 183.121 41.4069 184.104 41.1207C185.087 40.8255 184.837 37.0508 183.541 32.6767C182.246 28.3027 180.396 25.0021 179.413 25.2883C178.43 25.5835 178.68 29.3582 179.976 33.7322Z" fill="#9987B7"/>
<path fill-rule="evenodd" clip-rule="evenodd" d="M180.03 33.7142C181.29 37.9541 183.077 41.1563 184.033 40.879C184.989 40.5928 184.739 36.9254 183.479 32.6945C182.219 28.4546 180.432 25.2524 179.476 25.5297C178.52 25.8159 178.77 29.4833 180.03 33.7142Z" fill="#9988B8"/>
<path fill-rule="evenodd" clip-rule="evenodd" d="M180.083 33.6963C181.299 37.802 183.041 40.9059 183.962 40.6376C184.882 40.3603 184.65 36.8092 183.425 32.7035C182.21 28.5978 180.468 25.4939 179.547 25.7623C178.627 26.0396 178.859 29.5907 180.083 33.6963Z" fill="#9A89B8"/>
<path fill-rule="evenodd" clip-rule="evenodd" d="M180.137 33.6786C181.316 37.6501 182.996 40.6555 183.89 40.3961C184.783 40.1367 184.551 36.693 183.371 32.7215C182.192 28.75 180.512 25.7445 179.618 26.0039C178.725 26.2633 178.957 29.7071 180.137 33.6786Z" fill="#9B8AB8"/>
<path fill-rule="evenodd" clip-rule="evenodd" d="M180.191 33.6696C181.334 37.5069 182.952 40.414 183.819 40.1546C184.685 39.8952 184.462 36.5766 183.318 32.7304C182.174 28.893 180.557 25.9859 179.69 26.2453C178.823 26.5047 179.047 29.8233 180.191 33.6696Z" fill="#9B8BB9"/>
<path fill-rule="evenodd" clip-rule="evenodd" d="M180.244 33.6516C181.343 37.3637 182.916 40.1634 183.747 39.913C184.578 39.6625 184.363 36.4603 183.264 32.7482C182.165 29.036 180.592 26.2363 179.761 26.4868C178.93 26.7372 179.145 29.9395 180.244 33.6516Z" fill="#9C8CB9"/>
<path fill-rule="evenodd" clip-rule="evenodd" d="M180.298 33.6338C181.361 37.2118 182.871 39.9131 183.676 39.6716C184.48 39.4301 184.274 36.3352 183.211 32.7662C182.148 29.1882 180.637 26.4869 179.833 26.7284C179.029 26.9699 179.235 30.0648 180.298 33.6338Z" fill="#9D8DB9"/>
<path fill-rule="evenodd" clip-rule="evenodd" d="M180.351 33.6159C181.37 37.0597 182.826 39.6627 183.604 39.4301C184.381 39.1975 184.176 36.2189 183.157 32.7751C182.138 29.3314 180.682 26.7284 179.904 26.961C179.127 27.1935 179.332 30.1722 180.351 33.6159Z" fill="#9D8FBA"/>
<path fill-rule="evenodd" clip-rule="evenodd" d="M180.405 33.5979C181.388 36.9075 182.791 39.4121 183.532 39.1885C184.274 38.9648 184.086 36.1025 183.103 32.7929C182.12 29.4833 180.717 26.9787 179.976 27.2024C179.234 27.426 179.422 30.2883 180.405 33.5979Z" fill="#9E90BA"/>
<path fill-rule="evenodd" clip-rule="evenodd" d="M180.458 33.5891C181.406 36.7645 182.746 39.1707 183.461 38.956C184.176 38.7413 183.988 35.9953 183.05 32.8109C182.103 29.6355 180.762 27.2293 180.047 27.444C179.333 27.6587 179.52 30.4047 180.458 33.5891Z" fill="#9F91BA"/>
<path fill-rule="evenodd" clip-rule="evenodd" d="M180.512 33.5711C181.414 36.6213 182.701 38.9201 183.389 38.7144C184.077 38.5087 183.899 35.8789 182.996 32.8287C182.094 29.7785 180.807 27.4797 180.119 27.6854C179.431 27.8911 179.609 30.5209 180.512 33.5711Z" fill="#9F92BB"/>
<path fill-rule="evenodd" clip-rule="evenodd" d="M180.566 33.5533C181.433 36.4694 182.666 38.6698 183.318 38.473C183.97 38.2762 183.801 35.7538 182.943 32.8467C182.076 29.9307 180.843 27.7302 180.19 27.927C179.538 28.1238 179.708 30.6463 180.566 33.5533Z" fill="#A093BB"/>
<path fill-rule="evenodd" clip-rule="evenodd" d="M180.619 33.5355C181.441 36.3173 182.621 38.4194 183.246 38.2315C183.872 38.0437 183.711 35.6375 182.889 32.8557C182.067 30.0738 180.887 27.9718 180.262 28.1596C179.636 28.3475 179.797 30.7536 180.619 33.5355Z" fill="#A194BB"/>
<path fill-rule="evenodd" clip-rule="evenodd" d="M180.673 33.5175C181.46 36.1651 182.577 38.1688 183.175 37.9899C183.774 37.811 183.622 35.5211 182.836 32.8734C182.049 30.2257 180.932 28.2221 180.334 28.401C179.735 28.5799 179.887 30.8698 180.673 33.5175Z" fill="#A195BC"/>
<path fill-rule="evenodd" clip-rule="evenodd" d="M180.727 33.5086C181.477 36.0221 182.541 37.9274 183.104 37.7574C183.666 37.5875 183.523 35.4139 182.773 32.8914C182.022 30.3779 180.959 28.4727 180.396 28.6426C179.833 28.8126 179.976 30.9862 180.727 33.5086Z" fill="#A296BC"/>
<path fill-rule="evenodd" clip-rule="evenodd" d="M180.78 33.4906C181.486 35.8789 182.496 37.6768 183.032 37.5158C183.568 37.3548 183.434 35.2975 182.719 32.9092C182.013 30.521 181.003 28.723 180.467 28.884C179.931 29.0451 180.065 31.1024 180.78 33.4906Z" fill="#A397BC"/>
<path fill-rule="evenodd" clip-rule="evenodd" d="M180.834 33.4726C181.504 35.7267 182.451 37.4262 182.961 37.2742C183.47 37.1221 183.336 35.1721 182.666 32.927C181.995 30.6729 181.048 28.9734 180.539 29.1254C180.03 29.2775 180.164 31.2275 180.834 33.4726Z" fill="#A398BD"/>
<path fill-rule="evenodd" clip-rule="evenodd" d="M180.887 33.4548C181.513 35.5747 182.415 37.1758 182.889 37.0327C183.363 36.8896 183.246 35.0559 182.612 32.936C181.986 30.816 181.084 29.2149 180.61 29.358C180.137 29.5011 180.253 31.3348 180.887 33.4548Z" fill="#A499BD"/>
<path fill-rule="evenodd" clip-rule="evenodd" d="M180.95 33.437C181.54 35.4227 182.38 36.9255 182.826 36.7913C183.273 36.6571 183.157 34.9397 182.567 32.954C181.978 30.9682 181.138 29.4655 180.691 29.5996C180.244 29.7338 180.36 31.4512 180.95 33.437Z" fill="#A59ABD"/>
<path fill-rule="evenodd" clip-rule="evenodd" d="M181.003 33.4279C181.557 35.2795 182.335 36.6838 182.755 36.5586C183.175 36.4334 183.068 34.8322 182.514 32.9717C181.96 31.1201 181.182 29.7158 180.762 29.841C180.342 29.9662 180.449 31.5674 181.003 33.4279Z" fill="#A59BBE"/>
<path fill-rule="evenodd" clip-rule="evenodd" d="M181.057 33.4101C181.567 35.1275 182.299 36.4335 182.684 36.3172C183.068 36.2009 182.969 34.7161 182.46 32.9897C181.951 31.2723 181.218 29.9664 180.834 30.0826C180.45 30.1989 180.548 31.6838 181.057 33.4101Z" fill="#A69CBE"/>
<path fill-rule="evenodd" clip-rule="evenodd" d="M181.111 33.3921C181.584 34.9843 182.254 36.1829 182.612 36.0756C182.969 35.9683 182.88 34.5908 182.406 33.0075C181.933 31.4153 181.263 30.2167 180.905 30.3241C180.548 30.4314 180.637 31.8089 181.111 33.3921Z" fill="#A79DBE"/>
<path fill-rule="evenodd" clip-rule="evenodd" d="M181.164 33.3743C181.593 34.8323 182.21 35.9325 182.541 35.8341C182.871 35.7357 182.782 34.4745 182.353 33.0165C181.924 31.5585 181.307 30.4583 180.977 30.5567C180.646 30.655 180.736 31.9163 181.164 33.3743Z" fill="#A79EBF"/>
<path fill-rule="evenodd" clip-rule="evenodd" d="M181.218 33.3565C181.611 34.6803 182.174 35.6822 182.469 35.5927C182.764 35.5033 182.692 34.3583 182.299 33.0345C181.906 31.7107 181.343 30.7088 181.048 30.7983C180.753 30.8877 180.825 32.0327 181.218 33.3565Z" fill="#A89FBF"/>
<path fill-rule="evenodd" clip-rule="evenodd" d="M181.272 33.3475C181.629 34.5372 182.13 35.4406 182.398 35.3601C182.666 35.2796 182.594 34.2509 182.246 33.0613C181.888 31.8716 181.388 30.9682 181.12 31.0487C180.852 31.1292 180.923 32.1579 181.272 33.3475Z" fill="#A9A0BF"/>
<path fill-rule="evenodd" clip-rule="evenodd" d="M181.325 33.3296C181.638 34.3851 182.085 35.1902 182.326 35.1186C182.567 35.0471 182.505 34.1347 182.192 33.0703C181.879 32.0148 181.432 31.2097 181.191 31.2813C180.95 31.3528 181.012 32.2652 181.325 33.3296Z" fill="#A9A1C0"/>
<path fill-rule="evenodd" clip-rule="evenodd" d="M181.379 33.3117C181.656 34.2419 182.049 34.9396 182.255 34.877C182.46 34.8144 182.407 34.0094 182.139 33.0881C181.862 32.1578 181.468 31.4601 181.263 31.5227C181.057 31.5853 181.111 32.3904 181.379 33.3117Z" fill="#AAA2C0"/>
<path fill-rule="evenodd" clip-rule="evenodd" d="M181.433 33.2938C181.665 34.0899 182.004 34.6892 182.183 34.6355C182.362 34.5819 182.317 33.8931 182.076 33.097C181.844 32.3009 181.504 31.7016 181.325 31.7553C181.147 31.809 181.191 32.4977 181.433 33.2938Z" fill="#ABA3C0"/>
<path fill-rule="evenodd" clip-rule="evenodd" d="M181.486 33.276C181.683 33.938 181.96 34.4389 182.112 34.3941C182.264 34.3494 182.219 33.7769 182.022 33.115C181.826 32.4531 181.549 31.9522 181.397 31.9969C181.245 32.0416 181.29 32.6141 181.486 33.276Z" fill="#ABA4C1"/>
<path fill-rule="evenodd" clip-rule="evenodd" d="M181.54 33.267C181.701 33.7948 181.924 34.1973 182.04 34.1615C182.156 34.1257 182.13 33.6696 181.969 33.1418C181.808 32.6141 181.585 32.2116 181.468 32.2473C181.352 32.2831 181.379 32.7393 181.54 33.267Z" fill="#ACA5C1"/>
<path fill-rule="evenodd" clip-rule="evenodd" d="M181.594 33.2492C181.71 33.6428 181.88 33.9469 181.969 33.92C182.058 33.8932 182.031 33.5533 181.915 33.1508C181.799 32.7572 181.629 32.4531 181.54 32.4799C181.451 32.5068 181.477 32.8467 181.594 33.2492Z" fill="#ADA6C1"/>
<path fill-rule="evenodd" clip-rule="evenodd" d="M181.647 33.2312C181.728 33.4996 181.835 33.6963 181.897 33.6784C181.96 33.6606 181.942 33.428 181.862 33.1686C181.781 32.9002 181.674 32.7035 181.611 32.7213C181.549 32.7392 181.567 32.9718 181.647 33.2312Z" fill="#ADA7C2"/>
<path fill-rule="evenodd" clip-rule="evenodd" d="M181.7 33.2133C181.736 33.3475 181.799 33.4459 181.826 33.437C181.852 33.437 181.843 33.3117 181.808 33.1776C181.772 33.0434 181.709 32.945 181.683 32.9539C181.656 32.9539 181.665 33.0792 181.7 33.2133Z" fill="#AEA8C2"/>
</g>
<g style="mix-blend-mode:multiply" opacity="0.8">
<path fill-rule="evenodd" clip-rule="evenodd" d="M180.324 10.2965C180.324 10.2965 174.927 10.046 171.701 13.5703L169.074 12.9531C169.074 12.9531 174.731 8.40913 181.781 8.59698L180.324 10.2965Z" fill="#9A4F8B"/>
</g>
<path fill-rule="evenodd" clip-rule="evenodd" d="M555.359 73.6789L542.888 82.0306L540.859 81.0821C540.859 81.0821 541.528 87.5901 548.482 92.156L548.364 89.4623L561.111 81.7009L566.113 85.4374L567.262 84.7383L555.673 66.5667L553.726 67.754L555.356 73.6871L555.359 73.6789Z" fill="url(#paint59_radial_1_401)"/>
<path fill-rule="evenodd" clip-rule="evenodd" d="M555.667 66.5567C555.667 66.5567 563.474 73.2048 567.256 84.7296C567.256 84.7296 558.852 78.8769 555.667 66.5567Z" fill="url(#paint60_radial_1_401)"/>
<mask id="mask1_1_401" style="mask-type:luminance" maskUnits="userSpaceOnUse" x="561" y="66" width="16" height="11">
<path d="M561.428 74.5864L574.029 66.3371L576.848 66.0092L575.616 68.4267L562.787 76.5227C562.787 76.5227 561.233 76.432 561.428 74.5864Z" fill="white"/>
</mask>
<g mask="url(#mask1_1_401)">
<path d="M566.817 61.7889L560.738 76.2241L570.772 80.4362L576.851 66.0011L566.817 61.7889Z" fill="#8C74B1"/>
<path fill-rule="evenodd" clip-rule="evenodd" d="M566.137 77.0066C572.218 73.1963 576.456 68.99 575.595 67.6215C574.734 66.2529 569.102 68.237 563.012 72.0438C556.931 75.854 552.693 80.0602 553.554 81.4288L559.484 76.732L559.707 76.8255L557.881 81.1627C560.158 80.3659 563.091 78.914 566.129 77.0031L566.137 77.0066Z" fill="#8C74B1"/>
<path fill-rule="evenodd" clip-rule="evenodd" d="M566.109 76.9565C572.083 73.2173 576.234 69.1007 575.383 67.7555C574.54 66.4138 569.013 68.3549 563.039 72.0941C557.066 75.8333 552.914 79.9499 553.766 81.2951L559.484 76.7321L559.773 76.8534L558.012 81.0342C560.246 80.2482 563.117 78.8284 566.109 76.9565Z" fill="#8D75B1"/>
<path fill-rule="evenodd" clip-rule="evenodd" d="M566.071 76.911C571.925 73.2477 575.997 69.2043 575.163 67.886C574.338 66.5711 568.917 68.4694 563.067 72.1444C557.213 75.8078 553.141 79.8512 553.974 81.1695L559.481 76.7404L559.836 76.8894L558.141 80.9138C560.328 80.1469 563.148 78.7544 566.075 76.9228L566.071 76.911Z" fill="#8D76B2"/>
<path fill-rule="evenodd" clip-rule="evenodd" d="M566.043 76.8608C571.781 73.265 575.767 69.3113 574.96 68.0233C574.144 66.7318 568.841 68.6023 563.106 72.1899C557.368 75.7856 553.382 79.7394 554.189 81.0274L559.488 76.7239L559.9 76.8971L558.271 80.7652C560.415 80.0091 563.173 78.6488 566.046 76.8526L566.043 76.8608Z" fill="#8E77B2"/>
<path fill-rule="evenodd" clip-rule="evenodd" d="M566.016 76.8105C571.635 73.2906 575.541 69.4101 574.752 68.1489C573.962 66.8878 568.756 68.7119 563.137 72.2319C557.518 75.7518 553.612 79.6323 554.401 80.8935L559.488 76.7239L559.966 76.9248L558.4 80.6448C560.497 79.9078 563.208 78.5664 566.016 76.8105Z" fill="#8F78B2"/>
<path fill-rule="evenodd" clip-rule="evenodd" d="M565.985 76.7685C571.485 73.3243 575.317 69.5287 574.537 68.2909C573.757 67.0531 568.661 68.8461 563.161 72.2902C557.661 75.7344 553.83 79.53 554.61 80.7678C555.389 82.0056 560.485 80.2126 565.985 76.7685Z" fill="#8F79B3"/>
<path fill-rule="evenodd" clip-rule="evenodd" d="M565.957 76.7183C571.341 73.3417 575.09 69.6275 574.328 68.4166C573.566 67.2057 568.584 68.9592 563.2 72.3358C557.816 75.7123 554.067 79.4265 554.829 80.6374C555.592 81.8483 560.574 80.0948 565.957 76.7183Z" fill="#907AB3"/>
<path fill-rule="evenodd" clip-rule="evenodd" d="M565.926 76.6763C571.191 73.3756 574.857 69.7429 574.113 68.5588C573.368 67.3747 568.492 69.0854 563.227 72.3861C557.963 75.6868 554.297 79.3195 555.041 80.5036C555.785 81.6877 560.662 79.9771 565.926 76.6763Z" fill="#917BB3"/>
<path fill-rule="evenodd" clip-rule="evenodd" d="M565.891 76.6224C571.036 73.3975 574.623 69.838 573.896 68.6808C573.17 67.5236 568.395 69.1995 563.25 72.4245C558.105 75.6494 554.518 79.2089 555.245 80.3661C555.971 81.5234 560.746 79.8474 565.891 76.6224Z" fill="#917CB4"/>
<path fill-rule="evenodd" clip-rule="evenodd" d="M565.863 76.5722C570.901 73.4184 574.401 69.9485 573.684 68.8147C572.968 67.6808 568.315 69.3209 563.277 72.4747C558.24 75.6286 554.739 79.0984 555.456 80.2323C556.173 81.3661 560.826 79.7261 565.863 76.5722Z" fill="#927DB4"/>
<path fill-rule="evenodd" clip-rule="evenodd" d="M565.833 76.5303C570.751 73.4522 574.172 70.0556 573.473 68.9486C572.774 67.8416 568.227 69.4387 563.308 72.5168C558.39 75.5948 554.969 78.9915 555.668 80.0985C556.367 81.2055 560.914 79.6083 565.833 76.5303Z" fill="#937EB4"/>
<path fill-rule="evenodd" clip-rule="evenodd" d="M565.805 76.48C570.604 73.4778 573.942 70.1626 573.261 69.0825C572.58 68.0023 568.143 69.5683 563.344 72.5705C558.545 75.5728 555.207 78.8879 555.888 79.9681C556.569 81.0482 561.006 79.4823 565.805 76.48Z" fill="#937FB5"/>
<path fill-rule="evenodd" clip-rule="evenodd" d="M565.778 76.4299C570.461 73.4953 573.717 70.2615 573.053 69.2082C572.39 68.1549 568.058 69.678 563.375 72.6126C558.692 75.5473 555.437 78.781 556.1 79.8343C556.763 80.8876 561.095 79.3646 565.778 76.4299Z" fill="#9480B5"/>
<path fill-rule="evenodd" clip-rule="evenodd" d="M565.747 76.3878C570.311 73.529 573.492 70.3802 572.838 69.3503C572.192 68.3238 567.963 69.8122 563.399 72.671C558.835 75.5299 555.654 78.6787 556.308 79.7086C556.954 80.7351 561.183 79.2467 565.747 76.3878Z" fill="#9581B5"/>
<path fill-rule="evenodd" clip-rule="evenodd" d="M565.711 76.3343C570.156 73.5512 573.257 70.4756 572.629 69.476C572.001 68.4764 567.886 69.9254 563.433 72.7049C558.989 75.4879 555.887 78.5636 556.515 79.5632C557.143 80.5628 561.258 79.1138 565.711 76.3343Z" fill="#9582B6"/>
<path fill-rule="evenodd" clip-rule="evenodd" d="M565.68 76.2921C570.009 73.5767 573.024 70.5907 572.414 69.618C571.804 68.6452 567.794 70.0513 563.465 72.7667C559.136 75.4822 556.121 78.4681 556.731 79.4409C557.341 80.4136 561.352 79.0076 565.68 76.2921Z" fill="#9683B6"/>
<path fill-rule="evenodd" clip-rule="evenodd" d="M565.653 76.2419C569.862 73.6023 572.798 70.6895 572.206 69.7437C571.606 68.7943 567.705 70.1692 563.496 72.8088C559.287 75.4484 556.351 78.3612 556.943 79.3071C557.544 80.2564 561.444 78.8816 565.653 76.2419Z" fill="#9784B6"/>
<path fill-rule="evenodd" clip-rule="evenodd" d="M565.625 76.1917C569.727 73.6231 572.577 70.8 571.994 69.8775C571.411 68.955 567.625 70.2904 563.523 72.859C559.422 75.4276 556.572 78.2507 557.155 79.1732C557.737 80.0957 561.524 78.7603 565.625 76.1917Z" fill="#9785B7"/>
<path fill-rule="evenodd" clip-rule="evenodd" d="M565.595 76.1495C569.577 73.6567 572.347 70.9068 571.783 70.0112C571.218 69.1156 567.537 70.4081 563.555 72.9009C559.572 75.3937 556.802 78.1435 557.367 79.0392C557.932 79.9348 561.613 78.6423 565.595 76.1495Z" fill="#9886B7"/>
<path fill-rule="evenodd" clip-rule="evenodd" d="M565.567 76.0993C569.43 73.6824 572.117 71.0139 571.571 70.1451C571.024 69.2764 567.445 70.5342 563.582 72.9512C559.719 75.3681 557.031 78.0366 557.578 78.9053C558.125 79.7741 561.704 78.5163 565.567 76.0993Z" fill="#9987B7"/>
<path fill-rule="evenodd" clip-rule="evenodd" d="M565.54 76.0491C569.287 73.6997 571.888 71.1209 571.359 70.279C570.83 69.4371 567.365 70.6555 563.618 73.0049C559.87 75.3542 557.27 77.933 557.799 78.775C558.328 79.6169 561.793 78.3984 565.54 76.0491Z" fill="#9988B8"/>
<path fill-rule="evenodd" clip-rule="evenodd" d="M565.501 76.0036C569.129 73.7301 571.65 71.2245 571.139 70.4094C570.628 69.5943 567.268 70.7699 563.64 73.0434C560.012 75.317 557.483 77.8191 558.002 78.6376C558.514 79.4527 561.873 78.2772 565.501 76.0036Z" fill="#9A89B8"/>
<path fill-rule="evenodd" clip-rule="evenodd" d="M565.473 75.9534C568.982 73.7556 571.429 71.335 570.927 70.5433C570.434 69.7551 567.176 70.8959 563.667 73.0937C560.159 75.2914 557.712 77.7121 558.214 78.5038C558.715 79.2955 561.965 78.1511 565.473 75.9534Z" fill="#9B8AB8"/>
<path fill-rule="evenodd" clip-rule="evenodd" d="M565.442 75.9113C568.835 73.7811 571.199 71.4419 570.715 70.6771C570.231 69.9122 567.096 71.0171 563.695 73.1438C560.302 75.274 557.938 77.6132 558.422 78.3781C558.906 79.1429 562.041 78.038 565.442 75.9113Z" fill="#9B8BB9"/>
<path fill-rule="evenodd" clip-rule="evenodd" d="M565.415 75.8611C568.689 73.8068 570.97 71.5489 570.504 70.8109C570.038 70.073 567.004 71.1432 563.731 73.1976C560.457 75.2519 558.176 77.5097 558.642 78.2477C559.108 78.9857 562.142 77.9155 565.415 75.8611Z" fill="#9C8CB9"/>
<path fill-rule="evenodd" clip-rule="evenodd" d="M565.388 75.811C568.55 73.8359 570.744 71.6479 570.304 70.9402C569.855 70.2291 566.927 71.2564 563.773 73.235C560.611 75.21 558.417 77.398 558.857 78.1057C559.306 78.8169 562.234 77.7895 565.388 75.811Z" fill="#9D8DB9"/>
<path fill-rule="evenodd" clip-rule="evenodd" d="M565.357 75.769C568.404 73.8615 570.519 71.7666 570.089 71.0823C569.658 70.398 566.844 71.3859 563.797 73.2934C560.751 75.2009 558.635 77.2958 559.066 77.9801C559.496 78.6644 562.311 77.6764 565.357 75.769Z" fill="#9D8FBA"/>
<path fill-rule="evenodd" clip-rule="evenodd" d="M565.321 75.7154C568.248 73.8837 570.284 71.862 569.872 71.2045C569.459 70.5471 566.747 71.5004 563.819 73.332C560.892 75.1637 558.856 77.1854 559.269 77.8428C559.681 78.5003 562.394 77.547 565.321 75.7154Z" fill="#9E90BA"/>
<path fill-rule="evenodd" clip-rule="evenodd" d="M565.29 75.6732C568.098 73.9174 570.051 71.9771 569.656 71.3465C569.262 70.7159 566.663 71.6298 563.852 73.3939C561.044 75.1497 559.091 77.0899 559.485 77.7205C559.88 78.3511 562.479 77.4373 565.29 75.6732Z" fill="#9F91BA"/>
<path fill-rule="evenodd" clip-rule="evenodd" d="M565.263 75.6229C567.955 73.9347 569.825 72.0759 569.448 71.4721C569.063 70.8649 566.578 71.7393 563.886 73.4276C561.194 75.1159 559.324 76.9747 559.701 77.5784C560.086 78.1856 562.571 77.3112 565.263 75.6229Z" fill="#9F92BB"/>
<path fill-rule="evenodd" clip-rule="evenodd" d="M565.236 75.5726C567.808 73.9602 569.604 72.1863 569.237 71.6059C568.869 71.0256 566.486 71.8653 563.913 73.4778C561.341 75.0902 559.545 76.8641 559.912 77.4445C560.28 78.0248 562.663 77.1851 565.236 75.5726Z" fill="#A093BB"/>
<path fill-rule="evenodd" clip-rule="evenodd" d="M565.205 75.5308C567.661 73.9859 569.374 72.2934 569.025 71.7399C568.675 71.1864 566.406 71.9867 563.941 73.5281C561.484 75.073 559.771 76.7655 560.121 77.319C560.47 77.8725 562.74 77.0722 565.205 75.5308Z" fill="#A194BB"/>
<path fill-rule="evenodd" clip-rule="evenodd" d="M565.177 75.4805C567.515 74.0114 569.145 72.4004 568.813 71.8737C568.481 71.3471 566.314 72.1127 563.972 73.5701C561.634 75.0391 560.004 76.6502 560.336 77.1769C560.668 77.7035 562.835 76.9378 565.177 75.4805Z" fill="#A195BC"/>
<path fill-rule="evenodd" clip-rule="evenodd" d="M565.142 75.4267C567.368 74.037 568.911 72.4957 568.597 71.9959C568.283 71.4961 566.221 72.2188 564.003 73.6121C561.776 75.0018 560.234 76.5431 560.548 77.0429C560.862 77.5427 562.924 76.82 565.142 75.4267Z" fill="#A296BC"/>
<path fill-rule="evenodd" clip-rule="evenodd" d="M565.111 75.3847C567.222 74.0625 568.686 72.6144 568.382 72.138C568.085 71.665 566.137 72.3483 564.027 73.6705C561.916 74.9927 560.452 76.4409 560.756 76.9173C561.052 77.3902 563.001 76.7069 565.111 75.3847Z" fill="#A397BC"/>
<path fill-rule="evenodd" clip-rule="evenodd" d="M565.083 75.3345C567.075 74.0881 568.46 72.7132 568.173 72.2636C567.895 71.8175 566.048 72.4662 564.057 73.7126C562.066 74.959 560.681 76.3339 560.968 76.7835C561.246 77.2295 563.092 76.5809 565.083 75.3345Z" fill="#A398BD"/>
<path fill-rule="evenodd" clip-rule="evenodd" d="M565.053 75.2924C566.925 74.1218 568.227 72.8283 567.966 72.4091C567.698 71.9864 565.965 72.5956 564.093 73.7662C562.221 74.9368 560.919 76.2302 561.18 76.6495C561.44 77.0687 563.181 76.463 565.053 75.2924Z" fill="#A499BD"/>
<path fill-rule="evenodd" clip-rule="evenodd" d="M565.025 75.2424C566.781 74.1394 568.001 72.9274 567.758 72.535C567.507 72.1392 565.888 72.709 564.132 73.8119C562.376 74.9149 561.157 76.127 561.4 76.5194C561.65 76.9152 563.269 76.3454 565.025 75.2424Z" fill="#A59ABD"/>
<path fill-rule="evenodd" clip-rule="evenodd" d="M564.998 75.1921C566.634 74.1649 567.779 73.0377 567.546 72.6687C567.313 72.2997 565.796 72.8349 564.16 73.862C562.523 74.8892 561.378 76.0164 561.611 76.3854C561.844 76.7544 563.361 76.2193 564.998 75.1921Z" fill="#A59BBE"/>
<path fill-rule="evenodd" clip-rule="evenodd" d="M564.967 75.15C566.484 74.1986 567.549 73.1447 567.334 72.8025C567.119 72.4604 565.708 72.9526 564.187 73.9122C562.669 74.8636 561.604 75.9175 561.819 76.2597C562.035 76.6018 563.446 76.1096 564.967 75.15Z" fill="#A69CBE"/>
<path fill-rule="evenodd" clip-rule="evenodd" d="M564.931 75.0963C566.333 74.2125 567.312 73.2483 567.114 72.933C566.917 72.6177 565.616 73.0787 564.21 73.9508C562.808 74.8346 561.829 75.7988 562.026 76.1141C562.224 76.4294 563.525 75.9684 564.931 75.0963Z" fill="#A79DBE"/>
<path fill-rule="evenodd" clip-rule="evenodd" d="M564.904 75.0462C566.194 74.2417 567.086 73.3472 566.906 73.0587C566.727 72.7703 565.531 73.1884 564.24 73.9929C562.95 74.7974 562.059 75.692 562.238 75.9804C562.418 76.2688 563.613 75.8507 564.904 75.0462Z" fill="#A79EBF"/>
<path fill-rule="evenodd" clip-rule="evenodd" d="M564.873 75.0042C566.044 74.2755 566.861 73.4658 566.691 73.2008C566.529 72.9392 565.439 73.3145 564.273 74.0548C563.102 74.7835 562.285 75.5931 562.455 75.8582C562.617 76.1198 563.707 75.7445 564.873 75.0042Z" fill="#A89FBF"/>
<path fill-rule="evenodd" clip-rule="evenodd" d="M564.845 74.9539C565.901 74.2928 566.635 73.5646 566.482 73.3264C566.33 73.0882 565.359 73.4357 564.307 74.0886C563.252 74.7497 562.518 75.4779 562.67 75.7161C562.822 75.9543 563.794 75.6068 564.845 74.9539Z" fill="#A9A0BF"/>
<path fill-rule="evenodd" clip-rule="evenodd" d="M564.815 74.9118C565.751 74.3265 566.402 73.6798 566.268 73.4684C566.133 73.2571 565.267 73.5617 564.331 74.147C563.395 74.7322 562.744 75.379 562.878 75.5903C563.013 75.8017 563.879 75.4971 564.815 74.9118Z" fill="#A9A1C0"/>
<path fill-rule="evenodd" clip-rule="evenodd" d="M564.787 74.8617C565.607 74.344 566.176 73.7787 566.059 73.5942C565.943 73.4097 565.19 73.6748 564.362 74.1891C563.542 74.7068 562.973 75.2721 563.09 75.4566C563.206 75.641 563.959 75.3759 564.787 74.8617Z" fill="#AAA2C0"/>
<path fill-rule="evenodd" clip-rule="evenodd" d="M564.752 74.8078C565.452 74.3659 565.946 73.8855 565.839 73.7244C565.74 73.5668 565.09 73.7973 564.389 74.2392C563.688 74.681 563.195 75.1615 563.302 75.3226C563.4 75.4802 564.051 75.2497 564.752 74.8078Z" fill="#ABA3C0"/>
<path fill-rule="evenodd" clip-rule="evenodd" d="M564.721 74.7659C565.303 74.3999 565.717 73.9927 565.636 73.8619C565.555 73.7311 565.01 73.9187 564.429 74.2848C563.847 74.6509 563.433 75.0581 563.514 75.1889C563.595 75.3197 564.14 75.132 564.721 74.7659Z" fill="#ABA4C1"/>
<path fill-rule="evenodd" clip-rule="evenodd" d="M564.694 74.7156C565.168 74.4206 565.487 74.0996 565.424 73.9956C565.361 73.8917 564.926 74.0481 564.456 74.3349C563.982 74.6299 563.662 74.9509 563.725 75.0549C563.788 75.1588 564.223 75.0024 564.694 74.7156Z" fill="#ACA5C1"/>
<path fill-rule="evenodd" clip-rule="evenodd" d="M564.666 74.6654C565.021 74.4462 565.261 74.1984 565.216 74.1213C565.162 74.0408 564.841 74.1578 564.487 74.377C564.132 74.5962 563.892 74.844 563.937 74.9211C563.99 75.0016 564.312 74.8846 564.666 74.6654Z" fill="#ADA6C1"/>
<path fill-rule="evenodd" clip-rule="evenodd" d="M564.635 74.6234C564.871 74.48 565.036 74.3171 565.001 74.2634C564.965 74.2097 564.749 74.2838 564.519 74.4389C564.284 74.5823 564.118 74.7452 564.154 74.7989C564.189 74.8526 564.405 74.7785 564.635 74.6234Z" fill="#ADA7C2"/>
<path fill-rule="evenodd" clip-rule="evenodd" d="M564.608 74.5731C564.727 74.4973 564.81 74.4159 564.792 74.389C564.774 74.3622 564.669 74.4051 564.553 74.4727C564.434 74.5485 564.351 74.6299 564.369 74.6567C564.386 74.6836 564.492 74.6407 564.608 74.5731Z" fill="#AEA8C2"/>
</g>
<g style="mix-blend-mode:multiply" opacity="0.8">
<path fill-rule="evenodd" clip-rule="evenodd" d="M542.888 82.0264C542.888 82.0264 544.109 87.2943 548.368 89.4505L548.487 92.1444C548.487 92.1444 542.582 87.922 540.863 81.0696L542.892 82.0182L542.888 82.0264Z" fill="#9A4F8B"/>
</g>
<path fill-rule="evenodd" clip-rule="evenodd" d="M247.228 69.3673L240.749 45.7171L246.012 43.6956L232.68 42.658L245.208 70.3065L247.228 69.3673Z" fill="white"/>
</g>
<defs>
<linearGradient id="paint0_linear_1_401" x1="330.081" y1="42.658" x2="330.081" y2="22.0491" gradientUnits="userSpaceOnUse">
<stop stop-color="#FFD328"/>
<stop offset="1" stop-color="#FFA700"/>
</linearGradient>
<radialGradient id="paint1_radial_1_401" cx="0" cy="0" r="1" gradientUnits="userSpaceOnUse" gradientTransform="translate(283.426 219.498) rotate(180) scale(47.8515 47.8997)">
<stop stop-color="#9D94C2"/>
<stop offset="0.98" stop-color="#8C74B1"/>
</radialGradient>
<linearGradient id="paint2_linear_1_401" x1="251.132" y1="202.789" x2="137.129" y2="202.789" gradientUnits="userSpaceOnUse">
<stop offset="0.02" stop-color="#E6E0EE"/>
<stop offset="1" stop-color="#F0EFF6"/>
</linearGradient>
<linearGradient id="paint3_linear_1_401" x1="263.214" y1="199.39" x2="141.463" y2="199.39" gradientUnits="userSpaceOnUse">
<stop offset="0.02" stop-color="#E6E0EE"/>
<stop offset="1" stop-color="#F0EFF6"/>
</linearGradient>
<linearGradient id="paint4_linear_1_401" x1="225.835" y1="226.036" x2="113.547" y2="226.036" gradientUnits="userSpaceOnUse">
<stop offset="0.02" stop-color="#E6E0EE"/>
<stop offset="1" stop-color="#F0EFF6"/>
</linearGradient>
<linearGradient id="paint5_linear_1_401" x1="256.244" y1="190.141" x2="118.784" y2="190.141" gradientUnits="userSpaceOnUse">
<stop offset="0.02" stop-color="#E6E0EE"/>
<stop offset="1" stop-color="#F0EFF6"/>
</linearGradient>
<radialGradient id="paint6_radial_1_401" cx="0" cy="0" r="1" gradientUnits="userSpaceOnUse" gradientTransform="translate(274.004 119.837) rotate(170.561) scale(57.7093 57.7643)">
<stop stop-color="#515BFF"/>
<stop offset="0.03" stop-color="#515ADD"/>
<stop offset="1" stop-color="#4335BB"/>
</radialGradient>
<radialGradient id="paint7_radial_1_401" cx="0" cy="0" r="1" gradientUnits="userSpaceOnUse" gradientTransform="translate(277.946 218.115) rotate(170.561) scale(12.8233 12.8355)">
<stop stop-color="#471371"/>
<stop offset="0.99" stop-color="#20003B"/>
</radialGradient>
<radialGradient id="paint8_radial_1_401" cx="0" cy="0" r="1" gradientUnits="userSpaceOnUse" gradientTransform="translate(255.707 104.554) rotate(170.561) scale(24.7976 24.8213)">
<stop stop-color="#FFA100"/>
<stop offset="1" stop-color="#FF9700"/>
</radialGradient>
<radialGradient id="paint9_radial_1_401" cx="0" cy="0" r="1" gradientUnits="userSpaceOnUse" gradientTransform="translate(285.184 151.564) rotate(170.561) scale(63.2496 63.3099)">
<stop stop-color="#5C65FF"/>
<stop offset="1" stop-color="#4F59D0"/>
</radialGradient>
<radialGradient id="paint10_radial_1_401" cx="0" cy="0" r="1" gradientUnits="userSpaceOnUse" gradientTransform="translate(287.62 151.371) rotate(170.561) scale(62.9726 63.0327)">
<stop stop-color="#7C98E3"/>
<stop offset="0.09" stop-color="#7690D8"/>
<stop offset="0.26" stop-color="#667EBC"/>
<stop offset="0.47" stop-color="#4D5F8E"/>
<stop offset="0.72" stop-color="#2B354F"/>
<stop offset="1"/>
</radialGradient>
<radialGradient id="paint11_radial_1_401" cx="0" cy="0" r="1" gradientUnits="userSpaceOnUse" gradientTransform="translate(320.26 231.09) rotate(180) scale(12.8229 13.0926)">
<stop stop-color="#471371"/>
<stop offset="0.99" stop-color="#20003B"/>
</radialGradient>
<radialGradient id="paint12_radial_1_401" cx="0" cy="0" r="1" gradientUnits="userSpaceOnUse" gradientTransform="translate(316.891 112.983) rotate(180) scale(24.788 25.3093)">
<stop stop-color="#FFA100"/>
<stop offset="1" stop-color="#FF9700"/>
</radialGradient>
<radialGradient id="paint13_radial_1_401" cx="0" cy="0" r="1" gradientUnits="userSpaceOnUse" gradientTransform="translate(340.726 165.477) rotate(-180) scale(62.9628 64.2859)">
<stop stop-color="#7C98E3"/>
<stop offset="0.09" stop-color="#7690D8"/>
<stop offset="0.26" stop-color="#667EBC"/>
<stop offset="0.47" stop-color="#4D5F8E"/>
<stop offset="0.72" stop-color="#2B354F"/>
<stop offset="1"/>
</radialGradient>
<linearGradient id="paint14_linear_1_401" x1="423.112" y1="254.776" x2="423.112" y2="98.0623" gradientUnits="userSpaceOnUse">
<stop stop-color="#FFB827"/>
<stop offset="1" stop-color="#FF6B22"/>
</linearGradient>
<radialGradient id="paint15_radial_1_401" cx="0" cy="0" r="1" gradientUnits="userSpaceOnUse" gradientTransform="translate(431.986 131.426) rotate(180) scale(83.3625 86.7844)">
<stop stop-color="#FFBF00"/>
<stop offset="1" stop-color="#FFA700"/>
</radialGradient>
<radialGradient id="paint16_radial_1_401" cx="0" cy="0" r="1" gradientUnits="userSpaceOnUse" gradientTransform="translate(372.544 174.981) rotate(180) scale(55.0984 57.3601)">
<stop stop-color="#FF7527"/>
<stop offset="1" stop-color="#F44047"/>
</radialGradient>
<radialGradient id="paint17_radial_1_401" cx="0" cy="0" r="1" gradientUnits="userSpaceOnUse" gradientTransform="translate(365.047 177.232) rotate(180) scale(54.0173 56.2345)">
<stop stop-color="#FF7527"/>
<stop offset="1" stop-color="#F44047"/>
</radialGradient>
<radialGradient id="paint18_radial_1_401" cx="0" cy="0" r="1" gradientUnits="userSpaceOnUse" gradientTransform="translate(401.871 180.283) rotate(180) scale(54.1066 54.1611)">
<stop stop-color="#9D94C2"/>
<stop offset="0.98" stop-color="#8C74B1"/>
</radialGradient>
<linearGradient id="paint19_linear_1_401" x1="432.944" y1="248.667" x2="457.477" y2="107.073" gradientUnits="userSpaceOnUse">
<stop offset="0.02" stop-color="#D1C7E0"/>
<stop offset="0.04" stop-color="#D2C8E0"/>
<stop offset="0.33" stop-color="#E4D8E8"/>
<stop offset="0.65" stop-color="#EFE2EC"/>
<stop offset="1" stop-color="#F3E6EE"/>
</linearGradient>
<linearGradient id="paint20_linear_1_401" x1="390.889" y1="136.364" x2="390.889" y2="107.419" gradientUnits="userSpaceOnUse">
<stop offset="0.02" stop-color="#D1C7E0"/>
<stop offset="0.04" stop-color="#D2C8E0"/>
<stop offset="0.33" stop-color="#E4D8E8"/>
<stop offset="0.65" stop-color="#EFE2EC"/>
<stop offset="1" stop-color="#F3E6EE"/>
</linearGradient>
<linearGradient id="paint21_linear_1_401" x1="408.189" y1="254.776" x2="408.189" y2="105.567" gradientUnits="userSpaceOnUse">
<stop offset="0.02" stop-color="#D1C7E0"/>
<stop offset="0.04" stop-color="#D2C8E0"/>
<stop offset="0.33" stop-color="#E4D8E8"/>
<stop offset="0.65" stop-color="#EFE2EC"/>
<stop offset="1" stop-color="#F3E6EE"/>
</linearGradient>
<radialGradient id="paint22_radial_1_401" cx="0" cy="0" r="1" gradientUnits="userSpaceOnUse" gradientTransform="translate(388.861 121.891) rotate(180) scale(10.3209 10.3313)">
<stop stop-color="#9D94C2"/>
<stop offset="0.98" stop-color="#8C74B1"/>
</radialGradient>
<radialGradient id="paint23_radial_1_401" cx="0" cy="0" r="1" gradientUnits="userSpaceOnUse" gradientTransform="translate(401.461 170.31) rotate(180) scale(50.979 51.0304)">
<stop stop-color="#9D94C2"/>
<stop offset="0.98" stop-color="#8C74B1"/>
</radialGradient>
<radialGradient id="paint24_radial_1_401" cx="0" cy="0" r="1" gradientUnits="userSpaceOnUse" gradientTransform="translate(406.956 182.636) rotate(180) scale(51.3543 51.4061)">
<stop stop-color="#9D94C2"/>
<stop offset="0.98" stop-color="#8C74B1"/>
</radialGradient>
<linearGradient id="paint25_linear_1_401" x1="490.069" y1="121.891" x2="490.069" y2="90.2178" gradientUnits="userSpaceOnUse">
<stop stop-color="#FF6E27"/>
<stop offset="1" stop-color="#E03347"/>
</linearGradient>
<linearGradient id="paint26_linear_1_401" x1="189.849" y1="160.275" x2="128.72" y2="115.268" gradientUnits="userSpaceOnUse">
<stop stop-color="#C93347"/>
<stop offset="1" stop-color="#FF7527"/>
</linearGradient>
<linearGradient id="paint27_linear_1_401" x1="198.044" y1="167.765" x2="195.718" y2="166.552" gradientUnits="userSpaceOnUse">
<stop stop-color="#2A0E51"/>
<stop offset="1" stop-color="#50306C"/>
</linearGradient>
<radialGradient id="paint28_radial_1_401" cx="0" cy="0" r="1" gradientUnits="userSpaceOnUse" gradientTransform="translate(129.899 115.958) rotate(126.362) scale(3.01335 3.01245)">
<stop stop-color="#EBD7E3"/>
<stop offset="0.98" stop-color="#BDAFD2"/>
</radialGradient>
<linearGradient id="paint29_linear_1_401" x1="199.456" y1="165.906" x2="129.422" y2="114.344" gradientUnits="userSpaceOnUse">
<stop/>
<stop offset="1" stop-color="#CD6327"/>
</linearGradient>
<linearGradient id="paint30_linear_1_401" x1="127.702" y1="112.866" x2="123.69" y2="112.866" gradientUnits="userSpaceOnUse">
<stop stop-color="#DD7500"/>
<stop offset="1" stop-color="#CD6327"/>
</linearGradient>
<radialGradient id="paint31_radial_1_401" cx="0" cy="0" r="1" gradientUnits="userSpaceOnUse" gradientTransform="translate(496.814 232.657) rotate(-149.765) scale(0.947441 0.947907)">
<stop stop-color="#AEA8C2"/>
<stop offset="0.98" stop-color="#8C74B1"/>
</radialGradient>
<radialGradient id="paint32_radial_1_401" cx="0" cy="0" r="1" gradientUnits="userSpaceOnUse" gradientTransform="translate(550.124 147.138) rotate(-149.765) scale(3.7272 3.72905)">
<stop stop-color="#471371"/>
<stop offset="0.99" stop-color="#20003B"/>
</radialGradient>
<radialGradient id="paint33_radial_1_401" cx="0" cy="0" r="1" gradientUnits="userSpaceOnUse" gradientTransform="translate(499.666 226.349) rotate(-149.765) scale(3.31604 3.31769)">
<stop stop-color="#AEA8C2"/>
<stop offset="0.98" stop-color="#8C74B1"/>
</radialGradient>
<radialGradient id="paint34_radial_1_401" cx="0" cy="0" r="1" gradientUnits="userSpaceOnUse" gradientTransform="translate(509.055 209.764) rotate(-149.765) scale(10.0107 10.0157)">
<stop stop-color="#471371"/>
<stop offset="0.99" stop-color="#20003B"/>
</radialGradient>
<radialGradient id="paint35_radial_1_401" cx="0" cy="0" r="1" gradientUnits="userSpaceOnUse" gradientTransform="translate(535.326 174.163) rotate(-149.765) scale(5.52376 33.3248)">
<stop stop-color="#AEA8C2"/>
<stop offset="0.98" stop-color="#8C74B1"/>
</radialGradient>
<radialGradient id="paint36_radial_1_401" cx="0" cy="0" r="1" gradientUnits="userSpaceOnUse" gradientTransform="translate(536.143 157.897) rotate(-149.765) scale(9.54592 14.326)">
<stop stop-color="#AEA8C2"/>
<stop offset="0.98" stop-color="#8C74B1"/>
</radialGradient>
<radialGradient id="paint37_radial_1_401" cx="0" cy="0" r="1" gradientUnits="userSpaceOnUse" gradientTransform="translate(539.539 165.425) rotate(-149.765) scale(4.31712 3.58499)">
<stop stop-color="white"/>
<stop offset="0.98" stop-color="#C8BDDA"/>
</radialGradient>
<radialGradient id="paint38_radial_1_401" cx="0" cy="0" r="1" gradientUnits="userSpaceOnUse" gradientTransform="translate(529.967 176.958) rotate(-149.765) scale(20.227 20.237)">
<stop stop-color="#C0A9B1"/>
<stop offset="0.11" stop-color="#B59FA7"/>
<stop offset="0.29" stop-color="#99878D"/>
<stop offset="0.53" stop-color="#6B5E63"/>
<stop offset="0.81" stop-color="#2D2729"/>
<stop offset="1"/>
</radialGradient>
<linearGradient id="paint39_linear_1_401" x1="407.4" y1="68.1104" x2="415.822" y2="38.2335" gradientUnits="userSpaceOnUse">
<stop stop-color="#C73E27"/>
<stop offset="1" stop-color="#A4152C"/>
</linearGradient>
<linearGradient id="paint40_linear_1_401" x1="408.941" y1="70.3049" x2="418.139" y2="37.6703" gradientUnits="userSpaceOnUse">
<stop stop-color="#C73E27"/>
<stop offset="1" stop-color="#A4152C"/>
</linearGradient>
<linearGradient id="paint41_linear_1_401" x1="417.513" y1="58.4201" x2="425.98" y2="35.8496" gradientUnits="userSpaceOnUse">
<stop stop-color="white"/>
<stop offset="1" stop-color="#C772BF"/>
</linearGradient>
<linearGradient id="paint42_linear_1_401" x1="403.809" y1="63.9889" x2="406.333" y2="55.0145" gradientUnits="userSpaceOnUse">
<stop stop-color="#C772BF"/>
<stop offset="1" stop-color="#F2BFE2"/>
</linearGradient>
<linearGradient id="paint43_linear_1_401" x1="414.782" y1="63.8246" x2="417.357" y2="54.6904" gradientUnits="userSpaceOnUse">
<stop stop-color="#C73E27"/>
<stop offset="1" stop-color="#A4152C"/>
</linearGradient>
<linearGradient id="paint44_linear_1_401" x1="403.709" y1="61.1047" x2="414.568" y2="32.1585" gradientUnits="userSpaceOnUse">
<stop stop-color="white"/>
<stop offset="1" stop-color="#9F4DAE"/>
</linearGradient>
<radialGradient id="paint45_radial_1_401" cx="0" cy="0" r="1" gradientUnits="userSpaceOnUse" gradientTransform="translate(99.7105 253.282) rotate(180) scale(13.1407 11.7446)">
<stop stop-color="#FFDB00"/>
<stop offset="1" stop-color="#FFC700"/>
</radialGradient>
<linearGradient id="paint46_linear_1_401" x1="75.7761" y1="251.654" x2="75.7761" y2="226.385" gradientUnits="userSpaceOnUse">
<stop stop-color="#FFA700"/>
<stop offset="1" stop-color="#FFBF00"/>
</linearGradient>
<linearGradient id="paint47_linear_1_401" x1="96.6408" y1="245.634" x2="36.4668" y2="245.634" gradientUnits="userSpaceOnUse">
<stop stop-color="white"/>
<stop offset="1" stop-color="#E55EBF"/>
</linearGradient>
<radialGradient id="paint48_radial_1_401" cx="0" cy="0" r="1" gradientUnits="userSpaceOnUse" gradientTransform="translate(597.136 234.099) rotate(-179.299) scale(17.8002 17.8181)">
<stop offset="0.03" stop-color="#414BB8"/>
<stop offset="1" stop-color="#2C1C77"/>
</radialGradient>
<linearGradient id="paint49_linear_1_401" x1="632.16" y1="247.159" x2="557.471" y2="246.247" gradientUnits="userSpaceOnUse">
<stop offset="0.02" stop-color="#C9BDDA"/>
<stop offset="1" stop-color="#CEC9E0"/>
</linearGradient>
<radialGradient id="paint50_radial_1_401" cx="0" cy="0" r="1" gradientUnits="userSpaceOnUse" gradientTransform="translate(528.534 249.899) rotate(-179.299) scale(20.615 20.6358)">
<stop stop-color="#9D94C2"/>
<stop offset="0.98" stop-color="#8C74B1"/>
</radialGradient>
<linearGradient id="paint51_linear_1_401" x1="632.202" y1="243.76" x2="500.667" y2="242.155" gradientUnits="userSpaceOnUse">
<stop offset="0.02" stop-color="#E6E0EE"/>
<stop offset="1" stop-color="#F0EFF6"/>
</linearGradient>
<radialGradient id="paint52_radial_1_401" cx="0" cy="0" r="1" gradientUnits="userSpaceOnUse" gradientTransform="translate(541.185 233.361) rotate(-179.299) scale(28.139 28.1673)">
<stop stop-color="#515BFF"/>
<stop offset="0.03" stop-color="#515ADD"/>
<stop offset="1" stop-color="#4335BB"/>
</radialGradient>
<linearGradient id="paint53_linear_1_401" x1="538.778" y1="258.9" x2="539.44" y2="251.037" gradientUnits="userSpaceOnUse">
<stop stop-color="#FF6E27"/>
<stop offset="1" stop-color="#E03347"/>
</linearGradient>
<radialGradient id="paint54_radial_1_401" cx="0" cy="0" r="1" gradientUnits="userSpaceOnUse" gradientTransform="translate(503.597 248.291) rotate(180) scale(7.02357 7.03069)">
<stop stop-color="#FFBF00"/>
<stop offset="1" stop-color="#FFA700"/>
</radialGradient>
<linearGradient id="paint55_linear_1_401" x1="632.238" y1="242.307" x2="557.364" y2="242.307" gradientUnits="userSpaceOnUse">
<stop offset="0.02" stop-color="#C9BDDA"/>
<stop offset="1" stop-color="#CEC9E0"/>
</linearGradient>
<radialGradient id="paint56_radial_1_401" cx="0" cy="0" r="1" gradientUnits="userSpaceOnUse" gradientTransform="translate(530.083 243.318) rotate(180) scale(19.3104 19.3298)">
<stop stop-color="#9D94C2"/>
<stop offset="0.98" stop-color="#8C74B1"/>
</radialGradient>
<linearGradient id="paint57_linear_1_401" x1="632.238" y1="241.538" x2="502.811" y2="241.538" gradientUnits="userSpaceOnUse">
<stop offset="0.02" stop-color="#E6E0EE"/>
<stop offset="1" stop-color="#F0EFF6"/>
</linearGradient>
<radialGradient id="paint58_radial_1_401" cx="0" cy="0" r="1" gradientUnits="userSpaceOnUse" gradientTransform="translate(178.63 19.6815) rotate(164.175) scale(10.8042 10.8135)">
<stop stop-color="#5C65FF"/>
<stop offset="1" stop-color="#4F59D0"/>
</radialGradient>
<radialGradient id="paint59_radial_1_401" cx="0" cy="0" r="1" gradientUnits="userSpaceOnUse" gradientTransform="translate(552.37 81.2163) rotate(58.5292) scale(10.8075 10.8102)">
<stop stop-color="#FF7527"/>
<stop offset="1" stop-color="#E03347"/>
</radialGradient>
<radialGradient id="paint60_radial_1_401" cx="0" cy="0" r="1" gradientUnits="userSpaceOnUse" gradientTransform="translate(561.466 75.6449) rotate(112.834) scale(7.60854 7.62676)">
<stop stop-color="#B61E09"/>
<stop offset="0.99" stop-color="#860E33"/>
</radialGradient>
<clipPath id="clip0_1_401">
<rect width="669" height="260" fill="white"/>
</clipPath>
</defs>
</svg>
