<svg width="600" height="600" viewBox="0 0 600 600" fill="none" xmlns="http://www.w3.org/2000/svg">
<g clip-path="url(#clip0_7_59)">
<mask id="mask0_7_59" style="mask-type:luminance" maskUnits="userSpaceOnUse" x="93" y="114" width="422" height="486">
<path d="M514.992 114.664H93.9045V600H514.992V114.664Z" fill="white"/>
</mask>
<g mask="url(#mask0_7_59)">
<path d="M342.807 600C404.313 600 454.172 592.191 454.172 582.56C454.172 572.927 404.313 565.12 342.807 565.12C281.301 565.12 231.441 572.927 231.441 582.56C231.441 592.191 281.301 600 342.807 600Z" fill="#2085B7"/>
<path d="M422.84 221.168C393.898 178.963 323.523 178.963 323.523 178.963C323.523 178.963 253.147 178.963 224.205 221.168C197.648 259.901 197.896 312.832 197.896 312.832L223.546 345.804H423.494L449.144 312.832C449.144 312.832 449.398 259.901 422.834 221.168H422.84Z" fill="#D5E9F2"/>
<path d="M422.879 221.168C411.534 204.624 393.817 194.566 376.473 188.449C385.446 194.051 393.613 201.185 399.86 210.29C426.417 249.023 426.169 301.953 426.169 301.953L400.519 334.926H215.132L223.597 345.806H423.544L449.195 312.833C449.195 312.833 449.448 259.901 422.885 221.168H422.879Z" fill="#A8D7E9"/>
<path d="M387.322 229.738C360.353 209.297 286.693 209.297 259.724 229.738C230.446 251.935 231.441 304.916 231.441 304.916H415.605C415.605 304.916 416.6 251.935 387.322 229.738Z" fill="#002B43"/>
<path d="M232.215 304.916C234.022 287.629 240.002 258.706 259.73 243.752C286.693 223.31 360.359 223.31 387.329 243.752C407.051 258.706 413.036 287.635 414.844 304.916H415.611C415.611 304.916 416.607 251.935 387.329 229.738C360.359 209.297 286.699 209.297 259.73 229.738C230.452 251.935 231.447 304.916 231.447 304.916H232.215Z" fill="#000F16"/>
<path d="M301.494 169.07H345.56C347.734 169.07 349.504 170.843 349.504 173.025V186.873C349.504 189.053 347.734 190.827 345.56 190.827H301.494C299.318 190.827 297.55 189.053 297.55 186.873V173.025C297.55 170.843 299.318 169.07 301.494 169.07Z" fill="#D5E9F2"/>
<path d="M311.792 179.619L317.714 124.226H325.609L335.26 179.948L311.792 179.619Z" fill="#D5E9F2"/>
<path d="M331.417 124.227C331.417 129.511 327.15 133.789 321.88 133.789C316.611 133.789 312.343 129.511 312.343 124.227C312.343 118.943 316.611 114.664 321.88 114.664C327.15 114.664 331.417 118.943 331.417 124.227Z" fill="#D5E9F2"/>
<path d="M327.835 116.756C328.444 118.014 328.786 119.432 328.786 120.926C328.786 126.21 324.518 130.49 319.249 130.49C316.997 130.49 314.93 129.707 313.294 128.398C314.842 131.589 318.101 133.789 321.88 133.789C327.15 133.789 331.417 129.51 331.417 124.227C331.417 121.206 330.016 118.511 327.835 116.756Z" fill="#A8D7E9"/>
<path d="M223.552 345.805H423.499L449.15 312.832H197.901L223.552 345.805Z" fill="#A8D7E9"/>
<path d="M349.51 180.4C349.51 181.793 348.629 182.918 347.538 182.918H325.502C324.411 182.918 323.53 181.793 323.53 180.4V171.587C323.53 170.195 324.411 169.07 325.502 169.07H347.538C348.629 169.07 349.51 170.195 349.51 171.587V180.4Z" fill="#A8D7E9"/>
<path d="M284.169 197.153C280.967 191.005 266.464 194.527 261.727 196.765C257.859 198.596 250.852 202.659 246.387 206.963C242.843 209.793 239.679 213.086 236.926 216.8C234.643 219.883 230.325 226.234 233.089 230.285C236.134 234.735 241.264 230.876 243.819 228.308C250.459 221.613 255.557 214.447 264.562 210.372C268.988 208.369 287.942 204.401 284.169 197.153Z" fill="white"/>
<path d="M318.082 118.714C313.593 119.802 315.311 129.212 320.834 124.144C325.228 120.119 320.625 117.582 318.082 118.714Z" fill="white"/>
<path d="M459.817 420.5L420.741 352.926H226.318L187.242 420.5C187.242 420.5 188.916 448.66 198.339 474.397C212.83 513.963 226.641 529.788 226.641 529.788L274.467 548.303L323.092 552.786V552.868C323.092 552.868 323.416 552.83 323.53 552.83C323.644 552.83 323.967 552.868 323.967 552.868V552.786L372.592 548.303L420.419 529.788C420.419 529.788 437.769 507.37 448.72 474.397C457.356 448.38 459.817 420.5 459.817 420.5Z" fill="#D5E9F2"/>
<path d="M420.735 352.926H374.697L413.773 420.5C413.773 420.5 411.312 448.38 402.675 474.397C391.723 507.37 386.822 520.505 374.373 529.788C364.089 537.462 326.548 548.303 326.548 548.303L300.504 550.706L323.092 552.786V552.868C323.092 552.868 323.416 552.83 323.53 552.83C323.644 552.83 323.967 552.868 323.967 552.868V552.786L372.591 548.303L420.418 529.788C420.418 529.788 437.768 507.37 448.719 474.397C457.356 448.38 459.816 420.5 459.816 420.5L420.741 352.926H420.735Z" fill="#A8D7E9"/>
<path d="M187.242 420.499H459.817L449.188 440.762L187.242 420.499Z" fill="#A8D7E9"/>
<path d="M241.955 465.311C241.181 455.507 247.858 441.99 236.691 436.808C230.959 434.15 221.269 433.056 216.83 438.765C215.194 440.871 214.37 443.516 214.217 446.262C212.62 453.255 216.374 463.486 218.124 469.755C220.192 477.137 227.351 503.09 240.534 496.02C249.52 491.2 242.519 472.565 241.948 465.304L241.955 465.311Z" fill="white"/>
<path d="M256.292 367.034C250.363 358.552 242.025 361.375 236.083 367.536C222.873 375.598 208.847 408.539 228.816 411.763C240.331 413.619 243.857 399.549 247.758 391.951C251.334 384.976 262.108 375.363 256.286 367.041L256.292 367.034Z" fill="white"/>
<path d="M218.847 352.926C218.847 352.926 131.838 340.343 118.743 345.804C105.649 351.267 101.47 370.041 133.271 389.262C164.134 407.917 182.106 412.997 182.106 412.997L218.841 352.926H218.847Z" fill="#D5E9F2"/>
<path d="M117.723 345.804C119.029 345.258 131.921 343.961 134.527 343.833C138.789 353.676 122.866 363.441 142.448 375.28C163.634 388.085 179.728 395.461 194.459 392.81L182.112 412.996C182.112 412.996 164.141 407.916 133.278 389.262C101.47 370.041 104.641 351.259 117.729 345.804H117.723Z" fill="#A8D7E9"/>
<path d="M226.089 535.624C226.089 535.624 243.445 581.021 257.986 582.503C272.527 583.984 272.951 552.868 272.951 552.868L226.089 535.624Z" fill="#D5E9F2"/>
<path d="M261.252 548.385C261.08 552.791 259.736 574.275 249.52 576.996C252.513 580.125 255.551 582.209 258.48 582.508C273.021 583.99 273.446 552.874 273.446 552.874L261.258 548.385H261.252Z" fill="#A8D7E9"/>
<path d="M377.519 552.874C377.519 552.874 399.726 587.08 428.326 579.934C440.292 576.946 421.42 535.631 421.42 535.631L377.519 552.874Z" fill="#D5E9F2"/>
<path d="M421.42 535.624L409.511 540.305C414.311 552.397 421.889 574.79 413.196 576.964C410.849 577.55 408.547 577.855 406.296 577.925C412.916 580.71 420.374 581.918 428.326 579.934C440.292 576.946 421.42 535.632 421.42 535.632V535.624Z" fill="#A8D7E9"/>
<path d="M349.548 275.662C348.704 275.637 347.987 276.31 347.963 277.163C347.963 277.258 347.683 284.188 343.289 287.826C339.091 291.297 331.475 292.461 327.778 292.454C324.322 292.607 316.465 291.303 312.261 287.826C307.866 284.188 307.588 277.258 307.588 277.163C307.562 276.31 306.851 275.637 306.002 275.662C305.153 275.688 304.48 276.4 304.506 277.251C304.518 277.595 304.803 285.664 310.301 290.209C315.913 294.851 323.156 295.557 327.042 295.557C331.684 295.557 339.643 294.851 345.255 290.209C350.752 285.664 351.038 277.588 351.05 277.251C351.076 276.4 350.404 275.688 349.554 275.662H349.548Z" fill="#3AEDB1"/>
<path d="M293.7 262.552C292.488 262.552 291.505 261.579 291.493 260.365C291.493 260.352 291.411 257.637 289.787 255.043C287.688 251.699 283.978 250.001 278.754 250.001H278.646C267.371 250.052 265.817 259.526 265.753 259.927C265.569 261.134 264.447 261.967 263.242 261.79C262.037 261.605 261.207 260.479 261.384 259.271C262.095 254.554 266.604 245.627 278.626 245.576H278.754C295.545 245.576 295.906 260.168 295.906 260.314C295.92 261.535 294.943 262.54 293.725 262.552H293.7Z" fill="#3AEDB1"/>
<path d="M383.53 262.552C382.319 262.552 381.336 261.579 381.324 260.365C381.324 260.352 381.241 257.637 379.618 255.043C377.519 251.699 373.809 250.001 368.584 250.001H368.476C357.202 250.052 355.648 259.526 355.584 259.927C355.401 261.134 354.278 261.967 353.073 261.79C351.869 261.605 351.038 260.479 351.215 259.271C351.925 254.554 356.434 245.627 368.457 245.576H368.584C385.376 245.576 385.737 260.168 385.737 260.314C385.75 261.535 384.774 262.54 383.556 262.552H383.53Z" fill="#3AEDB1"/>
<path d="M203.013 287.044L99.1045 373.208L99.1996 373.322C93.1564 379.706 92.1989 389.116 97.3036 395.309C102.415 401.502 111.806 402.322 119.194 397.565L119.289 397.68L223.197 311.516L203.006 287.038L203.013 287.044Z" fill="#2A56F4"/>
<path d="M219.272 306.652L123.182 386.33L123.087 386.216C115.7 390.973 106.302 390.152 101.197 383.959C98.9651 381.25 97.8934 377.932 97.8934 374.518C92.9535 380.819 92.4653 389.344 97.2086 395.098C102.32 401.291 111.711 402.112 119.099 397.356L119.194 397.47L223.102 311.306L219.266 306.658L219.272 306.652Z" fill="#0643F2"/>
<path d="M311.473 315.328C340.903 285.821 340.903 237.98 311.473 208.472C282.043 178.964 234.328 178.964 204.898 208.472C175.468 237.98 175.468 285.821 204.898 315.328C234.328 344.836 282.043 344.836 311.473 315.328Z" fill="#2A56F4"/>
<path d="M330.549 240.255C335.54 266.463 326.51 294.521 304.556 312.723C272.482 339.32 224.98 334.812 198.454 302.653C191.872 294.673 187.198 285.734 184.383 276.401C186.684 288.48 191.96 300.167 200.331 310.314C226.856 342.473 274.359 346.981 306.433 320.386C330.543 300.389 339.066 268.509 330.543 240.255H330.549Z" fill="#0643F2"/>
<path d="M296.82 302.932C270.858 324.461 232.405 320.811 210.932 294.781C189.461 268.751 193.101 230.197 219.063 208.668C245.024 187.14 283.478 190.788 304.949 216.818C326.42 242.848 322.78 281.404 296.82 302.932Z" fill="#0643F2"/>
<path d="M297.048 309.011C271.099 330.526 232.665 326.884 211.206 300.866C189.747 274.85 193.381 236.313 219.329 214.798C245.278 193.281 283.712 196.925 305.171 222.942C326.63 248.959 322.997 287.495 297.048 309.011Z" fill="#002B43"/>
<path opacity="0.3" d="M121.128 375.554C119.447 376.946 116.962 376.711 115.573 375.027C114.184 373.342 114.419 370.849 116.099 369.457L187.102 310.581C188.784 309.189 191.269 309.424 192.658 311.109C194.046 312.793 193.812 315.286 192.132 316.678L121.128 375.554Z" fill="white"/>
<path d="M295.463 270.64C292.66 270.64 290.371 268.376 290.339 265.559C290.339 265.521 290.155 259.233 286.383 253.212C281.518 245.449 272.901 241.514 260.776 241.514C260.693 241.514 260.611 241.514 260.529 241.514C234.358 241.628 230.756 263.614 230.616 264.548C230.198 267.359 227.579 269.291 224.783 268.866C221.98 268.446 220.052 265.827 220.477 263.016C222.119 252.074 232.595 231.346 260.485 231.226C260.579 231.226 260.681 231.226 260.776 231.226C299.743 231.226 300.587 265.089 300.587 265.432C300.618 268.268 298.348 270.602 295.52 270.633C295.501 270.633 295.482 270.633 295.463 270.633V270.64Z" fill="#3AEDB1"/>
<path opacity="0.3" d="M272.197 220.214C271.613 212.903 262.475 212.025 256.977 211.738C251.366 211.447 243.451 211.732 229.171 220.958C219.475 227.227 211.149 239.657 209.221 251.261C207.896 259.221 208.004 270.735 214.706 276.495C221.13 282.014 231.384 278.88 235.746 272.35C240.351 265.458 238.988 255.806 241.657 248.107C244.745 239.193 248.899 233.941 257.403 230.903C262.488 229.084 272.793 227.716 272.197 220.214Z" fill="white"/>
<path d="M464.471 418.948C464.471 418.948 492.392 451.775 505.746 461.395C515.873 468.693 525.188 431.162 490.394 396.485C456.373 362.578 427.895 356.321 427.895 356.321L464.471 418.948Z" fill="#D5E9F2"/>
<path d="M490.394 396.485C456.373 362.578 427.895 356.321 427.895 356.321L430.938 361.535C441.845 367.562 455.853 377.156 470.945 392.206C494.32 415.502 497.788 440.088 494.471 451.502C498.663 455.595 502.608 459.137 505.74 461.395C515.867 468.693 525.182 431.162 490.388 396.485H490.394Z" fill="#A8D7E9"/>
</g>
<path d="M22.7348 498.843C35.2909 498.843 45.4695 488.631 45.4695 476.033C45.4695 463.435 35.2909 453.223 22.7348 453.223C10.1787 453.223 0 463.435 0 476.033C0 488.631 10.1787 498.843 22.7348 498.843Z" fill="#FFAF01"/>
<path d="M198.619 89.9569C205.599 88.8176 210.339 82.2049 209.206 75.1867C208.072 68.1686 201.496 63.4028 194.516 64.542C187.536 65.6813 182.796 72.294 183.929 79.3122C185.063 86.3303 191.639 91.0961 198.619 89.9569Z" fill="#C4CAFF"/>
<path d="M587.477 371.647C595.525 370.334 600.99 362.709 599.684 354.616C598.378 346.525 590.794 341.03 582.746 342.343C574.697 343.657 569.232 351.281 570.539 359.374C571.846 367.466 579.429 372.961 587.477 371.647Z" fill="#E34C1A"/>
<mask id="mask1_7_59" style="mask-type:luminance" maskUnits="userSpaceOnUse" x="393" y="0" width="123" height="155">
<path d="M515.168 25.2684L432.831 0L393.41 129.303L475.748 154.571L515.168 25.2684Z" fill="white"/>
</mask>
<g mask="url(#mask1_7_59)">
<path d="M502.577 66.5165C472.484 88.3826 472.078 61.3879 460.213 57.8373C453.993 55.979 441.693 80.165 420.254 41.2525C427.2 18.4677 451.258 5.65532 473.994 12.6326C496.731 19.61 509.523 43.7319 502.577 66.5165Z" fill="#FFAF01"/>
<path d="M420.254 41.2523C416.923 68.3728 428.365 75.3276 426.927 104.306C438.631 118.617 438.192 116.008 463.553 117.661C474.483 93.9389 497.077 84.5442 502.572 66.5196C511.92 39.9229 430.245 20.6288 420.254 41.2523Z" fill="#FFAF01"/>
<path d="M440.425 56.0156C440.425 56.0156 442.752 76.36 443.081 83.7416C443.41 91.1232 438.632 107.045 438.632 107.045" stroke="#002B43" stroke-width="4.9" stroke-miterlimit="10" stroke-linecap="round"/>
<path d="M480.475 68.3059C480.475 68.3059 467.203 83.8631 462.814 89.7968C458.425 95.7306 453.513 111.612 453.513 111.612" stroke="#002B43" stroke-width="4.9" stroke-miterlimit="10" stroke-linecap="round"/>
<path d="M427.596 118.124L423.716 130.852C422.522 134.768 424.088 138.717 427.217 139.677L444.199 144.888C447.317 145.846 450.824 143.452 452.017 139.538L455.897 126.809L427.596 118.124Z" fill="#A8D7E9"/>
<path d="M425.308 100.346L419.015 120.989C417.82 124.903 420.019 129.047 423.921 130.245L452.186 138.918C456.088 140.115 460.22 137.915 461.414 134L467.706 113.357L425.308 100.346Z" fill="#A8D7E9"/>
<path d="M450.234 66.1956C449.325 69.1782 446.749 71.0334 444.482 70.3377C442.216 69.6421 441.115 66.6588 442.024 63.6762C442.933 60.6982 445.507 58.8431 447.775 59.5387C450.042 60.2343 451.142 63.2177 450.234 66.1956Z" stroke="#002B43" stroke-width="4.08" stroke-miterlimit="10" stroke-linecap="round"/>
<path d="M458.449 68.7166C457.539 71.6992 454.963 73.5544 452.697 72.8587C450.43 72.1631 449.329 69.1798 450.238 66.1971C451.148 63.2146 453.722 61.3641 455.989 62.0597C458.256 62.7553 459.361 65.7401 458.449 68.7166Z" stroke="#002B43" stroke-width="4.08" stroke-miterlimit="10" stroke-linecap="round"/>
<path d="M466.663 71.2376C465.753 74.2201 463.178 76.0754 460.907 75.3783C458.635 74.6813 457.535 71.6979 458.444 68.7153C459.352 65.7374 461.928 63.8822 464.198 64.5793C466.47 65.2763 467.571 68.2597 466.663 71.2376Z" stroke="#002B43" stroke-width="4.08" stroke-miterlimit="10" stroke-linecap="round"/>
<path d="M474.877 73.7581C473.968 76.7407 471.393 78.5958 469.125 77.9002C466.859 77.2046 465.758 74.2213 466.668 71.2386C467.577 68.2561 470.151 66.4056 472.418 67.1012C474.684 67.7968 475.785 70.7802 474.877 73.7581Z" stroke="#002B43" stroke-width="4.08" stroke-miterlimit="10" stroke-linecap="round"/>
<path d="M458.665 16.2135C471.114 11.8194 487.285 23.7699 492.513 30.716C499.772 40.3706 502.091 57.4862 498.055 66.8556C494.02 76.2251 488.369 80.0851 481.813 87.9434C479.48 90.7365 489.421 79.5796 487.49 59.8364C486.048 45.1003 471.377 36.9527 461.337 32.5538C454.315 29.4749 446.283 20.5879 458.665 16.2135Z" fill="#FFD77F"/>
<path d="M467.248 120.018C467.077 120.581 466.504 120.905 465.97 120.741L422.428 107.379C421.894 107.214 421.599 106.629 421.772 106.061L422.312 104.289C422.484 103.726 423.057 103.401 423.59 103.565L467.132 116.928C467.667 117.091 467.961 117.681 467.789 118.245L467.25 120.013L467.248 120.018Z" fill="#D5E9F2"/>
<path d="M465.389 126.112C465.218 126.675 464.646 127 464.111 126.836L420.569 113.473C420.036 113.31 419.742 112.72 419.913 112.156L420.453 110.388C420.624 109.825 421.196 109.5 421.731 109.664L465.273 123.027C465.807 123.19 466.1 123.78 465.929 124.344L465.389 126.112Z" fill="#D5E9F2"/>
<path d="M463.635 132.233C463.463 132.796 462.891 133.121 462.356 132.956L418.815 119.594C418.28 119.43 417.987 118.841 418.159 118.277L418.697 116.509C418.869 115.946 419.442 115.621 419.976 115.785L463.517 129.148C464.052 129.311 464.346 129.901 464.174 130.465L463.635 132.233Z" fill="#D5E9F2"/>
</g>
</g>
<defs>
<clipPath id="clip0_7_59">
<rect width="600" height="600" fill="white"/>
</clipPath>
</defs>
</svg>
