<svg width="600" height="600" viewBox="0 0 600 600" fill="none" xmlns="http://www.w3.org/2000/svg">
<g clip-path="url(#clip0_7_123)">
<path d="M396.923 501.084C396.923 509.548 353.115 516.409 299.077 516.409C245.039 516.409 201.231 509.548 201.231 501.084C201.231 492.62 245.039 485.759 299.077 485.759C353.115 485.759 396.923 492.62 396.923 501.084Z" fill="#2085B7"/>
<path d="M379.36 182.942C353.947 145.82 292.154 145.82 292.154 145.82C292.154 145.82 230.36 145.82 204.948 182.942C181.629 217.011 181.846 263.568 181.846 263.568L204.369 292.57H379.939L402.462 263.568C402.462 263.568 402.684 217.011 379.36 182.942Z" fill="#D5E9F2"/>
<path d="M379.323 182.955C369.345 168.405 353.764 159.559 338.511 154.18C346.402 159.106 353.59 165.38 359.078 173.387C382.435 207.452 382.217 254.004 382.217 254.004L359.659 283.002H196.615L204.061 292.57H379.903L402.462 263.571C402.462 263.571 402.685 217.02 379.323 182.955Z" fill="#A8D7E9"/>
<path d="M348.112 190.929C324.458 172.889 259.85 172.889 236.195 190.929C210.515 210.518 211.388 257.276 211.388 257.276H372.919C372.919 257.276 373.792 210.518 348.112 190.929Z" fill="#002B43"/>
<path d="M212.061 257.276C213.646 242.019 218.891 216.494 236.195 203.296C259.844 185.256 324.458 185.256 348.112 203.296C365.411 216.494 370.661 242.025 372.246 257.276H372.919C372.919 257.276 373.792 210.518 348.112 190.929C324.458 172.889 259.85 172.889 236.195 190.929C210.515 210.518 211.388 257.276 211.388 257.276H212.061Z" fill="#000F16"/>
<path d="M272.972 137.461H311.335C313.229 137.461 314.769 139.052 314.769 141.007V153.421C314.769 155.376 313.229 156.966 311.335 156.966H272.972C271.079 156.966 269.539 155.376 269.539 153.421V141.007C269.539 139.052 271.079 137.461 272.972 137.461Z" fill="#D5E9F2"/>
<path d="M94.6255 290.302C101.143 289.236 105.57 283.043 104.512 276.47C103.454 269.898 97.3117 265.434 90.7938 266.501C84.276 267.567 79.8489 273.761 80.9077 280.334C81.9655 286.907 88.1068 291.37 94.6255 290.302Z" fill="#C4CAFF"/>
<path d="M465.925 261.186C472.832 260.055 477.524 253.492 476.402 246.527C475.28 239.561 468.772 234.83 461.864 235.962C454.956 237.092 450.265 243.656 451.387 250.621C452.508 257.587 459.017 262.317 465.925 261.186Z" fill="#E34C1A"/>
<path d="M281.672 146.704L286.861 97.9895H293.786L302.251 146.994L281.672 146.704Z" fill="#D5E9F2"/>
<path d="M298.88 97.9893C298.88 102.636 295.137 106.399 290.516 106.399C285.894 106.399 282.151 102.636 282.151 97.9893C282.151 93.3427 285.894 89.5796 290.516 89.5796C295.137 89.5796 298.88 93.3427 298.88 97.9893Z" fill="#D5E9F2"/>
<path d="M295.738 91.4189C296.272 92.5262 296.572 93.7731 296.572 95.087C296.572 99.7337 292.828 103.497 288.207 103.497C286.232 103.497 284.419 102.809 282.984 101.657C284.342 104.464 287.2 106.399 290.515 106.399C295.137 106.399 298.88 102.636 298.88 97.9891C298.88 95.3331 297.651 92.9622 295.738 91.4189Z" fill="#A8D7E9"/>
<path d="M204.369 292.57H379.939L402.462 263.777H181.846L204.369 292.57Z" fill="#A8D7E9"/>
<path d="M314.769 147.34C314.769 148.555 313.987 149.536 313.017 149.536H293.444C292.475 149.536 291.692 148.555 291.692 147.34V139.657C291.692 138.442 292.475 137.461 293.444 137.461H313.017C313.987 137.461 314.769 138.442 314.769 139.657V147.34Z" fill="#A8D7E9"/>
<path d="M257.112 161.887C254.351 156.414 241.849 159.549 237.765 161.541C234.431 163.171 228.39 166.787 224.542 170.618C221.487 173.137 218.758 176.068 216.386 179.373C214.418 182.118 210.695 187.771 213.078 191.377C215.703 195.338 220.125 191.902 222.328 189.617C228.051 183.658 232.446 177.28 240.209 173.652C244.024 171.869 260.369 168.338 257.112 161.887Z" fill="white"/>
<path d="M411.692 358.396L377.419 299.071H206.888L172.615 358.396C172.615 358.396 174.084 383.119 182.349 405.715C195.058 440.451 207.172 454.345 207.172 454.345L249.121 470.605L291.77 474.541V474.613C291.77 474.613 292.054 474.58 292.154 474.58C292.254 474.58 292.538 474.613 292.538 474.613V474.541L335.187 470.605L377.136 454.345C377.136 454.345 392.353 434.663 401.959 405.715C409.534 382.873 411.692 358.396 411.692 358.396Z" fill="#D5E9F2"/>
<path d="M377.273 299.071H336.727L371.141 358.396C371.141 358.396 368.974 382.873 361.367 405.715C351.723 434.663 347.405 446.189 336.442 454.345C327.384 461.082 294.321 470.605 294.321 470.605L271.385 472.716L291.278 474.541V474.613C291.278 474.613 291.562 474.58 291.663 474.58C291.763 474.58 292.049 474.613 292.049 474.613V474.541L334.873 470.605L376.994 454.345C376.994 454.345 392.273 434.663 401.919 405.715C409.525 382.873 411.692 358.396 411.692 358.396L377.278 299.071H377.273Z" fill="#A8D7E9"/>
<path d="M172.615 358.514H411.692L402.37 376.161L172.615 358.514Z" fill="#A8D7E9"/>
<path d="M220.613 397.897C219.927 389.167 225.844 377.131 215.949 372.517C210.87 370.152 202.284 369.177 198.351 374.262C196.901 376.135 196.171 378.49 196.036 380.936C194.62 387.163 197.946 396.272 199.497 401.854C201.329 408.426 207.672 431.536 219.354 425.24C227.316 420.949 221.113 404.356 220.607 397.891L220.613 397.897Z" fill="white"/>
<path d="M232.99 311.216C227.815 303.684 220.538 306.191 215.353 311.662C203.825 318.821 191.584 348.072 209.011 350.935C219.061 352.583 222.137 340.095 225.541 333.343C228.662 327.148 238.064 318.612 232.984 311.222L232.99 311.216Z" fill="white"/>
<path d="M418.561 354.881C418.561 354.881 442.825 383.645 454.425 392.074C463.226 398.47 471.321 365.583 441.084 335.193C411.518 305.482 386.769 300 386.769 300L418.555 354.876L418.561 354.881Z" fill="#D5E9F2"/>
<path d="M441.088 335.195C411.52 305.483 386.769 300 386.769 300L389.415 304.569C398.899 309.851 411.068 318.257 424.185 331.445C444.499 351.859 447.509 373.404 444.631 383.405C448.274 386.993 451.702 390.097 454.424 392.074C463.226 398.471 471.322 365.582 441.082 335.189L441.088 335.195Z" fill="#A8D7E9"/>
<path d="M166.779 353.113C166.779 353.113 141.544 381.23 129.618 389.347C120.575 395.506 113.321 362.357 144.616 332.784C175.217 303.864 200.308 299.071 200.308 299.071L166.773 353.119L166.779 353.113Z" fill="#D5E9F2"/>
<path d="M144.616 332.782C175.217 303.863 200.308 299.071 200.308 299.071L197.519 303.568C187.82 308.588 175.328 316.665 161.746 329.501C140.722 349.366 137.095 370.849 139.723 380.941C135.951 384.433 132.417 387.439 129.618 389.347C120.575 395.506 113.321 362.358 144.616 332.787V332.782Z" fill="#A8D7E9"/>
<path d="M206.769 459.752C206.769 459.752 221.812 499.285 234.415 500.575C247.016 501.865 247.385 474.768 247.385 474.768L206.769 459.752Z" fill="#D5E9F2"/>
<path d="M237.486 470.898C237.335 474.73 236.142 493.414 227.077 495.78C229.733 498.501 232.428 500.315 235.028 500.575C247.931 501.863 248.308 474.802 248.308 474.802L237.493 470.898H237.486Z" fill="#A8D7E9"/>
<path d="M381.231 456.966C381.231 456.966 369.126 498.188 356.554 500.483C343.983 502.778 341.539 475.355 341.539 475.355L381.231 456.966Z" fill="#D5E9F2"/>
<path d="M351.725 470.898C352.156 474.731 354.726 493.385 363.692 495.076C361.325 498.008 358.848 500.029 356.349 500.485C343.95 502.755 341.539 475.632 341.539 475.632L351.725 470.904V470.898Z" fill="#A8D7E9"/>
<path d="M323.877 249.844C322.768 249.878 321.837 248.996 321.803 247.886C321.803 247.763 321.441 238.705 315.688 233.951C310.191 229.408 300.224 227.891 295.385 227.907C290.864 227.712 280.578 229.414 275.081 233.951C269.328 238.705 268.965 247.763 268.96 247.886C268.927 249.002 267.995 249.878 266.887 249.844C265.772 249.811 264.897 248.885 264.924 247.769C264.935 247.322 265.314 236.774 272.511 230.831C279.859 224.765 289.336 223.839 294.426 223.839C300.502 223.839 310.911 224.76 318.258 230.831C325.455 236.774 325.829 247.322 325.845 247.769C325.879 248.885 324.998 249.817 323.883 249.844H323.877Z" fill="#3AEDB1"/>
<path d="M262.083 209.485C262.472 211.18 261.224 212.912 259.284 213.357L242.445 217.233C240.505 217.677 238.615 216.666 238.225 214.973C237.835 213.279 239.083 211.546 241.024 211.102L257.863 207.226C259.803 206.781 261.692 207.792 262.083 209.485Z" fill="#3AEDB1"/>
<path d="M347.941 214.822C347.586 216.581 345.719 217.667 343.781 217.248L326.925 213.586C324.987 213.166 323.704 211.396 324.059 209.637C324.415 207.878 326.281 206.791 328.219 207.211L345.075 210.872C347.013 211.292 348.296 213.062 347.941 214.822Z" fill="#3AEDB1"/>
<mask id="mask0_7_123" style="mask-type:luminance" maskUnits="userSpaceOnUse" x="-18" y="358" width="618" height="242">
<path d="M600 358.514H-17.5386V600H600V358.514Z" fill="white"/>
</mask>
<g mask="url(#mask0_7_123)">
<path d="M197.243 592.855C247.481 592.855 288.208 551.835 288.208 501.235C288.208 450.635 247.481 409.616 197.243 409.616C147.005 409.616 106.279 450.635 106.279 501.235C106.279 551.835 147.005 592.855 197.243 592.855Z" fill="#FFD77F"/>
<path d="M539.274 519.33C549.637 519.33 558.039 510.868 558.039 500.43C558.039 489.991 549.637 481.529 539.274 481.529C528.91 481.529 520.509 489.991 520.509 500.43C520.509 510.868 528.91 519.33 539.274 519.33Z" fill="#FFAF01"/>
<path fill-rule="evenodd" clip-rule="evenodd" d="M476.314 560.496C476.314 563.653 478.854 566.22 481.997 566.22C485.139 566.22 487.68 563.661 487.68 560.496C487.68 557.33 485.139 554.771 481.997 554.771C478.854 554.771 476.314 557.33 476.314 560.496Z" fill="#DBDFFF"/>
<path fill-rule="evenodd" clip-rule="evenodd" d="M295.828 397.802C295.828 397.802 296.308 386.329 292.084 378.993H278.465C278.465 378.993 285.873 388.464 286.756 398.134L295.837 397.802H295.828Z" fill="url(#paint0_linear_7_123)"/>
<path fill-rule="evenodd" clip-rule="evenodd" d="M314.981 414.999L310.791 392.817H217.278L223.63 421.87L314.981 414.999Z" fill="white"/>
<path fill-rule="evenodd" clip-rule="evenodd" d="M217.278 392.817L211.324 395.026V398.417L197.243 403.85L204.691 430.152L224.108 424.238L217.278 392.817Z" fill="#A8D7E9"/>
<path fill-rule="evenodd" clip-rule="evenodd" d="M218.994 527.364L285.832 531.177L295.985 596.053L212.709 597.408L192.186 551.523L218.994 527.364Z" fill="url(#paint1_radial_7_123)"/>
<path fill-rule="evenodd" clip-rule="evenodd" d="M212.709 597.408L112.053 596.053L109.669 581.066H118.783L118.19 578.407L115.22 577.544L109.669 547.485H113.636L113.043 543.414L115.814 542.708L113.636 527.364H218.994V542.708L215.522 543.414V547.485H214.277L215.555 580.427L218.994 581.066V583.525H210.308L212.709 597.408Z" fill="white"/>
<g style="mix-blend-mode:multiply" opacity="0.2">
<path fill-rule="evenodd" clip-rule="evenodd" d="M118.19 578.407L218.994 581.066V583.525L118.783 581.066L118.19 578.407Z" fill="#9A597C"/>
</g>
<path fill-rule="evenodd" clip-rule="evenodd" d="M113.636 547.485H214.276L113.455 546.24L109.042 547.485H113.636Z" fill="url(#paint2_linear_7_123)"/>
<path fill-rule="evenodd" clip-rule="evenodd" d="M113.043 543.414L218.994 544.702L225.42 543.049L218.994 542.708H115.814L113.043 543.414Z" fill="url(#paint3_linear_7_123)"/>
<path fill-rule="evenodd" clip-rule="evenodd" d="M112.267 561.526L98.6908 566.735L87.2742 575.392L190.925 574.968L113.743 569.551L112.267 561.526Z" fill="url(#paint4_linear_7_123)"/>
<g style="mix-blend-mode:multiply" opacity="0.5">
<path fill-rule="evenodd" clip-rule="evenodd" d="M190.925 574.968L145.352 579.296L154.417 579.363V581.939H145.352L133.499 593.004L109.669 581.066H118.783L118.19 578.407L115.22 577.544L114.742 574.968H190.925Z" fill="#9A6D92"/>
</g>
<path fill-rule="evenodd" clip-rule="evenodd" d="M218.994 536.685H210.647L92.1082 537.557L114.387 532.663L218.994 536.685Z" fill="url(#paint5_linear_7_123)"/>
<g style="mix-blend-mode:multiply" opacity="0.5">
<path fill-rule="evenodd" clip-rule="evenodd" d="M218.994 536.685L156.99 542.708L150.293 543.705L148.214 546.24L130.125 546.447L127.734 547.485L110.849 553.874L109.669 547.485L113.455 546.24L113.043 543.414L115.814 542.708L115.08 537.557L218.994 536.685Z" fill="#9A6D92"/>
</g>
<path fill-rule="evenodd" clip-rule="evenodd" d="M231.128 418.074L325.738 414.601L360.002 561.592L260.443 580.942L231.128 418.074Z" fill="#2A56F4"/>
<path fill-rule="evenodd" clip-rule="evenodd" d="M229.025 586.201L200.567 429.513C200.567 429.513 207.026 421.671 226.616 418.398L260.443 580.95L229.016 586.209L229.025 586.201Z" fill="url(#paint6_radial_7_123)"/>
<path fill-rule="evenodd" clip-rule="evenodd" d="M243.278 519.405C243.278 519.405 228.117 521.898 220.207 524.481L201.962 431.034C201.962 431.034 207.801 424.321 223.622 421.862L243.278 519.396V519.405Z" fill="white"/>
<g style="mix-blend-mode:multiply" opacity="0.5">
<path fill-rule="evenodd" clip-rule="evenodd" d="M227.103 554.83C228.53 563.503 234.006 569.809 239.335 568.911C244.663 568.022 247.823 560.272 246.388 551.598C244.961 542.925 239.484 536.619 234.155 537.516C228.826 538.405 225.667 546.156 227.103 554.83Z" fill="#9A2463"/>
</g>
<path fill-rule="evenodd" clip-rule="evenodd" d="M226.757 552.72C228.184 561.393 233.66 567.699 238.989 566.801C244.317 565.912 247.477 558.161 246.042 549.488C244.614 540.814 239.137 534.509 233.809 535.406C228.48 536.295 225.321 544.047 226.757 552.72Z" fill="#D5E9F2"/>
<path fill-rule="evenodd" clip-rule="evenodd" d="M228.538 552.421C229.618 558.983 233.767 563.753 237.793 563.079C238.288 562.997 238.766 562.831 239.203 562.606C242.362 560.953 244.078 555.735 243.129 549.986C242.181 544.229 238.881 539.859 235.36 539.319C234.872 539.244 234.369 539.244 233.866 539.327C229.842 540 227.441 545.865 228.53 552.429L228.538 552.421Z" fill="#5A448E"/>
<path fill-rule="evenodd" clip-rule="evenodd" d="M231.45 551.939C232.398 557.688 235.698 562.058 239.212 562.606C242.37 560.953 244.086 555.735 243.138 549.986C242.189 544.229 238.89 539.859 235.368 539.319C232.217 540.981 230.501 546.189 231.45 551.939Z" fill="url(#paint7_radial_7_123)"/>
<g style="mix-blend-mode:soft-light">
<path fill-rule="evenodd" clip-rule="evenodd" d="M241.67 539.211L239.88 541.031C239.88 541.031 237.108 537.815 232.811 538.688L231.978 536.029C231.978 536.029 236.135 533.279 241.67 539.22V539.211Z" fill="white"/>
</g>
<g style="mix-blend-mode:soft-light">
<path fill-rule="evenodd" clip-rule="evenodd" d="M238.428 566.901L237.158 563.785C237.158 563.785 232.852 563.437 230.353 559.025L230.039 561.526C230.039 561.526 233.512 567.225 238.428 566.909V566.901Z" fill="white"/>
</g>
<path fill-rule="evenodd" clip-rule="evenodd" d="M227.011 439.025C227.011 439.025 216.132 438.336 204.691 444.999L207.339 458.583C207.339 458.583 213.435 454.744 229.866 453.15L227.003 439.025H227.011Z" fill="url(#paint8_radial_7_123)"/>
<g style="mix-blend-mode:multiply" opacity="0.2">
<path fill-rule="evenodd" clip-rule="evenodd" d="M231.392 460.693C231.392 460.693 218.351 461.723 208.799 466.068L210.251 473.521C210.251 473.521 218.78 470.097 232.818 467.746L231.392 460.693Z" fill="#6A1760"/>
</g>
<path fill-rule="evenodd" clip-rule="evenodd" d="M226.624 418.397L231.128 418.073L264.79 580.102L260.443 580.941L226.624 418.397Z" fill="url(#paint9_radial_7_123)"/>
<g style="mix-blend-mode:screen" opacity="0.4">
<path d="M231.449 418.024L230.843 418.152L264.452 580.189L265.058 580.062L231.449 418.024Z" fill="url(#paint10_radial_7_123)"/>
</g>
<path fill-rule="evenodd" clip-rule="evenodd" d="M293.56 427.619L389.795 435.935L397.342 593.096L295.985 595.796L293.56 427.619Z" fill="#E34C1A"/>
<path fill-rule="evenodd" clip-rule="evenodd" d="M264.13 595.796L261.557 433.949C261.557 433.949 269.202 427.17 289.065 427.17L295.986 595.788H264.13V595.796Z" fill="#E34C1A"/>
<path fill-rule="evenodd" clip-rule="evenodd" d="M289.065 531.228C289.065 531.228 273.706 531.186 265.474 532.449L262.678 435.72C262.678 435.72 269.533 429.971 285.543 430.162L289.057 531.236L289.065 531.228Z" fill="white"/>
<g style="mix-blend-mode:multiply" opacity="0.5">
<path d="M277.113 580.203C282.511 580.203 286.888 572.961 286.888 564.027C286.888 555.094 282.511 547.852 277.113 547.852C271.715 547.852 267.339 555.094 267.339 564.027C267.339 572.961 271.715 580.203 277.113 580.203Z" fill="#9A2463"/>
</g>
<path d="M277.113 578.034C282.511 578.034 286.888 570.792 286.888 561.858C286.888 552.925 282.511 545.683 277.113 545.683C271.715 545.683 267.339 552.925 267.339 561.858C267.339 570.792 271.715 578.034 277.113 578.034Z" fill="#D5E9F2"/>
<path fill-rule="evenodd" clip-rule="evenodd" d="M269.145 561.859C269.145 568.622 272.461 574.096 276.543 574.096C277.047 574.096 277.541 574.013 278.012 573.855C281.393 572.725 283.943 567.79 283.943 561.859C283.943 555.927 281.393 550.992 278.012 549.862C277.541 549.704 277.047 549.621 276.543 549.621C272.461 549.621 269.145 555.096 269.145 561.859Z" fill="#5A448E"/>
<path fill-rule="evenodd" clip-rule="evenodd" d="M272.09 561.858C272.09 567.782 274.638 572.717 278.012 573.855C281.394 572.725 283.942 567.79 283.942 561.858C283.942 555.927 281.394 550.992 278.012 549.862C274.638 551.001 272.09 555.935 272.09 561.858Z" fill="url(#paint11_radial_7_123)"/>
<g style="mix-blend-mode:soft-light">
<path fill-rule="evenodd" clip-rule="evenodd" d="M284.256 550.818L282.202 552.338C282.202 552.338 279.991 548.649 275.604 548.807L275.208 545.999C275.208 545.999 279.752 543.938 284.256 550.818Z" fill="white"/>
</g>
<g style="mix-blend-mode:soft-light">
<path fill-rule="evenodd" clip-rule="evenodd" d="M276.543 578.026L275.793 574.686C275.793 574.686 271.603 573.614 269.854 568.77L269.145 571.221C269.145 571.221 271.644 577.518 276.543 578.026Z" fill="white"/>
</g>
<path fill-rule="evenodd" clip-rule="evenodd" d="M286.079 445.448C286.079 445.448 275.471 445.415 263.098 450.176L263.502 464.232C263.502 464.232 269.062 462.413 286.582 460.103L286.071 445.448H286.079Z" fill="url(#paint12_radial_7_123)"/>
<g style="mix-blend-mode:multiply" opacity="0.2">
<path fill-rule="evenodd" clip-rule="evenodd" d="M286.879 468.528C286.879 468.528 273.855 469.233 263.726 471.984L263.948 479.702C263.948 479.702 272.922 477.699 287.151 477.699L286.879 468.528Z" fill="#6A1760"/>
</g>
<path fill-rule="evenodd" clip-rule="evenodd" d="M289.065 427.178L293.561 427.619L300.407 595.68L295.986 595.796L289.065 427.178Z" fill="#E34C1A"/>
<g style="mix-blend-mode:screen" opacity="0.4">
<path d="M293.863 427.588L293.238 427.614L300.115 595.674L300.741 595.648L293.863 427.588Z" fill="url(#paint13_radial_7_123)"/>
</g>
<g style="mix-blend-mode:multiply" opacity="0.8">
<path fill-rule="evenodd" clip-rule="evenodd" d="M311.089 453.207L304.333 454.835L309.398 595.148H329.45L319.42 454.835L311.089 453.207Z" fill="#9A2463"/>
</g>
<path fill-rule="evenodd" clip-rule="evenodd" d="M329.45 595.148L321.812 495.628L313.794 486.688L310.792 449.593L427.442 452.642L435.261 595.148H329.45Z" fill="url(#paint14_linear_7_123)"/>
<path fill-rule="evenodd" clip-rule="evenodd" d="M435.261 595.148L427.442 452.642L323.148 445.448L330.877 595.148H435.261Z" fill="url(#paint15_radial_7_123)"/>
<path fill-rule="evenodd" clip-rule="evenodd" d="M323.148 445.448L321.811 447.035L329.45 595.148H330.877L323.148 445.448Z" fill="url(#paint16_radial_7_123)"/>
<path fill-rule="evenodd" clip-rule="evenodd" d="M310.792 449.593L309.398 451.429L312.087 487.178L320.591 496.35L328.517 595.148H329.45L321.812 495.628L313.794 486.688L310.792 449.593Z" fill="url(#paint17_radial_7_123)"/>
<g style="mix-blend-mode:multiply" opacity="0.5">
<path fill-rule="evenodd" clip-rule="evenodd" d="M316.97 449.751L329.45 595.148L321.812 449.885L316.97 449.751Z" fill="#9A2463"/>
</g>
<g style="mix-blend-mode:multiply" opacity="0.8">
<path fill-rule="evenodd" clip-rule="evenodd" d="M261.812 450.175L241.67 453.207L253.192 525.959L249.695 529.266L245.703 583.409L263.874 580.102L261.812 450.175Z" fill="#9A4F8B"/>
</g>
<g style="mix-blend-mode:multiply" opacity="0.5">
<path fill-rule="evenodd" clip-rule="evenodd" d="M338.572 474.767L333.145 477.508L335.884 595.148L353.989 595.356L338.572 474.767Z" fill="#9A2463"/>
</g>
<path fill-rule="evenodd" clip-rule="evenodd" d="M349.279 456.564L345.897 457.711L346.285 462.82L342.086 463.808L341.731 463.177L337.846 463.808L347.266 593.952H349.279V595.356H357.09L359.928 595.148L368.984 590.047L349.279 456.564Z" fill="url(#paint18_radial_7_123)"/>
<path fill-rule="evenodd" clip-rule="evenodd" d="M429.397 592.697L446.578 468.128L358.237 449.867L347.844 583.525L429.397 592.697Z" fill="url(#paint19_linear_7_123)"/>
<path fill-rule="evenodd" clip-rule="evenodd" d="M343.225 485.168L340.28 458.284L345.988 458.916L346.285 462.82L342.087 463.808L343.225 485.168Z" fill="url(#paint20_linear_7_123)"/>
<path fill-rule="evenodd" clip-rule="evenodd" d="M349.279 456.564H362.954L369.216 595.148H359.928L349.279 456.564Z" fill="url(#paint21_linear_7_123)"/>
<path fill-rule="evenodd" clip-rule="evenodd" d="M340.279 458.284L339.579 459.139L342.532 485.168H343.225L340.279 458.284Z" fill="url(#paint22_radial_7_123)"/>
<path fill-rule="evenodd" clip-rule="evenodd" d="M358.237 449.867L357.495 450.815L347.844 583.525L358.237 449.867Z" fill="url(#paint23_radial_7_123)"/>
<path fill-rule="evenodd" clip-rule="evenodd" d="M441.299 468.602L351.918 460.942L364.589 595.356H449.061L441.299 468.602Z" fill="white"/>
<path fill-rule="evenodd" clip-rule="evenodd" d="M364.588 595.356H363.095L351.629 460.942H351.918L364.588 595.356Z" fill="url(#paint24_radial_7_123)"/>
<g style="mix-blend-mode:multiply" opacity="0.5">
<path fill-rule="evenodd" clip-rule="evenodd" d="M361.156 461.731V472.041L362.46 461.848L361.156 461.731Z" fill="#884863"/>
</g>
<g style="mix-blend-mode:multiply" opacity="0.2">
<path fill-rule="evenodd" clip-rule="evenodd" d="M362.031 492.047L430.922 494.29L430.766 491.898L361.808 489.596L362.031 492.047Z" fill="#6A1760"/>
<path fill-rule="evenodd" clip-rule="evenodd" d="M363.656 510.075L432.094 511.878L431.929 509.494L363.442 507.624L363.656 510.075Z" fill="#6A1760"/>
<path fill-rule="evenodd" clip-rule="evenodd" d="M362.443 496.55L436.358 498.851L436.209 496.458L362.221 494.099L362.443 496.55Z" fill="#6A1760"/>
<path fill-rule="evenodd" clip-rule="evenodd" d="M364.489 519.247L437.785 520.95L437.628 518.566L364.266 516.796L364.489 519.247Z" fill="#6A1760"/>
<path fill-rule="evenodd" clip-rule="evenodd" d="M393.796 524.464L438.074 525.42L437.917 523.036L393.606 522.039L393.796 524.464Z" fill="#6A1760"/>
<path fill-rule="evenodd" clip-rule="evenodd" d="M364.077 514.661L437.496 516.488L437.34 514.096L363.854 512.209L364.077 514.661Z" fill="#6A1760"/>
<path fill-rule="evenodd" clip-rule="evenodd" d="M365.57 531.244L433.463 532.548L433.298 530.156L365.346 528.802L365.57 531.244Z" fill="#6A1760"/>
<path fill-rule="evenodd" clip-rule="evenodd" d="M366.402 540.424L439.113 541.579L438.956 539.195L366.18 537.973L366.402 540.424Z" fill="#6A1760"/>
<path fill-rule="evenodd" clip-rule="evenodd" d="M395.478 545.418L439.401 546.048L439.245 543.664L395.288 542.992L395.478 545.418Z" fill="#6A1760"/>
<path fill-rule="evenodd" clip-rule="evenodd" d="M365.981 535.838L438.824 537.11L438.675 534.724L365.767 533.387L365.981 535.838Z" fill="#6A1760"/>
<path fill-rule="evenodd" clip-rule="evenodd" d="M367.45 552.038L434.808 552.836L434.643 550.443L367.228 549.588L367.45 552.038Z" fill="#6A1760"/>
<path fill-rule="evenodd" clip-rule="evenodd" d="M414.953 561.609L440.416 561.833L440.268 559.44L414.78 559.2L414.953 561.609Z" fill="#6A1760"/>
<path fill-rule="evenodd" clip-rule="evenodd" d="M416.693 585.154H441.926L441.842 583.958L416.603 583.949L416.693 585.154Z" fill="#6A1760"/>
<path fill-rule="evenodd" clip-rule="evenodd" d="M367.863 556.624L440.128 557.364L439.979 554.971L367.64 554.173L367.863 556.624Z" fill="#6A1760"/>
<path fill-rule="evenodd" clip-rule="evenodd" d="M383.353 501.668L436.638 503.237L436.49 500.853L383.155 499.233L383.353 501.668Z" fill="#6A1760"/>
</g>
<g style="mix-blend-mode:multiply" opacity="0.5">
<path fill-rule="evenodd" clip-rule="evenodd" d="M361.016 595.148L360.53 585.154L354.303 500.404L353.873 500.646L350.986 463.393H351.918L363.07 595.148H361.016Z" fill="#9A597C"/>
</g>
<g style="mix-blend-mode:multiply" opacity="0.2">
<path d="M370.461 574.877C370.461 567.267 375.963 561.078 382.727 561.078C389.49 561.078 394.992 567.267 394.992 574.877C394.992 582.487 389.49 588.677 382.727 588.677C375.963 588.677 370.461 582.487 370.461 574.877ZM371.706 574.877C371.706 581.797 376.656 587.422 382.727 587.422C388.797 587.422 393.747 581.789 393.747 574.877C393.747 567.965 388.797 562.332 382.727 562.332C376.656 562.332 371.706 567.965 371.706 574.877Z" fill="#6A1760"/>
<path d="M385.976 580.959C387.857 579.663 388.987 577.403 388.996 574.91H389.317C389.309 577.511 388.13 579.87 386.158 581.233L385.976 580.967V580.959ZM376.136 574.885V574.828H376.457V574.885C376.457 577.378 377.58 579.646 379.452 580.95L379.271 581.216C377.308 579.853 376.136 577.486 376.136 574.885ZM382.727 567.774C381.589 567.774 380.475 568.123 379.502 568.788L379.32 568.521C380.343 567.824 381.522 567.45 382.727 567.45C383.931 567.45 385.169 567.84 386.208 568.571L386.026 568.837C385.037 568.139 383.898 567.774 382.735 567.774H382.727Z" fill="#6A1760"/>
<path d="M371.97 574.877C371.97 568.281 376.796 562.914 382.727 562.914C388.657 562.914 393.483 568.281 393.483 574.877C393.483 581.474 388.657 586.832 382.727 586.832C376.796 586.832 371.97 581.466 371.97 574.877ZM375.303 574.877C375.303 579.621 378.635 583.484 382.727 583.484C386.818 583.484 390.15 579.621 390.15 574.877C390.15 570.134 386.818 566.271 382.727 566.271C378.635 566.271 375.303 570.134 375.303 574.877Z" fill="#6A1760"/>
</g>
<g style="mix-blend-mode:multiply">
<path fill-rule="evenodd" clip-rule="evenodd" d="M432.267 490.103L433.191 495.52L437.967 496.176L438.256 500.43L360.184 498.278V493.808L402.473 494.606L360.184 492.446L359.35 487.768L432.267 490.103Z" fill="#FFFF00"/>
</g>
<g style="mix-blend-mode:multiply">
<path fill-rule="evenodd" clip-rule="evenodd" d="M436.638 554.174L436.359 549.588L366.18 548.192V552.836L436.638 554.174Z" fill="#FFFF00"/>
</g>
<path d="M439.097 582.138C438.222 582.861 437.009 582.911 435.946 582.753C435.393 582.67 434.865 582.553 434.486 582.155C434.09 581.789 433.809 581.307 433.554 580.825C433.067 579.837 432.77 578.748 432.597 577.651C432.449 576.564 432.325 575.408 432.638 574.387C432.729 574.146 432.853 573.913 433.042 573.822C433.232 573.73 433.438 573.814 433.612 574.005C433.949 574.395 434.172 574.927 434.345 575.442C434.7 576.497 434.915 577.61 435.054 578.723C435.195 579.837 435.245 580.966 435.121 582.08C435.079 582.354 435.039 582.628 434.956 582.886C434.865 583.127 434.75 583.417 434.511 583.417C434.016 583.476 433.62 582.952 433.306 582.528C432.671 581.615 432.225 580.576 431.607 579.62C431.442 579.38 431.286 579.139 431.046 578.931C430.938 578.823 430.782 578.732 430.601 578.691C430.502 578.691 430.403 578.657 430.303 578.715C430.188 578.757 430.114 578.823 430.064 578.914C429.875 579.255 429.916 579.563 429.932 579.854C429.966 580.144 430.015 580.435 430.097 580.709C430.254 581.265 430.435 581.814 430.774 582.32C430.856 582.446 430.947 582.57 431.095 582.686C431.178 582.745 431.252 582.794 431.351 582.811C431.376 582.811 431.409 582.827 431.458 582.827C431.483 582.853 431.706 582.769 431.698 582.595C431.673 582.412 431.632 582.429 431.607 582.371C431.393 582.105 431.17 581.947 430.931 581.772C430.691 581.606 430.444 581.448 430.171 581.324C429.9 581.208 429.611 581.083 429.24 581.132C428.538 581.29 428.201 581.888 427.887 582.313C427.813 582.421 427.721 582.528 427.656 582.587C427.614 582.619 427.598 582.619 427.59 582.628C427.507 582.628 427.425 582.636 427.359 582.645C427.078 582.678 426.807 582.72 426.534 582.728C426.006 582.753 425.445 582.711 425.082 582.404C424.901 582.254 424.827 582.038 424.645 581.747C424.464 581.507 424.265 581.29 424.051 581.1C423.63 580.709 423.177 580.368 422.706 580.053C420.834 578.79 418.781 577.793 416.595 577.261V577.303C418.715 577.967 420.727 579.006 422.534 580.294C422.979 580.618 423.425 580.966 423.812 581.349C424.01 581.54 424.192 581.739 424.34 581.955C424.456 582.13 424.571 582.478 424.827 582.695C425.338 583.135 425.99 583.16 426.559 583.143C426.847 583.127 427.136 583.093 427.409 583.061C427.474 583.052 427.541 583.044 427.598 583.044C427.73 583.044 427.846 582.977 427.912 582.919C428.06 582.802 428.142 582.678 428.234 582.562C428.555 582.105 428.877 581.64 429.322 581.557C429.735 581.515 430.271 581.831 430.699 582.122C430.914 582.271 431.145 582.454 431.286 582.628C431.294 582.628 431.31 582.703 431.286 582.595C431.277 582.454 431.458 582.396 431.451 582.412C431.466 582.412 431.466 582.412 431.451 582.412C431.409 582.412 431.359 582.371 431.334 582.345C431.261 582.296 431.178 582.196 431.104 582.088C430.815 581.656 430.617 581.124 430.469 580.601C430.328 580.102 430.205 579.471 430.37 579.097C430.42 578.956 430.642 579.006 430.831 579.172C431.021 579.33 431.187 579.554 431.343 579.778C431.969 580.692 432.449 581.722 433.124 582.645C433.289 582.878 433.48 583.093 433.702 583.293C433.925 583.467 434.213 583.675 434.543 583.592C434.915 583.542 435.03 583.168 435.121 582.919C435.211 582.636 435.245 582.354 435.278 582.071C435.377 580.934 435.294 579.803 435.195 578.682C435.063 577.56 434.882 576.438 434.568 575.351C434.395 574.81 434.213 574.262 433.826 573.788C433.652 573.556 433.256 573.348 432.918 573.506C432.589 573.656 432.432 573.971 432.325 574.245C431.969 575.392 432.077 576.555 432.25 577.685C432.449 578.807 432.761 579.919 433.281 580.942C433.545 581.448 433.859 581.947 434.312 582.329C434.527 582.528 434.79 582.686 435.071 582.777C435.36 582.861 435.632 582.903 435.913 582.944C437.018 583.076 438.271 582.935 439.121 582.147L439.088 582.122L439.097 582.138Z" fill="#6A1760"/>
<path d="M430.749 577.676C430.708 576.996 430.296 576.381 429.768 575.957C429.487 575.766 429.182 575.591 428.852 575.509C428.53 575.417 428.192 575.392 427.863 575.433C428.481 575.675 429.05 575.89 429.521 576.281C430.015 576.63 430.395 577.12 430.749 577.676Z" fill="#6A1760"/>
<g style="mix-blend-mode:multiply" opacity="0.5">
<path fill-rule="evenodd" clip-rule="evenodd" d="M356.307 461.316L354.303 475.531C354.303 475.531 354.69 478.713 357.495 479.336C360.299 479.959 361.817 477.201 361.817 477.201C361.817 477.201 359.293 478.505 357.495 477.882C355.697 477.259 355.424 474.617 355.424 474.617L357.338 461.416L356.307 461.325V461.316Z" fill="#884863"/>
</g>
<path fill-rule="evenodd" clip-rule="evenodd" d="M437.669 471.725C437.669 471.725 434.32 453.789 440.548 446.337L431.459 442.308C431.459 442.308 427.244 455.757 430.139 470.994L437.678 471.718L437.669 471.725Z" fill="url(#paint25_linear_7_123)"/>
<path fill-rule="evenodd" clip-rule="evenodd" d="M158.442 506.353L103.574 462.462L99.1355 468.486L155.448 510.44L158.442 506.353Z" fill="url(#paint26_linear_7_123)"/>
<path fill-rule="evenodd" clip-rule="evenodd" d="M158.442 506.354L165.174 514.504L164.382 514.728L155.448 510.441L154.673 509.361L156.026 509.41L155.523 507.641L157.692 507.375L157.015 505.946L158.442 506.354Z" fill="#FFAA68"/>
<path fill-rule="evenodd" clip-rule="evenodd" d="M163.499 512.468L162.822 513.98L164.381 514.728L165.173 514.504L163.499 512.468Z" fill="url(#paint27_linear_7_123)"/>
<path fill-rule="evenodd" clip-rule="evenodd" d="M105.141 463.717L104.291 465.695L102.113 468.669L100.769 469.699L99.1355 468.486L103.574 462.462L105.141 463.717Z" fill="url(#paint28_radial_7_123)"/>
<path fill-rule="evenodd" clip-rule="evenodd" d="M103.574 462.463L102.963 464.257L100.687 467.372L99.1447 468.486L96.645 465.877C96.645 465.877 96.8758 463.642 100.348 460.818L103.582 462.463H103.574Z" fill="#FF3E79"/>
<g style="mix-blend-mode:multiply" opacity="0.5">
<path fill-rule="evenodd" clip-rule="evenodd" d="M100.678 467.373L156.026 509.411L154.673 509.361L155.448 510.441L99.1355 468.486L100.678 467.373Z" fill="#9C4C7A"/>
</g>
<path style="mix-blend-mode:screen" fill-rule="evenodd" clip-rule="evenodd" d="M158.442 506.353L165.173 514.504L164.728 514.628L157.354 507.118L102.955 464.257L103.574 462.462L158.442 506.353Z" fill="url(#paint29_linear_7_123)"/>
<path style="mix-blend-mode:screen" fill-rule="evenodd" clip-rule="evenodd" d="M100.34 460.818C100.34 460.818 99.4992 464.606 96.6367 465.877C96.6367 465.877 96.9663 462.837 100.34 460.818Z" fill="url(#paint30_linear_7_123)"/>
<path fill-rule="evenodd" clip-rule="evenodd" d="M441.571 575.716L440.812 576.455L440.235 575.981L440.854 574.062L442.355 574.943L441.571 575.716Z" fill="url(#paint31_radial_7_123)"/>
<path fill-rule="evenodd" clip-rule="evenodd" d="M490.096 503.022L493.776 496.658C493.776 496.658 492.588 493.958 490.394 494.041L485.791 500.181L490.096 503.022Z" fill="url(#paint32_radial_7_123)"/>
<path fill-rule="evenodd" clip-rule="evenodd" d="M447.89 570.017L442.99 566.86L440.632 573.93L442.694 575.134L447.89 570.017Z" fill="url(#paint33_radial_7_123)"/>
<path fill-rule="evenodd" clip-rule="evenodd" d="M447.89 570.017C447.89 570.017 454.942 563.961 461.202 549.696L455.528 545.849C455.528 545.849 444.763 557.995 442.998 566.868L447.898 570.025L447.89 570.017Z" fill="url(#paint34_radial_7_123)"/>
<path fill-rule="evenodd" clip-rule="evenodd" d="M461.202 549.696L490.806 504.069C490.806 504.069 489.132 500.654 484.414 499.633L455.527 545.85L461.202 549.696Z" fill="url(#paint35_radial_7_123)"/>
<path fill-rule="evenodd" clip-rule="evenodd" d="M482.855 502.125L480.883 500.969C480.883 500.969 476.454 503.977 472.552 511.18C468.643 518.383 467.405 523.077 464.51 527.871L464.659 529.217C464.659 529.217 465.228 528.294 467.991 524.29C467.991 524.29 477.147 506.893 481.444 503.121L482.031 503.562L482.863 502.125H482.855Z" fill="url(#paint36_radial_7_123)"/>
<path fill-rule="evenodd" clip-rule="evenodd" d="M486.055 511.396C486.055 511.396 483.605 508.306 479.473 507.533L477.287 511.031C477.287 511.031 481.082 512.609 483.811 514.852L486.055 511.396Z" fill="url(#paint37_radial_7_123)"/>
<path style="mix-blend-mode:screen" opacity="0.4" fill-rule="evenodd" clip-rule="evenodd" d="M457.904 545.301L486.418 500.87C486.418 500.87 485.338 500.031 484.431 500.206L456.914 544.927L457.895 545.301H457.904Z" fill="url(#paint38_radial_7_123)"/>
<path fill-rule="evenodd" clip-rule="evenodd" d="M380.86 398.503L374.909 395.434C374.909 395.434 371.147 398.786 365.907 396.192C360.658 393.594 360.554 388.029 360.554 388.029L354.603 384.96C354.603 384.96 347.363 398.266 348.994 405.474C350.75 412.582 357.984 415.591 357.984 415.591C357.984 415.591 365.463 418.883 371.489 415.475C377.382 412.208 380.853 398.519 380.853 398.519L380.86 398.503Z" fill="url(#paint39_linear_7_123)"/>
<path fill-rule="evenodd" clip-rule="evenodd" d="M354.606 384.954L355.542 384.919L355.982 385.354L357.87 385.639L358.341 384.804L359.742 384.742L369.182 400.279L374.906 395.424L383.117 396.687L378.409 418.178C378.409 418.178 369.973 424.335 354.077 413.087C354.077 413.087 349.74 408.24 350.429 400.147C351.132 392.141 354.594 384.939 354.594 384.939L354.606 384.954Z" fill="url(#paint40_linear_7_123)"/>
<path fill-rule="evenodd" clip-rule="evenodd" d="M378.416 418.183C372.051 422.23 364.871 418.936 364.871 418.936C364.871 418.936 356.594 415.795 354.681 408.043C352.898 400.183 359.747 384.754 359.747 384.754C363.087 385.492 365.296 387.205 367.591 388.766C367.591 388.766 367.713 394.839 373.39 397.63C379.063 400.41 383.12 396.699 383.12 396.699C385.491 397.383 386.331 397.87 388.508 399.532C388.508 399.532 383.657 414.777 378.413 418.191L378.416 418.183Z" fill="#E34C1A"/>
<path style="mix-blend-mode:multiply" fill-rule="evenodd" clip-rule="evenodd" d="M383.123 396.692C383.123 396.692 373.749 416.165 367.486 412.583C361.222 409 367.595 388.759 367.595 388.759C367.595 388.759 367.716 394.832 373.393 397.623C379.066 400.402 383.123 396.692 383.123 396.692Z" fill="url(#paint41_linear_7_123)"/>
<path style="mix-blend-mode:multiply" fill-rule="evenodd" clip-rule="evenodd" d="M349.002 405.454L354.562 407.354C354.562 407.354 355.918 414.958 364.667 418.849C364.667 418.849 356.978 415.399 353.682 412.778C350.382 410.164 348.999 405.462 348.999 405.462L349.002 405.454Z" fill="url(#paint42_linear_7_123)"/>
<path fill-rule="evenodd" clip-rule="evenodd" d="M368.044 416.745L363.522 414.566L365.637 412.031C365.424 411.333 365.448 410.489 365.765 409.675C366.139 408.734 366.81 408.079 367.542 407.835C367.98 407.686 368.438 407.692 368.856 407.888C369.971 408.409 370.386 410.052 369.791 411.568C369.5 412.302 369.029 412.873 368.489 413.195L368.051 416.731L368.044 416.745Z" fill="url(#paint43_linear_7_123)"/>
<path fill-rule="evenodd" clip-rule="evenodd" d="M363.522 414.565L365.636 412.03C365.423 411.333 365.447 410.488 365.765 409.675C366.139 408.733 366.81 408.079 367.542 407.834C367.879 408.578 367.902 409.562 367.534 410.508C367.243 411.241 366.768 411.801 366.235 412.126L365.786 415.647L363.525 414.558L363.522 414.565Z" fill="#8E003E"/>
<path style="mix-blend-mode:multiply" fill-rule="evenodd" clip-rule="evenodd" d="M357.869 385.638C357.869 385.638 351.455 399.951 352.991 406.824C354.835 415.093 364.655 418.845 364.655 418.845C364.655 418.845 350.179 414.227 350.098 404.294C350.048 396.114 355.973 385.35 355.973 385.35L357.862 385.635L357.869 385.638Z" fill="url(#paint44_linear_7_123)"/>
<g style="mix-blend-mode:multiply">
<path fill-rule="evenodd" clip-rule="evenodd" d="M376.85 367.701C376.85 367.701 378.895 366.801 381.702 367.882C384.509 368.962 387.166 372.205 386.307 376.871C385.455 381.56 378.945 396.066 378.945 396.066L382.464 396.401C382.464 396.401 388.525 379.9 389.083 377.147C389.842 373.418 387.712 369.42 382.444 367.395C379.715 366.341 376.835 367.694 376.835 367.694L376.85 367.701Z" fill="white"/>
</g>
<path fill-rule="evenodd" clip-rule="evenodd" d="M367.897 366.408L370.071 367.268C370.071 367.268 375.173 361.049 382.447 363.057L383.459 361.535C383.459 361.535 376.066 358.154 367.897 366.408Z" fill="white"/>
<g style="mix-blend-mode:soft-light">
<path fill-rule="evenodd" clip-rule="evenodd" d="M367.652 366.996C367.652 366.996 366.705 368.108 365.868 370.008L367.828 370.798C367.828 370.798 368.856 368.775 369.717 367.816L367.652 366.996Z" fill="white"/>
</g>
<path fill-rule="evenodd" clip-rule="evenodd" d="M59.7742 598.787L57.8523 592.257L16.115 591.334L17.245 600L59.7742 598.787Z" fill="#C5515C"/>
<path fill-rule="evenodd" clip-rule="evenodd" d="M57.8523 592.258L93.2465 593.204L94.1206 598.123L59.7742 598.787L57.8523 592.258Z" fill="url(#paint45_radial_7_123)"/>
<path fill-rule="evenodd" clip-rule="evenodd" d="M16.1235 591.335L52.4498 592.257C60.1869 591.759 66.5546 589.649 71.6688 586.94C83.5633 580.643 88.6937 571.088 88.6937 571.088L51.493 568.779C48.4823 573.98 44.8447 577.992 41.0669 581.075C29.2881 590.687 16.1235 591.335 16.1235 591.335Z" fill="url(#paint46_linear_7_123)"/>
<path style="mix-blend-mode:multiply" opacity="0.5" fill-rule="evenodd" clip-rule="evenodd" d="M16.123 591.334L52.4494 592.257C60.1864 591.759 66.5542 589.649 71.6683 586.94L41.0664 581.075C29.2876 590.687 16.123 591.334 16.123 591.334Z" fill="url(#paint47_linear_7_123)"/>
<path fill-rule="evenodd" clip-rule="evenodd" d="M534.639 597.325L512.516 595.655L552.794 570.64C552.794 570.64 572.458 561.95 581.143 568.463C589.829 574.985 582.669 592.414 575.155 594.949C567.64 597.474 534.194 596.013 534.194 596.013L534.639 597.333V597.325Z" fill="url(#paint48_radial_7_123)"/>
<path fill-rule="evenodd" clip-rule="evenodd" d="M565.901 594.21L566.058 581.299L497.026 587.256L496.952 593.977L565.901 594.21Z" fill="url(#paint49_linear_7_123)"/>
<path fill-rule="evenodd" clip-rule="evenodd" d="M497.026 587.256L444.557 587.015L443.617 593.952L496.951 593.977L497.026 587.256Z" fill="url(#paint50_radial_7_123)"/>
<path fill-rule="evenodd" clip-rule="evenodd" d="M566.057 581.299L520.105 582.08L444.557 587.014L497.026 587.256L566.057 581.299Z" fill="url(#paint51_linear_7_123)"/>
<path fill-rule="evenodd" clip-rule="evenodd" d="M443.617 593.952L439.773 593.902L439.757 595.564L496.919 595.788L567.765 595.156L567.946 580.626L562.964 579.687C562.964 579.687 569.117 564.766 578.967 567.483C590.135 570.566 583.61 592.423 575.469 594.118C566.536 595.971 534.202 595.996 534.202 595.996L534.647 597.317C534.647 597.317 567.451 597.449 575.634 595.124C584.064 592.73 590.869 570.566 579.667 566.577C568.466 562.59 560.803 581.224 560.803 581.224L566.066 581.29L565.909 594.202L496.951 593.96L443.625 593.943L443.617 593.952Z" fill="url(#paint52_radial_7_123)"/>
<path fill-rule="evenodd" clip-rule="evenodd" d="M579.659 566.586C579.659 566.586 578.108 565.531 571.642 565.962L535.794 568.845C535.794 568.845 527.578 573.93 525.83 581.98L560.787 581.233C560.787 581.233 568.541 563.296 579.651 566.586H579.659Z" fill="#2A56F4"/>
<g style="mix-blend-mode:multiply" opacity="0.5">
<path fill-rule="evenodd" clip-rule="evenodd" d="M496.531 595.788L496.548 594.617L439.781 593.91L439.757 595.563L496.531 595.788Z" fill="#9A2463"/>
</g>
<g style="mix-blend-mode:multiply" opacity="0.8">
<path fill-rule="evenodd" clip-rule="evenodd" d="M566.058 581.299L564.713 581.415L564.557 594.21H565.901L566.058 581.299Z" fill="#9A4F8B"/>
</g>
<g style="mix-blend-mode:multiply" opacity="0.5">
<path fill-rule="evenodd" clip-rule="evenodd" d="M490.106 591.085L489.066 593.902L484.068 594.459V595.738L479.02 595.788L482.657 591.517L490.106 591.085Z" fill="#9A2463"/>
</g>
<path fill-rule="evenodd" clip-rule="evenodd" d="M490.106 591.085H481.074C481.074 591.085 472.38 593.296 470.326 596.718H480.216C480.216 596.718 483.177 593.121 490.106 591.085Z" fill="url(#paint53_linear_7_123)"/>
<g style="mix-blend-mode:multiply" opacity="0.5">
<path fill-rule="evenodd" clip-rule="evenodd" d="M456.386 587.754L451.478 591.974H443.889L444.17 589.864L456.386 587.754Z" fill="#9A2463"/>
</g>
<path fill-rule="evenodd" clip-rule="evenodd" d="M456.386 587.754H449.086C449.086 587.754 442.594 587.654 438.256 590.496L449.086 589.864C449.086 589.864 451.189 588.469 456.386 587.762V587.754Z" fill="url(#paint54_radial_7_123)"/>
<path fill-rule="evenodd" clip-rule="evenodd" d="M566.058 581.299L556.407 581.73L496.952 584.406V585.826L564.688 583.185L566.058 581.299Z" fill="url(#paint55_linear_7_123)"/>
<path fill-rule="evenodd" clip-rule="evenodd" d="M496.952 584.406L446.586 583.185V584.406L496.952 585.827V584.406Z" fill="url(#paint56_radial_7_123)"/>
<path fill-rule="evenodd" clip-rule="evenodd" d="M566.057 581.299L525.838 581.98L446.586 583.185L496.952 584.406L566.057 581.299Z" fill="url(#paint57_linear_7_123)"/>
<path fill-rule="evenodd" clip-rule="evenodd" d="M454.984 586.334L474.219 587.255H497.026L564.689 583.185L496.952 585.827L472.009 585.129L454.984 586.334Z" fill="#6D4B8B"/>
<path fill-rule="evenodd" clip-rule="evenodd" d="M153.27 381.32L148.924 368.078L150.268 366.499C150.268 366.499 144.313 365.469 138.538 370.545L140.964 371.119L144.716 384.461L140.155 388L140.493 389.197L159.522 383.389L158.954 381.354L153.279 381.329L153.27 381.32Z" fill="url(#paint58_radial_7_123)"/>
<path fill-rule="evenodd" clip-rule="evenodd" d="M159.522 383.381C159.522 383.381 151.686 388.698 140.493 389.188C140.493 389.188 147.777 383.14 159.522 383.381Z" fill="#3D155A"/>
<mask id="mask1_7_123" style="mask-type:luminance" maskUnits="userSpaceOnUse" x="148" y="386" width="8" height="17">
<path d="M150.968 386.521L155.184 399.855L154.78 402.455L152.932 400.744L148.906 387.243C148.906 387.243 149.368 385.881 150.968 386.521Z" fill="white"/>
</mask>
<g mask="url(#mask1_7_123)">
<path d="M155.184 385.881H148.906V402.455H155.184V385.881Z" fill="#8C74B1"/>
<path fill-rule="evenodd" clip-rule="evenodd" d="M147.644 390.126C149.534 396.523 152.223 401.358 153.65 400.935C155.085 400.503 154.713 394.97 152.825 388.572C151.884 385.375 150.738 382.566 149.649 380.605V384.992H148.024V390.118H147.636L147.644 390.126Z" fill="#8C74B1"/>
<path fill-rule="evenodd" clip-rule="evenodd" d="M147.694 390.11C149.542 396.383 152.181 401.126 153.583 400.711C154.985 400.287 154.623 394.862 152.775 388.589C151.852 385.449 150.729 382.699 149.666 380.78V385H148.032V390.118H147.694V390.11Z" fill="#8D75B1"/>
<path fill-rule="evenodd" clip-rule="evenodd" d="M147.744 390.093C149.559 396.24 152.141 400.893 153.518 400.486C154.895 400.071 154.541 394.753 152.726 388.606C151.818 385.531 150.722 382.831 149.674 380.946V384.992H148.025V390.093H147.736H147.744Z" fill="#8D76B2"/>
<path fill-rule="evenodd" clip-rule="evenodd" d="M147.793 390.077C149.575 396.109 152.107 400.661 153.451 400.262C154.804 399.855 154.449 394.646 152.676 388.614C151.785 385.598 150.713 382.957 149.682 381.112V384.992H148.024V390.077H147.785H147.793Z" fill="#8E77B2"/>
<path fill-rule="evenodd" clip-rule="evenodd" d="M147.843 390.068C149.583 395.975 152.066 400.436 153.385 400.046C154.705 399.647 154.367 394.546 152.626 388.639C151.752 385.689 150.696 383.098 149.698 381.287V385H148.032V390.068H147.851H147.843Z" fill="#8F78B2"/>
<path fill-rule="evenodd" clip-rule="evenodd" d="M147.892 390.052C149.599 395.834 152.024 400.204 153.319 399.822C154.614 399.431 154.277 394.43 152.577 388.648C151.727 385.756 150.689 383.214 149.706 381.453V385H148.024V390.052H147.892Z" fill="#8F79B3"/>
<path fill-rule="evenodd" clip-rule="evenodd" d="M147.941 390.035C149.608 395.692 151.992 399.971 153.254 399.597C154.516 399.224 154.193 394.322 152.527 388.664C151.695 385.831 150.68 383.347 149.723 381.618V384.992H148.032V390.035H147.95H147.941Z" fill="#907AB3"/>
<path fill-rule="evenodd" clip-rule="evenodd" d="M147.991 390.019C149.624 395.551 151.95 399.738 153.187 399.373C154.425 398.999 154.103 394.214 152.47 388.681C150.837 383.147 148.511 378.96 147.273 379.326L148.025 385V390.027H147.991V390.019Z" fill="#917BB3"/>
<path fill-rule="evenodd" clip-rule="evenodd" d="M148.04 390.002C149.641 395.419 151.909 399.506 153.122 399.149C154.334 398.783 154.021 394.105 152.42 388.689C150.821 383.272 148.552 379.184 147.34 379.542C146.127 379.908 146.441 384.585 148.04 390.002Z" fill="#917CB4"/>
<path fill-rule="evenodd" clip-rule="evenodd" d="M148.09 389.994C149.649 395.286 151.876 399.281 153.056 398.932C154.235 398.576 153.93 394.006 152.371 388.714C150.812 383.421 148.585 379.426 147.405 379.775C146.226 380.132 146.531 384.701 148.09 389.994Z" fill="#927DB4"/>
<path fill-rule="evenodd" clip-rule="evenodd" d="M148.14 389.977C149.666 395.145 151.835 399.049 152.99 398.708C154.145 398.359 153.847 393.89 152.321 388.722C150.796 383.555 148.626 379.65 147.472 379.99C146.317 380.34 146.613 384.809 148.14 389.977Z" fill="#937EB4"/>
<path fill-rule="evenodd" clip-rule="evenodd" d="M148.189 389.96C149.674 395.003 151.794 398.817 152.923 398.484C154.053 398.144 153.765 393.782 152.272 388.739C150.787 383.696 148.667 379.883 147.537 380.215C146.407 380.556 146.696 384.917 148.189 389.96Z" fill="#937FB5"/>
<path fill-rule="evenodd" clip-rule="evenodd" d="M148.239 389.943C149.691 394.861 151.761 398.584 152.858 398.26C153.954 397.927 153.675 393.673 152.223 388.755C150.771 383.837 148.7 380.115 147.604 380.439C146.506 380.763 146.787 385.025 148.239 389.943Z" fill="#9480B5"/>
<path fill-rule="evenodd" clip-rule="evenodd" d="M148.288 389.927C149.706 394.729 151.72 398.351 152.791 398.036C153.864 397.712 153.592 393.566 152.173 388.764C150.754 383.97 148.742 380.34 147.669 380.655C146.598 380.98 146.869 385.125 148.288 389.927Z" fill="#9581B5"/>
<path fill-rule="evenodd" clip-rule="evenodd" d="M148.346 389.918C149.723 394.596 151.686 398.127 152.734 397.819C153.782 397.512 153.51 393.466 152.131 388.789C150.754 384.111 148.791 380.58 147.744 380.888C146.696 381.203 146.969 385.242 148.346 389.918Z" fill="#9582B6"/>
<path fill-rule="evenodd" clip-rule="evenodd" d="M148.395 389.902C149.74 394.454 151.653 397.895 152.668 397.596C153.682 397.297 153.426 393.35 152.082 388.806C150.737 384.253 148.824 380.813 147.809 381.112C146.795 381.42 147.051 385.358 148.395 389.902Z" fill="#9683B6"/>
<path fill-rule="evenodd" clip-rule="evenodd" d="M148.444 389.886C149.748 394.313 151.612 397.662 152.602 397.371C153.591 397.072 153.336 393.242 152.032 388.814C150.729 384.385 148.865 381.037 147.876 381.328C146.885 381.627 147.141 385.457 148.444 389.886Z" fill="#9784B6"/>
<path fill-rule="evenodd" clip-rule="evenodd" d="M148.495 389.869C149.765 394.172 151.571 397.429 152.536 397.146C153.501 396.855 153.254 393.134 151.984 388.83C150.713 384.526 148.907 381.27 147.942 381.552C146.977 381.843 147.224 385.565 148.495 389.869Z" fill="#9785B7"/>
<path fill-rule="evenodd" clip-rule="evenodd" d="M148.544 389.861C149.781 394.039 151.538 397.205 152.47 396.931C153.402 396.648 153.163 393.034 151.934 388.847C150.697 384.668 148.939 381.502 148.008 381.777C147.076 382.06 147.315 385.674 148.544 389.861Z" fill="#9886B7"/>
<path fill-rule="evenodd" clip-rule="evenodd" d="M148.593 389.844C149.79 393.906 151.496 396.971 152.404 396.706C153.311 396.432 153.08 392.926 151.884 388.863C150.689 384.801 148.981 381.736 148.074 382.001C147.166 382.275 147.397 385.781 148.593 389.844Z" fill="#9987B7"/>
<path fill-rule="evenodd" clip-rule="evenodd" d="M148.643 389.827C149.806 393.765 151.456 396.739 152.338 396.482C153.221 396.216 152.99 392.81 151.827 388.88C150.664 384.942 149.014 381.968 148.132 382.225C147.249 382.492 147.48 385.897 148.643 389.827Z" fill="#9988B8"/>
<path fill-rule="evenodd" clip-rule="evenodd" d="M148.692 389.811C149.814 393.624 151.422 396.507 152.273 396.258C153.122 396 152.908 392.702 151.777 388.888C150.655 385.076 149.047 382.193 148.197 382.441C147.348 382.7 147.562 385.998 148.692 389.811Z" fill="#9A89B8"/>
<path fill-rule="evenodd" clip-rule="evenodd" d="M148.742 389.794C149.83 393.483 151.381 396.274 152.206 396.033C153.03 395.792 152.816 392.593 151.727 388.905C150.639 385.216 149.088 382.425 148.263 382.665C147.438 382.907 147.653 386.106 148.742 389.794Z" fill="#9B8AB8"/>
<path fill-rule="evenodd" clip-rule="evenodd" d="M148.792 389.785C149.847 393.35 151.34 396.05 152.141 395.808C152.94 395.568 152.734 392.485 151.678 388.913C150.622 385.349 149.129 382.649 148.329 382.89C147.529 383.13 147.736 386.213 148.792 389.785Z" fill="#9B8BB9"/>
<path fill-rule="evenodd" clip-rule="evenodd" d="M148.84 389.77C149.855 393.217 151.307 395.817 152.074 395.585C152.841 395.353 152.643 392.378 151.628 388.93C150.614 385.482 149.162 382.882 148.395 383.115C147.628 383.347 147.826 386.321 148.84 389.77Z" fill="#9C8CB9"/>
<path fill-rule="evenodd" clip-rule="evenodd" d="M148.89 389.752C149.872 393.075 151.266 395.585 152.009 395.36C152.751 395.136 152.561 392.262 151.579 388.947C150.598 385.624 149.203 383.114 148.461 383.339C147.719 383.563 147.909 386.437 148.89 389.752Z" fill="#9D8DB9"/>
<path fill-rule="evenodd" clip-rule="evenodd" d="M148.939 389.736C149.88 392.934 151.224 395.352 151.942 395.136C152.659 394.92 152.47 392.154 151.53 388.955C150.589 385.756 149.245 383.339 148.527 383.555C147.81 383.77 147.999 386.537 148.939 389.736Z" fill="#9D8FBA"/>
<path fill-rule="evenodd" clip-rule="evenodd" d="M148.989 389.719C149.897 392.794 151.192 395.119 151.876 394.911C152.561 394.704 152.387 392.045 151.48 388.972C150.572 385.898 149.277 383.572 148.593 383.779C147.908 383.987 148.082 386.645 148.989 389.719Z" fill="#9E90BA"/>
<path fill-rule="evenodd" clip-rule="evenodd" d="M149.038 389.711C149.913 392.66 151.15 394.895 151.81 394.696C152.47 394.496 152.296 391.946 151.431 388.988C150.556 386.039 149.319 383.804 148.659 384.003C148 384.202 148.172 386.753 149.038 389.711Z" fill="#9F91BA"/>
<path fill-rule="evenodd" clip-rule="evenodd" d="M149.088 389.694C149.921 392.527 151.109 394.662 151.744 394.471C152.379 394.28 152.214 391.838 151.381 389.004C150.548 386.171 149.36 384.036 148.725 384.227C148.09 384.419 148.254 386.862 149.088 389.694Z" fill="#9F92BB"/>
<path fill-rule="evenodd" clip-rule="evenodd" d="M149.138 389.678C149.938 392.386 151.076 394.43 151.678 394.247C152.28 394.064 152.124 391.722 151.332 389.021C150.532 386.313 149.393 384.269 148.791 384.452C148.189 384.635 148.346 386.978 149.138 389.678Z" fill="#A093BB"/>
<path fill-rule="evenodd" clip-rule="evenodd" d="M149.187 389.661C149.945 392.245 151.035 394.197 151.612 394.023C152.189 393.848 152.041 391.613 151.282 389.029C150.523 386.446 149.434 384.493 148.857 384.668C148.279 384.842 148.428 387.077 149.187 389.661Z" fill="#A194BB"/>
<path fill-rule="evenodd" clip-rule="evenodd" d="M149.237 389.644C149.963 392.104 150.994 393.965 151.546 393.799C152.099 393.632 151.959 391.505 151.233 389.046C150.507 386.587 149.476 384.726 148.924 384.892C148.371 385.059 148.511 387.186 149.237 389.644Z" fill="#A195BC"/>
<path fill-rule="evenodd" clip-rule="evenodd" d="M149.286 389.636C149.979 391.971 150.961 393.74 151.481 393.582C151.999 393.424 151.867 391.406 151.175 389.063C150.482 386.729 149.501 384.958 148.981 385.116C148.461 385.274 148.593 387.293 149.286 389.636Z" fill="#A296BC"/>
<path fill-rule="evenodd" clip-rule="evenodd" d="M149.335 389.619C149.987 391.837 150.919 393.507 151.414 393.358C151.909 393.208 151.785 391.297 151.125 389.079C150.474 386.861 149.541 385.192 149.046 385.341C148.552 385.491 148.675 387.401 149.335 389.619Z" fill="#A397BC"/>
<path fill-rule="evenodd" clip-rule="evenodd" d="M149.385 389.602C150.004 391.696 150.878 393.275 151.348 393.134C151.818 392.992 151.695 391.181 151.076 389.096C150.457 387.003 149.583 385.424 149.113 385.565C148.643 385.706 148.767 387.517 149.385 389.602Z" fill="#A398BD"/>
<path fill-rule="evenodd" clip-rule="evenodd" d="M149.434 389.587C150.012 391.556 150.845 393.043 151.282 392.91C151.72 392.777 151.612 391.074 151.027 389.105C150.449 387.136 149.616 385.649 149.179 385.781C148.742 385.914 148.849 387.618 149.434 389.587Z" fill="#A499BD"/>
<path fill-rule="evenodd" clip-rule="evenodd" d="M149.492 389.569C150.037 391.414 150.812 392.81 151.224 392.685C151.636 392.561 151.529 390.965 150.985 389.12C150.441 387.277 149.666 385.881 149.253 386.005C148.84 386.13 148.948 387.725 149.492 389.569Z" fill="#A59ABD"/>
<path fill-rule="evenodd" clip-rule="evenodd" d="M149.541 389.561C150.053 391.281 150.771 392.586 151.159 392.469C151.546 392.352 151.448 390.865 150.936 389.137C150.425 387.418 149.707 386.114 149.319 386.23C148.931 386.346 149.03 387.833 149.541 389.561Z" fill="#A59BBE"/>
<path fill-rule="evenodd" clip-rule="evenodd" d="M149.591 389.545C150.062 391.139 150.737 392.352 151.093 392.245C151.447 392.137 151.356 390.758 150.886 389.154C150.416 387.559 149.74 386.346 149.385 386.454C149.031 386.562 149.121 387.942 149.591 389.545Z" fill="#A69CBE"/>
<path fill-rule="evenodd" clip-rule="evenodd" d="M149.641 389.528C150.077 391.007 150.696 392.12 151.026 392.021C151.356 391.921 151.274 390.642 150.836 389.171C150.4 387.692 149.781 386.579 149.451 386.679C149.121 386.778 149.203 388.058 149.641 389.528Z" fill="#A79DBE"/>
<path fill-rule="evenodd" clip-rule="evenodd" d="M149.69 389.511C150.086 390.866 150.655 391.887 150.961 391.796C151.265 391.704 151.183 390.533 150.787 389.179C150.391 387.825 149.822 386.803 149.517 386.894C149.212 386.986 149.295 388.157 149.69 389.511Z" fill="#A79EBF"/>
<path fill-rule="evenodd" clip-rule="evenodd" d="M149.74 389.495C150.102 390.724 150.622 391.655 150.894 391.572C151.167 391.489 151.1 390.425 150.738 389.196C150.375 387.966 149.855 387.036 149.583 387.119C149.31 387.202 149.377 388.265 149.74 389.495Z" fill="#A89FBF"/>
<path fill-rule="evenodd" clip-rule="evenodd" d="M149.789 389.486C150.119 390.592 150.581 391.43 150.829 391.356C151.076 391.281 151.01 390.326 150.689 389.221C150.358 388.115 149.897 387.277 149.649 387.351C149.402 387.426 149.467 388.382 149.789 389.486Z" fill="#A9A0BF"/>
<path fill-rule="evenodd" clip-rule="evenodd" d="M149.838 389.47C150.127 390.45 150.54 391.198 150.762 391.131C150.985 391.065 150.928 390.217 150.639 389.229C150.35 388.248 149.937 387.501 149.715 387.567C149.492 387.633 149.55 388.481 149.838 389.47Z" fill="#A9A1C0"/>
<path fill-rule="evenodd" clip-rule="evenodd" d="M149.888 389.453C150.144 390.317 150.507 390.965 150.697 390.907C150.886 390.849 150.837 390.101 150.59 389.246C150.334 388.382 149.97 387.734 149.781 387.791C149.591 387.85 149.641 388.597 149.888 389.453Z" fill="#AAA2C0"/>
<path fill-rule="evenodd" clip-rule="evenodd" d="M149.938 389.437C150.152 390.176 150.465 390.733 150.63 390.684C150.796 390.633 150.754 389.993 150.532 389.254C150.317 388.515 150.004 387.958 149.838 388.008C149.674 388.058 149.715 388.698 149.938 389.437Z" fill="#ABA3C0"/>
<path fill-rule="evenodd" clip-rule="evenodd" d="M149.987 389.42C150.169 390.034 150.425 390.5 150.565 390.459C150.705 390.417 150.664 389.885 150.482 389.271C150.301 388.656 150.045 388.191 149.905 388.232C149.765 388.273 149.806 388.805 149.987 389.42Z" fill="#ABA4C1"/>
<path fill-rule="evenodd" clip-rule="evenodd" d="M150.037 389.412C150.186 389.902 150.391 390.276 150.498 390.242C150.606 390.209 150.582 389.785 150.433 389.295C150.284 388.806 150.078 388.431 149.97 388.465C149.863 388.498 149.888 388.922 150.037 389.412Z" fill="#ACA5C1"/>
<path fill-rule="evenodd" clip-rule="evenodd" d="M150.087 389.395C150.194 389.761 150.351 390.044 150.433 390.018C150.515 389.993 150.49 389.678 150.383 389.304C150.276 388.938 150.119 388.656 150.037 388.681C149.955 388.706 149.979 389.021 150.087 389.395Z" fill="#ADA6C1"/>
<path fill-rule="evenodd" clip-rule="evenodd" d="M150.136 389.379C150.21 389.628 150.309 389.81 150.366 389.794C150.425 389.778 150.408 389.562 150.334 389.321C150.259 389.071 150.161 388.888 150.102 388.905C150.045 388.922 150.062 389.138 150.136 389.379Z" fill="#ADA7C2"/>
<path fill-rule="evenodd" clip-rule="evenodd" d="M150.185 389.362C150.218 389.486 150.276 389.578 150.301 389.57C150.325 389.57 150.317 389.453 150.284 389.328C150.251 389.204 150.193 389.113 150.169 389.121C150.144 389.121 150.152 389.237 150.185 389.362Z" fill="#AEA8C2"/>
</g>
<g style="mix-blend-mode:multiply" opacity="0.8">
<path fill-rule="evenodd" clip-rule="evenodd" d="M148.914 368.078C148.914 368.078 143.933 367.845 140.955 371.118L138.53 370.545C138.53 370.545 143.752 366.325 150.259 366.499L148.914 368.078Z" fill="#9A4F8B"/>
</g>
<path fill-rule="evenodd" clip-rule="evenodd" d="M495.1 426.946L483.589 434.704L481.716 433.822C481.716 433.822 482.333 439.867 488.752 444.108L488.644 441.606L500.41 434.397L505.027 437.867L506.088 437.218L495.39 420.341L493.593 421.443L495.098 426.954L495.1 426.946Z" fill="url(#paint59_radial_7_123)"/>
<path fill-rule="evenodd" clip-rule="evenodd" d="M495.385 420.332C495.385 420.332 502.591 426.506 506.082 437.21C506.082 437.21 498.325 431.774 495.385 420.332Z" fill="url(#paint60_radial_7_123)"/>
<mask id="mask2_7_123" style="mask-type:luminance" maskUnits="userSpaceOnUse" x="500" y="419" width="15" height="11">
<path d="M500.703 427.789L512.334 420.127L514.937 419.823L513.799 422.067L501.957 429.587C501.957 429.587 500.523 429.502 500.703 427.789Z" fill="white"/>
</mask>
<g mask="url(#mask2_7_123)">
<path d="M505.677 415.902L500.066 429.31L509.328 433.222L514.939 419.815L505.677 415.902Z" fill="#8C74B1"/>
<path fill-rule="evenodd" clip-rule="evenodd" d="M505.049 430.036C510.663 426.498 514.575 422.591 513.78 421.32C512.985 420.048 507.786 421.892 502.165 425.427C496.552 428.966 492.64 432.873 493.434 434.144L498.908 429.782L499.114 429.868L497.428 433.897C499.53 433.156 502.238 431.809 505.042 430.034L505.049 430.036Z" fill="#8C74B1"/>
<path fill-rule="evenodd" clip-rule="evenodd" d="M505.023 429.99C510.538 426.517 514.37 422.693 513.584 421.444C512.806 420.198 507.704 422 502.19 425.474C496.676 428.947 492.843 432.77 493.63 434.02L498.908 429.782L499.175 429.894L497.549 433.778C499.611 433.048 502.262 431.729 505.023 429.99Z" fill="#8D75B1"/>
<path fill-rule="evenodd" clip-rule="evenodd" d="M504.988 429.948C510.392 426.545 514.151 422.79 513.381 421.565C512.62 420.345 507.616 422.107 502.216 425.521C496.812 428.923 493.053 432.679 493.822 433.903L498.905 429.789L499.233 429.928L497.668 433.665C499.687 432.953 502.29 431.66 504.992 429.958L504.988 429.948Z" fill="#8D76B2"/>
<path fill-rule="evenodd" clip-rule="evenodd" d="M504.963 429.901C510.259 426.561 513.939 422.889 513.194 421.693C512.44 420.493 507.545 422.231 502.251 425.563C496.955 428.902 493.275 432.575 494.02 433.771L498.912 429.774L499.292 429.934L497.788 433.528C499.767 432.825 502.313 431.562 504.965 429.893L504.963 429.901Z" fill="#8E77B2"/>
<path fill-rule="evenodd" clip-rule="evenodd" d="M504.938 429.854C510.125 426.585 513.73 422.981 513.002 421.81C512.273 420.639 507.467 422.333 502.28 425.602C497.094 428.872 493.488 432.475 494.216 433.647L498.912 429.775L499.353 429.961L497.908 433.416C499.843 432.732 502.346 431.485 504.938 429.854Z" fill="#8F78B2"/>
<path fill-rule="evenodd" clip-rule="evenodd" d="M504.909 429.816C509.986 426.617 513.523 423.091 512.803 421.942C512.083 420.792 507.379 422.458 502.302 425.656C497.225 428.855 493.689 432.381 494.409 433.531C495.128 434.68 499.832 433.014 504.909 429.816Z" fill="#8F79B3"/>
<path fill-rule="evenodd" clip-rule="evenodd" d="M504.883 429.769C509.853 426.632 513.314 423.183 512.61 422.058C511.907 420.933 507.308 422.562 502.338 425.698C497.369 428.835 493.908 432.284 494.611 433.409C495.316 434.534 499.914 432.905 504.883 429.769Z" fill="#907AB3"/>
<path fill-rule="evenodd" clip-rule="evenodd" d="M504.855 429.73C509.715 426.664 513.099 423.29 512.412 422.19C511.724 421.09 507.224 422.68 502.364 425.745C497.504 428.81 494.121 432.185 494.807 433.284C495.494 434.384 499.996 432.795 504.855 429.73Z" fill="#917BB3"/>
<path fill-rule="evenodd" clip-rule="evenodd" d="M504.822 429.68C509.571 426.685 512.882 423.379 512.211 422.303C511.541 421.229 507.134 422.786 502.384 425.781C497.635 428.776 494.324 432.082 494.995 433.157C495.665 434.232 500.073 432.675 504.822 429.68Z" fill="#917CB4"/>
<path fill-rule="evenodd" clip-rule="evenodd" d="M504.796 429.633C509.447 426.704 512.678 423.481 512.016 422.428C511.355 421.375 507.06 422.898 502.409 425.827C497.76 428.757 494.528 431.98 495.19 433.033C495.852 434.086 500.147 432.563 504.796 429.633Z" fill="#927DB4"/>
<path fill-rule="evenodd" clip-rule="evenodd" d="M504.769 429.594C509.308 426.736 512.466 423.58 511.821 422.552C511.176 421.524 506.979 423.007 502.438 425.867C497.898 428.726 494.74 431.88 495.386 432.908C496.031 433.936 500.228 432.453 504.769 429.594Z" fill="#937EB4"/>
<path fill-rule="evenodd" clip-rule="evenodd" d="M504.743 429.548C509.173 426.76 512.254 423.68 511.625 422.677C510.997 421.674 506.901 423.128 502.471 425.916C498.041 428.706 494.96 431.784 495.589 432.788C496.217 433.791 500.313 432.336 504.743 429.548Z" fill="#937FB5"/>
<path fill-rule="evenodd" clip-rule="evenodd" d="M504.718 429.5C509.041 426.775 512.046 423.772 511.433 422.794C510.821 421.815 506.823 423.229 502.5 425.955C498.177 428.681 495.172 431.685 495.784 432.663C496.396 433.641 500.395 432.226 504.718 429.5Z" fill="#9480B5"/>
<path fill-rule="evenodd" clip-rule="evenodd" d="M504.689 429.461C508.902 426.807 511.839 423.882 511.235 422.926C510.639 421.972 506.735 423.355 502.522 426.01C498.309 428.665 495.373 431.589 495.976 432.546C496.573 433.5 500.476 432.117 504.689 429.461Z" fill="#9581B5"/>
<path fill-rule="evenodd" clip-rule="evenodd" d="M504.656 429.412C508.759 426.828 511.622 423.971 511.042 423.042C510.462 422.114 506.664 423.46 502.553 426.041C498.451 428.626 495.588 431.483 496.168 432.411C496.747 433.339 500.546 431.993 504.656 429.412Z" fill="#9582B6"/>
<path fill-rule="evenodd" clip-rule="evenodd" d="M504.627 429.373C508.623 426.851 511.406 424.077 510.843 423.174C510.28 422.271 506.579 423.577 502.583 426.098C498.587 428.621 495.804 431.394 496.367 432.297C496.93 433.201 500.632 431.895 504.627 429.373Z" fill="#9683B6"/>
<path fill-rule="evenodd" clip-rule="evenodd" d="M504.603 429.326C508.488 426.875 511.198 424.169 510.652 423.291C510.098 422.409 506.497 423.686 502.612 426.137C498.726 428.589 496.016 431.295 496.563 432.174C497.117 433.055 500.718 431.778 504.603 429.326Z" fill="#9784B6"/>
<path fill-rule="evenodd" clip-rule="evenodd" d="M504.576 429.28C508.363 426.894 510.994 424.271 510.456 423.415C509.917 422.559 506.423 423.799 502.636 426.185C498.851 428.57 496.22 431.192 496.758 432.049C497.295 432.906 500.791 431.666 504.576 429.28Z" fill="#9785B7"/>
<path fill-rule="evenodd" clip-rule="evenodd" d="M504.549 429.241C508.225 426.925 510.782 424.371 510.261 423.54C509.74 422.707 506.342 423.908 502.666 426.223C498.989 428.538 496.432 431.093 496.954 431.925C497.476 432.756 500.873 431.556 504.549 429.241Z" fill="#9886B7"/>
<path fill-rule="evenodd" clip-rule="evenodd" d="M504.523 429.194C508.089 426.949 510.569 424.47 510.065 423.664C509.56 422.857 506.257 424.025 502.691 426.27C499.125 428.515 496.644 430.993 497.149 431.8C497.654 432.607 500.957 431.439 504.523 429.194Z" fill="#9987B7"/>
<path fill-rule="evenodd" clip-rule="evenodd" d="M504.498 429.148C507.957 426.965 510.358 424.57 509.87 423.788C509.381 423.006 506.183 424.138 502.724 426.32C499.265 428.502 496.865 430.897 497.353 431.679C497.841 432.461 501.04 431.329 504.498 429.148Z" fill="#9988B8"/>
<path fill-rule="evenodd" clip-rule="evenodd" d="M504.462 429.105C507.811 426.994 510.138 424.666 509.667 423.909C509.195 423.152 506.093 424.243 502.744 426.356C499.396 428.467 497.061 430.791 497.54 431.551C498.013 432.308 501.113 431.217 504.462 429.105Z" fill="#9A89B8"/>
<path fill-rule="evenodd" clip-rule="evenodd" d="M504.436 429.059C507.676 427.017 509.934 424.769 509.471 424.034C509.016 423.302 506.008 424.361 502.769 426.402C499.531 428.444 497.272 430.692 497.736 431.427C498.198 432.163 501.198 431.1 504.436 429.059Z" fill="#9B8AB8"/>
<path fill-rule="evenodd" clip-rule="evenodd" d="M504.408 429.019C507.54 427.041 509.722 424.868 509.275 424.158C508.829 423.448 505.935 424.474 502.795 426.449C499.663 428.428 497.481 430.6 497.928 431.311C498.375 432.02 501.269 430.994 504.408 429.019Z" fill="#9B8BB9"/>
<path fill-rule="evenodd" clip-rule="evenodd" d="M504.383 428.973C507.405 427.064 509.511 424.967 509.08 424.282C508.65 423.596 505.85 424.591 502.828 426.499C499.806 428.406 497.701 430.504 498.131 431.189C498.561 431.875 501.362 430.881 504.383 428.973Z" fill="#9C8CB9"/>
<path fill-rule="evenodd" clip-rule="evenodd" d="M504.358 428.926C507.277 427.091 509.302 425.059 508.896 424.401C508.481 423.741 505.779 424.696 502.867 426.533C499.948 428.367 497.923 430.4 498.329 431.057C498.744 431.717 501.447 430.764 504.358 428.926Z" fill="#9D8DB9"/>
<path fill-rule="evenodd" clip-rule="evenodd" d="M504.329 428.887C507.142 427.115 509.094 425.17 508.697 424.534C508.3 423.898 505.702 424.816 502.889 426.588C500.078 428.359 498.125 430.305 498.522 430.941C498.919 431.576 501.518 430.659 504.329 428.887Z" fill="#9D8FBA"/>
<path fill-rule="evenodd" clip-rule="evenodd" d="M504.296 428.837C506.998 427.136 508.877 425.258 508.497 424.648C508.116 424.037 505.613 424.922 502.91 426.624C500.208 428.325 498.329 430.203 498.71 430.813C499.09 431.424 501.594 430.539 504.296 428.837Z" fill="#9E90BA"/>
<path fill-rule="evenodd" clip-rule="evenodd" d="M504.267 428.798C506.859 427.167 508.662 425.365 508.298 424.779C507.934 424.193 505.535 425.042 502.94 426.681C500.348 428.312 498.545 430.113 498.909 430.7C499.274 431.286 501.673 430.437 504.267 428.798Z" fill="#9F91BA"/>
<path fill-rule="evenodd" clip-rule="evenodd" d="M504.242 428.752C506.727 427.183 508.454 425.458 508.106 424.897C507.75 424.333 505.456 425.145 502.971 426.712C500.486 428.281 498.76 430.007 499.108 430.568C499.464 431.132 501.758 430.32 504.242 428.752Z" fill="#9F92BB"/>
<path fill-rule="evenodd" clip-rule="evenodd" d="M504.218 428.705C506.592 427.207 508.25 425.56 507.911 425.021C507.571 424.481 505.372 425.262 502.996 426.76C500.622 428.257 498.964 429.905 499.303 430.443C499.643 430.983 501.843 430.203 504.218 428.705Z" fill="#A093BB"/>
<path fill-rule="evenodd" clip-rule="evenodd" d="M504.189 428.666C506.456 427.231 508.038 425.659 507.715 425.145C507.392 424.631 505.298 425.374 503.022 426.806C500.754 428.241 499.173 429.813 499.496 430.326C499.818 430.841 501.914 430.098 504.189 428.666Z" fill="#A194BB"/>
<path fill-rule="evenodd" clip-rule="evenodd" d="M504.163 428.619C506.321 427.255 507.826 425.759 507.52 425.269C507.213 424.781 505.213 425.491 503.051 426.845C500.893 428.21 499.388 429.706 499.695 430.194C500.001 430.684 502.001 429.973 504.163 428.619Z" fill="#A195BC"/>
<path fill-rule="evenodd" clip-rule="evenodd" d="M504.131 428.569C506.186 427.279 507.61 425.847 507.32 425.383C507.03 424.919 505.127 425.59 503.079 426.884C501.024 428.175 499.6 429.606 499.89 430.071C500.18 430.534 502.084 429.864 504.131 428.569Z" fill="#A296BC"/>
<path fill-rule="evenodd" clip-rule="evenodd" d="M504.102 428.53C506.051 427.302 507.402 425.957 507.122 425.514C506.848 425.076 505.049 425.71 503.102 426.938C501.153 428.166 499.802 429.511 500.082 429.954C500.356 430.393 502.155 429.758 504.102 428.53Z" fill="#A397BC"/>
<path fill-rule="evenodd" clip-rule="evenodd" d="M504.076 428.484C505.915 427.326 507.194 426.049 506.929 425.631C506.672 425.217 504.967 425.82 503.129 426.977C501.291 428.134 500.013 429.411 500.278 429.829C500.535 430.244 502.239 429.641 504.076 428.484Z" fill="#A398BD"/>
<path fill-rule="evenodd" clip-rule="evenodd" d="M504.049 428.445C505.777 427.358 506.979 426.156 506.738 425.767C506.49 425.374 504.891 425.94 503.163 427.027C501.435 428.115 500.233 429.316 500.474 429.705C500.714 430.094 502.321 429.532 504.049 428.445Z" fill="#A499BD"/>
<path fill-rule="evenodd" clip-rule="evenodd" d="M504.023 428.398C505.644 427.374 506.77 426.248 506.546 425.883C506.314 425.515 504.82 426.045 503.199 427.069C501.578 428.093 500.453 429.219 500.677 429.584C500.908 429.951 502.402 429.423 504.023 428.398Z" fill="#A59ABD"/>
<path fill-rule="evenodd" clip-rule="evenodd" d="M503.998 428.352C505.508 427.398 506.565 426.35 506.35 426.007C506.135 425.665 504.735 426.163 503.224 427.116C501.713 428.07 500.656 429.117 500.872 429.46C501.087 429.803 502.487 429.306 503.998 428.352Z" fill="#A59BBE"/>
<path fill-rule="evenodd" clip-rule="evenodd" d="M503.969 428.313C505.37 427.428 506.353 426.449 506.154 426.132C505.956 425.814 504.653 426.271 503.249 427.163C501.848 428.046 500.865 429.025 501.064 429.343C501.263 429.661 502.565 429.203 503.969 428.313Z" fill="#A69CBE"/>
<path fill-rule="evenodd" clip-rule="evenodd" d="M503.937 428.262C505.231 427.441 506.134 426.546 505.952 426.253C505.77 425.96 504.569 426.388 503.271 427.199C501.977 428.019 501.073 428.915 501.255 429.208C501.438 429.501 502.639 429.072 503.937 428.262Z" fill="#A79DBE"/>
<path fill-rule="evenodd" clip-rule="evenodd" d="M503.911 428.215C505.102 427.468 505.925 426.637 505.759 426.37C505.594 426.102 504.49 426.49 503.298 427.237C502.108 427.985 501.285 428.815 501.45 429.084C501.616 429.351 502.72 428.963 503.911 428.215Z" fill="#A79EBF"/>
<path fill-rule="evenodd" clip-rule="evenodd" d="M503.883 428.177C504.963 427.5 505.718 426.748 505.561 426.502C505.411 426.259 504.405 426.607 503.329 427.295C502.248 427.972 501.494 428.724 501.651 428.97C501.8 429.213 502.806 428.864 503.883 428.177Z" fill="#A89FBF"/>
<path fill-rule="evenodd" clip-rule="evenodd" d="M503.857 428.13C504.831 427.516 505.509 426.839 505.368 426.618C505.227 426.397 504.331 426.72 503.36 427.326C502.386 427.94 501.709 428.616 501.849 428.838C501.989 429.059 502.886 428.736 503.857 428.13Z" fill="#A9A0BF"/>
<path fill-rule="evenodd" clip-rule="evenodd" d="M503.829 428.091C504.693 427.547 505.294 426.946 505.17 426.75C505.046 426.554 504.246 426.837 503.382 427.38C502.518 427.924 501.917 428.524 502.041 428.721C502.166 428.917 502.965 428.635 503.829 428.091Z" fill="#A9A1C0"/>
<path fill-rule="evenodd" clip-rule="evenodd" d="M503.803 428.044C504.56 427.563 505.085 427.038 504.977 426.866C504.87 426.696 504.175 426.942 503.411 427.419C502.654 427.9 502.129 428.425 502.237 428.597C502.344 428.768 503.039 428.522 503.803 428.044Z" fill="#AAA2C0"/>
<path fill-rule="evenodd" clip-rule="evenodd" d="M503.771 427.995C504.417 427.585 504.873 427.138 504.774 426.988C504.683 426.842 504.083 427.056 503.436 427.467C502.788 427.877 502.333 428.323 502.432 428.472C502.523 428.619 503.124 428.405 503.771 427.995Z" fill="#ABA3C0"/>
<path fill-rule="evenodd" clip-rule="evenodd" d="M503.742 427.955C504.28 427.615 504.662 427.237 504.587 427.115C504.512 426.994 504.009 427.168 503.473 427.508C502.936 427.848 502.553 428.226 502.628 428.348C502.703 428.47 503.206 428.295 503.742 427.955Z" fill="#ABA4C1"/>
<path fill-rule="evenodd" clip-rule="evenodd" d="M503.717 427.909C504.155 427.635 504.449 427.336 504.391 427.24C504.333 427.143 503.932 427.289 503.498 427.556C503.06 427.83 502.765 428.128 502.823 428.224C502.881 428.321 503.283 428.175 503.717 427.909Z" fill="#ACA5C1"/>
<path fill-rule="evenodd" clip-rule="evenodd" d="M503.692 427.862C504.019 427.659 504.241 427.428 504.199 427.357C504.149 427.282 503.853 427.39 503.526 427.595C503.199 427.798 502.977 428.028 503.019 428.1C503.068 428.174 503.365 428.066 503.692 427.862Z" fill="#ADA6C1"/>
<path fill-rule="evenodd" clip-rule="evenodd" d="M503.663 427.823C503.881 427.689 504.033 427.538 504.001 427.489C503.967 427.439 503.768 427.507 503.556 427.651C503.339 427.785 503.186 427.935 503.219 427.986C503.251 428.036 503.451 427.967 503.663 427.823Z" fill="#ADA7C2"/>
<path fill-rule="evenodd" clip-rule="evenodd" d="M503.638 427.777C503.748 427.706 503.824 427.631 503.808 427.606C503.791 427.581 503.694 427.621 503.587 427.683C503.477 427.753 503.401 427.83 503.417 427.854C503.433 427.879 503.531 427.839 503.638 427.777Z" fill="#AEA8C2"/>
</g>
<g style="mix-blend-mode:multiply" opacity="0.8">
<path fill-rule="evenodd" clip-rule="evenodd" d="M483.589 434.699C483.589 434.699 484.716 439.592 488.647 441.594L488.757 444.096C488.757 444.096 483.306 440.175 481.719 433.81L483.592 434.691L483.589 434.699Z" fill="#9A4F8B"/>
</g>
<path fill-rule="evenodd" clip-rule="evenodd" d="M210.672 422.941L204.691 400.975L209.549 399.097L197.243 398.134L208.807 423.814L210.672 422.941Z" fill="white"/>
</g>
<mask id="mask3_7_123" style="mask-type:luminance" maskUnits="userSpaceOnUse" x="180" y="20" width="226" height="117">
<path d="M405.231 20.4333H180.923V136.532H405.231V20.4333Z" fill="white"/>
</mask>
<g mask="url(#mask3_7_123)">
<path d="M220.858 104.995C217.254 104.85 213.623 104.704 210.06 104.088C207.918 103.677 205.605 103.197 203.93 101.708C201.872 99.7133 202.902 96.6999 204.78 94.9963C207.297 92.548 210.791 91.2553 214.218 90.776C216.055 90.5535 218.231 90.3223 219.804 91.5293C220.424 92.0001 220.646 92.8733 220.339 93.5925C219.379 95.7411 216.071 96.991 214.074 98.0611C212.475 98.8829 210.868 99.6705 209.193 100.304C211.166 101.297 213.377 101.725 215.536 102.085C225.331 103.506 235.269 103.103 245.124 102.709C274.227 101.22 303.322 96.8369 331.039 87.5914C341.727 84.0644 352.593 80.7258 362.371 75.0244C364.735 73.6975 367.148 72.4135 369.155 70.5643C369.963 69.9224 370.507 69.0406 370.958 68.1246C368.407 66.9346 364.343 67.0374 361.589 67.4825C360.339 67.7821 359.08 68.0647 357.813 68.3044C357.278 68.4157 356.666 68.2102 356.24 67.8849C355.33 67.2086 355.152 65.7961 355.858 64.9058C356.206 64.4521 356.691 64.2038 357.244 64.1011C358.425 63.8614 359.624 63.6987 360.832 63.596C362.124 63.4419 363.391 63.1337 364.683 63.0139C368.39 62.8256 372.378 63.3649 375.523 65.4794C378.108 67.2343 378.38 71.0952 376.961 73.6975C375.362 76.5396 371.085 78.9452 368.246 80.469C359.479 85.0575 350.203 88.439 340.8 91.0585C330.274 94.0718 319.595 96.5373 308.798 98.3179C279.771 103.18 250.293 105.757 220.85 105.004L220.858 104.995Z" fill="#A8D7E9"/>
<path d="M207.314 117.665C204.951 117.442 202.221 117.442 200.351 115.765C198.829 114.37 198.837 111.998 199.849 110.311C201.031 108.197 203.522 107.418 205.801 107.512C206.285 107.512 206.795 107.555 207.229 107.769C208.283 108.274 207.875 109.473 207.356 110.243C206.651 111.467 205.945 112.734 204.823 113.625C208.666 114.823 212.739 114.9 216.726 114.866C237.829 114.258 258.872 112.914 279.856 110.953C299.071 108.942 318.294 106.836 337.416 104.088C351.82 101.785 365.924 97.8814 379.741 93.2159C381.39 92.6166 383.014 91.9574 384.613 91.2213C385.241 90.8959 385.863 90.5364 386.381 90.0399C385.582 88.636 384.043 87.7713 382.529 87.3604C380.761 86.8981 379.86 84.6981 380.821 83.123C381.696 81.5221 384.068 81.2139 385.318 82.5408C387.809 85.3573 392.69 88.7814 390.258 93.019C389.306 94.9794 387.274 95.9296 385.31 96.5545C382.538 97.4619 379.707 98.1896 376.892 98.9429C345.425 107.444 312.632 108.445 280.417 112.332C260.02 114.344 239.589 115.944 219.158 117.476C215.213 117.725 211.259 117.956 207.314 117.657V117.665Z" fill="#A8D7E9"/>
<path d="M340.792 61.2333C337.944 57.8519 345.536 56.4137 343.59 52.8953C342.501 50.5069 339.27 52.2276 337.833 50.2672C335.164 45.2849 344.975 46.4663 347.194 44.095C347.109 42.3058 345.562 41.21 344.176 40.354C341.438 40.8591 332.979 39.9688 336.226 35.6286C341.175 34.1818 346.726 34.293 351.675 32.5382C347.985 31.528 344.176 30.458 341.022 28.2065C338.437 26.4858 337.986 22.0685 341.226 20.8101C343.172 20.0482 345.366 20.5619 347.262 21.2382C351.089 22.9075 355.578 25.7753 356.436 30.1754C359.803 31.1513 363.34 31.4253 366.834 31.3739C369.181 31.3397 368.492 33.7709 366.562 33.8908C363.017 34.3787 359.386 34.0021 355.866 33.4371C354.217 36.887 350.637 38.7532 347.118 39.7205C351.658 43.5899 350.425 48.5038 345.018 50.524C346.982 52.4159 347.491 55.4807 346.148 57.8776C345.153 59.7695 343.224 63.3649 340.783 61.2419L340.792 61.2333ZM352.066 28.6345C352.755 28.9256 353.452 29.191 354.149 29.4392C352.134 26.0835 347.891 23.7036 343.963 23.9947C346.429 25.9122 349.201 27.4189 352.066 28.6345Z" fill="#A8D7E9"/>
<path d="M229.284 77.4212C228.468 77.31 227.975 76.4967 228.161 75.7091C228.195 75.5722 228.23 75.4438 228.264 75.3068C223.723 77.875 217.015 76.4454 218.214 70.0933C214.515 71.1207 210.035 68.1159 211.182 63.9897C209.405 64.5461 207.229 66.0014 205.409 65.0854C204.866 64.683 204.941 63.8184 205.512 63.476C207.509 62.56 209.312 61.2331 211.174 60.0518C214.286 58.5108 215.4 54.9839 217.849 52.6297C219.863 50.5923 225.67 44.5229 228.595 46.5174C232.803 51.123 218.639 60.3172 215.051 62.132C212.755 66.087 214.626 69.0147 219.073 67.5166C224.616 56.7645 234.071 62.0636 222.966 68.1073C218.843 74.836 227.83 72.2164 230.653 69.965C233.34 68.7408 232.999 72.6873 231.052 73.6546C230.746 74.9729 231.333 77.5582 229.284 77.4212Z" fill="#A8D7E9"/>
<path d="M183.712 136.498C178.185 134.521 182.207 126.67 184.452 123.383C185.242 122.33 186.824 123.692 185.922 124.642C185.081 127.407 184.129 130.463 184.63 133.374C186.611 133.313 187.699 131.37 188.805 129.975C189.417 129.127 189.425 127.963 190.14 127.184C190.794 126.525 191.78 126.431 192.571 126.902C194.025 127.903 193.728 129.513 194.612 130.72C198.302 129.47 197.868 125.652 202.604 128.597C208.973 129.693 203.301 136.721 199.968 129.88C198.106 133.28 193.116 136.387 190.641 131.849C189.06 134.187 186.841 136.883 183.721 136.49L183.712 136.498Z" fill="#A8D7E9"/>
<path d="M385.267 111.852C383.872 111.296 380.464 110.072 380.583 108.317C380.676 107.649 381.296 107.033 381.994 107.076C384.179 107.315 386.305 110.534 388.6 108.933C390.301 107.033 390.182 102.949 393.472 102.924C396.473 102.513 404.584 109.901 401.404 102.256C399.951 101.331 401.524 99.0971 402.875 100.167C403.989 102.307 405.877 104.875 405.009 107.435C402.816 112.452 395.785 110.149 392.673 107.281C390.394 109.413 389.212 113.333 385.267 111.861V111.852Z" fill="#A8D7E9"/>
<path d="M362.524 53.9137C362.142 53.5284 362.379 52.9805 362.796 52.7494C363.935 51.7307 364.828 50.4809 365.763 49.2824C367.939 46.8769 372.939 39.1209 376.442 42.8533C379.061 46.9453 371.315 49.4707 368.731 51.14C367.387 51.842 366.009 52.4669 364.684 53.2117C364.003 53.46 363.247 54.5386 362.524 53.9222V53.9137Z" fill="#A8D7E9"/>
<path d="M321.832 54.744C321.474 52.3984 321.194 49.9415 320.412 47.6215C319.519 44.7195 320.327 41.6548 320.157 38.6671C320.208 34.8063 326.007 34.7978 326.049 38.6671C325.862 41.5007 326.627 44.36 325.989 47.1507C325.565 49.1967 324.824 51.1913 324.808 53.3058C325.565 55.1378 322.809 56.4904 321.84 54.744H321.832Z" fill="#A8D7E9"/>
<path d="M245.744 67.5769C245.031 67.1318 245.243 66.1559 245.141 65.4367C245.183 63.2795 244.061 61.3705 243.959 59.256C244.061 58.0832 244.019 56.8505 244.359 55.7462C245.073 53.9056 247.658 53.392 249.009 54.8302C250.438 56.3454 249.834 59.4529 249.231 61.2678C248.474 62.6032 247.896 64.0242 247.53 65.5224C247.301 66.4042 247.046 68.2018 245.753 67.5769H245.744Z" fill="#A8D7E9"/>
<path d="M208.454 86.8551C204.781 86.0248 201.431 84.1585 199.075 81.188C195.198 79.0393 197.672 73.6889 201.524 75.9918C202.91 77.3529 204.84 77.8922 206.166 79.3047C207.765 81.3164 210.231 83.0542 210.962 85.571C210.962 86.8808 209.457 87.2489 208.445 86.8551H208.454Z" fill="#A8D7E9"/>
</g>
</g>
<defs>
<linearGradient id="paint0_linear_7_123" x1="287.151" y1="398.134" x2="287.151" y2="378.993" gradientUnits="userSpaceOnUse">
<stop stop-color="#FFD328"/>
<stop offset="1" stop-color="#FFA700"/>
</linearGradient>
<radialGradient id="paint1_radial_7_123" cx="0" cy="0" r="1" gradientUnits="userSpaceOnUse" gradientTransform="translate(244.085 562.381) rotate(180) scale(44.1706 44.4889)">
<stop stop-color="#9D94C2"/>
<stop offset="0.98" stop-color="#8C74B1"/>
</radialGradient>
<linearGradient id="paint2_linear_7_123" x1="214.276" y1="546.863" x2="109.042" y2="546.863" gradientUnits="userSpaceOnUse">
<stop offset="0.02" stop-color="#E6E0EE"/>
<stop offset="1" stop-color="#F0EFF6"/>
</linearGradient>
<linearGradient id="paint3_linear_7_123" x1="225.428" y1="543.705" x2="113.043" y2="543.705" gradientUnits="userSpaceOnUse">
<stop offset="0.02" stop-color="#E6E0EE"/>
<stop offset="1" stop-color="#F0EFF6"/>
</linearGradient>
<linearGradient id="paint4_linear_7_123" x1="190.925" y1="568.454" x2="87.2742" y2="568.454" gradientUnits="userSpaceOnUse">
<stop offset="0.02" stop-color="#E6E0EE"/>
<stop offset="1" stop-color="#F0EFF6"/>
</linearGradient>
<linearGradient id="paint5_linear_7_123" x1="218.994" y1="535.114" x2="92.1082" y2="535.114" gradientUnits="userSpaceOnUse">
<stop offset="0.02" stop-color="#E6E0EE"/>
<stop offset="1" stop-color="#F0EFF6"/>
</linearGradient>
<radialGradient id="paint6_radial_7_123" cx="0" cy="0" r="1" gradientUnits="userSpaceOnUse" gradientTransform="translate(235.388 469.818) rotate(170.504) scale(53.279 53.6421)">
<stop stop-color="#515BFF"/>
<stop offset="0.03" stop-color="#515ADD"/>
<stop offset="1" stop-color="#4335BB"/>
</radialGradient>
<radialGradient id="paint7_radial_7_123" cx="0" cy="0" r="1" gradientUnits="userSpaceOnUse" gradientTransform="translate(239.027 561.098) rotate(170.504) scale(11.8389 11.9195)">
<stop stop-color="#471371"/>
<stop offset="0.99" stop-color="#20003B"/>
</radialGradient>
<radialGradient id="paint8_radial_7_123" cx="0" cy="0" r="1" gradientUnits="userSpaceOnUse" gradientTransform="translate(218.499 455.622) rotate(170.504) scale(22.8939 23.05)">
<stop stop-color="#FFA100"/>
<stop offset="1" stop-color="#FF9700"/>
</radialGradient>
<radialGradient id="paint9_radial_7_123" cx="0" cy="0" r="1" gradientUnits="userSpaceOnUse" gradientTransform="translate(245.708 499.284) rotate(170.504) scale(58.394 58.7919)">
<stop stop-color="#5C65FF"/>
<stop offset="1" stop-color="#4F59D0"/>
</radialGradient>
<radialGradient id="paint10_radial_7_123" cx="0" cy="0" r="1" gradientUnits="userSpaceOnUse" gradientTransform="translate(247.957 499.106) rotate(170.504) scale(58.1383 58.5345)">
<stop stop-color="#7C98E3"/>
<stop offset="0.09" stop-color="#7690D8"/>
<stop offset="0.26" stop-color="#667EBC"/>
<stop offset="0.47" stop-color="#4D5F8E"/>
<stop offset="0.72" stop-color="#2B354F"/>
<stop offset="1"/>
</radialGradient>
<radialGradient id="paint11_radial_7_123" cx="0" cy="0" r="1" gradientUnits="userSpaceOnUse" gradientTransform="translate(278.086 573.149) rotate(180) scale(11.8365 12.1603)">
<stop stop-color="#471371"/>
<stop offset="0.99" stop-color="#20003B"/>
</radialGradient>
<radialGradient id="paint12_radial_7_123" cx="0" cy="0" r="1" gradientUnits="userSpaceOnUse" gradientTransform="translate(274.976 463.452) rotate(180) scale(22.8812 23.5071)">
<stop stop-color="#FFA100"/>
<stop offset="1" stop-color="#FF9700"/>
</radialGradient>
<radialGradient id="paint13_radial_7_123" cx="0" cy="0" r="1" gradientUnits="userSpaceOnUse" gradientTransform="translate(296.978 512.208) rotate(180) scale(58.1195 59.7083)">
<stop stop-color="#7C98E3"/>
<stop offset="0.09" stop-color="#7690D8"/>
<stop offset="0.26" stop-color="#667EBC"/>
<stop offset="0.47" stop-color="#4D5F8E"/>
<stop offset="0.72" stop-color="#2B354F"/>
<stop offset="1"/>
</radialGradient>
<linearGradient id="paint14_linear_7_123" x1="373.026" y1="595.148" x2="373.026" y2="449.593" gradientUnits="userSpaceOnUse">
<stop stop-color="#FFB827"/>
<stop offset="1" stop-color="#FF6B22"/>
</linearGradient>
<radialGradient id="paint15_radial_7_123" cx="0" cy="0" r="1" gradientUnits="userSpaceOnUse" gradientTransform="translate(381.218 480.581) rotate(180) scale(76.95 80.6047)">
<stop stop-color="#FFBF00"/>
<stop offset="1" stop-color="#FFA700"/>
</radialGradient>
<radialGradient id="paint16_radial_7_123" cx="0" cy="0" r="1" gradientUnits="userSpaceOnUse" gradientTransform="translate(326.348 521.035) rotate(180) scale(50.8601 53.2756)">
<stop stop-color="#FF7527"/>
<stop offset="1" stop-color="#F44047"/>
</radialGradient>
<radialGradient id="paint17_radial_7_123" cx="0" cy="0" r="1" gradientUnits="userSpaceOnUse" gradientTransform="translate(319.428 523.126) rotate(180) scale(49.8621 52.2302)">
<stop stop-color="#FF7527"/>
<stop offset="1" stop-color="#F44047"/>
</radialGradient>
<radialGradient id="paint18_radial_7_123" cx="0" cy="0" r="1" gradientUnits="userSpaceOnUse" gradientTransform="translate(353.419 525.96) rotate(180) scale(49.9446 50.3044)">
<stop stop-color="#9D94C2"/>
<stop offset="0.98" stop-color="#8C74B1"/>
</radialGradient>
<linearGradient id="paint19_linear_7_123" x1="382.102" y1="589.474" x2="405.021" y2="458.01" gradientUnits="userSpaceOnUse">
<stop offset="0.02" stop-color="#D1C7E0"/>
<stop offset="0.04" stop-color="#D2C8E0"/>
<stop offset="0.33" stop-color="#E4D8E8"/>
<stop offset="0.65" stop-color="#EFE2EC"/>
<stop offset="1" stop-color="#F3E6EE"/>
</linearGradient>
<linearGradient id="paint20_linear_7_123" x1="343.282" y1="485.168" x2="343.282" y2="458.284" gradientUnits="userSpaceOnUse">
<stop offset="0.02" stop-color="#D1C7E0"/>
<stop offset="0.04" stop-color="#D2C8E0"/>
<stop offset="0.33" stop-color="#E4D8E8"/>
<stop offset="0.65" stop-color="#EFE2EC"/>
<stop offset="1" stop-color="#F3E6EE"/>
</linearGradient>
<linearGradient id="paint21_linear_7_123" x1="359.251" y1="595.148" x2="359.251" y2="456.564" gradientUnits="userSpaceOnUse">
<stop offset="0.02" stop-color="#D1C7E0"/>
<stop offset="0.04" stop-color="#D2C8E0"/>
<stop offset="0.33" stop-color="#E4D8E8"/>
<stop offset="0.65" stop-color="#EFE2EC"/>
<stop offset="1" stop-color="#F3E6EE"/>
</linearGradient>
<radialGradient id="paint22_radial_7_123" cx="0" cy="0" r="1" gradientUnits="userSpaceOnUse" gradientTransform="translate(341.41 471.726) rotate(180) scale(9.52694 9.59564)">
<stop stop-color="#9D94C2"/>
<stop offset="0.98" stop-color="#8C74B1"/>
</radialGradient>
<radialGradient id="paint23_radial_7_123" cx="0" cy="0" r="1" gradientUnits="userSpaceOnUse" gradientTransform="translate(353.041 516.697) rotate(180) scale(47.0575 47.3967)">
<stop stop-color="#9D94C2"/>
<stop offset="0.98" stop-color="#8C74B1"/>
</radialGradient>
<radialGradient id="paint24_radial_7_123" cx="0" cy="0" r="1" gradientUnits="userSpaceOnUse" gradientTransform="translate(358.113 528.145) rotate(180) scale(47.404 47.7456)">
<stop stop-color="#9D94C2"/>
<stop offset="0.98" stop-color="#8C74B1"/>
</radialGradient>
<linearGradient id="paint25_linear_7_123" x1="434.833" y1="471.725" x2="434.833" y2="442.308" gradientUnits="userSpaceOnUse">
<stop stop-color="#FF6E27"/>
<stop offset="1" stop-color="#E03347"/>
</linearGradient>
<linearGradient id="paint26_linear_7_123" x1="157.707" y1="507.376" x2="101.035" y2="465.908" gradientUnits="userSpaceOnUse">
<stop stop-color="#C93347"/>
<stop offset="1" stop-color="#FF7527"/>
</linearGradient>
<linearGradient id="paint27_linear_7_123" x1="165.271" y1="514.333" x2="163.118" y2="513.217" gradientUnits="userSpaceOnUse">
<stop stop-color="#2A0E51"/>
<stop offset="1" stop-color="#50306C"/>
</linearGradient>
<radialGradient id="paint28_radial_7_123" cx="0" cy="0" r="1" gradientUnits="userSpaceOnUse" gradientTransform="translate(102.368 466.215) rotate(126.193) scale(2.79274 2.78674)">
<stop stop-color="#EBD7E3"/>
<stop offset="0.98" stop-color="#BDAFD2"/>
</radialGradient>
<linearGradient id="paint29_linear_7_123" x1="166.575" y1="512.606" x2="101.648" y2="465.098" gradientUnits="userSpaceOnUse">
<stop/>
<stop offset="1" stop-color="#CD6327"/>
</linearGradient>
<linearGradient id="paint30_linear_7_123" x1="100.34" y1="463.343" x2="96.6367" y2="463.343" gradientUnits="userSpaceOnUse">
<stop stop-color="#DD7500"/>
<stop offset="1" stop-color="#CD6327"/>
</linearGradient>
<radialGradient id="paint31_radial_7_123" cx="0" cy="0" r="1" gradientUnits="userSpaceOnUse" gradientTransform="translate(441.059 574.604) rotate(-149.61) scale(0.875941 0.879038)">
<stop stop-color="#AEA8C2"/>
<stop offset="0.98" stop-color="#8C74B1"/>
</radialGradient>
<radialGradient id="paint32_radial_7_123" cx="0" cy="0" r="1" gradientUnits="userSpaceOnUse" gradientTransform="translate(490.268 495.176) rotate(-149.611) scale(3.44591 3.45807)">
<stop stop-color="#471371"/>
<stop offset="0.99" stop-color="#20003B"/>
</radialGradient>
<radialGradient id="paint33_radial_7_123" cx="0" cy="0" r="1" gradientUnits="userSpaceOnUse" gradientTransform="translate(443.692 568.745) rotate(-149.611) scale(3.06578 3.07662)">
<stop stop-color="#AEA8C2"/>
<stop offset="0.98" stop-color="#8C74B1"/>
</radialGradient>
<radialGradient id="paint34_radial_7_123" cx="0" cy="0" r="1" gradientUnits="userSpaceOnUse" gradientTransform="translate(452.358 553.341) rotate(-149.611) scale(9.25518 9.28789)">
<stop stop-color="#471371"/>
<stop offset="0.99" stop-color="#20003B"/>
</radialGradient>
<radialGradient id="paint35_radial_7_123" cx="0" cy="0" r="1" gradientUnits="userSpaceOnUse" gradientTransform="translate(476.609 520.275) rotate(-149.611) scale(5.10688 30.9032)">
<stop stop-color="#AEA8C2"/>
<stop offset="0.98" stop-color="#8C74B1"/>
</radialGradient>
<radialGradient id="paint36_radial_7_123" cx="0" cy="0" r="1" gradientUnits="userSpaceOnUse" gradientTransform="translate(477.363 505.167) rotate(-149.611) scale(8.82549 13.285)">
<stop stop-color="#AEA8C2"/>
<stop offset="0.98" stop-color="#8C74B1"/>
</radialGradient>
<radialGradient id="paint37_radial_7_123" cx="0" cy="0" r="1" gradientUnits="userSpaceOnUse" gradientTransform="translate(480.497 512.159) rotate(-149.611) scale(3.99131 3.32448)">
<stop stop-color="white"/>
<stop offset="0.98" stop-color="#C8BDDA"/>
</radialGradient>
<radialGradient id="paint38_radial_7_123" cx="0" cy="0" r="1" gradientUnits="userSpaceOnUse" gradientTransform="translate(471.662 522.871) rotate(-149.611) scale(18.7005 18.7664)">
<stop stop-color="#C0A9B1"/>
<stop offset="0.11" stop-color="#B59FA7"/>
<stop offset="0.29" stop-color="#99878D"/>
<stop offset="0.53" stop-color="#6B5E63"/>
<stop offset="0.81" stop-color="#2D2729"/>
<stop offset="1"/>
</radialGradient>
<linearGradient id="paint39_linear_7_123" x1="358.523" y1="421.775" x2="366.386" y2="394.051" gradientUnits="userSpaceOnUse">
<stop stop-color="#C73E27"/>
<stop offset="1" stop-color="#A4152C"/>
</linearGradient>
<linearGradient id="paint40_linear_7_123" x1="359.946" y1="423.813" x2="368.534" y2="393.53" gradientUnits="userSpaceOnUse">
<stop stop-color="#C73E27"/>
<stop offset="1" stop-color="#A4152C"/>
</linearGradient>
<linearGradient id="paint41_linear_7_123" x1="367.858" y1="412.774" x2="375.758" y2="391.843" gradientUnits="userSpaceOnUse">
<stop stop-color="white"/>
<stop offset="1" stop-color="#C772BF"/>
</linearGradient>
<linearGradient id="paint42_linear_7_123" x1="355.208" y1="417.946" x2="357.565" y2="409.619" gradientUnits="userSpaceOnUse">
<stop stop-color="#C772BF"/>
<stop offset="1" stop-color="#F2BFE2"/>
</linearGradient>
<linearGradient id="paint43_linear_7_123" x1="365.337" y1="417.794" x2="367.741" y2="409.317" gradientUnits="userSpaceOnUse">
<stop stop-color="#C73E27"/>
<stop offset="1" stop-color="#A4152C"/>
</linearGradient>
<linearGradient id="paint44_linear_7_123" x1="355.116" y1="415.268" x2="365.248" y2="388.424" gradientUnits="userSpaceOnUse">
<stop stop-color="white"/>
<stop offset="1" stop-color="#9F4DAE"/>
</linearGradient>
<radialGradient id="paint45_radial_7_123" cx="0" cy="0" r="1" gradientUnits="userSpaceOnUse" gradientTransform="translate(74.502 593.761) rotate(180) scale(12.1299 10.9082)">
<stop stop-color="#FFDB00"/>
<stop offset="1" stop-color="#FFC700"/>
</radialGradient>
<linearGradient id="paint46_linear_7_123" x1="52.4086" y1="592.248" x2="52.4086" y2="568.779" gradientUnits="userSpaceOnUse">
<stop stop-color="#FFA700"/>
<stop offset="1" stop-color="#FFBF00"/>
</linearGradient>
<linearGradient id="paint47_linear_7_123" x1="71.6683" y1="586.657" x2="16.123" y2="586.657" gradientUnits="userSpaceOnUse">
<stop stop-color="white"/>
<stop offset="1" stop-color="#E55EBF"/>
</linearGradient>
<radialGradient id="paint48_radial_7_123" cx="0" cy="0" r="1" gradientUnits="userSpaceOnUse" gradientTransform="translate(533.664 575.944) rotate(-179.295) scale(16.431 16.5493)">
<stop offset="0.03" stop-color="#414BB8"/>
<stop offset="1" stop-color="#2C1C77"/>
</radialGradient>
<linearGradient id="paint49_linear_7_123" x1="565.994" y1="588.073" x2="497.05" y2="587.237" gradientUnits="userSpaceOnUse">
<stop offset="0.02" stop-color="#C9BDDA"/>
<stop offset="1" stop-color="#CEC9E0"/>
</linearGradient>
<radialGradient id="paint50_radial_7_123" cx="0" cy="0" r="1" gradientUnits="userSpaceOnUse" gradientTransform="translate(470.339 590.618) rotate(-179.295) scale(19.0293 19.1663)">
<stop stop-color="#9D94C2"/>
<stop offset="0.98" stop-color="#8C74B1"/>
</radialGradient>
<linearGradient id="paint51_linear_7_123" x1="566.032" y1="584.916" x2="444.615" y2="583.444" gradientUnits="userSpaceOnUse">
<stop offset="0.02" stop-color="#E6E0EE"/>
<stop offset="1" stop-color="#F0EFF6"/>
</linearGradient>
<radialGradient id="paint52_radial_7_123" cx="0" cy="0" r="1" gradientUnits="userSpaceOnUse" gradientTransform="translate(482.017 575.259) rotate(-179.295) scale(25.9745 26.1616)">
<stop stop-color="#515BFF"/>
<stop offset="0.03" stop-color="#515ADD"/>
<stop offset="1" stop-color="#4335BB"/>
</radialGradient>
<linearGradient id="paint53_linear_7_123" x1="479.795" y1="598.978" x2="480.414" y2="591.677" gradientUnits="userSpaceOnUse">
<stop stop-color="#FF6E27"/>
<stop offset="1" stop-color="#E03347"/>
</linearGradient>
<radialGradient id="paint54_radial_7_123" cx="0" cy="0" r="1" gradientUnits="userSpaceOnUse" gradientTransform="translate(447.32 589.125) rotate(180) scale(6.4833 6.53011)">
<stop stop-color="#FFBF00"/>
<stop offset="1" stop-color="#FFA700"/>
</radialGradient>
<linearGradient id="paint55_linear_7_123" x1="566.066" y1="583.567" x2="496.952" y2="583.567" gradientUnits="userSpaceOnUse">
<stop offset="0.02" stop-color="#C9BDDA"/>
<stop offset="1" stop-color="#CEC9E0"/>
</linearGradient>
<radialGradient id="paint56_radial_7_123" cx="0" cy="0" r="1" gradientUnits="userSpaceOnUse" gradientTransform="translate(471.769 584.506) rotate(180) scale(17.825 17.9533)">
<stop stop-color="#9D94C2"/>
<stop offset="0.98" stop-color="#8C74B1"/>
</radialGradient>
<linearGradient id="paint57_linear_7_123" x1="566.066" y1="582.852" x2="446.594" y2="582.852" gradientUnits="userSpaceOnUse">
<stop offset="0.02" stop-color="#E6E0EE"/>
<stop offset="1" stop-color="#F0EFF6"/>
</linearGradient>
<radialGradient id="paint58_radial_7_123" cx="0" cy="0" r="1" gradientUnits="userSpaceOnUse" gradientTransform="translate(147.351 376.794) rotate(164.082) scale(9.97771 10.0389)">
<stop stop-color="#5C65FF"/>
<stop offset="1" stop-color="#4F59D0"/>
</radialGradient>
<radialGradient id="paint59_radial_7_123" cx="0" cy="0" r="1" gradientUnits="userSpaceOnUse" gradientTransform="translate(492.341 433.947) rotate(58.6865) scale(10.0211 9.99538)">
<stop stop-color="#FF7527"/>
<stop offset="1" stop-color="#E03347"/>
</radialGradient>
<radialGradient id="paint60_radial_7_123" cx="0" cy="0" r="1" gradientUnits="userSpaceOnUse" gradientTransform="translate(500.738 428.772) rotate(112.708) scale(7.06022 7.04659)">
<stop stop-color="#B61E09"/>
<stop offset="0.99" stop-color="#860E33"/>
</radialGradient>
<clipPath id="clip0_7_123">
<rect width="600" height="600" fill="white"/>
</clipPath>
</defs>
</svg>
