<svg width="25" height="24" viewBox="0 0 25 24" fill="none" xmlns="http://www.w3.org/2000/svg">
<path d="M22.3442 10.7825C19.4878 6.62305 12.542 6.62305 12.542 6.62305C12.542 6.62305 5.59619 6.62305 2.73976 10.7825C0.118666 14.5999 0.143075 19.8164 0.143075 19.8164L2.67468 23.066H22.4093L24.9409 19.8164C24.9409 19.8164 24.9659 14.5999 22.3442 10.7825Z" fill="#D5E9F2"/>
<path d="M22.3488 10.7817C21.2291 9.15124 19.4804 8.15993 17.7687 7.55713C18.6543 8.10918 19.461 8.81224 20.0769 9.70955C22.698 13.5269 22.6736 18.7435 22.6736 18.7435L20.142 21.9931H1.84436L2.67988 23.0652H22.4132L24.9448 19.8156C24.9448 19.8156 24.9699 14.599 22.3481 10.7817H22.3488Z" fill="#A8D7E9"/>
<path d="M18.8386 11.6266C16.1775 9.61208 8.90686 9.61208 6.24571 11.6266C3.35612 13.8142 3.45438 19.0357 3.45438 19.0357H21.63C21.63 19.0357 21.7282 13.8142 18.8386 11.6266Z" fill="#002B43"/>
<path d="M3.53011 19.0357C3.70848 17.332 4.29866 14.4815 6.24571 13.0077C8.90686 10.9931 16.1775 10.9931 18.8386 13.0077C20.7857 14.4815 21.3759 17.3326 21.5542 19.0357H21.63C21.63 19.0357 21.7282 13.8142 18.8386 11.6266C16.1775 9.61208 8.90686 9.61208 6.24571 11.6266C3.35612 13.8142 3.45438 19.0357 3.45438 19.0357H3.53011Z" fill="#000F16"/>
<path d="M10.3677 5.64795H14.7168C14.9314 5.64795 15.1061 5.82277 15.1061 6.0377V7.40247C15.1061 7.6174 14.9314 7.79223 14.7168 7.79223H10.3677C10.153 7.79223 9.97839 7.6174 9.97839 7.40247V6.0377C9.97839 5.82277 10.153 5.64795 10.3677 5.64795Z" fill="#D5E9F2"/>
<path d="M11.3849 6.68661L11.9688 1.22754H12.748L13.7006 6.71919L11.3849 6.68661Z" fill="#D5E9F2"/>
<path d="M13.3214 1.22759C13.3214 1.7483 12.9002 2.17001 12.3801 2.17001C11.86 2.17001 11.4388 1.7483 11.4388 1.22759C11.4388 0.706868 11.86 0.285156 12.3801 0.285156C12.9002 0.285156 13.3214 0.706868 13.3214 1.22759Z" fill="#D5E9F2"/>
<path d="M12.9677 0.491211C13.0278 0.615281 13.0616 0.755016 13.0616 0.90227C13.0616 1.42299 12.6404 1.8447 12.1203 1.8447C11.8981 1.8447 11.6941 1.76763 11.5326 1.63854C11.6853 1.9531 12.007 2.16991 12.38 2.16991C12.9001 2.16991 13.3213 1.7482 13.3213 1.22748C13.3213 0.929841 13.183 0.664157 12.9677 0.491211Z" fill="#A8D7E9"/>
<path d="M2.67503 23.0655H22.409L24.9406 19.8159H0.143433L2.67503 23.0655Z" fill="#A8D7E9"/>
<path d="M15.1069 6.76458C15.1069 6.90181 15.0199 7.01272 14.9122 7.01272H12.7374C12.6297 7.01272 12.5427 6.90181 12.5427 6.76458V5.89609C12.5427 5.75886 12.6297 5.64795 12.7374 5.64795H14.9122C15.0199 5.64795 15.1069 5.75886 15.1069 5.89609V6.76458Z" fill="#A8D7E9"/>
<path d="M8.65774 8.4153C8.34168 7.80936 6.91034 8.15651 6.44282 8.37707C6.06105 8.55754 5.36947 8.95795 4.92887 9.38216C4.57901 9.66101 4.26671 9.98559 3.99509 10.3515C3.76915 10.6554 3.34357 11.2814 3.61644 11.6806C3.91686 12.1192 4.4238 11.7389 4.6754 11.4857C5.33067 10.8259 5.83386 10.1197 6.72258 9.71803C7.15943 9.52065 9.03075 9.12964 8.65774 8.4153Z" fill="white"/>
<path d="M12.0051 0.684858C11.562 0.792009 11.7316 1.7194 12.2767 1.21999C12.7105 0.82334 12.2561 0.573321 12.0051 0.684858Z" fill="white"/>
<path d="M15.1103 16.1539C15.0271 16.1514 14.9564 16.2178 14.9539 16.3018C14.9539 16.3112 14.9263 16.9942 14.4926 17.3526C14.0783 17.6947 13.3266 17.8094 12.9618 17.8088C12.6207 17.8238 11.8452 17.6954 11.4303 17.3526C10.9966 16.9942 10.969 16.3112 10.969 16.3018C10.9665 16.2178 10.8964 16.1514 10.8126 16.1539C10.7287 16.1564 10.6624 16.2266 10.6649 16.3105C10.6661 16.3444 10.6943 17.1395 11.2369 17.5876C11.7908 18.045 12.5055 18.1146 12.8892 18.1146C13.3473 18.1146 14.1328 18.045 14.6866 17.5876C15.2293 17.1395 15.2574 16.3437 15.2587 16.3105C15.2612 16.2266 15.1948 16.1564 15.111 16.1539H15.1103Z" fill="#3AEDB1"/>
<path d="M7.83589 14.1438C7.83589 14.6401 7.43409 15.043 6.93778 15.043C6.44147 15.043 6.03967 14.6407 6.03967 14.1438C6.03967 13.6469 6.44147 13.2446 6.93778 13.2446C7.43409 13.2446 7.83589 13.6469 7.83589 14.1438Z" fill="#3AEDB1"/>
<path d="M19.2487 14.1438C19.2487 14.6401 18.8469 15.043 18.3506 15.043C17.8543 15.043 17.4525 14.6407 17.4525 14.1438C17.4525 13.6469 17.8543 13.2446 18.3506 13.2446C18.8469 13.2446 19.2487 13.6469 19.2487 14.1438Z" fill="#3AEDB1"/>
</svg>
