<svg width="600" height="600" viewBox="0 0 600 600" fill="none" xmlns="http://www.w3.org/2000/svg">
<g clip-path="url(#clip0_7_12)">
<path d="M15.7937 366.101C23.2135 364.892 28.2521 357.873 27.0477 350.424C25.8433 342.975 18.852 337.916 11.4321 339.126C4.01213 340.334 -1.02652 347.353 0.1779 354.803C1.38232 362.252 8.37372 367.31 15.7937 366.101Z" fill="#C4CAFF"/>
<mask id="mask0_7_12" style="mask-type:luminance" maskUnits="userSpaceOnUse" x="27" y="78" width="573" height="522">
<path d="M600 78.9473H27.3206V600H600V78.9473Z" fill="white"/>
</mask>
<g mask="url(#mask0_7_12)">
<path d="M239.018 600C302.121 600 353.275 591.986 353.275 582.101C353.275 572.216 302.121 564.202 239.018 564.202C175.915 564.202 124.76 572.216 124.76 582.101C124.76 591.986 175.915 600 239.018 600Z" fill="#2085B7"/>
<path d="M326.191 210.94C296.498 167.625 224.295 167.625 224.295 167.625C224.295 167.625 152.092 167.625 122.399 210.94C95.1521 250.692 95.4054 305.014 95.4054 305.014L121.722 338.854H326.868L353.185 305.014C353.185 305.014 353.444 250.692 326.191 210.94Z" fill="#D5E9F2"/>
<path d="M326.236 210.94C314.597 193.961 296.419 183.639 278.626 177.361C287.832 183.109 296.217 190.431 302.62 199.776C329.867 239.527 329.612 293.849 329.612 293.849L303.297 327.689H113.088L121.774 338.853H326.907L353.223 305.015C353.223 305.015 353.483 250.691 326.23 210.94H326.236Z" fill="#A8D7E9"/>
<path d="M289.752 219.736C262.088 198.757 186.509 198.757 158.846 219.736C128.807 242.516 129.829 296.89 129.829 296.89H318.768C318.768 296.89 319.79 242.516 289.752 219.736Z" fill="#002B43"/>
<path d="M130.616 296.89C132.47 279.148 138.605 249.465 158.846 234.118C186.509 213.139 262.088 213.139 289.752 234.118C309.991 249.465 316.126 279.155 317.981 296.89H318.768C318.768 296.89 319.79 242.516 289.752 219.736C262.088 198.757 186.509 198.757 158.846 219.736C128.807 242.516 129.829 296.89 129.829 296.89H130.616Z" fill="#000F16"/>
<path d="M201.694 157.472H246.903C249.135 157.472 250.949 159.292 250.949 161.53V175.743C250.949 177.981 249.135 179.802 246.903 179.802H201.694C199.462 179.802 197.647 177.981 197.647 175.743V161.53C197.647 159.292 199.462 157.472 201.694 157.472Z" fill="#D5E9F2"/>
<path d="M212.266 168.297L218.335 111.449H226.436L236.337 168.637L212.266 168.297Z" fill="#D5E9F2"/>
<path d="M232.395 111.449C232.395 116.872 228.016 121.263 222.61 121.263C217.203 121.263 212.825 116.872 212.825 111.449C212.825 106.027 217.203 101.635 222.61 101.635C228.016 101.635 232.395 106.027 232.395 111.449Z" fill="#D5E9F2"/>
<path d="M228.719 103.782C229.343 105.074 229.695 106.529 229.695 108.063C229.695 113.485 225.316 117.877 219.91 117.877C217.6 117.877 215.479 117.074 213.801 115.73C215.389 119.006 218.732 121.263 222.61 121.263C228.016 121.263 232.394 116.872 232.394 111.449C232.394 108.35 230.957 105.583 228.719 103.782Z" fill="#A8D7E9"/>
<path d="M121.729 338.855H326.868L353.184 305.015H95.4116L121.729 338.855Z" fill="#A8D7E9"/>
<path d="M250.956 169.1C250.956 170.529 250.052 171.684 248.933 171.684H226.324C225.205 171.684 224.301 170.529 224.301 169.1V160.056C224.301 158.627 225.205 157.472 226.324 157.472H248.933C250.052 157.472 250.956 158.627 250.956 160.056V169.1Z" fill="#A8D7E9"/>
<path d="M183.919 186.294C180.633 179.984 165.754 183.599 160.894 185.896C156.926 187.775 149.736 191.944 145.156 196.362C141.519 199.265 138.273 202.646 135.45 206.457C133.1 209.621 128.676 216.14 131.514 220.297C134.637 224.864 139.906 220.903 142.522 218.267C149.333 211.396 154.564 204.042 163.802 199.86C168.344 197.804 187.796 193.733 183.919 186.294Z" fill="white"/>
<path d="M218.713 105.792C214.107 106.908 215.87 116.566 221.537 111.365C226.045 107.235 221.321 104.631 218.713 105.792Z" fill="white"/>
<path d="M364.127 415.513L324.038 346.162H124.565L84.4751 415.513C84.4751 415.513 86.1931 444.413 95.8604 470.826C110.727 511.433 124.897 527.675 124.897 527.675L173.964 546.676L223.853 551.276V551.361C223.853 551.361 224.184 551.322 224.301 551.322C224.418 551.322 224.75 551.361 224.75 551.361V551.276L274.637 546.676L323.706 527.675C323.706 527.675 341.506 504.666 352.741 470.826C361.603 444.125 364.127 415.513 364.127 415.513Z" fill="#D5E9F2"/>
<path d="M324.031 346.162H276.798L316.887 415.513C316.887 415.513 314.363 444.125 305.502 470.826C294.266 504.666 289.237 518.147 276.466 527.675C265.914 535.551 227.398 546.676 227.398 546.676L200.679 549.142L223.853 551.276V551.361C223.853 551.361 224.184 551.322 224.301 551.322C224.418 551.322 224.75 551.361 224.75 551.361V551.276L274.637 546.676L323.706 527.675C323.706 527.675 341.506 504.666 352.741 470.826C361.603 444.125 364.127 415.513 364.127 415.513L324.037 346.162H324.031Z" fill="#A8D7E9"/>
<path d="M84.4751 415.511H364.127L353.224 436.307L84.4751 415.511Z" fill="#A8D7E9"/>
<path d="M140.609 461.502C139.815 451.44 146.666 437.567 135.209 432.249C129.328 429.522 119.386 428.399 114.832 434.259C113.153 436.419 112.308 439.134 112.152 441.953C110.512 449.129 114.364 459.629 116.159 466.063C118.274 473.639 125.626 500.275 139.152 493.019C148.37 488.073 141.188 468.947 140.602 461.496L140.609 461.502Z" fill="white"/>
<path d="M155.318 360.648C149.235 351.943 140.681 354.841 134.584 361.164C121.032 369.438 106.641 403.245 127.129 406.554C138.943 408.459 142.56 394.025 146.562 386.221C150.231 379.062 161.284 369.196 155.312 360.655L155.318 360.648Z" fill="white"/>
<path d="M335.664 346.162C335.664 346.162 423.39 291.474 440.259 291.474C457.13 291.474 450.383 321.927 423.39 355.193C397.197 387.474 371.434 406.716 371.434 406.716L335.67 346.162H335.664Z" fill="#D5E9F2"/>
<path d="M440.253 291.474C438.569 291.474 436.174 292.022 433.233 293.001C432.751 304.903 423.806 324.309 407.19 344.792C389.208 366.952 371.426 382.964 362.045 390.834L371.426 406.716C371.426 406.716 397.197 387.474 423.384 355.193C450.376 321.927 457.123 291.474 440.253 291.474Z" fill="#A8D7E9"/>
<path d="M421.38 304.199C419.07 302.678 412.376 306.097 410.47 307.037C407.288 308.603 399.071 313.79 397.36 318.737C395.446 321.327 395.115 323.879 398.27 325.451C403.033 327.826 416.286 317.06 419.161 313.509C420.95 311.298 424.542 306.267 421.38 304.191V304.199Z" fill="white"/>
<path d="M124.332 533.664C124.332 533.664 142.138 580.255 157.056 581.775C171.974 583.296 172.41 551.361 172.41 551.361L124.332 533.664Z" fill="#D5E9F2"/>
<path d="M160.406 546.761C160.231 551.283 158.851 573.332 148.37 576.124C151.441 579.335 154.557 581.475 157.564 581.782C172.482 583.302 172.917 551.367 172.917 551.367L160.412 546.761H160.406Z" fill="#A8D7E9"/>
<path d="M279.699 551.367C279.699 551.367 302.483 586.473 331.825 579.139C344.102 576.071 324.74 533.67 324.74 533.67L279.699 551.367Z" fill="#D5E9F2"/>
<path d="M324.74 533.664L312.522 538.467C317.447 550.878 325.221 573.86 316.302 576.091C313.895 576.691 311.534 577.005 309.224 577.077C316.016 579.935 323.667 581.175 331.825 579.139C344.102 576.073 324.74 533.671 324.74 533.671V533.664Z" fill="#A8D7E9"/>
<path d="M250.996 266.874C250.13 266.847 249.395 267.539 249.369 268.414C249.369 268.511 249.083 275.624 244.574 279.357C240.267 282.919 232.453 284.114 228.66 284.106C225.115 284.263 217.054 282.925 212.74 279.357C208.232 275.624 207.946 268.511 207.946 268.414C207.919 267.539 207.191 266.847 206.319 266.874C205.447 266.9 204.758 267.63 204.784 268.505C204.797 268.857 205.09 277.138 210.73 281.803C216.488 286.566 223.918 287.291 227.905 287.291C232.668 287.291 240.833 286.566 246.591 281.803C252.231 277.138 252.524 268.85 252.537 268.505C252.563 267.63 251.874 266.9 251.002 266.874H250.996Z" fill="#3AEDB1"/>
<path d="M80.279 406.324C80.279 406.324 50.3386 438.859 36.2662 448.19C25.59 455.27 17.5486 416.399 54.6065 382.24C90.8449 348.837 120.29 343.578 120.29 343.578L80.279 406.324Z" fill="#D5E9F2"/>
<path d="M54.6066 382.24C90.845 348.837 120.291 343.578 120.291 343.578L116.959 348.798C105.535 354.533 90.7924 363.812 74.71 378.638C49.8183 401.587 45.2706 426.657 48.2113 438.5C43.7482 442.532 39.5649 446.004 36.2599 448.197C25.5836 455.277 17.5423 416.406 54.6001 382.246L54.6066 382.24Z" fill="#A8D7E9"/>
<path d="M175.377 245.947C175.377 251.116 171.2 255.311 166.04 255.311C160.881 255.311 156.704 251.122 156.704 245.947C156.704 240.773 160.881 236.584 166.04 236.584C171.2 236.584 175.377 240.773 175.377 245.947Z" fill="#3AEDB1"/>
<path d="M294.013 245.947C294.013 251.116 289.836 255.311 284.677 255.311C279.517 255.311 275.34 251.122 275.34 245.947C275.34 240.773 279.517 236.584 284.677 236.584C289.836 236.584 294.013 240.773 294.013 245.947Z" fill="#3AEDB1"/>
<path d="M599.041 342.245C602.238 352.037 597.187 362.487 587.762 365.577L446.964 411.764C437.539 414.855 427.307 409.424 424.115 399.626L342.467 149.333C339.269 139.542 344.32 129.092 353.746 126.002L494.543 79.8143C503.969 76.7243 514.2 82.1546 517.392 91.9527L599.041 342.251V342.245Z" fill="#2A56F4"/>
<path d="M501.806 79.0583C504.486 81.2769 506.607 84.2785 507.785 87.8739L589.499 338.41C592.7 348.212 587.646 358.67 578.212 361.764L437.299 407.995C434.859 408.798 432.368 409.02 429.954 408.753C434.58 412.576 440.878 414.038 446.843 412.08L587.756 365.848C597.189 362.756 602.244 352.296 599.044 342.495L517.329 91.9652C514.961 84.6961 508.715 79.8348 501.806 79.0583Z" fill="#0643F2"/>
<path d="M583.469 335.669C586.429 344.752 582.239 354.272 574.107 356.942L452.608 396.804C444.476 399.473 435.478 394.272 432.518 385.196L356.822 153.132C353.86 144.05 358.051 134.529 366.183 131.86L487.681 91.9978C495.815 89.3289 504.811 94.5296 507.773 103.606L583.462 335.669H583.469Z" fill="#002B43"/>
<path d="M494.921 109.473L368.279 151.014L378.708 183L505.351 141.46L494.921 109.473Z" fill="#3AEDB1"/>
<path opacity="0.2" d="M367.536 185.994L422.798 113.283L444.417 106.118L380.255 224.988L367.536 185.994Z" fill="white"/>
<path opacity="0.2" d="M396.8 275.716L409.929 315.963L513.438 120.963L507.779 103.606L396.8 275.716Z" fill="white"/>
<path opacity="0.2" d="M480.155 387.773L553.372 243.402L559.559 262.358L530.855 371.133L480.155 387.773Z" fill="white"/>
<path opacity="0.2" d="M413.656 327.396L516.373 129.961L521.531 145.766L420.716 349.033L413.656 327.396Z" fill="white"/>
<path d="M379.451 169.831L376.162 159.28L383.685 156.926L384.155 158.434L385.659 157.963L386.129 159.471L387.634 159L389.043 163.521L387.538 163.992L388.009 165.499L386.504 165.969L386.974 167.477L379.451 169.831ZM381.99 167.381L384.999 166.44L384.53 164.933L386.035 164.462L384.624 159.941L383.12 160.412L382.65 158.904L379.642 159.845L381.99 167.381ZM393.182 155.609L392.712 154.102L395.721 153.161L396.191 154.668L393.182 155.609ZM392.992 165.594L392.522 164.087L395.532 163.145L394.121 158.624L392.617 159.095L392.147 157.587L396.661 156.176L398.54 162.204L401.549 161.263L402.019 162.771L392.992 165.594ZM403.524 162.299L403.054 160.793L410.577 158.439L410.107 156.932L404.088 158.815L403.618 157.307L402.114 157.778L401.644 156.271L403.149 155.8L402.679 154.293L410.202 151.94L410.671 153.446L404.653 155.329L405.123 156.837L411.141 154.954L411.611 156.461L413.115 155.991L413.585 157.498L412.08 157.968L412.551 159.476L403.524 162.299ZM417.064 158.063L416.595 156.556L415.09 157.027L413.681 152.505L415.184 152.035L414.715 150.528L423.742 147.704L424.212 149.211L416.689 151.564L418.099 156.085L425.622 153.733L426.092 155.239L417.064 158.063ZM429.1 154.298L428.63 152.791L431.64 151.85L429.29 144.314L427.785 144.784L427.316 143.277L431.83 141.865L434.649 150.908L437.658 149.967L438.127 151.474L429.1 154.298ZM441.137 150.533L440.667 149.026L439.162 149.496L438.693 147.989L440.197 147.518L439.728 146.011L445.746 144.129L445.276 142.621L439.257 144.504L438.787 142.997L446.31 140.644L446.78 142.151L448.284 141.68L450.164 147.709L441.137 150.533ZM442.172 148.555L446.685 147.143L446.215 145.636L441.701 147.048L442.172 148.555ZM453.363 136.783L452.893 135.276L455.902 134.335L456.372 135.842L453.363 136.783ZM453.173 146.767L452.703 145.26L455.712 144.319L454.302 139.797L452.798 140.268L452.329 138.761L456.842 137.349L458.721 143.378L461.73 142.436L462.2 143.943L453.173 146.767ZM463.705 143.473L461.355 135.937L470.382 133.113L470.852 134.62L472.357 134.149L474.237 140.178L471.227 141.119L469.348 135.091L467.844 135.561L469.722 141.59L466.714 142.531L464.834 136.503L463.329 136.973L465.209 143.002L463.705 143.473ZM477.245 139.237L476.775 137.73L475.271 138.2L473.861 133.679L475.366 133.208L474.897 131.701L482.419 129.348L482.889 130.855L484.394 130.384L485.333 133.398L477.81 135.752L478.28 137.259L484.298 135.376L484.768 136.883L477.245 139.237ZM477.341 134.245L481.854 132.833L481.384 131.325L476.871 132.737L477.341 134.245ZM490.411 128.501L491.916 128.031L492.386 129.538L490.881 130.009L492.29 134.53L489.282 135.471L486.932 127.936L489.942 126.994L490.411 128.501ZM495.96 125.112L496.429 126.619L491.916 128.031L491.446 126.524L495.96 125.112Z" fill="black"/>
<path d="M389.854 211.062L389.348 209.566L392.332 208.551L389.798 201.076L386.814 202.09L386.307 200.596L395.262 197.55L395.769 199.045L392.784 200.06L395.317 207.536L398.302 206.521L398.809 208.016L389.854 211.062ZM413.734 202.94L413.228 201.444L411.735 201.952L411.228 200.457L412.72 199.949L412.214 198.455L418.184 196.424L417.677 194.928L411.707 196.959L411.201 195.464L418.664 192.926L419.17 194.421L420.662 193.913L422.689 199.893L413.734 202.94ZM414.72 200.937L419.197 199.413L418.691 197.919L414.213 199.442L414.72 200.937ZM424.181 199.386L421.648 191.91L430.603 188.865L431.11 190.36L432.602 189.852L434.629 195.832L431.644 196.848L429.617 190.867L428.125 191.376L430.152 197.356L427.167 198.371L425.14 192.39L423.647 192.898L425.674 198.879L424.181 199.386ZM449.499 180.77L448.992 179.276L451.977 178.26L452.484 179.756L449.499 180.77ZM449.555 190.757L449.047 189.262L452.032 188.246L450.512 183.761L449.02 184.268L448.513 182.773L452.991 181.25L455.018 187.231L458.003 186.216L458.509 187.711L449.555 190.757ZM460.002 187.203L457.468 179.727L466.423 176.682L466.93 178.177L468.423 177.669L470.45 183.65L467.464 184.665L465.437 178.685L460.96 180.207L462.987 186.188L460.002 187.203ZM403.649 241.942L401.623 235.962L398.638 236.977L398.131 235.482L401.115 234.466L400.102 231.477L403.088 230.461L404.101 233.451L407.086 232.436L407.592 233.931L404.607 234.946L406.634 240.927L403.649 241.942ZM413.562 231.901L415.055 231.393L415.562 232.888L414.07 233.396L415.589 237.881L412.605 238.897L410.07 231.421L413.055 230.406L413.562 231.901ZM419.026 228.376L419.533 229.87L415.055 231.393L414.549 229.898L419.026 228.376ZM424.545 234.836L424.037 233.341L422.545 233.848L422.039 232.352L423.531 231.845L423.024 230.35L428.994 228.32L428.487 226.824L422.518 228.855L422.01 227.36L429.473 224.822L429.981 226.317L431.473 225.809L433.5 231.789L424.545 234.836ZM425.53 232.832L430.008 231.31L429.501 229.815L425.024 231.338L425.53 232.832ZM436.429 220.788L435.923 219.293L438.907 218.278L439.415 219.773L436.429 220.788ZM436.485 230.775L435.977 229.28L438.963 228.264L437.442 223.779L435.95 224.286L435.444 222.791L439.921 221.268L441.948 227.249L444.933 226.233L445.44 227.729L436.485 230.775ZM446.932 227.221L444.398 219.745L453.353 216.7L453.86 218.195L455.353 217.687L457.38 223.668L454.395 224.683L452.368 218.703L447.89 220.225L449.917 226.206L446.932 227.221ZM460.309 212.666L459.803 211.171L462.787 210.157L463.294 211.651L460.309 212.666ZM460.364 222.652L459.858 221.158L462.843 220.142L461.322 215.657L459.83 216.164L459.324 214.669L463.801 213.146L465.828 219.127L468.812 218.111L469.32 219.607L460.364 222.652ZM470.812 219.1L468.279 211.624L477.233 208.578L477.74 210.073L479.233 209.565L481.26 215.546L478.275 216.561L476.248 210.581L471.77 212.104L473.797 218.084L470.812 219.1ZM484.752 216.026L484.244 214.53L490.215 212.5L489.708 211.005L483.738 213.036L483.231 211.541L481.739 212.048L480.725 209.058L482.217 208.55L481.711 207.056L490.666 204.009L493.2 211.485L491.707 211.992L492.213 213.488L484.752 216.026ZM484.723 211.032L489.201 209.51L488.188 206.52L483.71 208.043L484.723 211.032ZM497.678 209.962L496.664 206.971L499.649 205.957L500.662 208.947L497.678 209.962ZM411.475 274.853L410.968 273.359L413.953 272.343L411.419 264.867L408.434 265.883L407.928 264.387L416.882 261.342L417.389 262.837L414.405 263.852L416.938 271.328L419.922 270.312L420.43 271.807L411.475 274.853ZM435.354 266.731L434.848 265.237L433.356 265.744L431.835 261.259L433.327 260.751L432.821 259.256L441.776 256.21L442.283 257.705L434.82 260.243L436.341 264.728L443.803 262.19L444.31 263.686L435.354 266.731ZM447.294 262.67L446.788 261.176L445.296 261.683L444.788 260.188L446.281 259.68L445.775 258.185L451.744 256.155L451.238 254.66L445.267 256.69L444.761 255.195L452.224 252.657L452.73 254.152L454.223 253.644L456.25 259.625L447.294 262.67ZM448.28 260.668L452.758 259.145L452.251 257.649L447.774 259.172L448.28 260.668ZM457.742 259.118L455.209 251.642L464.164 248.596L464.67 250.091L466.163 249.583L468.189 255.564L465.205 256.579L463.178 250.599L458.701 252.122L460.728 258.102L457.742 259.118ZM481.623 250.996L479.089 243.52L488.044 240.473L488.55 241.969L490.043 241.462L492.07 247.442L489.085 248.457L487.058 242.477L485.565 242.984L487.592 248.965L484.608 249.98L482.581 244L481.088 244.507L483.115 250.487L481.623 250.996ZM495.055 246.427L494.548 244.931L493.056 245.439L492.549 243.944L494.042 243.437L493.534 241.941L499.505 239.91L498.998 238.416L493.028 240.446L492.521 238.951L499.984 236.413L500.491 237.908L501.983 237.401L504.01 243.381L495.055 246.427ZM496.04 244.424L500.518 242.901L500.011 241.406L495.534 242.929L496.04 244.424ZM505.503 242.873L501.955 232.407L504.941 231.392L506.968 237.372L509.952 236.358L509.445 234.862L510.939 234.355L510.431 232.86L513.416 231.844L513.923 233.34L512.431 233.847L512.937 235.342L511.445 235.85L511.951 237.345L513.444 236.838L513.951 238.332L515.443 237.825L515.95 239.32L512.965 240.336L512.458 238.84L510.966 239.348L510.459 237.852L507.474 238.868L508.487 241.858L505.503 242.873ZM518.935 238.305L518.428 236.809L516.935 237.318L515.416 232.831L516.908 232.324L516.402 230.829L523.864 228.291L524.371 229.786L525.863 229.279L526.877 232.269L519.414 234.807L519.921 236.302L525.891 234.271L526.398 235.767L518.935 238.305ZM518.908 233.311L523.385 231.789L522.879 230.293L518.4 231.817L518.908 233.311ZM420.792 307.257L418.259 299.782L427.214 296.736L427.72 298.23L429.213 297.723L431.239 303.704L428.255 304.719L426.228 298.739L424.735 299.246L426.762 305.226L423.778 306.242L421.751 300.261L420.258 300.769L422.285 306.749L420.792 307.257ZM434.17 292.703L433.662 291.207L436.648 290.192L437.154 291.687L434.17 292.703ZM434.225 302.688L433.718 301.193L436.703 300.178L435.183 295.692L433.691 296.2L433.183 294.705L437.661 293.182L439.688 299.163L442.673 298.147L443.179 299.643L434.225 302.688ZM444.673 299.136L444.166 297.64L451.628 295.102L451.121 293.607L445.152 295.638L444.644 294.142L443.152 294.649L442.646 293.155L444.138 292.647L443.631 291.151L451.094 288.613L451.601 290.109L445.631 292.14L446.137 293.635L452.107 291.604L452.615 293.099L454.107 292.591L454.613 294.086L453.121 294.595L453.627 296.089L444.673 299.136ZM461.09 293.551L459.063 287.57L456.078 288.586L455.571 287.091L458.557 286.076L457.543 283.085L460.528 282.07L461.541 285.061L464.526 284.045L465.033 285.54L462.048 286.556L464.075 292.536L461.09 293.551ZM470.045 290.505L469.538 289.01L468.045 289.518L467.539 288.023L469.032 287.516L468.524 286.02L474.495 283.989L473.989 282.495L468.018 284.525L467.512 283.03L474.974 280.491L475.481 281.987L476.973 281.48L479 287.46L470.045 290.505ZM471.031 288.503L475.508 286.98L475.002 285.485L470.524 287.007L471.031 288.503ZM480.493 286.952L476.946 276.486L479.931 275.471L481.958 281.451L484.942 280.437L484.436 278.941L485.929 278.433L485.421 276.939L488.406 275.923L488.913 277.419L487.421 277.926L487.927 279.421L486.435 279.928L486.942 281.424L488.434 280.917L488.941 282.411L490.433 281.904L490.94 283.399L487.955 284.415L487.448 282.919L485.956 283.426L485.45 281.931L482.464 282.947L483.477 285.937L480.493 286.952ZM493.925 282.384L493.419 280.888L491.926 281.397L490.406 276.91L491.898 276.403L491.392 274.908L498.854 272.37L499.361 273.865L500.853 273.358L501.867 276.347L494.404 278.886L494.911 280.381L500.881 278.35L501.388 279.845L493.925 282.384ZM493.898 277.39L498.375 275.868L497.868 274.372L493.39 275.896L493.898 277.39ZM504.373 278.83L503.866 277.336L511.328 274.797L510.822 273.302L504.851 275.332L504.345 273.838L502.853 274.345L502.346 272.849L503.838 272.342L503.332 270.847L510.795 268.309L511.301 269.804L505.33 271.835L505.838 273.329L511.808 271.299L512.314 272.795L513.807 272.287L514.314 273.782L512.82 274.289L513.328 275.785L504.373 278.83ZM519.298 273.755L518.285 270.764L521.269 269.748L522.283 272.739L519.298 273.755ZM433.095 338.645L432.589 337.15L431.095 337.658L430.589 336.163L433.574 335.147L434.081 336.643L438.558 335.12L437.545 332.129L431.575 334.16L431.068 332.665L429.576 333.172L428.562 330.182L430.055 329.675L429.548 328.18L437.01 325.642L437.517 327.137L439.01 326.629L439.516 328.124L436.531 329.14L436.025 327.644L431.547 329.167L432.56 332.158L438.531 330.127L439.037 331.622L440.53 331.115L441.543 334.104L440.051 334.612L440.558 336.107L433.095 338.645ZM445.035 334.584L444.529 333.089L443.036 333.597L441.516 329.111L443.008 328.604L442.502 327.109L449.964 324.57L450.471 326.066L451.963 325.558L453.484 330.044L451.991 330.551L452.498 332.046L445.035 334.584ZM446.021 332.582L450.498 331.059L448.978 326.573L444.5 328.097L446.021 332.582ZM457.934 323.528L459.426 323.02L459.932 324.516L458.44 325.023L459.961 329.508L456.975 330.523L454.442 323.048L457.426 322.032L457.934 323.528ZM463.397 320.002L463.903 321.498L459.426 323.02L458.919 321.525L463.397 320.002ZM469.874 319.467L471.366 318.959L471.872 320.455L470.38 320.962L471.901 325.447L468.915 326.463L466.382 318.987L469.366 317.971L469.874 319.467ZM475.337 315.941L475.843 317.437L471.366 318.959L470.859 317.464L475.337 315.941ZM481.362 323.897L480.856 322.402L486.825 320.371L486.319 318.876L480.349 320.906L479.841 319.411L478.349 319.919L476.829 315.433L479.814 314.419L481.335 318.904L485.812 317.381L484.292 312.896L487.277 311.88L489.81 319.356L488.318 319.863L488.825 321.359L481.362 323.897ZM504.201 307.791L503.188 304.801L506.172 303.786L507.186 306.777L504.201 307.791ZM505.721 312.277L504.707 309.286L507.693 308.271L508.707 311.262L505.721 312.277ZM516.141 303.73L515.634 302.236L517.127 301.728L516.114 298.738L519.098 297.722L520.112 300.712L518.62 301.22L519.126 302.716L516.141 303.73ZM533.093 304.635L532.586 303.14L531.094 303.647L530.587 302.152L529.094 302.66L527.575 298.175L529.067 297.667L528.56 296.171L530.052 295.664L529.546 294.169L532.531 293.153L533.038 294.649L531.546 295.157L532.052 296.651L530.56 297.159L532.079 301.645L533.572 301.137L534.079 302.632L535.571 302.124L536.078 303.62L533.093 304.635Z" fill="#3AEDB1"/>
</g>
<path d="M319.296 31.3103C327.867 29.9161 333.687 21.8228 332.295 13.2337C330.905 4.64441 322.829 -1.1883 314.258 0.205936C305.687 1.60016 299.867 9.69337 301.258 18.2826C302.65 26.8718 310.726 32.7045 319.296 31.3103Z" fill="#E34C1A"/>
</g>
<defs>
<clipPath id="clip0_7_12">
<rect width="600" height="600" fill="white"/>
</clipPath>
</defs>
</svg>
