<svg width="201" height="170" viewBox="0 0 201 170" fill="none" xmlns="http://www.w3.org/2000/svg">
<g clip-path="url(#clip0_17_5311)">
<path d="M98.3898 170C117.904 170 133.723 167.543 133.723 164.513C133.723 161.483 117.904 159.026 98.3898 159.026C78.8758 159.026 63.0566 161.483 63.0566 164.513C63.0566 167.543 78.8758 170 98.3898 170Z" fill="#2085B7"/>
<path d="M125.194 50.7251C116.012 37.4473 93.6838 37.4473 93.6838 37.4473C93.6838 37.4473 71.3556 37.4473 62.1733 50.7251C53.7474 62.9109 53.8258 79.5632 53.8258 79.5632L61.964 89.9367H125.402L133.54 79.5632C133.54 79.5632 133.62 62.9109 125.192 50.7251H125.194Z" fill="#E2F5FE"/>
<path d="M125.206 50.7251C121.607 45.5204 115.986 42.3559 110.483 40.4316C113.33 42.1939 115.922 44.4382 117.903 47.3026C126.329 59.4883 126.251 76.1407 126.251 76.1407L118.112 86.5141H59.2922L61.9781 89.9366H125.416L133.554 79.5632C133.554 79.5632 133.634 62.9108 125.206 50.7251Z" fill="#A8D7E9"/>
<path d="M113.926 53.4233C105.371 46.9924 81.9987 46.9924 73.4421 53.4233C64.1531 60.4063 64.4689 77.0746 64.4689 77.0746H122.897C122.897 77.0746 123.213 60.4063 113.924 53.4233H113.926Z" fill="#002B43"/>
<path d="M64.7143 77.0746C65.2877 71.6359 67.185 62.5346 73.444 57.8319C82.0007 51.401 105.371 51.401 113.928 57.8319C120.185 62.5366 122.084 71.6379 122.657 77.0746H122.901C122.901 77.0746 123.217 60.4063 113.928 53.4233C105.373 46.9924 82.0007 46.9924 73.444 53.4233C64.155 60.4063 64.4709 77.0746 64.4709 77.0746H64.7143Z" fill="#000F16"/>
<path d="M86.6945 34.3364H100.675C101.365 34.3364 101.927 34.8945 101.927 35.5806V39.9372C101.927 40.6233 101.365 41.1814 100.675 41.1814H86.6945C86.0044 41.1814 85.4431 40.6233 85.4431 39.9372V35.5806C85.4431 34.8945 86.0044 34.3364 86.6945 34.3364Z" fill="#E2F5FE"/>
<path d="M89.9618 37.655L91.8409 20.2285H94.3457L97.4079 37.759L89.9618 37.655Z" fill="#E2F5FE"/>
<path d="M96.1887 20.2286C96.1887 21.8909 94.8347 23.2371 93.1628 23.2371C91.4909 23.2371 90.1368 21.8909 90.1368 20.2286C90.1368 18.5664 91.4909 17.2202 93.1628 17.2202C94.8347 17.2202 96.1887 18.5664 96.1887 20.2286Z" fill="#E2F5FE"/>
<path d="M95.0519 17.8784C95.2451 18.2745 95.3537 18.7205 95.3537 19.1906C95.3537 20.8528 93.9997 22.199 92.3278 22.199C91.6136 22.199 90.9577 21.953 90.4386 21.5409C90.9295 22.5451 91.9636 23.2372 93.1627 23.2372C94.8346 23.2372 96.1886 21.891 96.1886 20.2287C96.1886 19.2786 95.744 18.4305 95.0519 17.8784Z" fill="#A8D7E9"/>
<path d="M61.9661 89.9365H125.404L133.542 79.563H53.8279L61.9661 89.9365Z" fill="#A8D7E9"/>
<path d="M101.927 37.9009C101.927 38.339 101.647 38.693 101.301 38.693H94.3095C93.9635 38.693 93.6838 38.339 93.6838 37.9009V35.1285C93.6838 34.6905 93.9635 34.3364 94.3095 34.3364H101.301C101.647 34.3364 101.927 34.6905 101.927 35.1285V37.9009Z" fill="#A8D7E9"/>
<path d="M81.1979 43.17C80.1819 41.2357 75.5806 42.3438 74.0777 43.0479C72.8505 43.624 70.6273 44.9022 69.2109 46.2564C68.0863 47.1465 67.0823 48.1827 66.2092 49.3508C65.4849 50.321 64.1148 52.3192 64.992 53.5934C65.9577 54.9936 67.5873 53.7795 68.3961 52.9713C70.5026 50.865 72.1202 48.6107 74.9771 47.3285C76.3814 46.6985 82.395 45.4503 81.1979 43.17Z" fill="white"/>
<path d="M136.926 113.438L124.529 92.1787H62.8433L50.4459 113.438C50.4459 113.438 50.9771 122.297 53.9668 130.394C58.564 142.842 62.9459 147.821 62.9459 147.821L78.1198 153.647L93.5471 155.058V155.084C93.5471 155.084 93.6497 155.072 93.6859 155.072C93.7221 155.072 93.8247 155.084 93.8247 155.084V155.058L109.252 153.647L124.426 147.821C124.426 147.821 129.931 140.768 133.405 130.394C136.145 122.209 136.926 113.438 136.926 113.438Z" fill="#E2F5FE"/>
<path d="M124.526 92.1787H109.92L122.317 113.438C122.317 113.438 121.537 122.209 118.797 130.394C115.322 140.768 113.767 144.9 109.817 147.821C106.556 150.235 94.6435 153.647 94.6435 153.647L86.3806 154.403L93.547 155.058V155.084C93.547 155.084 93.6497 155.072 93.6859 155.072C93.7221 155.072 93.8247 155.084 93.8247 155.084V155.058L109.252 153.647L124.426 147.821C124.426 147.821 129.93 140.768 133.405 130.394C136.145 122.209 136.926 113.438 136.926 113.438L124.528 92.1787H124.526Z" fill="#A8D7E9"/>
<path d="M50.4438 113.438H136.926L133.554 119.813L50.4438 113.438Z" fill="#A8D7E9"/>
<path d="M67.8046 127.536C67.5592 124.451 69.6777 120.199 66.1347 118.568C64.316 117.732 61.2418 117.388 59.8334 119.185C59.3144 119.847 59.0528 120.679 59.0045 121.543C58.4975 123.743 59.6886 126.962 60.2439 128.934C60.8998 131.256 63.1712 139.421 67.354 137.197C70.2048 135.681 67.9837 129.818 67.8026 127.534L67.8046 127.536Z" fill="white"/>
<path d="M72.3536 96.6176C70.4724 93.9492 67.8268 94.8373 65.9416 96.7756C61.7508 99.312 57.3004 109.675 63.6359 110.69C67.2896 111.274 68.4082 106.849 69.6455 104.457C70.7802 102.262 74.1985 99.238 72.3515 96.6196L72.3536 96.6176Z" fill="white"/>
<path d="M126.301 92.083C126.301 92.083 148.404 69.1577 153.458 67.8736C158.512 66.5874 158.818 76.1467 153.273 88.0824C147.893 99.664 138.68 111.69 138.68 111.69L126.301 92.083Z" fill="#E2F5FE"/>
<path d="M153.458 67.8712C152.953 67.9992 152.277 68.3452 151.47 68.8613C152.235 72.4318 151.039 78.8787 147.625 86.2258C143.931 94.1769 136.95 102.4 134.741 105.448L138.678 111.685C138.678 111.685 147.891 99.6596 153.271 88.078C158.815 76.1423 158.51 66.583 153.456 67.8692L153.458 67.8712Z" fill="#A8D7E9"/>
<path d="M148.776 73.0879C147.969 72.8139 146.223 74.3381 145.724 74.7621C144.891 75.4702 142.825 77.6366 142.69 79.2368C142.316 80.1509 142.41 80.935 143.477 81.1631C145.086 81.5051 148.233 77.2985 148.824 76.0263C149.192 75.2322 149.883 73.464 148.778 73.0899L148.776 73.0879Z" fill="white"/>
<path d="M60.4029 92.1506C60.4029 92.1506 38.3121 69.2133 33.2602 67.9252C28.2062 66.637 27.8964 76.1963 33.4332 88.134C38.807 99.7176 48.0135 111.749 48.0135 111.749L60.4029 92.1506Z" fill="#E2F5FE"/>
<path d="M33.2581 67.9252C33.7631 68.0532 34.4391 68.3992 35.2439 68.9153C34.4773 72.4858 35.6684 78.9327 39.0786 86.2838C42.7684 94.2369 49.7437 102.462 51.9528 105.514L48.0115 111.749C48.0115 111.749 38.805 99.7196 33.4311 88.134C27.8924 76.1963 28.2042 66.637 33.2581 67.9252Z" fill="#A8D7E9"/>
<path d="M37.9378 73.144C38.7446 72.87 40.4909 74.3962 40.9878 74.8203C41.8208 75.5284 43.885 77.6967 44.0198 79.2969C44.394 80.211 44.2994 80.9951 43.2331 81.2212C41.6236 81.5632 38.479 77.3546 37.8895 76.0804C37.5213 75.2863 36.8332 73.5181 37.9378 73.142V73.144Z" fill="white"/>
<path d="M62.7709 149.657C62.7709 149.657 68.2775 163.939 72.8908 164.405C77.5041 164.871 77.6389 155.082 77.6389 155.082L62.7709 149.657Z" fill="#E2F5FE"/>
<path d="M73.9269 153.671C73.8725 155.058 73.446 161.817 70.2048 162.673C71.1545 163.657 72.1182 164.313 73.0477 164.407C77.661 164.873 77.7958 155.084 77.7958 155.084L73.9269 153.671Z" fill="#A8D7E9"/>
<path d="M110.815 155.082C110.815 155.082 117.861 165.843 126.935 163.595C130.731 162.655 124.744 149.657 124.744 149.657L110.815 155.082Z" fill="#E2F5FE"/>
<path d="M124.744 149.657L120.965 151.129C122.486 154.933 124.893 161.978 122.134 162.663C121.39 162.847 120.66 162.943 119.945 162.965C122.046 163.841 124.412 164.221 126.935 163.597C130.731 162.657 124.744 149.659 124.744 149.659V149.657Z" fill="#A8D7E9"/>
<g clip-path="url(#clip1_17_5311)">
<path d="M84.7755 67.9879C84.4815 67.6961 84.0067 67.6979 83.7149 67.9919C83.4231 68.2858 83.4248 68.7607 83.7188 69.0525L84.7755 67.9879ZM86.1655 71.4811C86.4595 71.7729 86.9344 71.7711 87.2262 71.4771C87.518 71.1831 87.5162 70.7083 87.2222 70.4165L86.1655 71.4811ZM83.7188 69.0525L86.1655 71.4811L87.2222 70.4165L84.7755 67.9879L83.7188 69.0525ZM79.3536 68.3773C76.7221 68.3773 74.5984 66.2614 74.5984 63.663H73.0984C73.0984 67.1003 75.9042 69.8773 79.3536 69.8773V68.3773ZM84.1088 63.663C84.1088 66.2614 81.9851 68.3773 79.3536 68.3773V69.8773C82.803 69.8773 85.6088 67.1003 85.6088 63.663H84.1088ZM79.3536 58.9487C81.9851 58.9487 84.1088 61.0647 84.1088 63.663H85.6088C85.6088 60.2257 82.803 57.4487 79.3536 57.4487V58.9487ZM79.3536 57.4487C75.9042 57.4487 73.0984 60.2257 73.0984 63.663H74.5984C74.5984 61.0647 76.7221 58.9487 79.3536 58.9487V57.4487Z" fill="#3AEDB1"/>
</g>
<g clip-path="url(#clip2_17_5311)">
<path d="M107.146 67.9879C106.852 67.6961 106.377 67.6979 106.085 67.9919C105.793 68.2858 105.795 68.7607 106.089 69.0525L107.146 67.9879ZM108.536 71.4811C108.83 71.7729 109.305 71.7711 109.597 71.4771C109.888 71.1831 109.887 70.7083 109.593 70.4165L108.536 71.4811ZM106.089 69.0525L108.536 71.4811L109.593 70.4165L107.146 67.9879L106.089 69.0525ZM101.724 68.3773C99.0924 68.3773 96.9688 66.2614 96.9688 63.663H95.4688C95.4688 67.1003 98.2746 69.8773 101.724 69.8773V68.3773ZM106.479 63.663C106.479 66.2614 104.355 68.3773 101.724 68.3773V69.8773C105.173 69.8773 107.979 67.1003 107.979 63.663H106.479ZM101.724 58.9487C104.355 58.9487 106.479 61.0647 106.479 63.663H107.979C107.979 60.2257 105.173 57.4487 101.724 57.4487V58.9487ZM101.724 57.4487C98.2746 57.4487 95.4688 60.2257 95.4688 63.663H96.9688C96.9688 61.0647 99.0924 58.9487 101.724 58.9487V57.4487Z" fill="#3AEDB1"/>
</g>
</g>
<path fill-rule="evenodd" clip-rule="evenodd" d="M9.88623 38.2297L40.4914 37.1133L51.5754 84.3707L19.3693 90.5914L9.88623 38.2297Z" fill="#2A56F4"/>
<path fill-rule="evenodd" clip-rule="evenodd" d="M9.20556 92.2822L0 41.9077C0 41.9077 2.08926 39.3863 8.42642 38.334L19.369 90.5941L9.20289 92.2849L9.20556 92.2822Z" fill="url(#paint0_radial_17_5311)"/>
<path fill-rule="evenodd" clip-rule="evenodd" d="M13.8165 70.8076C13.8165 70.8076 8.91217 71.6089 6.35329 72.4396L0.45105 42.3965C0.45105 42.3965 2.34019 40.2384 7.45795 39.4478L13.8165 70.8049V70.8076Z" fill="white"/>
<g style="mix-blend-mode:multiply" opacity="0.5">
<path fill-rule="evenodd" clip-rule="evenodd" d="M8.58389 82.1971C9.0455 84.9856 10.8172 87.0129 12.541 86.7244C14.2647 86.4386 15.2866 83.9466 14.8223 81.1581C14.3607 78.3697 12.589 76.3424 10.8653 76.6309C9.14157 76.9166 8.11961 79.4087 8.58389 82.1971Z" fill="#9A2463"/>
</g>
<path fill-rule="evenodd" clip-rule="evenodd" d="M8.47159 81.5184C8.9332 84.3069 10.7049 86.3342 12.4286 86.0457C14.1523 85.7599 15.1743 83.2679 14.71 80.4794C14.2484 77.6909 12.4767 75.6637 10.753 75.9521C9.02925 76.2379 8.00731 78.7299 8.47159 81.5184Z" fill="#D5E9F2"/>
<path fill-rule="evenodd" clip-rule="evenodd" d="M9.04799 81.4217C9.39754 83.5318 10.7397 85.0649 12.0418 84.8486C12.2019 84.8219 12.3567 84.7684 12.4981 84.6963C13.52 84.1648 14.075 82.4874 13.7682 80.6391C13.4613 78.7881 12.394 77.3832 11.2547 77.2096C11.0972 77.1856 10.9345 77.1856 10.7717 77.2123C9.46959 77.4286 8.69312 79.3143 9.04533 81.4244L9.04799 81.4217Z" fill="#5A448E"/>
<path fill-rule="evenodd" clip-rule="evenodd" d="M9.98997 81.2672C10.2968 83.1155 11.3641 84.5204 12.5008 84.6967C13.5228 84.1652 14.0778 82.4878 13.7709 80.6395C13.4641 78.7885 12.3968 77.3836 11.2574 77.21C10.2381 77.7442 9.68312 79.4189 9.98997 81.2672Z" fill="url(#paint1_radial_17_5311)"/>
<g style="mix-blend-mode:soft-light">
<path fill-rule="evenodd" clip-rule="evenodd" d="M13.2961 77.1756L12.7171 77.7605C12.7171 77.7605 11.8206 76.7268 10.4304 77.0073L10.1609 76.1526C10.1609 76.1526 11.5057 75.2685 13.2961 77.1782V77.1756Z" fill="white"/>
</g>
<g style="mix-blend-mode:soft-light">
<path fill-rule="evenodd" clip-rule="evenodd" d="M12.2473 86.0775L11.8364 85.0759C11.8364 85.0759 10.4436 84.9637 9.63509 83.5454L9.53369 84.3494C9.53369 84.3494 10.657 86.1817 12.2473 86.0802V86.0775Z" fill="white"/>
</g>
<path fill-rule="evenodd" clip-rule="evenodd" d="M8.55447 44.966C8.55447 44.966 5.03501 44.7443 1.33411 46.8864L2.19062 51.2534C2.19062 51.2534 4.16248 50.0195 9.47769 49.5066L8.5518 44.966H8.55447Z" fill="url(#paint2_radial_17_5311)"/>
<g style="mix-blend-mode:multiply" opacity="0.2">
<path fill-rule="evenodd" clip-rule="evenodd" d="M9.97138 51.9321C9.97138 51.9321 5.75283 52.2633 2.66296 53.6602L3.13258 56.0561C3.13258 56.0561 5.89158 54.9557 10.433 54.1998L9.97138 51.9321Z" fill="#6A1760"/>
</g>
<path fill-rule="evenodd" clip-rule="evenodd" d="M8.4292 38.3346L9.88608 38.2305L20.7753 90.3224L19.3691 90.5921L8.4292 38.3346Z" fill="url(#paint3_radial_17_5311)"/>
<g style="mix-blend-mode:screen" opacity="0.4">
<path d="M9.98947 38.2134L9.79358 38.2544L20.6657 90.3488L20.8616 90.3078L9.98947 38.2134Z" fill="url(#paint4_radial_17_5311)"/>
</g>
<g style="mix-blend-mode:multiply" opacity="0.5">
<path fill-rule="evenodd" clip-rule="evenodd" d="M152.504 41.2688L149.717 40.9797L134.467 82.1313L142.454 86.3182L152.504 41.2688Z" fill="#9A2463"/>
</g>
<path fill-rule="evenodd" clip-rule="evenodd" d="M158.952 36.8386L157.324 36.4696L156.79 38.3009L154.828 37.6944L154.76 37.3991L152.984 36.7411L139.205 83.2852L140.081 83.7377L139.888 84.217L143.286 85.9733L144.549 86.5404L149.19 86.8355L158.952 36.8386Z" fill="url(#paint5_radial_17_5311)"/>
<path fill-rule="evenodd" clip-rule="evenodd" d="M171.561 96.152L194.128 59.9462L161.065 35.6067L140.071 76.1387L171.561 96.152Z" fill="url(#paint6_linear_17_5311)"/>
<path fill-rule="evenodd" clip-rule="evenodd" d="M154.081 45.1004L156.493 35.2593L158.891 36.7585L158.483 38.1585L156.52 37.5518L154.081 45.1004Z" fill="url(#paint7_linear_17_5311)"/>
<path fill-rule="evenodd" clip-rule="evenodd" d="M158.682 36.0435L164.805 39.1725L147.98 88.609L143.821 86.4839L158.682 36.0435Z" fill="url(#paint8_linear_17_5311)"/>
<path fill-rule="evenodd" clip-rule="evenodd" d="M156.684 35.3106L156.248 35.4468L153.874 45.154L154.186 45.3128L156.684 35.3106Z" fill="url(#paint9_radial_17_5311)"/>
<path fill-rule="evenodd" clip-rule="evenodd" d="M164.699 35.8471L164.217 36.0068L140.331 80.3367L164.699 35.8471Z" fill="url(#paint10_radial_17_5311)"/>
<path fill-rule="evenodd" clip-rule="evenodd" d="M191.529 60.3938L155.883 38.0161L145.15 82.1617L179.695 101.086L191.529 60.3938Z" fill="white"/>
<path fill-rule="evenodd" clip-rule="evenodd" d="M146.159 87.963L145.434 87.5794L158.976 37.9702L159.116 38.0444L146.159 87.963Z" fill="url(#paint11_radial_17_5311)"/>
<g style="mix-blend-mode:multiply" opacity="0.5">
<path fill-rule="evenodd" clip-rule="evenodd" d="M163.762 39.7324L162.324 43.2837L164.368 40.1039L163.762 39.7324Z" fill="#884863"/>
</g>
<g style="mix-blend-mode:multiply" opacity="0.2">
<path fill-rule="evenodd" clip-rule="evenodd" d="M159.439 50.3368L184.179 62.1914L184.373 61.6577L159.615 49.7798L159.439 50.3368Z" fill="#6A1760"/>
<path fill-rule="evenodd" clip-rule="evenodd" d="M157.261 57.0223L181.862 68.6524L182.052 68.122L157.44 56.4697L157.261 57.0223Z" fill="#6A1760"/>
<path fill-rule="evenodd" clip-rule="evenodd" d="M158.889 52.0062L185.43 64.6639L185.627 64.1334L159.065 51.4512L158.889 52.0062Z" fill="#6A1760"/>
<path fill-rule="evenodd" clip-rule="evenodd" d="M156.149 60.4226L182.501 72.7747L182.694 72.2484L156.325 59.8716L156.149 60.4226Z" fill="#6A1760"/>
<path fill-rule="evenodd" clip-rule="evenodd" d="M165.907 66.8506L181.876 74.4148L182.069 73.8788L166.092 66.3003L165.907 66.8506Z" fill="#6A1760"/>
<path fill-rule="evenodd" clip-rule="evenodd" d="M156.703 58.7218L183.092 71.1367L183.286 70.6079L156.879 58.1699L156.703 58.7218Z" fill="#6A1760"/>
<path fill-rule="evenodd" clip-rule="evenodd" d="M154.704 64.8732L179.138 76.2432L179.329 75.7146L154.88 64.3247L154.704 64.8732Z" fill="#6A1760"/>
<path fill-rule="evenodd" clip-rule="evenodd" d="M153.594 68.2752L179.767 80.3444L179.96 79.8218L153.77 67.728L153.594 68.2752Z" fill="#6A1760"/>
<path fill-rule="evenodd" clip-rule="evenodd" d="M163.292 74.5875L179.152 81.9843L179.346 81.4516L163.478 74.0405L163.292 74.5875Z" fill="#6A1760"/>
<path fill-rule="evenodd" clip-rule="evenodd" d="M154.145 66.573L180.359 78.7035L180.555 78.1814L154.324 66.0264L154.145 66.573Z" fill="#6A1760"/>
<path fill-rule="evenodd" clip-rule="evenodd" d="M152.195 72.5826L176.465 83.6934L176.656 83.1685L152.371 72.0361L152.195 72.5826Z" fill="#6A1760"/>
<path fill-rule="evenodd" clip-rule="evenodd" d="M167.808 83.4112L177.059 87.7769L177.256 87.228L167.998 82.8545L167.808 83.4112Z" fill="#6A1760"/>
<path fill-rule="evenodd" clip-rule="evenodd" d="M164.808 92.2371L173.931 96.3353L174.026 96.0729L164.902 91.9717L164.808 92.2371Z" fill="#6A1760"/>
<path fill-rule="evenodd" clip-rule="evenodd" d="M151.637 74.281L177.673 86.1357L177.87 85.6156L151.814 73.7368L151.637 74.281Z" fill="#6A1760"/>
<path fill-rule="evenodd" clip-rule="evenodd" d="M165.645 57.0895L184.816 66.274L185.012 65.74L165.828 56.5366L165.645 57.0895Z" fill="#6A1760"/>
</g>
<g style="mix-blend-mode:multiply" opacity="0.5">
<path fill-rule="evenodd" clip-rule="evenodd" d="M144.552 87.1255L145.741 83.5262L154.795 52.4647L154.552 52.4381L158.459 38.7461L158.913 38.986L145.553 87.6541L144.552 87.1255Z" fill="#9A597C"/>
</g>
<g style="mix-blend-mode:multiply" opacity="0.2">
<path d="M149.238 80.7378C150.109 78.478 153.04 77.8662 155.774 79.3736C158.508 80.8809 160.023 83.9449 159.153 86.2047C158.282 88.4644 155.351 89.0763 152.617 87.5689C149.883 86.0616 148.368 82.9976 149.238 80.7378ZM149.742 81.0154C148.95 83.0704 150.307 85.8435 152.761 87.1964C155.214 88.5493 157.859 87.9796 158.649 85.9271C159.44 83.8746 158.084 81.099 155.63 79.7461C153.177 78.3932 150.532 78.9628 149.742 81.0154Z" fill="#6A1760"/>
<path d="M154.831 85.9457C155.734 85.9797 156.445 85.5644 156.732 84.8328L156.861 84.9039C156.562 85.6672 155.82 86.101 154.873 86.0664L154.83 85.9481L154.831 85.9457ZM151.569 81.9849L151.575 81.9677L151.705 82.0388L151.698 82.0559C151.415 82.7893 151.607 83.7045 152.211 84.5019L152.108 84.5401C151.474 83.7055 151.273 82.75 151.569 81.9849ZM155.025 81.3481C154.568 81.0966 154.081 80.9533 153.614 80.9339L153.571 80.8156C154.062 80.8361 154.578 80.9867 155.062 81.2527C155.545 81.5187 155.998 81.907 156.332 82.3517L156.229 82.3898C155.911 81.9658 155.495 81.6068 155.028 81.3499L155.025 81.3481Z" fill="#6A1760"/>
<path d="M149.853 81.0771C150.606 79.1212 153.168 78.6036 155.563 79.9235C157.957 81.2433 159.292 83.9085 158.538 85.8644C157.785 87.8204 155.224 88.3355 152.829 87.0156C150.435 85.6958 149.1 83.0306 149.853 81.0771ZM151.198 81.8187C150.656 83.2253 151.56 85.1124 153.212 86.0229C154.864 86.9334 156.651 86.5295 157.193 85.1228C157.735 83.7162 156.831 81.8292 155.179 80.9187C153.527 80.0082 151.74 80.4121 151.198 81.8187Z" fill="#6A1760"/>
</g>
<g style="mix-blend-mode:multiply">
<path fill-rule="evenodd" clip-rule="evenodd" d="M185.14 62.0522L184.896 63.4849L186.576 64.4745L186.224 65.5231L157.83 51.3583L158.311 50.3095L173.731 57.896L158.458 49.9898L158.656 48.7466L185.14 62.0522Z" fill="#FFFF00"/>
</g>
<g style="mix-blend-mode:multiply">
<path fill-rule="evenodd" clip-rule="evenodd" d="M177.038 84.4561L177.427 83.3913L152.089 71.376L151.592 72.4069L177.038 84.4561Z" fill="#FFFF00"/>
</g>
<path d="M173.703 94.9513C173.292 94.9727 172.827 94.7484 172.441 94.4977C172.241 94.3672 172.053 94.2327 171.953 94.0519C171.844 93.8768 171.79 93.6933 171.747 93.5146C171.671 93.1555 171.679 92.8069 171.734 92.4804C171.798 92.161 171.878 91.8286 172.11 91.6175C172.171 91.571 172.243 91.5332 172.325 91.546C172.407 91.5588 172.476 91.6214 172.521 91.7063C172.606 91.8768 172.632 92.0622 172.641 92.2336C172.659 92.5846 172.617 92.9236 172.548 93.2481C172.478 93.5726 172.372 93.8837 172.202 94.1565C172.157 94.2215 172.111 94.2866 172.051 94.3391C171.99 94.3856 171.914 94.4406 171.823 94.3937C171.629 94.3122 171.537 94.0949 171.465 93.9205C171.325 93.5522 171.271 93.1878 171.142 92.8117C171.106 92.7151 171.073 92.6201 171.005 92.5178C170.976 92.468 170.927 92.4128 170.863 92.3662C170.825 92.3468 170.791 92.3185 170.748 92.3146C170.699 92.3031 170.664 92.3063 170.635 92.321C170.525 92.3746 170.507 92.4647 170.481 92.5455C170.462 92.6296 170.448 92.7168 170.449 92.8062C170.447 92.9854 170.456 93.1672 170.528 93.3687C170.546 93.4181 170.566 93.4691 170.61 93.5293C170.635 93.561 170.657 93.5888 170.693 93.6127C170.702 93.6175 170.713 93.6284 170.732 93.6381C170.738 93.6496 170.832 93.6711 170.848 93.6229C170.859 93.5693 170.841 93.5657 170.838 93.5453C170.786 93.4323 170.719 93.3466 170.648 93.2531C170.576 93.1619 170.499 93.0713 170.41 92.9847C170.319 92.9003 170.224 92.8105 170.078 92.751C169.794 92.6557 169.6 92.749 169.435 92.8006C169.395 92.8149 169.348 92.8259 169.317 92.8285C169.298 92.8293 169.291 92.826 169.287 92.8266C169.256 92.8105 169.224 92.7965 169.198 92.7858C169.088 92.7397 168.98 92.6974 168.876 92.6463C168.673 92.5495 168.465 92.4284 168.362 92.2753C168.309 92.1998 168.305 92.1276 168.268 92.0145C168.226 91.9147 168.175 91.8182 168.115 91.7252C167.998 91.5386 167.864 91.3588 167.72 91.1824C167.15 90.4785 166.481 89.81 165.711 89.2397L165.707 89.2508C166.437 89.8436 167.085 90.5151 167.628 91.2127C167.761 91.3865 167.892 91.5669 167.996 91.7448C168.05 91.8346 168.097 91.9234 168.13 92.0101C168.154 92.0793 168.159 92.195 168.233 92.3027C168.378 92.5204 168.622 92.6548 168.84 92.762C168.951 92.8141 169.064 92.8618 169.171 92.9063C169.197 92.917 169.223 92.9277 169.245 92.9391C169.295 92.9649 169.346 92.9698 169.377 92.9673C169.446 92.9653 169.491 92.9483 169.539 92.935C169.711 92.8762 169.884 92.8151 170.062 92.8802C170.223 92.95 170.391 93.1393 170.522 93.301C170.587 93.3829 170.654 93.4769 170.688 93.551C170.691 93.5526 170.689 93.5758 170.692 93.5421C170.704 93.5028 170.779 93.5228 170.774 93.5257C170.781 93.5289 170.781 93.5289 170.774 93.5257C170.759 93.5176 170.745 93.4968 170.738 93.4853C170.715 93.4574 170.695 93.4147 170.679 93.3713C170.617 93.1995 170.601 93.0188 170.602 92.8501C170.604 92.6896 170.627 92.4969 170.73 92.4295C170.765 92.4016 170.844 92.4585 170.897 92.54C170.952 92.6193 170.99 92.7115 171.024 92.8021C171.161 93.1687 171.229 93.5373 171.383 93.9159C171.42 94.0103 171.468 94.1051 171.531 94.202C171.596 94.2922 171.683 94.4042 171.817 94.4467C171.963 94.5061 172.048 94.429 172.11 94.3803C172.175 94.3228 172.219 94.2539 172.263 94.185C172.426 93.9007 172.519 93.5831 172.605 93.2645C172.679 92.9395 172.734 92.6047 172.735 92.2529C172.729 92.0749 172.721 91.893 172.626 91.6907C172.586 91.5947 172.459 91.4617 172.313 91.4375C172.172 91.4127 172.077 91.4662 172.007 91.5184C171.746 91.7547 171.658 92.086 171.599 92.4214C171.55 92.7594 171.546 93.1178 171.631 93.4923C171.675 93.6792 171.739 93.8736 171.868 94.0645C171.928 94.1597 172.01 94.2536 172.107 94.3329C172.207 94.4117 172.306 94.4761 172.407 94.5422C172.812 94.7943 173.302 95.0024 173.711 94.9584L173.702 94.9452L173.703 94.9513Z" fill="#6A1760"/>
<path d="M171.104 91.9299C171.165 91.7255 171.073 91.4623 170.915 91.2298C170.827 91.116 170.727 91.0018 170.607 90.9087C170.492 90.8149 170.362 90.7367 170.228 90.6794C170.443 90.8785 170.641 91.06 170.781 91.2709C170.935 91.4751 171.028 91.6955 171.104 91.9299Z" fill="#6A1760"/>
<g style="mix-blend-mode:multiply" opacity="0.5">
<path fill-rule="evenodd" clip-rule="evenodd" d="M161.846 38.9935L159.208 43.1171C159.208 43.1171 158.978 44.2377 160.108 45.1017C161.237 45.9657 162.234 45.4322 162.234 45.4322C162.234 45.4322 160.985 45.2578 160.289 44.6315C159.593 44.0052 159.805 43.0865 159.805 43.0865L162.277 39.2693L161.844 38.9962L161.846 38.9935Z" fill="#884863"/>
</g>
<path fill-rule="evenodd" clip-rule="evenodd" d="M190.355 55.0043C190.355 55.0043 191.317 48.3092 194.899 47.191L191.632 43.8668C191.632 43.8668 188.101 47.4188 187.305 53.117L190.359 55.0033L190.355 55.0043Z" fill="url(#paint12_linear_17_5311)"/>
<defs>
<radialGradient id="paint0_radial_17_5311" cx="0" cy="0" r="1" gradientUnits="userSpaceOnUse" gradientTransform="translate(11.2642 54.8653) rotate(170.561) scale(17.2322 17.2486)">
<stop stop-color="#515BFF"/>
<stop offset="0.03" stop-color="#515ADD"/>
<stop offset="1" stop-color="#4335BB"/>
</radialGradient>
<radialGradient id="paint1_radial_17_5311" cx="0" cy="0" r="1" gradientUnits="userSpaceOnUse" gradientTransform="translate(12.4412 84.2118) rotate(170.561) scale(3.82909 3.83274)">
<stop stop-color="#471371"/>
<stop offset="0.99" stop-color="#20003B"/>
</radialGradient>
<radialGradient id="paint2_radial_17_5311" cx="0" cy="0" r="1" gradientUnits="userSpaceOnUse" gradientTransform="translate(5.80058 50.3017) rotate(170.561) scale(7.40467 7.41173)">
<stop stop-color="#FFA100"/>
<stop offset="1" stop-color="#FF9700"/>
</radialGradient>
<radialGradient id="paint3_radial_17_5311" cx="0" cy="0" r="1" gradientUnits="userSpaceOnUse" gradientTransform="translate(14.6025 64.3398) rotate(170.561) scale(18.8866 18.9046)">
<stop stop-color="#5C65FF"/>
<stop offset="1" stop-color="#4F59D0"/>
</radialGradient>
<radialGradient id="paint4_radial_17_5311" cx="0" cy="0" r="1" gradientUnits="userSpaceOnUse" gradientTransform="translate(15.3298 64.281) rotate(170.561) scale(18.8039 18.8218)">
<stop stop-color="#7C98E3"/>
<stop offset="0.09" stop-color="#7690D8"/>
<stop offset="0.26" stop-color="#667EBC"/>
<stop offset="0.47" stop-color="#4D5F8E"/>
<stop offset="0.72" stop-color="#2B354F"/>
<stop offset="1"/>
</radialGradient>
<radialGradient id="paint5_radial_17_5311" cx="0" cy="0" r="1" gradientUnits="userSpaceOnUse" gradientTransform="translate(151.222 61.4588) rotate(-152.669) scale(24.4588 18.4276)">
<stop stop-color="#9D94C2"/>
<stop offset="0.98" stop-color="#8C74B1"/>
</radialGradient>
<linearGradient id="paint6_linear_17_5311" x1="153.035" y1="85.2154" x2="178.999" y2="48.1706" gradientUnits="userSpaceOnUse">
<stop offset="0.02" stop-color="#D1C7E0"/>
<stop offset="0.04" stop-color="#D2C8E0"/>
<stop offset="0.33" stop-color="#E4D8E8"/>
<stop offset="0.65" stop-color="#EFE2EC"/>
<stop offset="1" stop-color="#F3E6EE"/>
</linearGradient>
<linearGradient id="paint7_linear_17_5311" x1="154.106" y1="45.1134" x2="158.628" y2="36.3625" gradientUnits="userSpaceOnUse">
<stop offset="0.02" stop-color="#D1C7E0"/>
<stop offset="0.04" stop-color="#D2C8E0"/>
<stop offset="0.33" stop-color="#E4D8E8"/>
<stop offset="0.65" stop-color="#EFE2EC"/>
<stop offset="1" stop-color="#F3E6EE"/>
</linearGradient>
<linearGradient id="paint8_linear_17_5311" x1="143.518" y1="86.3292" x2="167.033" y2="40.3109" gradientUnits="userSpaceOnUse">
<stop offset="0.02" stop-color="#D1C7E0"/>
<stop offset="0.04" stop-color="#D2C8E0"/>
<stop offset="0.33" stop-color="#E4D8E8"/>
<stop offset="0.65" stop-color="#EFE2EC"/>
<stop offset="1" stop-color="#F3E6EE"/>
</linearGradient>
<radialGradient id="paint9_radial_17_5311" cx="0" cy="0" r="1" gradientUnits="userSpaceOnUse" gradientTransform="translate(155.281 40.2332) rotate(-152.968) scale(4.80539 3.58535)">
<stop stop-color="#9D94C2"/>
<stop offset="0.98" stop-color="#8C74B1"/>
</radialGradient>
<radialGradient id="paint10_radial_17_5311" cx="0" cy="0" r="1" gradientUnits="userSpaceOnUse" gradientTransform="translate(152.515 58.0919) rotate(-153.265) scale(24.3315 17.9772)">
<stop stop-color="#9D94C2"/>
<stop offset="0.98" stop-color="#8C74B1"/>
</radialGradient>
<radialGradient id="paint11_radial_17_5311" cx="0" cy="0" r="1" gradientUnits="userSpaceOnUse" gradientTransform="translate(152.57 62.9662) rotate(-152.123) scale(26.0488 17.8261)">
<stop stop-color="#9D94C2"/>
<stop offset="0.98" stop-color="#8C74B1"/>
</radialGradient>
<linearGradient id="paint12_linear_17_5311" x1="189.169" y1="54.3848" x2="194.015" y2="45.1122" gradientUnits="userSpaceOnUse">
<stop stop-color="#FF6E27"/>
<stop offset="1" stop-color="#E03347"/>
</linearGradient>
<clipPath id="clip0_17_5311">
<rect width="151" height="170" fill="white" transform="translate(16)"/>
</clipPath>
<clipPath id="clip1_17_5311">
<rect width="14.6806" height="14.5714" fill="white" transform="translate(72.625 57.5918)"/>
</clipPath>
<clipPath id="clip2_17_5311">
<rect width="14.6806" height="14.5714" fill="white" transform="translate(94.9954 57.5918)"/>
</clipPath>
</defs>
</svg>
