<svg width="69" height="48" viewBox="0 0 69 48" fill="none" xmlns="http://www.w3.org/2000/svg">
<g clip-path="url(#clip0_4_396)">
<path d="M34.5796 3.51349C36.7446 1.25962 39.3455 -0.0318417 42.4459 0.0106174C47.0204 0.0778443 50.4397 2.18665 52.2433 6.40779C54.0044 10.5334 53.3878 14.5175 50.2874 17.7797C45.8086 22.4927 41.1242 27.0111 36.5072 31.5931C35.3167 32.7749 33.7859 32.743 32.5812 31.5471C28.0527 27.0429 23.496 22.567 19.0313 17.9991C16.0655 14.9598 15.2151 11.2658 16.551 7.25343C17.901 3.20566 20.8243 0.806725 25.0728 0.137995C28.4638 -0.396282 31.3977 0.640427 33.9277 2.90845C34.1438 3.09952 34.3493 3.3012 34.5796 3.51703V3.51349ZM34.4485 25.9567C38.5624 21.8983 42.6443 17.992 46.5775 13.9407C48.4732 11.9876 48.1968 8.75719 46.255 6.83592C44.2637 4.86864 41.1526 4.75188 39.0585 6.61301C38.2222 7.35604 37.4639 8.18045 36.6631 8.95887C35.2954 10.2893 33.8178 10.2857 32.4678 8.95887C31.6918 8.19814 30.9441 7.40204 30.1398 6.66962C28.9173 5.5586 27.4575 5.08448 25.824 5.36046C23.7369 5.71075 22.27 6.89253 21.5967 8.9058C20.9235 10.9155 21.3664 12.7413 22.8192 14.2804C23.9106 15.4339 25.0586 16.5343 26.1819 17.6594C28.9421 20.4264 31.706 23.1968 34.4556 25.9531L34.4485 25.9567Z" fill="#2A56F4"/>
<path d="M57.4698 21.5267C63.8337 21.502 68.5428 25.7832 68.968 31.2463C69.4003 36.7731 65.5345 41.6912 60.0104 42.5546C58.71 42.7563 57.3706 42.7421 56.0524 42.8306C51.3008 43.1419 46.9106 44.6386 42.7365 46.8606C42.1412 47.1791 41.5388 47.494 40.9152 47.7594C39.0514 48.5555 37.145 47.3241 37.1521 45.3038C37.1592 42.4944 37.9565 39.8549 39.0868 37.3144C41.514 31.8514 44.9546 27.2056 50.1067 23.9893C52.6012 22.4325 55.319 21.5656 57.4698 21.5303V21.5267ZM43.431 40.5908C44.3345 40.2299 44.983 39.9575 45.642 39.7134C49.7594 38.1954 54.015 37.4347 58.4088 37.4029C61.1797 37.3816 63.4297 35.2622 63.6636 32.5484C63.8904 29.9195 62.0868 27.5134 59.4364 26.9615C57.4379 26.544 55.5599 27.0676 53.8272 27.9947C48.7141 30.7226 45.7448 35.241 43.431 40.5944V40.5908Z" fill="#2A56F4"/>
<path d="M0 32.1026C0 25.6559 5.83593 20.6917 12.2246 21.6046C16.3987 22.199 19.8393 24.1344 22.7945 27.0146C27.2414 31.3454 30.2745 36.4971 31.5537 42.6077C31.7344 43.4639 31.8159 44.3556 31.8265 45.2295C31.8478 47.349 29.8989 48.5909 27.9678 47.6992C26.1536 46.8607 24.389 45.9124 22.5535 45.1234C18.7232 43.4781 14.6908 42.7351 10.5238 42.7068C4.71977 42.6678 0 37.9053 0 32.1026ZM25.4307 40.4847C24.2154 36.9323 21.2389 32.5767 18.5141 30.2556C16.8133 28.8085 14.9743 27.6338 12.7774 27.096C10.6974 26.5865 8.73794 26.7138 7.05485 28.207C5.46033 29.6223 4.90756 31.9151 5.64813 33.9248C6.42058 36.0159 8.32691 37.3923 10.5911 37.4065C14.2656 37.4312 17.8586 37.9549 21.363 39.0447C22.6988 39.4622 24.0063 39.9788 25.4307 40.4883V40.4847Z" fill="#2A56F4"/>
<path d="M34.4487 25.9566C31.699 23.2003 28.9387 20.4299 26.1749 17.6629C25.0516 16.5378 23.9036 15.4409 22.8122 14.2839C21.3594 12.7448 20.9165 10.9155 21.5898 8.9093C22.263 6.89957 23.73 5.71425 25.817 5.36397C27.4505 5.09152 28.9139 5.56565 30.1328 6.67312C30.9372 7.40554 31.6848 8.19811 32.4608 8.96237C33.8108 10.2892 35.2884 10.2892 36.6562 8.96237C37.457 8.18396 38.2153 7.35601 39.0515 6.61651C41.1456 4.75892 44.2532 4.87215 46.2481 6.83942C48.1898 8.75716 48.4662 11.9911 46.5705 13.9442C42.6374 17.992 38.559 21.8982 34.4416 25.9602L34.4487 25.9566Z" fill="white" fill-opacity="0.2"/>
<path d="M43.4275 40.5909C45.7413 35.2376 48.7107 30.7192 53.8237 27.9912C55.56 27.0642 57.4344 26.5441 59.4329 26.958C62.0833 27.51 63.8869 29.9196 63.6601 32.5449C63.4263 35.2588 61.1762 37.3782 58.4053 37.3994C54.0115 37.4313 49.7595 38.192 45.6386 39.7099C44.9795 39.9541 44.331 40.2265 43.4275 40.5874V40.5909Z" fill="#2A56F4" fill-opacity="0.2"/>
<path d="M25.4308 40.4848C24.0064 39.9753 22.7024 39.4587 21.363 39.0412C17.8586 37.9514 14.2656 37.4242 10.5912 37.403C8.32342 37.3888 6.41709 36.0124 5.64818 33.9213C4.90761 31.9116 5.46038 29.6188 7.05489 28.2035C8.73799 26.7104 10.6939 26.583 12.7774 27.0925C14.9779 27.6303 16.8169 28.8086 18.5141 30.2522C21.2425 32.5733 24.2154 36.9289 25.4308 40.4813V40.4848Z" fill="#2A56F4" fill-opacity="0.2"/>
</g>
<defs>
<clipPath id="clip0_4_396">
<rect width="69" height="48" fill="white"/>
</clipPath>
</defs>
</svg>
