<svg width="66" height="51" viewBox="0 0 66 51" fill="none" xmlns="http://www.w3.org/2000/svg">
<path opacity="0.2" d="M4.21429 32.6669H13.0714V48H4.21429C3.62702 48 3.06381 47.7692 2.64855 47.3584C2.23329 46.9476 2 46.3905 2 45.8096V34.8574C2 34.2764 2.23329 33.7193 2.64855 33.3085C3.06381 32.8977 3.62702 32.6669 4.21429 32.6669ZM53.078 2.00074C50.9225 1.97572 48.8085 2.58775 47.0067 3.75845C45.2049 4.92915 43.7973 6.60524 42.9643 8.57206C42.1312 6.60524 40.7237 4.92915 38.9219 3.75845C37.1201 2.58775 35.0061 1.97572 32.8505 2.00074C26.8194 2.00074 21.9286 7.01411 21.9286 12.9529C21.9286 16.9395 23.8661 20.5401 26.5592 23.9051H38.5357C40.0039 23.9051 41.4119 24.4821 42.4501 25.5091C43.4882 26.536 44.0714 27.9289 44.0714 29.3812C44.0714 30.8336 43.4882 32.2265 42.4501 33.2534C41.4119 34.2804 40.0039 34.8574 38.5357 34.8574H39.6429L50.0998 32.4807C56.2002 28.0314 64 20.9563 64 12.9529C64 7.01411 59.1092 2.00074 53.078 2.00074Z" fill="#355FF3"/>
<path d="M63.3291 30.2287C62.6099 29.6699 61.7853 29.2645 60.9056 29.0372C60.0259 28.8099 59.1096 28.7655 58.2123 28.9066C63.3759 23.6514 65.9879 18.4267 65.9879 13.3045C65.9879 5.96778 60.1342 0.000260068 52.9388 0.000260068C51.0296 -0.0118265 49.1409 0.397516 47.4053 1.19955C45.6697 2.00159 44.1292 3.17687 42.8921 4.6429C41.655 3.17687 40.1146 2.00159 38.379 1.19955C36.6434 0.397516 34.7547 -0.0118265 32.8455 0.000260068C25.65 0.000260068 19.7964 5.96778 19.7964 13.3045C19.7964 16.3534 20.6872 19.3164 22.5624 22.4512C21.0266 22.8435 19.6251 23.6481 18.5069 24.7795L12.2875 31.0436H4.39919C3.23245 31.0436 2.1135 31.5108 1.28849 32.3425C0.463485 33.1742 0 34.3022 0 35.4783L0 46.5652C0 47.7414 0.463485 48.8694 1.28849 49.7011C2.1135 50.5328 3.23245 51 4.39919 51H32.994C33.1738 51.0001 33.353 50.9777 33.5274 50.9335L51.1241 46.4987C51.2363 46.4718 51.3458 46.4347 51.4513 46.3878L62.1386 41.8034L62.2596 41.748C63.2867 41.2306 64.1663 40.4581 64.8154 39.5033C65.4645 38.5485 65.8619 37.4429 65.97 36.2905C66.0781 35.1382 65.8934 33.977 65.4333 32.9165C64.9732 31.856 64.2529 30.931 63.3401 30.2287H63.3291ZM32.8455 4.43502C34.5491 4.40989 36.2214 4.89755 37.6487 5.83566C39.0759 6.77377 40.1931 8.11968 40.8575 9.7013C41.0232 10.108 41.3051 10.4558 41.6674 10.7006C42.0297 10.9454 42.456 11.0761 42.8921 11.0761C43.3283 11.0761 43.7546 10.9454 44.1169 10.7006C44.4791 10.4558 44.761 10.108 44.9268 9.7013C45.5911 8.11968 46.7084 6.77377 48.1356 5.83566C49.5628 4.89755 51.2352 4.40989 52.9388 4.43502C57.6267 4.43502 61.5887 8.4956 61.5887 13.3045C61.5887 18.7122 57.2473 24.8294 49.0345 31.0159L45.9853 31.7226C46.253 30.5829 46.2612 29.3969 46.0095 28.2534C45.7578 27.11 45.2526 26.0388 44.5318 25.1202C43.811 24.2016 42.8933 23.4594 41.8475 22.9491C40.8016 22.4389 39.6548 22.1739 38.4929 22.1741H27.6819C25.3091 18.9478 24.1956 16.1095 24.1956 13.3045C24.1956 8.4956 28.1576 4.43502 32.8455 4.43502ZM4.39919 35.4783H10.998V46.5652H4.39919V35.4783ZM60.3322 37.7539L49.8841 42.2386L32.719 46.5652H15.3972V34.1784L21.6193 27.9088C22.0263 27.4952 22.5108 27.1672 23.0447 26.9441C23.5785 26.7209 24.151 26.607 24.729 26.6088H38.4929C39.368 26.6088 40.2072 26.9592 40.826 27.583C41.4447 28.2068 41.7923 29.0528 41.7923 29.9349C41.7923 30.817 41.4447 31.663 40.826 32.2868C40.2072 32.9105 39.368 33.261 38.4929 33.261H30.7944C30.211 33.261 29.6515 33.4946 29.239 33.9104C28.8265 34.3263 28.5948 34.8902 28.5948 35.4783C28.5948 36.0664 28.8265 36.6304 29.239 37.0463C29.6515 37.4621 30.211 37.6957 30.7944 37.6957H39.5927C39.7583 37.6952 39.9233 37.6767 40.0849 37.6403L58.5065 33.3691L58.5918 33.3469C59.1541 33.1895 59.7543 33.2473 60.2769 33.5093C60.7995 33.7712 61.2076 34.2187 61.4226 34.7656C61.6376 35.3126 61.6443 35.9204 61.4415 36.4721C61.2386 37.0237 60.8406 37.4803 60.3239 37.7539H60.3322Z" fill="#355FF3"/>
</svg>
