<svg width="62" height="53" viewBox="0 0 62 53" fill="none" xmlns="http://www.w3.org/2000/svg">
<path opacity="0.2" d="M55 4.22222V14.2861C53.7028 13.1188 52.1898 12.22 50.5474 11.6411C48.905 11.0622 47.1654 10.8145 45.4279 10.9122C43.6903 11.0098 41.9889 11.4508 40.4208 12.2101C38.8527 12.9694 37.4485 14.0321 36.2885 15.3375C35.1285 16.6429 34.2354 18.1654 33.6601 19.8181C33.0848 21.4708 32.8386 23.2214 32.9356 24.9698C33.0327 26.7183 33.471 28.4304 34.2255 30.0084C34.9801 31.5864 36.0361 32.9994 37.3333 34.1667V42H4.20833C3.62265 42 3.06095 41.7659 2.64681 41.3491C2.23266 40.9324 2 40.3671 2 39.7778V4.22222C2 3.63285 2.23266 3.06762 2.64681 2.65087C3.06095 2.23413 3.62265 2 4.20833 2H52.7917C53.3774 2 53.9391 2.23413 54.3532 2.65087C54.7673 3.06762 55 3.63285 55 4.22222Z" fill="#2A56F4"/>
<path d="M62 24.2909C62.0023 21.7549 61.379 19.2573 60.185 17.0183C58.9909 14.7793 57.2629 12.8676 55.1531 11.4518C53.0434 10.0361 50.6167 9.15971 48.0872 8.90002C45.5577 8.64034 43.0029 9.0053 40.6482 9.96273C38.2935 10.9202 36.2111 12.4406 34.5847 14.3901C32.9584 16.3396 31.8379 18.6582 31.3221 21.1415C30.8064 23.6248 30.9112 26.1965 31.6273 28.6298C32.3435 31.0632 33.6489 33.2835 35.4286 35.0949V50.7902C35.4283 51.1668 35.5246 51.5372 35.7084 51.8662C35.8921 52.1952 36.1572 52.4719 36.4784 52.67C36.7996 52.868 37.1662 52.9809 37.5435 52.9978C37.9207 53.0147 38.296 52.9351 38.6337 52.7666L46.5 48.8414L54.3662 52.7666C54.704 52.9351 55.0793 53.0147 55.4565 52.9978C55.8338 52.9809 56.2004 52.868 56.5216 52.67C56.8428 52.4719 57.1079 52.1952 57.2916 51.8662C57.4754 51.5372 57.5717 51.1668 57.5714 50.7902V35.0949C60.4114 32.2123 62.0019 28.3321 62 24.2909ZM46.5 13.2496C48.6897 13.2496 50.8303 13.8972 52.6509 15.1104C54.4716 16.3236 55.8907 18.0481 56.7287 20.0656C57.5666 22.0831 57.7859 24.3032 57.3587 26.445C56.9315 28.5868 55.877 30.5542 54.3287 32.0983C52.7803 33.6425 50.8076 34.6941 48.6599 35.1201C46.5123 35.5462 44.2862 35.3275 42.2631 34.4918C40.2401 33.6561 38.511 32.2409 37.2944 30.4252C36.0779 28.6094 35.4286 26.4747 35.4286 24.2909C35.4286 21.3626 36.595 18.5542 38.6713 16.4835C40.7476 14.4129 43.5637 13.2496 46.5 13.2496ZM47.4909 44.3972C47.1833 44.2437 46.844 44.1638 46.5 44.1638C46.156 44.1638 45.8167 44.2437 45.5091 44.3972L39.8571 47.2183V38.2555C41.9329 39.2387 44.202 39.7488 46.5 39.7488C48.798 39.7488 51.0671 39.2387 53.1428 38.2555V47.2183L47.4909 44.3972ZM31 41.9571C31 42.5428 30.7667 43.1044 30.3514 43.5186C29.9362 43.9327 29.373 44.1653 28.7857 44.1653H4.42857C3.25404 44.1653 2.12762 43.7 1.2971 42.8718C0.46658 42.0435 0 40.9202 0 39.7488V4.41653C0 3.2452 0.46658 2.12183 1.2971 1.29357C2.12762 0.465312 3.25404 0 4.42857 0H53.1428C54.3174 0 55.4438 0.465312 56.2743 1.29357C57.1048 2.12183 57.5714 3.2452 57.5714 4.41653C57.5714 5.0022 57.3381 5.56388 56.9229 5.97802C56.5076 6.39215 55.9444 6.6248 55.3571 6.6248C54.7699 6.6248 54.2067 6.39215 53.7914 5.97802C53.3761 5.56388 53.1428 5.0022 53.1428 4.41653H4.42857V39.7488H28.7857C29.373 39.7488 29.9362 39.9815 30.3514 40.3956C30.7667 40.8097 31 41.3714 31 41.9571ZM26.5714 26.4992C26.5714 27.0849 26.3381 27.6466 25.9229 28.0607C25.5076 28.4748 24.9444 28.7075 24.3571 28.7075H13.2857C12.6984 28.7075 12.1352 28.4748 11.72 28.0607C11.3047 27.6466 11.0714 27.0849 11.0714 26.4992C11.0714 25.9135 11.3047 25.3519 11.72 24.9377C12.1352 24.5236 12.6984 24.2909 13.2857 24.2909H24.3571C24.9444 24.2909 25.5076 24.5236 25.9229 24.9377C26.3381 25.3519 26.5714 25.9135 26.5714 26.4992ZM26.5714 17.6661C26.5714 18.2518 26.3381 18.8135 25.9229 19.2276C25.5076 19.6418 24.9444 19.8744 24.3571 19.8744H13.2857C12.6984 19.8744 12.1352 19.6418 11.72 19.2276C11.3047 18.8135 11.0714 18.2518 11.0714 17.6661C11.0714 17.0805 11.3047 16.5188 11.72 16.1047C12.1352 15.6905 12.6984 15.4579 13.2857 15.4579H24.3571C24.9444 15.4579 25.5076 15.6905 25.9229 16.1047C26.3381 16.5188 26.5714 17.0805 26.5714 17.6661Z" fill="#2A56F4"/>
</svg>
