<svg width="56" height="56" viewBox="0 0 56 56" fill="none" xmlns="http://www.w3.org/2000/svg">
<path opacity="0.2" d="M45 28C45 31.3623 44.003 34.6491 42.135 37.4447C40.267 40.2403 37.612 42.4193 34.5056 43.7059C31.3993 44.9926 27.9811 45.3293 24.6835 44.6733C21.3858 44.0174 18.3567 42.3983 15.9792 40.0208C13.6017 37.6433 11.9826 34.6142 11.3267 31.3165C10.6707 28.0189 11.0074 24.6007 12.2941 21.4944C13.5807 18.388 15.7597 15.733 18.5553 13.865C21.3509 11.997 24.6377 11 28 11C32.5087 11 36.8327 12.7911 40.0208 15.9792C43.2089 19.1673 45 23.4913 45 28Z" fill="#355FF3"/>
<path d="M28 0C22.4621 0 17.0486 1.64217 12.444 4.71885C7.83947 7.79553 4.25064 12.1685 2.13139 17.2849C0.012132 22.4012 -0.542361 28.0311 0.538025 33.4625C1.61841 38.894 4.28515 43.8831 8.20102 47.799C12.1169 51.7149 17.106 54.3816 22.5375 55.462C27.9689 56.5424 33.5988 55.9879 38.7151 53.8686C43.8315 51.7494 48.2045 48.1605 51.2812 43.556C54.3578 38.9514 56 33.5379 56 28C55.9922 20.5763 53.0397 13.459 47.7903 8.20967C42.541 2.96035 35.4237 0.00783951 28 0ZM28 51.6923C23.3141 51.6923 18.7334 50.3028 14.8373 47.6994C10.9411 45.0961 7.90439 41.3959 6.11117 37.0666C4.31796 32.7374 3.84877 27.9737 4.76294 23.3779C5.67712 18.782 7.93359 14.5604 11.247 11.247C14.5604 7.93358 18.782 5.67711 23.3779 4.76293C27.9737 3.84876 32.7375 4.31795 37.0667 6.11116C41.3959 7.90438 45.0961 10.9411 47.6994 14.8373C50.3028 18.7334 51.6923 23.3141 51.6923 28C51.6852 34.2814 49.1868 40.3035 44.7451 44.7451C40.3035 49.1867 34.2814 51.6852 28 51.6923ZM28 8.61538C24.1661 8.61538 20.4183 9.75227 17.2305 11.8823C14.0427 14.0123 11.5581 17.0398 10.091 20.5818C8.62379 24.1239 8.23991 28.0215 8.98787 31.7817C9.73583 35.542 11.582 38.996 14.293 41.707C17.004 44.418 20.458 46.2642 24.2183 47.0121C27.9785 47.7601 31.8761 47.3762 35.4182 45.909C38.9603 44.4419 41.9877 41.9573 44.1177 38.7695C46.2477 35.5817 47.3846 31.8339 47.3846 28C47.3789 22.8606 45.3348 17.9334 41.7007 14.2993C38.0666 10.6652 33.1394 8.62108 28 8.61538ZM28 43.0769C25.0181 43.0769 22.1031 42.1927 19.6237 40.536C17.1443 38.8793 15.2119 36.5246 14.0707 33.7697C12.9296 31.0147 12.631 27.9833 13.2128 25.0586C13.7945 22.134 15.2305 19.4475 17.339 17.339C19.4476 15.2305 22.134 13.7945 25.0586 13.2128C27.9833 12.631 31.0147 12.9296 33.7697 14.0707C36.5246 15.2119 38.8793 17.1443 40.536 19.6237C42.1927 22.1031 43.0769 25.0181 43.0769 28C43.0727 31.9973 41.4828 35.8297 38.6563 38.6563C35.8297 41.4828 31.9973 43.0726 28 43.0769Z" fill="#355FF3"/>
</svg>
