<svg width="56" height="54" viewBox="0 0 56 54" fill="none" xmlns="http://www.w3.org/2000/svg">
<path opacity="0.2" d="M54 10.5L28 19L2 10.5L28 2L54 10.5Z" fill="#355FF3"/>
<path d="M54.5268 8.74664L28.6809 0.110807C28.2388 -0.0369355 27.7608 -0.0369355 27.3186 0.110807L1.47268 8.74664C1.08175 8.87881 0.736913 9.12075 0.479183 9.44368C0.221452 9.76661 0.061673 10.1569 0.018847 10.5683C0.00621063 10.6432 -9.36783e-05 10.719 1.0518e-06 10.795V32.3845C1.0518e-06 32.9571 0.226921 33.5063 0.630842 33.9112C1.03476 34.316 1.5826 34.5435 2.15383 34.5435C2.72506 34.5435 3.27289 34.316 3.67681 33.9112C4.08074 33.5063 4.30766 32.9571 4.30766 32.3845V13.7905L13.351 16.8104C10.9483 20.7013 10.1843 25.3891 11.2267 29.8443C12.269 34.2994 15.0326 38.1579 18.9106 40.5724C14.0645 42.4777 9.8753 45.9239 6.81148 50.6358C6.65214 50.8732 6.54146 51.14 6.48588 51.4206C6.4303 51.7013 6.43092 51.9902 6.48771 52.2706C6.5445 52.551 6.65633 52.8173 6.81669 53.054C6.97705 53.2907 7.18275 53.493 7.42183 53.6494C7.66091 53.8057 7.9286 53.9128 8.20934 53.9645C8.49008 54.0162 8.77827 54.0114 9.05716 53.9505C9.33605 53.8895 9.60007 53.7737 9.83389 53.6095C10.0677 53.4454 10.2666 53.2364 10.4191 52.9945C14.4764 46.7551 20.8841 43.1793 27.9998 43.1793C35.1155 43.1793 41.5231 46.7551 45.5804 52.9945C45.8963 53.4651 46.3843 53.7922 46.9388 53.9051C47.4934 54.018 48.07 53.9075 48.544 53.5976C49.018 53.2877 49.3513 52.8033 49.4718 52.2491C49.5923 51.6948 49.4904 51.1153 49.188 50.6358C46.1242 45.9239 41.9189 42.4777 37.0889 40.5724C40.9632 38.158 43.7242 34.3021 44.7664 29.8501C45.8086 25.3982 45.0469 20.7137 42.6485 16.8238L54.5268 12.8568C54.9558 12.7135 55.3289 12.4386 55.5933 12.071C55.8577 11.7034 56 11.2617 56 10.8084C56 10.3552 55.8577 9.91353 55.5933 9.5459C55.3289 9.17826 54.9558 8.90336 54.5268 8.76013V8.74664ZM40.9227 25.9077C40.9233 27.9556 40.4395 29.9745 39.5109 31.7987C38.5824 33.6229 37.2356 35.2004 35.581 36.4018C33.9265 37.6032 32.0114 38.3943 29.9927 38.7101C27.9741 39.026 25.9096 38.8575 23.9685 38.2187C22.0274 37.5798 20.265 36.4888 18.826 35.035C17.3871 33.5812 16.3125 31.8062 15.6904 29.8555C15.0683 27.9048 14.9165 25.8341 15.2474 23.8132C15.5784 21.7923 16.3826 19.8789 17.5941 18.2299L27.3186 21.4683C27.7608 21.616 28.2388 21.616 28.6809 21.4683L38.4054 18.2299C40.0418 20.4536 40.924 23.1445 40.9227 25.9077ZM27.9998 17.1558L8.96531 10.795L27.9998 4.43412L47.0342 10.795L27.9998 17.1558Z" fill="#355FF3"/>
</svg>
