<svg width="57" height="57" viewBox="0 0 57 57" fill="none" xmlns="http://www.w3.org/2000/svg">
<path opacity="0.2" d="M51 39.7798C49.153 43.8429 46.341 47.3584 42.825 50L40.3195 47.4118C40.0511 47.1337 39.7157 46.9345 39.3478 46.8345L33.6007 45.2711C33.0913 45.1328 32.6491 44.8057 32.3587 44.3521C32.0684 43.8986 31.9502 43.3505 32.0268 42.8127L32.6638 38.338C32.7177 37.9606 32.8653 37.604 33.0924 37.3029C33.3194 37.0018 33.6181 36.7665 33.9594 36.6199L42.113 33.1229C42.4897 32.9616 42.9031 32.9147 43.3048 32.9876C43.7064 33.0605 44.0795 33.2502 44.3802 33.5345L51 39.7798ZM36.2481 22.1818L42.1826 15.0553C42.5162 14.6558 42.7004 14.1464 42.7019 13.619V6.98971C37.7366 3.30461 31.6603 1.56781 25.5652 2.09148C19.4702 2.61514 13.7559 5.36493 9.44954 9.84662C5.14318 14.3283 2.52708 20.248 2.07144 26.5418C1.6158 32.8355 3.35051 39.0906 6.96377 44.1828L9.61917 42.3818C9.91325 42.1813 10.1548 41.909 10.3225 41.5891C10.4901 41.2691 10.5786 40.9114 10.5801 40.5477L10.6364 30.5403C10.6393 30.1066 10.7649 29.6832 10.9977 29.3221L16.603 20.6764C16.7637 20.4302 16.9709 20.22 17.2121 20.0582C17.4534 19.8965 17.7237 19.7865 18.007 19.7349C18.2903 19.6834 18.5808 19.6913 18.8611 19.7581C19.1414 19.8249 19.4058 19.9494 19.6385 20.124L24.9412 23.7149C25.3877 24.0467 25.9403 24.19 26.4858 24.1154L34.907 22.9387C35.429 22.8652 35.9065 22.5958 36.2481 22.1818Z" fill="#2A56F4"/>
<path d="M28.5 0C22.8632 0 17.3531 1.6715 12.6663 4.80312C7.97946 7.93473 4.32654 12.3858 2.16945 17.5935C0.0123486 22.8012 -0.552046 28.5316 0.547632 34.0601C1.64731 39.5885 4.36167 44.6667 8.34747 48.6525C12.3333 52.6383 17.4115 55.3527 22.9399 56.4524C28.4684 57.552 34.1988 56.9877 39.4065 54.8306C44.6142 52.6735 49.0653 49.0205 52.1969 44.3337C55.3285 39.6469 57 34.1368 57 28.5C56.992 20.9438 53.9868 13.6993 48.6437 8.35627C43.3007 3.01321 36.0562 0.0079795 28.5 0ZM28.5 4.38461C33.1722 4.37965 37.7441 5.73979 41.6538 8.29788V13.7019L35.5784 20.7557L26.9544 21.9231L26.8695 21.8628L21.4791 18.3386C21.0012 18.002 20.4608 17.7643 19.8897 17.6396C19.3186 17.5148 18.7283 17.5056 18.1536 17.6123C17.5789 17.719 17.0313 17.9396 16.543 18.2611C16.0548 18.5825 15.6357 18.9984 15.3105 19.4841L9.57217 28.0615C9.09413 28.7763 8.83682 29.6159 8.83227 30.4758L8.76924 40.4042L7.87314 40.9934C5.65784 37.3359 4.4549 33.1552 4.38758 28.8796C4.32026 24.6041 5.39099 20.3876 7.49004 16.6622C9.58909 12.9367 12.641 9.83645 16.3329 7.67901C20.0248 5.52158 24.2239 4.38461 28.5 4.38461ZM10.4929 44.523L11.1835 44.0709C11.7865 43.6731 12.282 43.1325 12.6257 42.4971C12.9694 41.8617 13.1509 41.1513 13.1539 40.4289L13.2114 30.5005L18.9552 21.9231C18.9834 21.9447 19.0127 21.9648 19.0429 21.9834L24.4333 25.5102C25.3366 26.1478 26.4481 26.4191 27.5436 26.2693L36.1731 25.0992C37.2372 24.9572 38.2123 24.4296 38.9135 23.6166L44.9889 16.5574C45.6683 15.7613 46.0406 14.7485 46.0385 13.7019V11.9673C49.0037 15.1044 51.0711 18.981 52.0243 23.1913C52.9774 27.4016 52.7812 31.7906 51.4562 35.899L47.0332 31.8542C46.4183 31.2898 45.6551 30.9126 44.8333 30.767C44.0115 30.6214 43.1651 30.7134 42.3938 31.0321L34.0465 34.4987C33.3486 34.7917 32.7378 35.2595 32.2732 35.8571C31.8086 36.4546 31.5057 37.1618 31.3939 37.9105L30.7389 42.3472C30.5815 43.415 30.8235 44.5035 31.4187 45.404C32.0138 46.3046 32.9202 46.9539 33.9643 47.2278L39.8452 48.7788L40.4919 49.4283C35.6897 52.1836 30.0847 53.2002 24.6207 52.3067C19.1567 51.4133 14.1675 48.6644 10.4929 44.523ZM44.1202 46.8606L42.9418 45.6795C42.3922 45.1277 41.7054 44.7323 40.9523 44.534L35.0769 42.9829L35.7319 38.5462L44.0763 35.0769L49.601 40.1411C48.1929 42.6923 46.3362 44.9685 44.1202 46.8606Z" fill="#2A56F4"/>
</svg>
