<svg width="50" height="52" viewBox="0 0 50 52" fill="none" xmlns="http://www.w3.org/2000/svg">
<path opacity="0.2" d="M48 7.10552V37.8945C31.2727 52.1164 18.7273 23.6725 2 37.8945V7.10552C18.7273 -7.11641 31.2727 21.3275 48 7.10552Z" fill="#2A56F4"/>
<path d="M0.718637 4.67786C0.494546 4.87183 0.314515 5.11134 0.190582 5.38038C0.0666492 5.64942 0.00167337 5.94179 0 6.23793V49.9199C0 50.4716 0.21946 51.0007 0.610099 51.3908C1.00074 51.7808 1.53056 52 2.08301 52C2.63546 52 3.16528 51.7808 3.55592 51.3908C3.94656 51.0007 4.16602 50.4716 4.16602 49.9199V38.4196C11.1415 32.9177 17.151 35.8845 24.0718 39.3062C28.3419 41.4149 32.9402 43.6874 37.8717 43.6874C41.4987 43.6874 45.3028 42.4524 49.2814 39.0072C49.5055 38.8132 49.6855 38.5737 49.8094 38.3047C49.9333 38.0356 49.9983 37.7433 50 37.4471V6.23793C49.9991 5.83867 49.8831 5.44812 49.6659 5.1129C49.4487 4.77769 49.1395 4.51197 48.7752 4.34748C48.4109 4.18299 48.0068 4.12667 47.6114 4.18525C47.2159 4.24384 46.8456 4.41484 46.5448 4.67786C39.2543 10.9779 33.0782 7.9254 25.9204 4.38664C18.5049 0.715278 10.0974 -3.43711 0.718637 4.67786ZM45.8262 36.4643C38.8507 41.9661 32.8412 38.9968 25.9204 35.5777C19.411 32.3665 12.17 28.7836 4.16602 33.3936V7.22337C11.1415 1.72152 17.151 4.68826 24.0718 8.10741C30.5812 11.3186 37.8248 14.9015 45.8262 10.2915V36.4643Z" fill="#2A56F4"/>
</svg>
