<svg width="57" height="47" viewBox="0 0 57 47" fill="none" xmlns="http://www.w3.org/2000/svg">
<path opacity="0.2" d="M55 4.15V45H2V2H52.7917C53.3774 2 53.9391 2.22652 54.3532 2.62972C54.7673 3.03292 55 3.57978 55 4.15Z" fill="#2A56F4"/>
<path d="M57 44.8636C57 45.4302 56.769 45.9736 56.3579 46.3743C55.9468 46.7749 55.3891 47 54.8077 47H2.19231C1.61087 47 1.05325 46.7749 0.642112 46.3743C0.230975 45.9736 0 45.4302 0 44.8636V2.13636C0 1.56976 0.230975 1.02637 0.642112 0.625727C1.05325 0.225081 1.61087 0 2.19231 0C2.77374 0 3.33137 0.225081 3.7425 0.625727C4.15364 1.02637 4.38462 1.56976 4.38462 2.13636V31.1615L18.1797 17.7158C18.3833 17.5172 18.6251 17.3596 18.8912 17.2521C19.1574 17.1446 19.4427 17.0892 19.7308 17.0892C20.0189 17.0892 20.3042 17.1446 20.5703 17.2521C20.8364 17.3596 21.0782 17.5172 21.2818 17.7158L28.5 24.7524L42.9391 10.6818H37.2692C36.6878 10.6818 36.1302 10.4567 35.719 10.0561C35.3079 9.65545 35.0769 9.11205 35.0769 8.54545C35.0769 7.97886 35.3079 7.43546 35.719 7.03482C36.1302 6.63417 36.6878 6.40909 37.2692 6.40909H48.2308C48.8122 6.40909 49.3698 6.63417 49.781 7.03482C50.1921 7.43546 50.4231 7.97886 50.4231 8.54545V19.2273C50.4231 19.7939 50.1921 20.3373 49.781 20.7379C49.3698 21.1386 48.8122 21.3636 48.2308 21.3636C47.6493 21.3636 47.0917 21.1386 46.6806 20.7379C46.2694 20.3373 46.0385 19.7939 46.0385 19.2273V13.7021L30.0511 29.2842C29.8475 29.4828 29.6057 29.6404 29.3395 29.7479C29.0734 29.8554 28.7881 29.9108 28.5 29.9108C28.2119 29.9108 27.9266 29.8554 27.6605 29.7479C27.3943 29.6404 27.1525 29.4828 26.9489 29.2842L19.7308 22.2476L4.38462 37.2021V42.7273H54.8077C55.3891 42.7273 55.9468 42.9524 56.3579 43.353C56.769 43.7536 57 44.297 57 44.8636Z" fill="#2A56F4"/>
</svg>
