<svg width="60" height="60" viewBox="0 0 60 60" fill="none" xmlns="http://www.w3.org/2000/svg">
<path opacity="0.2" d="M41 21.2C41 26.4513 38.9139 31.4875 35.2007 35.2007C31.4875 38.9139 26.4513 41 21.2 41C20.5019 40.9995 19.8043 40.9628 19.11 40.89C19.0372 40.1957 19.0005 39.4981 19 38.8C19 33.5487 21.0861 28.5125 24.7993 24.7993C28.5125 21.0861 33.5487 19 38.8 19C39.4981 19.0005 40.1957 19.0372 40.89 19.11C40.9628 19.8043 40.9995 20.5019 41 21.2Z" fill="#2A56F4"/>
<path d="M42.4873 17.5127C41.7748 13.6755 40.0277 10.1058 37.4346 7.18905C34.8414 4.27231 31.5008 2.11934 27.7734 0.962609C24.0459 -0.194126 20.0733 -0.31068 16.2845 0.625534C12.4957 1.56175 9.03454 3.51516 6.27485 6.27485C3.51516 9.03454 1.56175 12.4957 0.625534 16.2845C-0.31068 20.0733 -0.194126 24.0459 0.962609 27.7734C2.11934 31.5008 4.27231 34.8414 7.18905 37.4346C10.1058 40.0277 13.6755 41.7748 17.5127 42.4873C18.2252 46.3245 19.9723 49.8942 22.5654 52.8109C25.1586 55.7277 28.4992 57.8807 32.2266 59.0374C35.9541 60.1941 39.9267 60.3107 43.7155 59.3745C47.5043 58.4383 50.9655 56.4848 53.7252 53.7252C56.4848 50.9655 58.4383 47.5043 59.3745 43.7155C60.3107 39.9267 60.1941 35.9541 59.0374 32.2266C57.8807 28.4992 55.7277 25.1586 52.8109 22.5654C49.8942 19.9723 46.3245 18.2252 42.4873 17.5127ZM4.29161 21.4305C4.28338 17.2531 5.80113 13.2166 8.55961 10.0794C11.3181 6.9423 15.1273 4.92064 19.2715 4.3944C23.4156 3.86816 27.6092 4.87358 31.0643 7.22169C34.5193 9.5698 36.9977 13.0989 38.0339 17.1458C32.5408 17.2902 27.3127 19.5376 23.4284 23.4244C19.5441 27.3112 17.3 32.5407 17.1592 38.0339C13.4788 37.0815 10.2186 34.9346 7.88983 31.9298C5.56108 28.9249 4.29551 25.2321 4.29161 21.4305ZM38.5695 21.4305C38.5645 25.9745 36.7572 30.331 33.5441 33.5441C30.331 36.7572 25.9745 38.5645 21.4305 38.5695C21.4355 34.0255 23.2428 29.669 26.4559 26.4559C29.669 23.2428 34.0255 21.4355 38.5695 21.4305ZM38.5695 55.7084C34.7696 55.7053 31.0782 54.4416 28.0736 52.1155C25.069 49.7893 22.921 46.5321 21.9661 42.8542C27.4616 42.7132 32.693 40.4673 36.5801 36.5801C40.4673 32.693 42.7132 27.4616 42.8542 21.9661C46.9011 23.0023 50.4302 25.4807 52.7783 28.9357C55.1264 32.3908 56.1318 36.5844 55.6056 40.7285C55.0794 44.8727 53.0577 48.6819 49.9206 51.4404C46.7834 54.1989 42.7469 55.7166 38.5695 55.7084Z" fill="#2A56F4"/>
</svg>
