<svg width="59" height="51" viewBox="0 0 59 51" fill="none" xmlns="http://www.w3.org/2000/svg">
<path opacity="0.2" d="M32 3.95486V49H8V17.0155C7.99979 16.693 8.08091 16.3754 8.23618 16.091C8.39144 15.8065 8.61603 15.5641 8.89 15.3851L28.89 2.32932C29.1909 2.13272 29.5407 2.01972 29.902 2.00235C30.2633 1.98499 30.6226 2.06391 30.9418 2.23072C31.2609 2.39752 31.5279 2.64596 31.7142 2.94958C31.9006 3.2532 31.9993 3.60063 32 3.95486Z" fill="#2A56F4"/>
<path d="M57.0333 47.0771H53.1V19.617C53.1 18.5765 52.6856 17.5787 51.948 16.8431C51.2103 16.1074 50.2099 15.6941 49.1667 15.6941H33.4333V3.92543C33.4338 3.21505 33.2408 2.51789 32.8751 1.90833C32.5093 1.29878 31.9844 0.799732 31.3565 0.464445C30.7285 0.129158 30.0211 -0.0297797 29.3097 0.00459681C28.5982 0.0389733 27.9095 0.265374 27.317 0.659633L7.65033 13.7326C7.11083 14.0916 6.6687 14.5781 6.36331 15.1487C6.05793 15.7194 5.89877 16.3565 5.9 17.0033V47.0771H1.96667C1.44507 47.0771 0.944845 47.2838 0.576023 47.6516C0.207202 48.0195 0 48.5184 0 49.0386C0 49.5588 0.207202 50.0577 0.576023 50.4255C0.944845 50.7934 1.44507 51 1.96667 51H57.0333C57.5549 51 58.0552 50.7934 58.424 50.4255C58.7928 50.0577 59 49.5588 59 49.0386C59 48.5184 58.7928 48.0195 58.424 47.6516C58.0552 47.2838 57.5549 47.0771 57.0333 47.0771ZM49.1667 19.617V47.0771H33.4333V19.617H49.1667ZM9.83333 17.0033L29.5 3.92543V47.0771H9.83333V17.0033ZM25.5667 23.5398V27.4627C25.5667 27.9829 25.3595 28.4818 24.9906 28.8497C24.6218 29.2175 24.1216 29.4242 23.6 29.4242C23.0784 29.4242 22.5782 29.2175 22.2094 28.8497C21.8405 28.4818 21.6333 27.9829 21.6333 27.4627V23.5398C21.6333 23.0196 21.8405 22.5207 22.2094 22.1529C22.5782 21.785 23.0784 21.5784 23.6 21.5784C24.1216 21.5784 24.6218 21.785 24.9906 22.1529C25.3595 22.5207 25.5667 23.0196 25.5667 23.5398ZM17.7 23.5398V27.4627C17.7 27.9829 17.4928 28.4818 17.124 28.8497C16.7552 29.2175 16.2549 29.4242 15.7333 29.4242C15.2117 29.4242 14.7115 29.2175 14.3427 28.8497C13.9739 28.4818 13.7667 27.9829 13.7667 27.4627V23.5398C13.7667 23.0196 13.9739 22.5207 14.3427 22.1529C14.7115 21.785 15.2117 21.5784 15.7333 21.5784C16.2549 21.5784 16.7552 21.785 17.124 22.1529C17.4928 22.5207 17.7 23.0196 17.7 23.5398ZM17.7 37.2699V41.1928C17.7 41.713 17.4928 42.2119 17.124 42.5797C16.7552 42.9476 16.2549 43.1542 15.7333 43.1542C15.2117 43.1542 14.7115 42.9476 14.3427 42.5797C13.9739 42.2119 13.7667 41.713 13.7667 41.1928V37.2699C13.7667 36.7497 13.9739 36.2508 14.3427 35.883C14.7115 35.5151 15.2117 35.3085 15.7333 35.3085C16.2549 35.3085 16.7552 35.5151 17.124 35.883C17.4928 36.2508 17.7 36.7497 17.7 37.2699ZM25.5667 37.2699V41.1928C25.5667 41.713 25.3595 42.2119 24.9906 42.5797C24.6218 42.9476 24.1216 43.1542 23.6 43.1542C23.0784 43.1542 22.5782 42.9476 22.2094 42.5797C21.8405 42.2119 21.6333 41.713 21.6333 41.1928V37.2699C21.6333 36.7497 21.8405 36.2508 22.2094 35.883C22.5782 35.5151 23.0784 35.3085 23.6 35.3085C24.1216 35.3085 24.6218 35.5151 24.9906 35.883C25.3595 36.2508 25.5667 36.7497 25.5667 37.2699Z" fill="#2A56F4"/>
</svg>
