<svg width="69" height="44" viewBox="0 0 69 44" fill="none" xmlns="http://www.w3.org/2000/svg">
<path d="M37 16.5C37 19.3678 36.1496 22.1713 34.5563 24.5558C32.963 26.9403 30.6984 28.7988 28.0489 29.8962C25.3994 30.9937 22.4839 31.2809 19.6712 30.7214C16.8585 30.1619 14.2748 28.7809 12.247 26.753C10.2191 24.7252 8.83811 22.1415 8.27862 19.3288C7.71913 16.5161 8.00628 13.6006 9.10375 10.9511C10.2012 8.30156 12.0597 6.03697 14.4442 4.44369C16.8287 2.85041 19.6322 2 22.5 2C26.3456 2 30.0338 3.52767 32.7531 6.24695C35.4723 8.96623 37 12.6544 37 16.5Z" fill="#2A56F4" fill-opacity="0.2"/>
<path d="M31.5606 30.212C34.5011 28.2505 36.7335 25.3929 37.9277 22.0618C39.122 18.7306 39.2147 15.1028 38.1921 11.7148C37.1695 8.32682 35.086 5.35849 32.2496 3.24878C29.4132 1.13908 25.9745 0 22.442 0C18.9096 0 15.4709 1.13908 12.6345 3.24878C9.79804 5.35849 7.7145 8.32682 6.69193 11.7148C5.66936 15.1028 5.76206 18.7306 6.95632 22.0618C8.15058 25.3929 10.383 28.2505 13.3234 30.212C8.00446 32.1763 3.46193 35.8113 0.373664 40.5745C0.211355 40.8162 0.0986153 41.0878 0.0419976 41.3736C-0.0146201 41.6593 -0.0139862 41.9535 0.0438624 42.239C0.101711 42.5245 0.21562 42.7957 0.378969 43.0367C0.542318 43.2777 0.751849 43.4838 0.99538 43.6429C1.23891 43.8021 1.51159 43.9112 1.79756 43.9638C2.08353 44.0165 2.37709 44.0116 2.66117 43.9496C2.94526 43.8875 3.2142 43.7695 3.45237 43.6024C3.69054 43.4353 3.89318 43.2224 4.04852 42.9762C6.0406 39.9061 8.76649 37.3833 11.9786 35.6369C15.1908 33.8905 18.7875 32.9757 22.442 32.9757C26.0966 32.9757 29.6932 33.8905 32.9054 35.6369C36.1176 37.3833 38.8434 39.9061 40.8355 42.9762C41.1573 43.4554 41.6544 43.7884 42.2193 43.9034C42.7842 44.0183 43.3716 43.9058 43.8544 43.5903C44.3372 43.2747 44.6767 42.7815 44.7994 42.2171C44.9222 41.6528 44.8183 41.0627 44.5104 40.5745C41.4221 35.8113 36.8796 32.1763 31.5606 30.212ZM10.3753 16.4943C10.3753 14.1029 11.083 11.7653 12.4089 9.77695C13.7348 7.78861 15.6194 6.23889 17.8243 5.32375C20.0292 4.40862 22.4554 4.16918 24.7961 4.63571C27.1368 5.10224 29.2869 6.25379 30.9745 7.94473C32.662 9.63568 33.8113 11.7901 34.2769 14.1355C34.7425 16.4809 34.5035 18.912 33.5902 21.1213C32.6769 23.3306 31.1303 25.219 29.1459 26.5475C27.1616 27.8761 24.8286 28.5852 22.442 28.5852C19.2428 28.5816 16.1757 27.3066 13.9136 25.0399C11.6514 22.7732 10.3789 19.6999 10.3753 16.4943ZM68.0048 43.6164C67.5175 43.9348 66.9239 44.0463 66.3545 43.9262C65.7852 43.8061 65.2868 43.4644 64.9689 42.9762C62.9792 39.9043 60.2537 37.3804 57.0409 35.6347C53.8281 33.889 50.2302 32.977 46.5754 32.9819C45.9936 32.9819 45.4355 32.7503 45.0241 32.338C44.6126 31.9258 44.3815 31.3666 44.3815 30.7836C44.3815 30.2005 44.6126 29.6414 45.0241 29.2291C45.4355 28.8168 45.9936 28.5852 46.5754 28.5852C48.3524 28.5835 50.1071 28.1886 51.7142 27.4286C53.3212 26.6687 54.7409 25.5625 55.8718 24.189C57.0027 22.8155 57.8169 21.2087 58.2562 19.4834C58.6955 17.7581 58.7491 15.9569 58.4131 14.2084C58.0772 12.46 57.36 10.8074 56.3127 9.36889C55.2655 7.93036 53.9141 6.74135 52.3551 5.88681C50.7961 5.03227 49.068 4.5333 47.2943 4.42555C45.5205 4.3178 43.7449 4.60393 42.0943 5.26349C41.8252 5.38006 41.5355 5.4414 41.2423 5.44389C40.9491 5.44637 40.6584 5.38994 40.3873 5.27794C40.1163 5.16594 39.8704 5.00064 39.6642 4.79181C39.4579 4.58297 39.2956 4.33484 39.1867 4.06206C39.0778 3.78929 39.0246 3.49742 39.0302 3.20369C39.0358 2.90996 39.1001 2.62033 39.2193 2.35192C39.3385 2.08351 39.5101 1.84176 39.7241 1.64095C39.9382 1.44015 40.1902 1.28437 40.4653 1.18281C44.2429 -0.326769 48.4446 -0.381093 52.2598 1.03031C56.075 2.44172 59.2334 5.21885 61.1257 8.82596C63.018 12.4331 63.5101 16.6146 62.507 20.5638C61.504 24.513 59.0769 27.9501 55.694 30.212C61.013 32.1763 65.5555 35.8113 68.6438 40.5745C68.9616 41.0628 69.0728 41.6576 68.9529 42.228C68.8331 42.7985 68.4921 43.2979 68.0048 43.6164Z" fill="#2A56F4"/>
</svg>
