<svg width="61" height="39" viewBox="0 0 61 39" fill="none" xmlns="http://www.w3.org/2000/svg">
<path opacity="0.2" d="M59 37H2L21.7308 2H39.2692L59 37Z" fill="#2A56F4"/>
<path d="M59.8807 38.7208C59.6306 38.861 59.3552 38.9507 59.0701 38.9846C58.7851 39.0186 58.4961 38.9962 58.2198 38.9187C57.9435 38.8412 57.6854 38.7101 57.4602 38.533C57.235 38.3559 57.0472 38.1363 56.9077 37.8868L37.9369 4.3324H32.6769V6.49859C32.6769 7.0731 32.4474 7.62409 32.039 8.03033C31.6305 8.43657 31.0765 8.66479 30.4989 8.66479C29.9212 8.66479 29.3672 8.43657 28.9588 8.03033C28.5503 7.62409 28.3208 7.0731 28.3208 6.49859V4.3324H23.0608L4.09007 37.8868C3.80702 38.3895 3.33477 38.7598 2.77722 38.9162C2.21967 39.0726 1.62248 39.0023 1.11703 38.7208C0.611587 38.4393 0.239283 37.9696 0.0820249 37.4151C-0.0752333 36.8606 -0.00456424 36.2666 0.278486 35.7639L18.0622 4.3324H2.18428C1.60662 4.3324 1.05263 4.10417 0.644165 3.69793C0.235702 3.29169 0.00623032 2.74071 0.00623032 2.1662C0.00623032 1.59169 0.235702 1.04071 0.644165 0.634465C1.05263 0.228224 1.60662 0 2.18428 0H58.8135C59.3911 0 59.9451 0.228224 60.3536 0.634465C60.762 1.04071 60.9915 1.59169 60.9915 2.1662C60.9915 2.74071 60.762 3.29169 60.3536 3.69793C59.9451 4.10417 59.3911 4.3324 58.8135 4.3324H42.9355L60.7193 35.7639C60.8602 36.0126 60.9504 36.2866 60.9845 36.5701C61.0187 36.8536 60.9961 37.141 60.9182 37.4158C60.8403 37.6906 60.7085 37.9473 60.5305 38.1713C60.3524 38.3953 60.1316 38.582 59.8807 38.7208ZM30.4989 15.1634C29.9212 15.1634 29.3672 15.3916 28.9588 15.7978C28.5503 16.2041 28.3208 16.7551 28.3208 17.3296V21.662C28.3208 22.2365 28.5503 22.7875 28.9588 23.1937C29.3672 23.6 29.9212 23.8282 30.4989 23.8282C31.0765 23.8282 31.6305 23.6 32.039 23.1937C32.4474 22.7875 32.6769 22.2365 32.6769 21.662V17.3296C32.6769 16.7551 32.4474 16.2041 32.039 15.7978C31.6305 15.3916 31.0765 15.1634 30.4989 15.1634ZM30.4989 30.3268C29.9212 30.3268 29.3672 30.555 28.9588 30.9612C28.5503 31.3675 28.3208 31.9185 28.3208 32.493V36.8254C28.3208 37.3999 28.5503 37.9509 28.9588 38.3571C29.3672 38.7633 29.9212 38.9916 30.4989 38.9916C31.0765 38.9916 31.6305 38.7633 32.039 38.3571C32.4474 37.9509 32.6769 37.3999 32.6769 36.8254V32.493C32.6769 31.9185 32.4474 31.3675 32.039 30.9612C31.6305 30.555 31.0765 30.3268 30.4989 30.3268Z" fill="#2A56F4"/>
</svg>
