<svg width="50" height="61" viewBox="0 0 50 61" fill="none" xmlns="http://www.w3.org/2000/svg">
<path opacity="0.2" d="M30 9C30 10.3845 29.5895 11.7378 28.8203 12.889C28.0511 14.0401 26.9579 14.9373 25.6788 15.4672C24.3997 15.997 22.9922 16.1356 21.6344 15.8655C20.2765 15.5954 19.0292 14.9287 18.0503 13.9497C17.0713 12.9708 16.4046 11.7235 16.1345 10.3656C15.8644 9.00776 16.003 7.6003 16.5328 6.32121C17.0627 5.04213 17.9599 3.94888 19.111 3.17971C20.2622 2.41054 21.6155 2 23 2C24.8565 2 26.637 2.7375 27.9497 4.05025C29.2625 5.36301 30 7.14348 30 9Z" fill="#2A56F4"/>
<path d="M22.7434 18.0802C24.5403 18.0802 26.2968 17.55 27.7909 16.5567C29.2849 15.5633 30.4494 14.1515 31.137 12.4996C31.8247 10.8477 32.0046 9.03008 31.654 7.27647C31.3035 5.52286 30.4382 3.91207 29.1676 2.64779C27.897 1.38351 26.2782 0.522522 24.5158 0.173707C22.7535 -0.175107 20.9267 0.00391691 19.2666 0.688141C17.6065 1.37237 16.1876 2.53106 15.1893 4.0177C14.191 5.50433 13.6582 7.25215 13.6582 9.04011C13.6582 11.4377 14.6153 13.7371 16.3192 15.4324C18.023 17.1278 20.3338 18.0802 22.7434 18.0802ZM22.7434 4.52006C23.6418 4.52006 24.5201 4.78515 25.2671 5.28182C26.0142 5.77849 26.5964 6.48443 26.9402 7.31036C27.284 8.13629 27.374 9.04512 27.1987 9.92193C27.0234 10.7987 26.5908 11.6041 25.9555 12.2363C25.3202 12.8684 24.5108 13.2989 23.6296 13.4733C22.7484 13.6477 21.8351 13.5582 21.005 13.2161C20.1749 12.874 19.4655 12.2946 18.9663 11.5513C18.4672 10.808 18.2008 9.93409 18.2008 9.04011C18.2008 7.84132 18.6794 6.69162 19.5313 5.84395C20.3832 4.99627 21.5386 4.52006 22.7434 4.52006ZM0.0303176 20.3402C0.0303176 19.4463 0.296738 18.5724 0.795886 17.829C1.29503 17.0857 2.00449 16.5064 2.83455 16.1643C3.6646 15.8221 4.57797 15.7326 5.45915 15.907C6.34033 16.0814 7.14975 16.5119 7.78504 17.1441C8.42034 17.7762 8.85298 18.5816 9.02826 19.4584C9.20354 20.3352 9.11358 21.2441 8.76976 22.07C8.42594 22.8959 7.8437 23.6019 7.09667 24.0985C6.34964 24.5952 5.47137 24.8603 4.57293 24.8603C3.36815 24.8603 2.21272 24.3841 1.36082 23.5364C0.508913 22.6887 0.0303176 21.539 0.0303176 20.3402ZM49.4994 24.4676C49.1235 24.9357 48.5762 25.2362 47.9778 25.303C47.3794 25.3697 46.7789 25.1973 46.3082 24.8236C45.9817 24.5721 39.5766 19.8233 29.4664 24.9959C29.3869 27.8703 29.1023 30.7356 28.6147 33.5699L37.822 41.1975C38.1733 41.4885 38.4282 41.8782 38.5533 42.3157C38.6784 42.7532 38.668 43.2181 38.5233 43.6496L33.9807 57.2097C33.7902 57.7784 33.3804 58.2485 32.8416 58.5166C32.3028 58.7847 31.679 58.8288 31.1075 58.6392C30.536 58.4497 30.0635 58.0419 29.7941 57.5058C29.5247 56.9696 29.4804 56.349 29.6709 55.7803L33.7223 43.6835L27.4535 38.4854C27.044 39.8596 26.5606 41.211 26.0055 42.5337C22.1017 51.7829 15.109 57.9669 5.22309 60.919C4.65108 61.0756 4.04019 61.0033 3.52106 60.7176C3.00193 60.4318 2.61577 59.9553 2.44516 59.3899C2.27455 58.8245 2.33304 58.2151 2.6081 57.6921C2.88317 57.1691 3.35299 56.7739 3.91709 56.5911C21.145 51.4467 24.1147 36.1887 24.762 27.8746C17.0651 32.7365 10.9809 33.9004 6.94645 33.9004C5.04599 33.9068 3.15804 33.5945 1.36187 32.9766C0.88141 32.7677 0.488382 32.3998 0.249477 31.9354C0.0105714 31.471 -0.0594956 30.9386 0.0511651 30.4287C0.161826 29.9187 0.446398 29.4625 0.856594 29.1376C1.26679 28.8126 1.77734 28.6389 2.30162 28.6458C2.62626 28.6454 2.94705 28.7158 3.24138 28.8521C3.24138 28.8521 10.8389 31.8692 23.7371 23.1455C38.5829 13.1053 48.7214 20.9504 49.1502 21.2895C49.3829 21.4753 49.5765 21.7049 49.72 21.9652C49.8636 22.2255 49.9541 22.5114 49.9865 22.8065C50.019 23.1017 49.9926 23.4003 49.9091 23.6853C49.8255 23.9703 49.6863 24.2362 49.4994 24.4676Z" fill="#2A56F4"/>
</svg>
