<svg width="46" height="54" viewBox="0 0 46 54" fill="none" xmlns="http://www.w3.org/2000/svg">
<path opacity="0.2" d="M44 4.08333V16.5833L39.8 20.75V49.9167C39.8 50.4692 39.5788 50.9991 39.1849 51.3898C38.7911 51.7805 38.257 52 37.7 52H29.3V33.25C29.3 31.5924 28.6363 30.0027 27.4548 28.8306C26.2733 27.6585 24.6709 27 23 27C21.3291 27 19.7267 27.6585 18.5452 28.8306C17.3637 30.0027 16.7 31.5924 16.7 33.25V52H8.3C7.74305 52 7.2089 51.7805 6.81508 51.3898C6.42125 50.9991 6.2 50.4692 6.2 49.9167V20.75L2 16.5833V4.08333C2 3.5308 2.22125 3.0009 2.61508 2.61019C3.0089 2.21949 3.54305 2 4.1 2H8.3C8.85695 2 9.3911 2.21949 9.78492 2.61019C10.1787 3.0009 10.4 3.5308 10.4 4.08333V8.25C10.4 8.80253 10.6212 9.33244 11.0151 9.72314C11.4089 10.1138 11.943 10.3333 12.5 10.3333H16.7C17.257 10.3333 17.7911 10.1138 18.1849 9.72314C18.5787 9.33244 18.8 8.80253 18.8 8.25V4.08333C18.8 3.5308 19.0212 3.0009 19.4151 2.61019C19.8089 2.21949 20.343 2 20.9 2H25.1C25.657 2 26.1911 2.21949 26.5849 2.61019C26.9788 3.0009 27.2 3.5308 27.2 4.08333V8.25C27.2 8.80253 27.4212 9.33244 27.8151 9.72314C28.2089 10.1138 28.743 10.3333 29.3 10.3333H33.5C34.057 10.3333 34.5911 10.1138 34.9849 9.72314C35.3788 9.33244 35.6 8.80253 35.6 8.25V4.08333C35.6 3.5308 35.8212 3.0009 36.2151 2.61019C36.6089 2.21949 37.143 2 37.7 2H41.9C42.457 2 42.9911 2.21949 43.3849 2.61019C43.7788 3.0009 44 3.5308 44 4.08333Z" fill="#355FF3"/>
<path d="M41.8182 0H37.6363C36.5273 0 35.4636 0.437636 34.6794 1.21663C33.8951 1.99563 33.4545 3.05218 33.4545 4.15385V8.30769H29.2727V4.15385C29.2727 3.05218 28.8321 1.99563 28.0479 1.21663C27.2637 0.437636 26.2 0 25.0909 0H20.9091C19.8 0 18.7363 0.437636 17.9521 1.21663C17.1679 1.99563 16.7273 3.05218 16.7273 4.15385V8.30769H12.5455V4.15385C12.5455 3.05218 12.1049 1.99563 11.3206 1.21663C10.5364 0.437636 9.47274 0 8.36365 0H4.18184C3.07275 0 2.00909 0.437636 1.22485 1.21663C0.440604 1.99563 2.11572e-05 3.05218 2.11572e-05 4.15385V15.7561C-0.00173399 16.3018 0.105729 16.8423 0.316164 17.3464C0.526599 17.8505 0.835808 18.308 1.22582 18.6923L4.18184 21.6286V49.8462C4.18184 50.9478 4.62242 52.0044 5.40666 52.7834C6.1909 53.5624 7.25456 54 8.36365 54H37.6363C38.7454 54 39.8091 53.5624 40.5933 52.7834C41.3776 52.0044 41.8182 50.9478 41.8182 49.8462V21.6286L44.7742 18.6923C45.1642 18.308 45.4734 17.8505 45.6838 17.3464C45.8943 16.8423 46.0017 16.3018 46 15.7561V4.15385C46 3.05218 45.5594 1.99563 44.7752 1.21663C43.9909 0.437636 42.9272 0 41.8182 0ZM27.1818 49.8462H18.8182V33.2308C18.8182 32.1291 19.2588 31.0726 20.043 30.2936C20.8273 29.5146 21.8909 29.0769 23 29.0769C24.1091 29.0769 25.1727 29.5146 25.957 30.2936C26.7412 31.0726 27.1818 32.1291 27.1818 33.2308V49.8462ZM41.8182 15.7561L38.8621 18.6923C38.4721 19.0766 38.1629 19.5341 37.9525 20.0382C37.7421 20.5423 37.6346 21.0829 37.6363 21.6286V49.8462H31.3636V33.2308C31.3636 31.0274 30.4825 28.9143 28.914 27.3563C27.3455 25.7984 25.2182 24.9231 23 24.9231C20.7818 24.9231 18.6545 25.7984 17.086 27.3563C15.5175 28.9143 14.6364 31.0274 14.6364 33.2308V49.8462H8.36365V21.6286C8.3654 21.0829 8.25794 20.5423 8.04751 20.0382C7.83707 19.5341 7.52786 19.0766 7.13785 18.6923L4.18184 15.7561V4.15385H8.36365V8.30769C8.36365 9.40936 8.80423 10.4659 9.58848 11.2449C10.3727 12.0239 11.4364 12.4615 12.5455 12.4615H16.7273C17.8364 12.4615 18.9 12.0239 19.6843 11.2449C20.4685 10.4659 20.9091 9.40936 20.9091 8.30769V4.15385H25.0909V8.30769C25.0909 9.40936 25.5315 10.4659 26.3157 11.2449C27.1 12.0239 28.1636 12.4615 29.2727 12.4615H33.4545C34.5636 12.4615 35.6273 12.0239 36.4115 11.2449C37.1958 10.4659 37.6363 9.40936 37.6363 8.30769V4.15385H41.8182V15.7561Z" fill="#355FF3"/>
</svg>
