<svg width="45" height="56" viewBox="0 0 45 56" fill="none" xmlns="http://www.w3.org/2000/svg">
<path opacity="0.2" d="M43 11.4545V26.0909C37.4305 26.0909 32.089 28.2938 28.1508 32.215C24.2125 36.1363 22 41.4546 22 47C22 41.4546 19.7875 36.1363 15.8492 32.215C11.911 28.2938 6.56955 26.0909 1 26.0909V11.4545C4.28777 11.4519 7.52985 12.2211 10.4631 13.6997C13.5003 5.23148 22 1 22 1C22 1 30.5024 5.23148 33.55 13.697C36.4793 12.2207 39.7168 11.4524 43 11.4545Z" fill="#2A56F4"/>
<path d="M42.9545 10.3652C40.1682 10.3652 37.4064 10.8928 34.8111 11.921C31.1497 4.22011 23.7528 0.393011 23.4153 0.219288C23.1312 0.0750809 22.8178 0 22.5 0C22.1822 0 21.8688 0.0750809 21.5847 0.219288C21.2446 0.393011 13.8503 4.22011 10.1889 11.921C7.5936 10.8928 4.83177 10.3652 2.04545 10.3652C1.50297 10.3652 0.982697 10.5838 0.5991 10.9728C0.215503 11.3618 0 11.8894 0 12.4396V33.1826C0 39.2342 2.37053 45.0379 6.5901 49.3169C10.8097 53.596 16.5326 56 22.5 56C28.4674 56 34.1903 53.596 38.4099 49.3169C42.6295 45.0379 45 39.2342 45 33.1826V12.4396C45 11.8894 44.7845 11.3618 44.4009 10.9728C44.0173 10.5838 43.497 10.3652 42.9545 10.3652ZM20.4545 51.7373C15.9563 51.2216 11.8025 49.0454 8.78468 45.6235C5.76689 42.2017 4.09616 37.7734 4.09091 33.1826V29.1481C8.58914 29.6638 12.743 31.84 15.7608 35.2619C18.7786 38.6837 20.4493 43.112 20.4545 47.7028V51.7373ZM20.4545 34.5983C18.5787 31.887 16.1433 29.6223 13.3175 27.9616C10.4917 26.3008 7.34329 25.2839 4.09091 24.9813V14.6279C8.58914 15.1437 12.743 17.3199 15.7608 20.7417C18.7786 24.1636 20.4493 28.5919 20.4545 33.1826V34.5983ZM13.8452 13.7645C16.2026 8.78099 20.6028 5.63582 22.5 4.45347C24.4023 5.63064 28.7898 8.75766 31.1523 13.7645C27.3699 16.1365 24.3605 19.586 22.5 23.6823C20.6388 19.5857 17.6285 16.1361 13.8452 13.7645ZM40.9091 33.1826C40.9038 37.7734 39.2331 42.2017 36.2153 45.6235C33.1975 49.0454 29.0437 51.2216 24.5455 51.7373V47.7028C24.5507 43.112 26.2214 38.6837 29.2392 35.2619C32.257 31.84 36.4109 29.6638 40.9091 29.1481V33.1826ZM40.9091 24.9813C37.6567 25.2839 34.5083 26.3008 31.6825 27.9616C28.8567 29.6223 26.4213 31.887 24.5455 34.5983V33.1826C24.5507 28.5919 26.2214 24.1636 29.2392 20.7417C32.257 17.3199 36.4109 15.1437 40.9091 14.6279V24.9813Z" fill="#2A56F4"/>
</svg>
