<svg width="55" height="51" viewBox="0 0 55 51" fill="none" xmlns="http://www.w3.org/2000/svg">
<path opacity="0.2" d="M4.125 11H16.875V49H4.125C3.56141 49 3.02091 48.7776 2.6224 48.3817C2.22388 47.9858 2 47.4488 2 46.8889V13.1111C2 12.5512 2.22388 12.0142 2.6224 11.6183C3.02091 11.2224 3.56141 11 4.125 11ZM50.875 11H38.125V49H50.875C51.4386 49 51.9791 48.7776 52.3776 48.3817C52.7761 47.9858 53 47.4488 53 46.8889V13.1111C53 12.5512 52.7761 12.0142 52.3776 11.6183C51.9791 11.2224 51.4386 11 50.875 11Z" fill="#2A56F4"/>
<path d="M50.7692 8.5H40.1923V6.375C40.1923 4.68424 39.5237 3.06274 38.3336 1.86719C37.1434 0.67165 35.5293 0 33.8462 0H21.1538C19.4707 0 17.8566 0.67165 16.6664 1.86719C15.4763 3.06274 14.8077 4.68424 14.8077 6.375V8.5H4.23077C3.1087 8.5 2.03259 8.94777 1.23916 9.7448C0.44574 10.5418 0 11.6228 0 12.75V46.75C0 47.8772 0.44574 48.9582 1.23916 49.7552C2.03259 50.5522 3.1087 51 4.23077 51H50.7692C51.8913 51 52.9674 50.5522 53.7608 49.7552C54.5543 48.9582 55 47.8772 55 46.75V12.75C55 11.6228 54.5543 10.5418 53.7608 9.7448C52.9674 8.94777 51.8913 8.5 50.7692 8.5ZM19.0385 6.375C19.0385 5.81141 19.2613 5.27091 19.658 4.8724C20.0548 4.47388 20.5928 4.25 21.1538 4.25H33.8462C34.4072 4.25 34.9452 4.47388 35.342 4.8724C35.7387 5.27091 35.9615 5.81141 35.9615 6.375V8.5H19.0385V6.375ZM35.9615 12.75V46.75H19.0385V12.75H35.9615ZM4.23077 12.75H14.8077V46.75H4.23077V12.75ZM50.7692 46.75H40.1923V12.75H50.7692V46.75Z" fill="#2A56F4"/>
</svg>
