<svg width="66" height="48" viewBox="0 0 66 48" fill="none" xmlns="http://www.w3.org/2000/svg">
<path opacity="0.2" d="M64 25.1C64 30.567 54.0855 35 41.8571 35C36.4321 35 31.4611 34.1282 27.611 32.679C38.1925 31.9337 46.2857 27.85 46.2857 22.9V15.398C56.3939 16.3165 64 20.3095 64 25.1ZM46.2857 11.9C46.2857 6.433 36.3712 2 24.1429 2C11.9145 2 2 6.433 2 11.9C2 17.367 11.9145 21.8 24.1429 21.8C36.3712 21.8 46.2857 17.367 46.2857 11.9Z" fill="#2A56F4"/>
<path d="M48.4 13.5191V12C48.4 5.16 37.9968 0 24.2 0C10.4033 0 0 5.16 0 12V22.9091C0 28.6064 7.21875 33.1336 17.6 34.4891V36C17.6 42.84 28.0033 48 41.8 48C55.5968 48 66 42.84 66 36V25.0909C66 19.4455 59.0095 14.9127 48.4 13.5191ZM61.6 25.0909C61.6 28.6964 53.1328 32.7273 41.8 32.7273C40.7743 32.7273 39.7568 32.6918 38.753 32.6264C44.6848 30.4827 48.4 27 48.4 22.9091V17.9291C56.6143 19.1427 61.6 22.4373 61.6 25.0909ZM17.6 30.0682V23.58C19.7884 23.8628 21.9931 24.0031 24.2 24C26.4069 24.0031 28.6116 23.8628 30.8 23.58V30.0682C28.6149 30.3883 26.4089 30.5479 24.2 30.5455C21.9911 30.5479 19.7851 30.3883 17.6 30.0682ZM44 19.0718V22.9091C44 25.1973 40.5873 27.6545 35.2 29.1464V22.7727C38.7503 21.9191 41.756 20.6482 44 19.0718ZM24.2 4.36364C35.5328 4.36364 44 8.39455 44 12C44 15.6055 35.5328 19.6364 24.2 19.6364C12.8673 19.6364 4.4 15.6055 4.4 12C4.4 8.39455 12.8673 4.36364 24.2 4.36364ZM4.4 22.9091V19.0718C6.644 20.6482 9.64975 21.9191 13.2 22.7727V29.1464C7.81275 27.6545 4.4 25.1973 4.4 22.9091ZM22 36V34.8627C22.7233 34.89 23.4548 34.9091 24.2 34.9091C25.267 34.9091 26.3093 34.8736 27.3323 34.8136C28.4687 35.2171 29.6263 35.5594 30.8 35.8391V42.2373C25.4128 40.7455 22 38.2882 22 36ZM35.2 43.1591V36.6545C37.3877 36.9462 39.5926 37.092 41.8 37.0909C44.0069 37.094 46.2116 36.9537 48.4 36.6709V43.1591C44.0234 43.7954 39.5766 43.7954 35.2 43.1591ZM52.8 42.2373V35.8636C56.3503 35.01 59.356 33.7391 61.6 32.1627V36C61.6 38.2882 58.1873 40.7455 52.8 42.2373Z" fill="#2A56F4"/>
</svg>
