<svg width="58" height="53" viewBox="0 0 58 53" fill="none" xmlns="http://www.w3.org/2000/svg">
<path opacity="0.2" d="M56 2.40909V50.5909C56 51.2298 55.7414 51.8426 55.2811 52.2944C54.8208 52.7462 54.1964 53 53.5455 53H4.45455C3.80356 53 3.17924 52.7462 2.71892 52.2944C2.2586 51.8426 2 51.2298 2 50.5909V2.40909C2 1.77016 2.2586 1.1574 2.71892 0.705607C3.17924 0.253815 3.80356 0 4.45455 0H53.5455C54.1964 0 54.8208 0.253815 55.2811 0.705607C55.7414 1.1574 56 1.77016 56 2.40909Z" fill="#2A56F4"/>
<path d="M58 35.6C58 36.2365 57.7454 36.847 57.2922 37.2971C56.839 37.7471 56.2243 38 55.5833 38H2.41667C1.77573 38 1.16104 37.7471 0.707826 37.2971C0.254613 36.847 0 36.2365 0 35.6C0 34.9635 0.254613 34.353 0.707826 33.9029C1.16104 33.4529 1.77573 33.2 2.41667 33.2H55.5833C56.2243 33.2 56.839 33.4529 57.2922 33.9029C57.7454 34.353 58 34.9635 58 35.6ZM2.41667 18.8H55.5833C56.2243 18.8 56.839 18.5471 57.2922 18.0971C57.7454 17.647 58 17.0365 58 16.4C58 15.7635 57.7454 15.153 57.2922 14.7029C56.839 14.2529 56.2243 14 55.5833 14H2.41667C1.77573 14 1.16104 14.2529 0.707826 14.7029C0.254613 15.153 0 15.7635 0 16.4C0 17.0365 0.254613 17.647 0.707826 18.0971C1.16104 18.5471 1.77573 18.8 2.41667 18.8Z" fill="#2A56F4"/>
</svg>
