<svg width="56" height="56" viewBox="0 0 56 56" fill="none" xmlns="http://www.w3.org/2000/svg">
<path opacity="0.2" d="M31.415 9.41607L15.4161 25.415C15.2303 25.6009 15.0098 25.7484 14.767 25.8491C14.5242 25.9497 14.264 26.0015 14.0012 26.0015C13.7384 26.0015 13.4781 25.9497 13.2353 25.8491C12.9926 25.7484 12.772 25.6009 12.5863 25.415L8.58653 21.4152C8.40059 21.2295 8.25309 21.009 8.15244 20.7662C8.0518 20.5234 8 20.2632 8 20.0003C8 19.7375 8.0518 19.4773 8.15244 19.2345C8.25309 18.9917 8.40059 18.7712 8.58653 18.5854L24.5854 2.58653C24.7712 2.40059 24.9917 2.25308 25.2345 2.15244C25.4773 2.0518 25.7375 2 26.0003 2C26.2632 2 26.5234 2.0518 26.7662 2.15244C27.009 2.25308 27.2295 2.40059 27.4152 2.58653L31.415 6.58626C31.6009 6.77199 31.7484 6.99256 31.8491 7.23534C31.9497 7.47811 32.0015 7.73835 32.0015 8.00116C32.0015 8.26398 31.9497 8.52421 31.8491 8.76699C31.7484 9.00977 31.6009 9.23033 31.415 9.41607ZM53.4135 28.5848L49.4137 24.585C49.228 24.3991 49.0075 24.2516 48.7647 24.1509C48.5219 24.0503 48.2617 23.9985 47.9988 23.9985C47.736 23.9985 47.4758 24.0503 47.233 24.1509C46.9902 24.2516 46.7697 24.3991 46.5839 24.585L30.585 40.5839C30.3991 40.7697 30.2516 40.9902 30.1509 41.233C30.0503 41.4758 29.9985 41.736 29.9985 41.9988C29.9985 42.2617 30.0503 42.5219 30.1509 42.7647C30.2516 43.0074 30.3991 43.228 30.585 43.4137L34.5848 47.4135C34.7705 47.5994 34.9911 47.7469 35.2338 47.8476C35.4766 47.9482 35.7368 48 35.9997 48C36.2625 48 36.5227 47.9482 36.7655 47.8476C37.0083 47.7469 37.2288 47.5994 37.4146 47.4135L53.4135 31.4146C53.5994 31.2288 53.7469 31.0083 53.8476 30.7655C53.9482 30.5227 54 30.2625 54 29.9997C54 29.7368 53.9482 29.4766 53.8476 29.2338C53.7469 28.9911 53.5994 28.7705 53.4135 28.5848Z" fill="#2A56F4"/>
<path d="M54.8242 27.2648L50.8107 23.2515C50.13 22.5716 49.2277 22.1588 48.2682 22.0884C47.3087 22.018 46.3558 22.2945 45.5831 22.8677L33.1313 10.4164C33.7048 9.64406 33.9818 8.69139 33.9118 7.73193C33.8418 6.77247 33.4295 5.87007 32.75 5.1891L28.7365 1.17579C28.3638 0.803027 27.9213 0.507327 27.4343 0.305582C26.9473 0.103838 26.4254 0 25.8982 0C25.3711 0 24.8491 0.103838 24.3621 0.305582C23.8751 0.507327 23.4326 0.803027 23.0599 1.17579L7.00599 17.229C6.63321 17.6017 6.3375 18.0442 6.13574 18.5311C5.93399 19.0181 5.83015 19.5401 5.83015 20.0672C5.83015 20.5943 5.93399 21.1162 6.13574 21.6032C6.3375 22.0902 6.63321 22.5326 7.00599 22.9053L11.0195 26.9186C11.7003 27.5975 12.6023 28.0094 13.5612 28.0793C14.5201 28.1493 15.4723 27.8727 16.2445 27.2999L18.0431 29.0984L1.64297 45.4977C0.553414 46.6893 -0.0345276 48.2552 0.00156894 49.8694C0.0376655 51.4836 0.695018 53.0216 1.83676 54.1633C2.97849 55.305 4.51662 55.9623 6.13088 55.9984C7.74513 56.0345 9.31111 55.4466 10.5027 54.3571L26.9003 37.9577L28.6989 39.7537C28.1253 40.526 27.8483 41.4787 27.9183 42.4382C27.9883 43.3976 28.4006 44.3 29.0802 44.981L33.0936 48.9943C33.4663 49.3671 33.9088 49.6628 34.3958 49.8645C34.8828 50.0663 35.4048 50.1701 35.9319 50.1701C36.4591 50.1701 36.981 50.0663 37.468 49.8645C37.955 49.6628 38.3975 49.3671 38.7702 48.9943L54.8242 32.9411C55.1969 32.5684 55.4927 32.126 55.6944 31.639C55.8962 31.152 56 30.6301 56 30.1029C56 29.5758 55.8962 29.0539 55.6944 28.5669C55.4927 28.0799 55.1969 27.6375 54.8242 27.2648ZM13.8565 24.0817L9.84303 20.0684L25.897 4.01521L29.9104 8.02851L13.8565 24.0817ZM7.66571 51.5177C7.24272 51.9381 6.67053 52.1741 6.07411 52.1741C5.47769 52.1741 4.9055 51.9381 4.48251 51.5177C4.0628 51.0948 3.82727 50.5232 3.82727 49.9274C3.82727 49.3316 4.0628 48.76 4.48251 48.3371L20.8801 31.9378L24.0633 35.1183L7.66571 51.5177ZM19.1242 24.4981L30.3268 13.296L42.7034 25.672L31.5033 36.8741L19.1242 24.4981ZM35.9307 46.1549L31.9172 42.1416L32.9206 41.1383L46.9678 27.0917L47.9711 26.0884L51.9846 30.1017L35.9307 46.1549Z" fill="#2A56F4"/>
</svg>
