<svg width="73" height="51" viewBox="0 0 73 51" fill="none" xmlns="http://www.w3.org/2000/svg">
<path opacity="0.2" d="M57 28.2353L45.5 40L27.1 35.2941L11 23.5294L20.2 4.70588L36.3 0L52.4 4.70588H40.9L27.7727 17.7324C27.5287 17.9819 27.3427 18.2844 27.2284 18.6174C27.1142 18.9505 27.0746 19.3056 27.1128 19.6564C27.1509 20.0072 27.2656 20.3448 27.4485 20.644C27.6315 20.9433 27.8779 21.1967 28.1695 21.3853C33.2036 24.6765 40.0375 24.45 45.5 18.8235L57 28.2353Z" fill="#355FF3"/>
<path d="M34.0985 49.2442C33.9725 49.7457 33.6815 50.1908 33.2718 50.5089C32.8621 50.8271 32.3573 50.9999 31.8375 51C31.6411 51.0009 31.4453 50.9775 31.2547 50.9304L21.9307 48.6126C21.6711 48.5478 21.4247 48.439 21.2022 48.291L14.2092 43.6554C13.6949 43.3143 13.338 42.7839 13.217 42.1811C13.0959 41.5782 13.2207 40.9523 13.5638 40.4409C13.9069 39.9295 14.4403 39.5746 15.0465 39.4543C15.6528 39.3339 16.2823 39.458 16.7966 39.7992L23.4516 44.2117L32.3852 46.4339C32.6837 46.5058 32.965 46.6357 33.2128 46.8161C33.4606 46.9965 33.6702 47.2238 33.8294 47.4849C33.9886 47.7461 34.0943 48.036 34.1405 48.3379C34.1867 48.6398 34.1725 48.9478 34.0985 49.2442ZM72.7613 21.2973C72.57 21.8749 72.2655 22.4092 71.8654 22.8692C71.4653 23.3292 70.9776 23.7058 70.4303 23.9773L63.5305 27.4076L47.4815 43.3686C47.1966 43.6515 46.8429 43.8563 46.4548 43.9629C46.0668 44.0695 45.6575 44.0744 45.267 43.977L26.6189 39.3414C26.3353 39.2706 26.0675 39.1478 25.8293 38.9792L9.65206 27.4945L2.57745 23.9773C1.47178 23.4277 0.630881 22.4639 0.239656 21.298C-0.151569 20.1321 -0.0610923 18.8594 0.491192 17.7597L7.73189 3.36327C8.28462 2.26386 9.25382 1.42773 10.4264 1.03872C11.599 0.64971 12.8789 0.739674 13.9848 1.28883L20.4126 4.47581L35.8555 0.0893648C36.2745 -0.0297883 36.7186 -0.0297883 37.1376 0.0893648L52.5805 4.47581L59.0083 1.28883C60.1142 0.739674 61.3941 0.64971 62.5667 1.03872C63.7393 1.42773 64.7085 2.26386 65.2612 3.36327L72.5019 17.7597C72.7781 18.3031 72.9432 18.8955 72.9877 19.5027C73.0323 20.1099 72.9553 20.7199 72.7613 21.2973ZM59.3055 25.0463L51.3772 9.27947H42.1056L29.5064 21.4479C33.1953 23.7918 38.9791 24.4379 44.1685 19.2373C44.5738 18.8311 45.1159 18.5884 45.6904 18.5557C46.2649 18.5231 46.8312 18.7029 47.2804 19.0606L57.3067 27.0483L59.3055 25.0463ZM4.66079 19.8313L9.81523 22.3954L17.0559 7.99888L11.9015 5.43481L4.66079 19.8313ZM53.9821 30.3309L45.908 23.9019C40.2145 28.5375 32.9855 29.1489 26.9948 25.3506C26.4055 24.9778 25.908 24.4782 25.5389 23.8886C25.1699 23.299 24.9388 22.6345 24.8627 21.9442C24.7866 21.2539 24.8675 20.5554 25.0994 19.9003C25.3312 19.2452 25.7081 18.6503 26.2022 18.1596C26.2093 18.1511 26.2171 18.1434 26.2256 18.1364L39.2967 5.53041L36.4995 4.73657L21.8083 8.91152L13.8333 24.7682L28.169 34.9521L45.1097 39.1618L53.9821 30.3309ZM68.3294 19.8313L61.0975 5.43481L55.943 7.99888L63.1837 22.3954L68.3294 19.8313Z" fill="#355FF3"/>
</svg>
