<svg width="63" height="52" viewBox="0 0 63 52" fill="none" xmlns="http://www.w3.org/2000/svg">
<path opacity="0.2" d="M55 23.7936V50H37.9091V35.3916C37.9091 34.8381 37.684 34.3073 37.2834 33.9159C36.8827 33.5246 36.3393 33.3047 35.7727 33.3047H27.2273C26.6607 33.3047 26.1173 33.5246 25.7166 33.9159C25.316 34.3073 25.0909 34.8381 25.0909 35.3916V50H8V23.7936C8.00003 23.5028 8.06228 23.2151 8.18277 22.9492C8.30326 22.6833 8.47932 22.4448 8.69966 22.2493L30.0633 2.54358C30.4567 2.19383 30.9694 2 31.5013 2C32.0332 2 32.546 2.19383 32.9394 2.54358L54.303 22.2493C54.5229 22.4451 54.6984 22.6836 54.8185 22.9495C54.9385 23.2155 55.0003 23.5029 55 23.7936Z" fill="#355FF3"/>
<path d="M60.9 47.8396H56.7V23.8006C56.7001 23.2248 56.5795 22.6553 56.3459 22.128C56.1123 21.6008 55.7708 21.1273 55.3429 20.7375L34.3429 1.11107C34.3326 1.1022 34.323 1.09264 34.314 1.08247C33.5408 0.385957 32.5333 0 31.4882 0C30.4431 0 29.4355 0.385957 28.6624 1.08247L28.6335 1.11107L7.65712 20.7375C7.22924 21.1273 6.88769 21.6008 6.65409 22.128C6.42049 22.6553 6.29991 23.2248 6.3 23.8006V47.8396H2.1C1.54305 47.8396 1.0089 48.0588 0.615076 48.4489C0.221249 48.839 0 49.3681 0 49.9198C0 50.4715 0.221249 51.0006 0.615076 51.3907C1.0089 51.7808 1.54305 52 2.1 52H60.9C61.457 52 61.9911 51.7808 62.3849 51.3907C62.7787 51.0006 63 50.4715 63 49.9198C63 49.3681 62.7787 48.839 62.3849 48.4489C61.9911 48.0588 61.457 47.8396 60.9 47.8396ZM10.5 23.8006L10.5289 23.7746L31.5 4.15593L52.4737 23.7694L52.5026 23.7954V47.8396H39.9V35.3586C39.9 34.2552 39.4575 33.197 38.6698 32.4168C37.8822 31.6366 36.8139 31.1982 35.7 31.1982H27.3C26.1861 31.1982 25.1178 31.6366 24.3302 32.4168C23.5425 33.197 23.1 34.2552 23.1 35.3586V47.8396H10.5V23.8006ZM35.7 47.8396H27.3V35.3586H35.7V47.8396Z" fill="#355FF3"/>
</svg>
