<svg width="47" height="47" viewBox="0 0 47 47" fill="none" xmlns="http://www.w3.org/2000/svg">
<path opacity="0.2" d="M7.8575 39.1415C-3.83003 19.6644 11.7623 0.187389 44.8651 2.13485C46.8127 35.2466 27.3351 50.8287 7.8575 39.1415Z" fill="#2A56F4"/>
<path d="M46.8646 1.97559C46.8366 1.49654 46.6337 1.04443 46.2943 0.705114C45.955 0.365794 45.5029 0.162884 45.0238 0.134908C26.3886 -0.959221 11.4618 4.65095 5.09745 15.1761C2.89139 18.7765 1.80429 22.9509 1.97403 27.1699C2.11356 31.0667 3.24934 35.0026 5.34957 38.8823L0.573878 43.6553C0.20643 44.0228 -1.22434e-08 44.5211 0 45.0407C1.22434e-08 45.5604 0.20643 46.0587 0.573878 46.4261C0.941327 46.7936 1.43969 47 1.95934 47C2.47899 47 2.97736 46.7936 3.34481 46.4261L8.11806 41.6506C11.9954 43.7483 15.9339 44.8841 19.8284 45.0236C20.1009 45.0334 20.3727 45.0383 20.6435 45.0383C24.5888 45.0488 28.4593 43.9624 31.8227 41.9003C42.3484 35.5362 47.9612 20.6125 46.8646 1.97559ZM29.8033 38.5518C24.2345 41.9248 17.6425 41.9786 11.0261 38.7403L32.7211 17.0486C32.903 16.8667 33.0474 16.6507 33.1458 16.413C33.2443 16.1753 33.295 15.9205 33.295 15.6632C33.295 15.4059 33.2443 15.1512 33.1458 14.9135C33.0474 14.6757 32.903 14.4598 32.7211 14.2778C32.5391 14.0959 32.3231 13.9516 32.0854 13.8531C31.8477 13.7546 31.5929 13.704 31.3356 13.704C31.0783 13.704 30.8235 13.7546 30.5858 13.8531C30.3481 13.9516 30.1321 14.0959 29.9502 14.2778L8.25758 35.9817C5.02891 29.3729 5.07542 22.7641 8.44606 17.2053C13.8533 8.27846 26.7068 3.39037 43.0362 3.97293C43.6212 20.2894 38.7305 33.1448 29.8033 38.5518Z" fill="#2A56F4"/>
</svg>
