<svg width="60" height="52" viewBox="0 0 60 52" fill="none" xmlns="http://www.w3.org/2000/svg">
<path opacity="0.2" d="M58 20.531C58 21.609 57.6842 22.6628 57.0925 23.5591C56.5009 24.4553 55.6599 25.1539 54.676 25.5664C53.6921 25.979 52.6094 26.0869 51.5649 25.8766C50.5204 25.6663 49.5609 25.1472 48.8079 24.385C48.0548 23.6227 47.542 22.6516 47.3342 21.5943C47.1265 20.5371 47.2331 19.4412 47.6407 18.4453C48.0482 17.4494 48.7384 16.5982 49.6239 15.9993C50.5093 15.4004 51.5504 15.0807 52.6154 15.0807C54.0435 15.0807 55.4131 15.655 56.4229 16.6771C57.4327 17.6992 58 19.0855 58 20.531ZM12.7692 20.531C12.7692 19.4531 12.4534 18.3993 11.8618 17.503C11.2701 16.6067 10.4291 15.9081 9.44522 15.4956C8.46131 15.0831 7.37864 14.9751 6.33413 15.1855C5.28962 15.3958 4.33017 15.9148 3.57712 16.6771C2.82407 17.4393 2.31123 18.4105 2.10347 19.4677C1.8957 20.525 2.00233 21.6209 2.40988 22.6168C2.81743 23.6127 3.50759 24.4639 4.39309 25.0628C5.27858 25.6617 6.31964 25.9813 7.38462 25.9813C8.81271 25.9813 10.1823 25.4071 11.1921 24.385C12.2019 23.3628 12.7692 21.9765 12.7692 20.531ZM20.3077 12.9006C21.3727 12.9006 22.4137 12.581 23.2992 11.9821C24.1847 11.3832 24.8749 10.532 25.2824 9.53605C25.69 8.54013 25.7966 7.44426 25.5888 6.387C25.3811 5.32975 24.8682 4.3586 24.1152 3.59636C23.3621 2.83412 22.4027 2.31503 21.3582 2.10473C20.3137 1.89443 19.231 2.00236 18.2471 2.41488C17.2632 2.8274 16.4222 3.52598 15.8305 4.42228C15.2389 5.31858 14.9231 6.37234 14.9231 7.4503C14.9231 8.89581 15.4904 10.2821 16.5002 11.3042C17.51 12.3264 18.8796 12.9006 20.3077 12.9006ZM39.6923 12.9006C40.7573 12.9006 41.7983 12.581 42.6838 11.9821C43.5693 11.3832 44.2595 10.532 44.667 9.53605C45.0746 8.54013 45.1812 7.44426 44.9735 6.387C44.7657 5.32975 44.2529 4.3586 43.4998 3.59636C42.7468 2.83412 41.7873 2.31503 40.7428 2.10473C39.6983 1.89443 38.6156 2.00236 37.6317 2.41488C36.6478 2.8274 35.8068 3.52598 35.2152 4.42228C34.6235 5.31858 34.3077 6.37234 34.3077 7.4503C34.3077 8.89581 34.875 10.2821 35.8848 11.3042C36.8946 12.3264 38.2642 12.9006 39.6923 12.9006ZM44.8723 33.5709C42.172 32.0576 40.1718 29.5256 39.3073 26.5264C38.7217 24.4864 37.4976 22.6939 35.8192 21.4184C34.1408 20.143 32.0988 19.4534 30 19.4534C27.9012 19.4534 25.8592 20.143 24.1808 21.4184C22.5024 22.6939 21.2783 24.4864 20.6927 26.5264C19.8306 29.5302 17.8302 32.0673 15.1277 33.5845C13.1658 34.6433 11.6842 36.4289 10.9929 38.5678C10.3015 40.7067 10.4538 43.0333 11.418 45.0612C12.3821 47.089 14.0835 48.6611 16.1662 49.4486C18.249 50.2362 20.5519 50.1782 22.5935 49.2868C27.3377 47.3179 32.6569 47.3179 37.4012 49.2868C39.4427 50.1782 41.7456 50.2362 43.8284 49.4486C45.9112 48.6611 47.6125 47.089 48.5767 45.0612C49.5408 43.0333 49.6931 40.7067 49.0018 38.5678C48.3104 36.4289 46.8288 34.6433 44.8669 33.5845L44.8723 33.5709Z" fill="#2A56F4"/>
<path d="M52.5 12.9872C51.0166 12.9872 49.5666 13.4315 48.3332 14.264C47.0999 15.0964 46.1386 16.2796 45.5709 17.6639C45.0033 19.0482 44.8547 20.5715 45.1441 22.0411C45.4335 23.5106 46.1478 24.8605 47.1967 25.92C48.2456 26.9795 49.582 27.7011 51.0368 27.9934C52.4917 28.2857 53.9997 28.1357 55.3701 27.5623C56.7406 26.9889 57.9119 26.0179 58.736 24.772C59.5601 23.5262 60 22.0615 60 20.5631C60 18.5538 59.2098 16.6269 57.8033 15.2061C56.3968 13.7854 54.4891 12.9872 52.5 12.9872ZM52.5 23.8099C51.8643 23.8099 51.2428 23.6195 50.7142 23.2627C50.1857 22.9059 49.7737 22.3989 49.5304 21.8056C49.2871 21.2123 49.2235 20.5595 49.3475 19.9297C49.4715 19.2999 49.7776 18.7213 50.2272 18.2673C50.6767 17.8132 51.2494 17.504 51.8729 17.3787C52.4964 17.2534 53.1427 17.3177 53.7301 17.5634C54.3174 17.8092 54.8194 18.2253 55.1726 18.7593C55.5258 19.2932 55.7143 19.9209 55.7143 20.5631C55.7143 21.4242 55.3756 22.25 54.7728 22.8589C54.17 23.4678 53.3525 23.8099 52.5 23.8099ZM15 20.5631C15 19.0647 14.5601 17.6 13.736 16.3542C12.9119 15.1083 11.7406 14.1373 10.3701 13.5639C8.99968 12.9905 7.49168 12.8405 6.03683 13.1328C4.58197 13.4251 3.2456 14.1466 2.1967 15.2061C1.14781 16.2656 0.433503 17.6155 0.144114 19.0851C-0.145275 20.5547 0.00324962 22.0779 0.570907 23.4623C1.13856 24.8466 2.09986 26.0297 3.33323 26.8622C4.5666 27.6946 6.01664 28.139 7.5 28.139C9.48913 28.139 11.3968 27.3408 12.8033 25.92C14.2098 24.4993 15 22.5723 15 20.5631ZM7.5 23.8099C6.86428 23.8099 6.24283 23.6195 5.71424 23.2627C5.18566 22.9059 4.77367 22.3989 4.53039 21.8056C4.28711 21.2123 4.22346 20.5595 4.34748 19.9297C4.4715 19.2999 4.77763 18.7213 5.22716 18.2673C5.67669 17.8132 6.24942 17.504 6.87293 17.3787C7.49644 17.2534 8.14272 17.3177 8.73006 17.5634C9.31739 17.8092 9.81939 18.2253 10.1726 18.7593C10.5258 19.2932 10.7143 19.9209 10.7143 20.5631C10.7143 21.4242 10.3756 22.25 9.77285 22.8589C9.17005 23.4678 8.35248 23.8099 7.5 23.8099ZM20.3571 15.1518C21.8405 15.1518 23.2906 14.7074 24.5239 13.875C25.7573 13.0425 26.7186 11.8593 27.2862 10.475C27.8539 9.09073 28.0024 7.56747 27.713 6.0979C27.4236 4.62832 26.7093 3.27843 25.6604 2.21893C24.6116 1.15942 23.2752 0.437888 21.8203 0.145572C20.3655 -0.146745 18.8575 0.0032825 17.487 0.576682C16.1166 1.15008 14.9452 2.1211 14.1211 3.36695C13.297 4.61279 12.8571 6.07751 12.8571 7.57588C12.8571 9.58512 13.6473 11.5121 15.0538 12.9328C16.4604 14.3536 18.368 15.1518 20.3571 15.1518ZM20.3571 4.32907C20.9929 4.32907 21.6143 4.5195 22.1429 4.87626C22.6715 5.23302 23.0835 5.7401 23.3268 6.33338C23.57 6.92666 23.6337 7.57948 23.5097 8.2093C23.3856 8.83912 23.0795 9.41764 22.63 9.87171C22.1805 10.3258 21.6077 10.635 20.9842 10.7603C20.3607 10.8856 19.7144 10.8213 19.1271 10.5755C18.5398 10.3298 18.0378 9.91364 17.6846 9.3797C17.3314 8.84577 17.1429 8.21803 17.1429 7.57588C17.1429 6.71477 17.4815 5.88893 18.0843 5.28004C18.6871 4.67115 19.5047 4.32907 20.3571 4.32907ZM39.6429 15.1518C41.1262 15.1518 42.5763 14.7074 43.8096 13.875C45.043 13.0425 46.0043 11.8593 46.572 10.475C47.1396 9.09073 47.2881 7.56747 46.9988 6.0979C46.7094 4.62832 45.9951 3.27843 44.9462 2.21893C43.8973 1.15942 42.5609 0.437888 41.106 0.145572C39.6512 -0.146745 38.1432 0.0032825 36.7727 0.576682C35.4023 1.15008 34.231 2.1211 33.4068 3.36695C32.5827 4.61279 32.1429 6.07751 32.1429 7.57588C32.1429 9.58512 32.933 11.5121 34.3396 12.9328C35.7461 14.3536 37.6537 15.1518 39.6429 15.1518ZM39.6429 4.32907C40.2786 4.32907 40.9 4.5195 41.4286 4.87626C41.9572 5.23302 42.3692 5.7401 42.6125 6.33338C42.8558 6.92666 42.9194 7.57948 42.7954 8.2093C42.6714 8.83912 42.3652 9.41764 41.9157 9.87171C41.4662 10.3258 40.8934 10.635 40.2699 10.7603C39.6464 10.8856 39.0001 10.8213 38.4128 10.5755C37.8255 10.3298 37.3235 9.91364 36.9703 9.3797C36.6171 8.84577 36.4286 8.21803 36.4286 7.57588C36.4286 6.71477 36.7672 5.88893 37.37 5.28004C37.9728 4.67115 38.7904 4.32907 39.6429 4.32907ZM45.8357 31.6185C44.7473 31.0119 43.7879 30.1945 43.0125 29.213C42.2371 28.2316 41.661 27.1053 41.317 25.8987C40.6045 23.4237 39.116 21.2491 37.0753 19.7017C35.0345 18.1544 32.5517 17.3178 30 17.3178C27.4483 17.3178 24.9655 18.1544 22.9247 19.7017C20.884 21.2491 19.3955 23.4237 18.683 25.8987C17.9948 28.3266 16.3813 30.3797 14.1964 31.6076C12.1005 32.7532 10.4425 34.5719 9.48463 36.7761C8.52677 38.9803 8.32374 41.4442 8.90765 43.778C9.49157 46.1118 10.8291 48.1824 12.7087 49.6622C14.5883 51.1421 16.9026 51.9467 19.2857 51.9489C20.7138 51.953 22.128 51.6649 23.4429 51.102C27.635 49.3556 32.3409 49.3556 36.533 51.102C39.0722 52.2175 41.9403 52.2967 44.536 51.3231C47.1317 50.3494 49.2535 48.3985 50.4565 45.8793C51.6595 43.3602 51.8502 40.4684 50.9888 37.8103C50.1274 35.1521 48.2806 32.9341 45.8357 31.6212V31.6185ZM40.7143 47.6198C39.8442 47.6205 38.9831 47.4429 38.183 47.0976C32.9347 44.9078 27.0412 44.9078 21.7929 47.0976C20.2677 47.7609 18.5475 47.8024 16.9928 47.2133C15.438 46.6242 14.1692 45.4502 13.4522 43.9373C12.7352 42.4244 12.6255 40.6899 13.1462 39.0971C13.6669 37.5044 14.7776 36.1769 16.2455 35.3929C17.8239 34.5124 19.2149 33.3263 20.3391 31.9024C21.4633 30.4785 22.2986 28.8448 22.7973 27.0946C23.2502 25.5188 24.1973 24.1341 25.4962 23.1487C26.7951 22.1634 28.3756 21.6306 30 21.6306C31.6244 21.6306 33.2049 22.1634 34.5038 23.1487C35.8027 24.1341 36.7498 25.5188 37.2027 27.0946C37.703 28.848 38.5409 30.4846 39.6684 31.9104C40.7959 33.3362 42.1908 34.5233 43.7732 35.4037C45.0371 36.0884 46.038 37.1803 46.6167 38.5058C47.1954 39.8312 47.3188 41.3141 46.9671 42.7185C46.6154 44.123 45.809 45.3683 44.6759 46.2564C43.5429 47.1445 42.1484 47.6244 40.7143 47.6198Z" fill="#2A56F4"/>
</svg>
