<svg width="55" height="55" viewBox="0 0 55 55" fill="none" xmlns="http://www.w3.org/2000/svg">
<path opacity="0.2" d="M52.9999 27.3283C53.0076 30.1574 52.2426 32.9353 50.7869 35.365C49.3311 37.7948 47.2393 39.785 44.7352 41.1228C42.2311 42.4606 39.4087 43.0957 36.57 42.9602C33.7313 42.8248 30.9829 41.9238 28.6189 40.3536C28.2937 40.1335 27.9096 40.0157 27.5164 40.0157C27.1232 40.0157 26.7391 40.1335 26.414 40.3536C24.6149 41.555 22.5853 42.3723 20.4531 42.7538C18.3209 43.1353 16.1324 43.0729 14.0256 42.5704C11.9189 42.0678 9.93962 41.1362 8.21266 39.8341C6.48571 38.5321 5.04854 36.888 3.99182 35.0054C2.93509 33.1228 2.28174 31.0427 2.07297 28.8962C1.86421 26.7497 2.10455 24.5834 2.77885 22.534C3.45316 20.4846 4.54678 18.5965 5.99074 16.9889C7.4347 15.3812 9.19767 14.0889 11.1684 13.1934C11.611 12.9878 11.9604 12.6251 12.1484 12.1764C13.417 9.16157 15.5523 6.58713 18.2862 4.77655C21.02 2.96597 24.2304 2 27.514 2C30.7976 2 34.0079 2.96597 36.7417 4.77655C39.4756 6.58713 41.6109 9.16157 42.8795 12.1764C43.0675 12.6251 43.417 12.9878 43.8595 13.1934C46.5792 14.4356 48.885 16.4266 50.5047 18.9312C52.1243 21.4359 52.9902 24.3496 52.9999 27.3283Z" fill="#355FF3"/>
<path d="M44.712 11.4498C43.2911 8.05772 40.8992 5.16114 37.8368 3.12399C34.7744 1.08685 31.1782 0 27.5 0C23.8218 0 20.2256 1.08685 17.1632 3.12399C14.1008 5.16114 11.7089 8.05772 10.288 11.4498C7.23037 12.8661 4.63918 15.1235 2.81736 17.9579C0.995537 20.7923 0.0183603 24.0867 7.05898e-05 27.4559C-0.0269383 36.9858 7.70005 44.9348 17.2219 45.1803C20.1023 45.2555 22.9572 44.6224 25.5357 43.3367V53.0361C25.5357 53.5569 25.7427 54.0565 26.111 54.4248C26.4794 54.7931 26.979 55 27.5 55C28.021 55 28.5206 54.7931 28.889 54.4248C29.2573 54.0565 29.4643 53.5569 29.4643 53.0361V43.3367C31.9044 44.5534 34.5946 45.1846 37.3214 45.1803H37.7781C47.2999 44.9348 55.0269 36.9907 54.9999 27.4608C54.9835 24.0905 54.0071 20.7948 52.1851 17.9592C50.3631 15.1237 47.7709 12.8658 44.712 11.4498ZM37.6774 41.2525C34.8408 41.3301 32.0503 40.5237 29.6926 38.9449C29.6157 38.8958 29.5396 38.8491 29.4643 38.8049V28.7177L40.1647 23.3709C40.3956 23.2555 40.6014 23.0957 40.7706 22.9008C40.9397 22.7058 41.0687 22.4794 41.1504 22.2346C41.232 21.9898 41.2646 21.7313 41.2463 21.4738C41.228 21.2164 41.1591 20.9651 41.0437 20.7343C40.9283 20.5035 40.7685 20.2976 40.5735 20.1285C40.3785 19.9595 40.1521 19.8304 39.9072 19.7488C39.6624 19.6672 39.4038 19.6346 39.1463 19.6529C38.8889 19.6712 38.6375 19.74 38.4067 19.8554L29.4643 24.3283V17.6853C29.4643 17.1644 29.2573 16.6649 28.889 16.2966C28.5206 15.9283 28.021 15.7214 27.5 15.7214C26.979 15.7214 26.4794 15.9283 26.111 16.2966C25.7427 16.6649 25.5357 17.1644 25.5357 17.6853V30.2201L16.5933 25.7472C16.1271 25.5141 15.5873 25.4758 15.0928 25.6406C14.5982 25.8054 14.1894 26.1599 13.9563 26.6261C13.7232 27.0923 13.6848 27.6319 13.8496 28.1264C14.0145 28.6209 14.369 29.0296 14.8353 29.2627L25.5357 34.6095V38.7976C25.4596 38.8417 25.3835 38.8884 25.3098 38.9375C22.9521 40.5189 20.1607 41.328 17.3226 41.2525C14.2171 41.1749 11.2294 40.0483 8.84624 38.056C6.46305 36.0638 4.82481 33.3235 4.19841 30.2814C3.572 27.2393 3.99435 24.0748 5.39664 21.3034C6.79893 18.532 9.09853 16.317 11.9208 15.0193C12.8134 14.6104 13.5191 13.8802 13.8974 12.9743C15.0186 10.2952 16.9069 8.00722 19.325 6.39806C21.7431 4.7889 24.583 3.93036 27.4877 3.93036C30.3925 3.93036 33.2324 4.7889 35.6504 6.39806C38.0685 8.00722 39.9569 10.2952 41.0781 12.9743C41.4563 13.8802 42.162 14.6104 43.0546 15.0193C45.8769 16.317 48.1765 18.532 49.5788 21.3034C50.9811 24.0748 51.4034 27.2393 50.777 30.2814C50.1506 33.3235 48.5124 36.0638 46.1292 38.056C43.746 40.0483 40.7583 41.1749 37.6529 41.2525H37.6774Z" fill="#355FF3"/>
</svg>
