<svg width="59" height="54" viewBox="0 0 59 54" fill="none" xmlns="http://www.w3.org/2000/svg">
<path opacity="0.2" d="M51.5 2H6.5C5.30653 2 4.16193 2.47996 3.31802 3.33429C2.47411 4.18862 2 5.34735 2 6.55556V38.4444C2 39.6527 2.47411 40.8114 3.31802 41.6657C4.16193 42.52 5.30653 43 6.5 43H51.5C52.6935 43 53.8381 42.52 54.682 41.6657C55.5259 40.8114 56 39.6527 56 38.4444V6.55556C56 5.34735 55.5259 4.18862 54.682 3.33429C53.8381 2.47996 52.6935 2 51.5 2ZM24.5 31.6111V13.3889L38 22.5L24.5 31.6111Z" fill="#2A56F4"/>
<path d="M52.1923 0H6.80769C5.00218 0 3.27062 0.711159 1.99393 1.97703C0.717237 3.2429 0 4.95979 0 6.75V38.25C0 40.0402 0.717237 41.7571 1.99393 43.023C3.27062 44.2888 5.00218 45 6.80769 45H52.1923C53.9978 45 55.7294 44.2888 57.0061 43.023C58.2828 41.7571 59 40.0402 59 38.25V6.75C59 4.95979 58.2828 3.2429 57.0061 1.97703C55.7294 0.711159 53.9978 0 52.1923 0ZM54.4615 38.25C54.4615 38.8467 54.2225 39.419 53.7969 39.841C53.3713 40.2629 52.7941 40.5 52.1923 40.5H6.80769C6.20586 40.5 5.62867 40.2629 5.2031 39.841C4.77754 39.419 4.53846 38.8467 4.53846 38.25V6.75C4.53846 6.15326 4.77754 5.58097 5.2031 5.15901C5.62867 4.73705 6.20586 4.5 6.80769 4.5H52.1923C52.7941 4.5 53.3713 4.73705 53.7969 5.15901C54.2225 5.58097 54.4615 6.15326 54.4615 6.75V38.25ZM40.8462 51.75C40.8462 52.3467 40.6071 52.919 40.1815 53.341C39.756 53.7629 39.1788 54 38.5769 54H20.4231C19.8212 54 19.2441 53.7629 18.8185 53.341C18.3929 52.919 18.1538 52.3467 18.1538 51.75C18.1538 51.1533 18.3929 50.581 18.8185 50.159C19.2441 49.7371 19.8212 49.5 20.4231 49.5H38.5769C39.1788 49.5 39.756 49.7371 40.1815 50.159C40.6071 50.581 40.8462 51.1533 40.8462 51.75ZM39.8363 20.6269L26.221 11.6269C25.8791 11.4007 25.4818 11.2709 25.0714 11.2512C24.6609 11.2315 24.2528 11.3226 23.8905 11.5149C23.5282 11.7072 23.2254 11.9935 23.0144 12.3431C22.8034 12.6927 22.692 13.0926 22.6923 13.5V31.5C22.692 31.9074 22.8034 32.3073 23.0144 32.6569C23.2254 33.0065 23.5282 33.2928 23.8905 33.4851C24.2528 33.6774 24.6609 33.7685 25.0714 33.7488C25.4818 33.7291 25.8791 33.5993 26.221 33.3731L39.8363 24.3731C40.1476 24.1677 40.4029 23.8893 40.5794 23.5625C40.756 23.2357 40.8484 22.8707 40.8484 22.5C40.8484 22.1293 40.756 21.7643 40.5794 21.4375C40.4029 21.1107 40.1476 20.8323 39.8363 20.6269ZM27.2308 27.2953V17.7188L34.4866 22.5L27.2308 27.2953Z" fill="#2A56F4"/>
</svg>
