<svg width="17" height="17" viewBox="0 0 17 17" fill="none" xmlns="http://www.w3.org/2000/svg">
<g clip-path="url(#clip0_17_5431)">
<path d="M16.6691 15.0337L10.0511 8.5L16.6484 1.96627L16.6691 1.94578C17.0414 1.53614 17.0414 0.901205 16.6484 0.53253C16.4416 0.327711 16.1728 0.225301 15.8832 0.225301C15.6144 0.225301 15.3662 0.348193 15.18 0.53253L8.58273 7.06627L1.77859 0.307229C1.57178 0.10241 1.30292 0 1.01338 0C0.744526 0 0.49635 0.122892 0.310219 0.307229C0.124088 0.512048 0 0.778313 0.0206813 1.04458C0.0206813 1.31084 0.144769 1.55663 0.3309 1.74096L7.13504 8.5L0.310219 15.259C0.103406 15.4639 0 15.7301 0 16.0169C0 16.2831 0.124088 16.5289 0.310219 16.7133C0.454988 16.8361 0.682482 17 1.03406 17C1.40633 17 1.63382 16.8361 1.77859 16.7133L8.60341 9.95422L15.2007 16.488C15.3455 16.6313 15.573 16.7747 15.9453 16.7747C16.3175 16.7747 16.545 16.6108 16.6898 16.488C16.8966 16.2831 17 16.0169 17 15.7301C16.9793 15.4639 16.8759 15.2181 16.6691 15.0337Z" fill="#340089"/>
</g>
<defs>
<clipPath id="clip0_17_5431">
<rect width="17" height="17" fill="white"/>
</clipPath>
</defs>
</svg>
